<?xml version="1.0" encoding="utf-8"?>
<svg viewBox="307.799 637.01 152.351 131.44" xmlns="http://www.w3.org/2000/svg">
  <g>
    <title>Bear</title>
    <path stroke="none" fill="#B67340" d="M 343.9 654.45 C 340.733 649.917 336.3 646 330.6 642.7 L 328.45 641.5 C 326.183 640.567 323.467 640.967 320.3 642.7 C 316.8 644.7 313.833 647.817 311.4 652.05 C 309.433 655.417 308.283 658.75 307.95 662.05 L 307.8 660.3 C 307.767 656.3 308.967 652.217 311.4 648.05 C 313.833 643.817 316.8 640.7 320.3 638.7 C 323.467 636.967 326.183 636.567 328.45 637.5 L 330.6 638.7 C 337.4 642.633 342.4 647.433 345.6 653.1 L 343.9 654.45 M 422.35 653.15 C 425.517 647.45 430.517 642.633 437.35 638.7 L 439.5 637.5 C 441.767 636.567 444.483 636.967 447.65 638.7 C 451.15 640.7 454.117 643.817 456.55 648.05 C 458.983 652.217 460.183 656.3 460.15 660.3 L 460.05 662.05 C 459.683 658.75 458.517 655.417 456.55 652.05 C 454.117 647.817 451.15 644.7 447.65 642.7 C 444.483 640.967 441.767 640.567 439.5 641.5 L 437.35 642.7 C 431.617 646.033 427.183 649.967 424.05 654.5 L 422.35 653.15"/>
    <path stroke="none" fill="#8E5A32" d="M 337.8 660.1 C 335.6 657.933 333 655.967 330 654.2 L 328.25 653.25 C 326.383 652.483 324.133 652.8 321.5 654.2 C 318.633 655.867 316.2 658.45 314.2 661.95 C 312.9 664.15 312.033 666.333 311.6 668.5 L 310.85 668 C 309.217 666.767 308.25 664.783 307.95 662.05 C 308.283 658.75 309.433 655.417 311.4 652.05 C 313.833 647.817 316.8 644.7 320.3 642.7 C 323.467 640.967 326.183 640.567 328.45 641.5 L 330.6 642.7 C 336.3 646 340.733 649.917 343.9 654.45 C 342.133 655.883 340.4 657.45 338.7 659.15 L 337.8 660.1 M 460.05 662.05 C 459.717 664.783 458.733 666.767 457.1 668 L 456.35 668.5 C 455.917 666.333 455.05 664.15 453.75 661.95 C 451.75 658.45 449.317 655.867 446.45 654.2 C 443.817 652.8 441.567 652.483 439.7 653.25 L 437.95 654.2 C 434.917 655.967 432.317 657.95 430.15 660.15 L 429.2 659.15 C 427.533 657.483 425.817 655.933 424.05 654.5 C 427.183 649.967 431.617 646.033 437.35 642.7 L 439.5 641.5 C 441.767 640.567 444.483 640.967 447.65 642.7 C 451.15 644.7 454.117 647.817 456.55 652.05 C 458.517 655.417 459.683 658.75 460.05 662.05"/>
    <path stroke="none" fill="#774B2A" d="M 311.6 668.5 C 312.033 666.333 312.9 664.15 314.2 661.95 C 316.2 658.45 318.633 655.867 321.5 654.2 C 324.133 652.8 326.383 652.483 328.25 653.25 L 330 654.2 C 333 655.967 335.6 657.933 337.8 660.1 C 333.433 664.633 329.867 669.483 327.1 674.65 C 322.467 673.817 317.733 672.017 312.9 669.25 L 311.6 668.5 M 456.35 668.5 L 455.05 669.25 C 450.217 672.05 445.467 673.85 440.8 674.65 C 438.033 669.483 434.483 664.65 430.15 660.15 C 432.317 657.95 434.917 655.967 437.95 654.2 L 439.7 653.25 C 441.567 652.483 443.817 652.8 446.45 654.2 C 449.317 655.867 451.75 658.45 453.75 661.95 C 455.05 664.15 455.917 666.333 456.35 668.5"/>
    <path stroke="none" fill="#BD7841" d="M 327.1 674.65 C 329.867 669.483 333.433 664.633 337.8 660.1 L 338.7 659.15 C 340.4 657.45 342.133 655.883 343.9 654.45 L 345.6 653.1 C 356.633 644.667 369.417 640.45 383.95 640.45 C 398.517 640.45 411.317 644.683 422.35 653.15 L 424.05 654.5 C 425.817 655.933 427.533 657.483 429.2 659.15 L 430.15 660.15 C 434.483 664.65 438.033 669.483 440.8 674.65 C 445.567 683.617 447.95 693.55 447.95 704.45 L 447.95 706.45 C 447.483 689.65 441.233 675.217 429.2 663.15 C 419.133 653.117 407.383 647.117 393.95 645.15 L 383.95 644.45 L 373.95 645.15 C 360.517 647.117 348.767 653.117 338.7 663.15 C 326.667 675.217 320.433 689.65 320 706.45 L 319.95 704.45 C 319.95 693.55 322.333 683.617 327.1 674.65"/>
    <path stroke="none" fill="#A16639" d="M 447.95 706.45 C 447.683 716.383 445.4 725.467 441.1 733.7 C 438.1 739.433 434.133 744.75 429.2 749.65 L 426.95 751.8 L 423.05 755.15 C 412.25 745.983 399.217 741.4 383.95 741.4 C 368.717 741.4 355.683 745.983 344.85 755.15 L 340.95 751.8 L 338.7 749.65 C 326.667 737.65 320.433 723.25 320 706.45 C 320.433 689.65 326.667 675.217 338.7 663.15 C 348.767 653.117 360.517 647.117 373.95 645.15 L 383.95 644.45 L 393.95 645.15 C 407.383 647.117 419.133 653.117 429.2 663.15 C 441.233 675.217 447.483 689.65 447.95 706.45 M 401.45 663.9 C 401.45 660.433 399.733 657.483 396.3 655.05 C 392.9 652.617 388.783 651.4 383.95 651.4 C 379.117 651.4 374.983 652.617 371.55 655.05 C 368.15 657.483 366.45 660.433 366.45 663.9 L 366.5 664.75 C 366.733 671.817 368.417 677.9 371.55 683 C 374.983 688.6 379.117 691.4 383.95 691.4 C 388.783 691.4 392.9 688.6 396.3 683 C 399.467 677.9 401.183 671.817 401.45 664.75 L 401.45 663.9"/>
    <path stroke="none" fill="#AA6C3C" d="M 401.45 663.9 L 401.45 664.75 C 401.183 671.817 399.467 677.9 396.3 683 C 392.9 688.6 388.783 691.4 383.95 691.4 C 379.117 691.4 374.983 688.6 371.55 683 C 368.417 677.9 366.733 671.817 366.5 664.75 L 366.45 663.9 C 366.45 660.433 368.15 657.483 371.55 655.05 C 374.983 652.617 379.117 651.4 383.95 651.4 C 388.783 651.4 392.9 652.617 396.3 655.05 C 399.733 657.483 401.45 660.433 401.45 663.9"/>
    <path stroke="none" fill="#955E34" d="M 423.05 755.15 C 411.85 764.017 398.817 768.45 383.95 768.45 C 369.083 768.45 356.05 764.017 344.85 755.15 C 355.683 745.983 368.717 741.4 383.95 741.4 C 399.217 741.4 412.25 745.983 423.05 755.15"/>
    <path stroke="none" fill="#545454" d="M 371.1 707.65 L 370.9 705.3 L 370.9 704.4 C 371.1 702.8 372.367 701.433 374.7 700.3 C 377.267 699.067 380.35 698.45 383.95 698.45 C 387.55 698.45 390.633 699.067 393.2 700.3 C 395.5 701.433 396.767 702.8 397 704.4 L 397 705.3 L 396.8 707.65 C 396.333 706.383 395.133 705.267 393.2 704.3 C 390.633 703.067 387.55 702.45 383.95 702.45 C 380.35 702.45 377.267 703.067 374.7 704.3 C 372.767 705.233 371.567 706.35 371.1 707.65"/>
    <path stroke="none" fill="#464646" d="M 371.1 707.65 C 371.567 706.35 372.767 705.233 374.7 704.3 C 377.267 703.067 380.35 702.45 383.95 702.45 C 387.55 702.45 390.633 703.067 393.2 704.3 C 395.133 705.267 396.333 706.383 396.8 707.65 C 396.367 710.283 395.167 712.583 393.2 714.55 C 391.767 715.983 390.167 717.017 388.4 717.65 C 385.567 718.817 382.6 718.817 379.5 717.65 C 377.733 717.017 376.133 715.983 374.7 714.55 C 372.733 712.583 371.533 710.283 371.1 707.65"/>
    <path stroke="none" fill="#383838" d="M 388.4 717.65 L 389.25 718.65 C 389.883 719.283 390.567 719.783 391.3 720.15 C 392.233 720.583 393.25 720.8 394.35 720.8 C 396.35 720.8 398.067 720.083 399.5 718.65 L 400.75 717 L 401.25 716.55 L 401.95 716.6 L 406.65 719.05 L 407.1 719.55 L 407.05 720.2 L 405.55 722.5 L 404.5 723.65 C 401.667 726.45 398.283 727.85 394.35 727.85 C 390.417 727.85 387.05 726.45 384.25 723.65 L 383.95 723.35 L 383.65 723.65 C 380.817 726.45 377.433 727.85 373.5 727.85 C 369.533 727.85 366.167 726.45 363.4 723.65 L 362.35 722.5 C 361.75 721.767 361.25 721.033 360.85 720.3 C 360.717 720.067 360.7 719.85 360.8 719.65 C 360.833 719.417 360.967 719.233 361.2 719.1 L 365.8 716.55 L 366.45 716.45 L 367 716.9 C 367.367 717.533 367.817 718.117 368.35 718.65 C 369.783 720.083 371.5 720.8 373.5 720.8 C 374.6 720.8 375.633 720.583 376.6 720.15 L 378.65 718.65 L 379.5 717.65 C 382.6 718.817 385.567 718.817 388.4 717.65"/>
    <path stroke="none" fill="#FFFFFF" d="M 422.65 692.25 C 422.65 690.617 422.083 689.25 420.95 688.15 C 419.817 687.017 418.45 686.45 416.85 686.45 C 415.25 686.45 413.867 687.017 412.7 688.15 C 411.567 689.25 411 690.617 411 692.25 C 411 693.85 411.567 695.2 412.7 696.3 C 413.867 697.467 415.25 698.05 416.85 698.05 C 418.45 698.05 419.817 697.467 420.95 696.3 C 422.083 695.2 422.65 693.85 422.65 692.25 M 427.15 692.1 C 427.15 694.667 426.25 696.817 424.45 698.55 C 422.617 700.417 420.417 701.35 417.85 701.35 C 415.317 701.35 413.133 700.417 411.3 698.55 C 409.5 696.817 408.6 694.667 408.6 692.1 C 408.6 689.533 409.5 687.35 411.3 685.55 C 413.133 683.75 415.317 682.85 417.85 682.85 C 420.417 682.85 422.617 683.75 424.45 685.55 C 426.25 687.35 427.15 689.533 427.15 692.1 M 340.75 692.1 C 340.75 689.533 341.65 687.35 343.45 685.55 C 345.283 683.75 347.483 682.85 350.05 682.85 C 352.583 682.85 354.767 683.75 356.6 685.55 C 358.4 687.35 359.3 689.533 359.3 692.1 C 359.3 694.667 358.4 696.817 356.6 698.55 C 354.767 700.417 352.583 701.35 350.05 701.35 C 347.483 701.35 345.283 700.417 343.45 698.55 C 341.65 696.817 340.75 694.667 340.75 692.1 M 345.25 692.25 C 345.25 693.85 345.817 695.2 346.95 696.3 C 348.083 697.467 349.45 698.05 351.05 698.05 C 352.65 698.05 354.033 697.467 355.2 696.3 C 356.333 695.2 356.9 693.85 356.9 692.25 C 356.9 690.617 356.333 689.25 355.2 688.15 C 354.033 687.017 352.65 686.45 351.05 686.45 C 349.45 686.45 348.083 687.017 346.95 688.15 C 345.817 689.25 345.25 690.617 345.25 692.25"/>
    <path stroke="none" fill="#5B5B5B" d="M 345.25 692.25 C 345.25 690.617 345.817 689.25 346.95 688.15 C 348.083 687.017 349.45 686.45 351.05 686.45 C 352.65 686.45 354.033 687.017 355.2 688.15 C 356.333 689.25 356.9 690.617 356.9 692.25 C 356.9 693.85 356.333 695.2 355.2 696.3 C 354.033 697.467 352.65 698.05 351.05 698.05 C 349.45 698.05 348.083 697.467 346.95 696.3 C 345.817 695.2 345.25 693.85 345.25 692.25 M 422.65 692.25 C 422.65 693.85 422.083 695.2 420.95 696.3 C 419.817 697.467 418.45 698.05 416.85 698.05 C 415.25 698.05 413.867 697.467 412.7 696.3 C 411.567 695.2 411 693.85 411 692.25 C 411 690.617 411.567 689.25 412.7 688.15 C 413.867 687.017 415.25 686.45 416.85 686.45 C 418.45 686.45 419.817 687.017 420.95 688.15 C 422.083 689.25 422.65 690.617 422.65 692.25"/>
    <path stroke="none" fill="#8E5A32" d="M 427.15 692.1 C 427.15 689.533 426.25 687.35 424.45 685.55 C 422.617 683.75 420.417 682.85 417.85 682.85 C 415.317 682.85 413.133 683.75 411.3 685.55 C 409.5 687.35 408.6 689.533 408.6 692.1 C 408.6 694.667 409.5 696.817 411.3 698.55 C 413.133 700.417 415.317 701.35 417.85 701.35 C 420.417 701.35 422.617 700.417 424.45 698.55 C 426.25 696.817 427.15 694.667 427.15 692.1 M 432.8 688.65 C 434.067 693.45 433.75 697.9 431.85 702 C 429.917 706.2 426.95 708.833 422.95 709.9 C 418.983 710.933 415.117 710.117 411.35 707.45 C 407.65 704.883 405.15 701.2 403.85 696.4 L 403.85 696.35 C 402.783 692.35 403.283 688.567 405.35 685 C 407.45 681.4 410.483 679.083 414.45 678.05 C 418.45 676.983 422.25 677.483 425.85 679.55 C 429.383 681.583 431.7 684.6 432.8 688.6 L 432.8 688.65 M 335.1 688.65 L 335.1 688.6 C 336.2 684.6 338.517 681.583 342.05 679.55 C 345.65 677.483 349.45 676.983 353.45 678.05 C 357.417 679.083 360.45 681.4 362.55 685 C 364.617 688.567 365.117 692.35 364.05 696.35 L 364.05 696.4 C 362.75 701.2 360.25 704.883 356.55 707.45 C 352.783 710.117 348.917 710.933 344.95 709.9 C 340.95 708.833 337.983 706.2 336.05 702 C 334.15 697.9 333.833 693.45 335.1 688.65 M 340.75 692.1 C 340.75 694.667 341.65 696.817 343.45 698.55 C 345.283 700.417 347.483 701.35 350.05 701.35 C 352.583 701.35 354.767 700.417 356.6 698.55 C 358.4 696.817 359.3 694.667 359.3 692.1 C 359.3 689.533 358.4 687.35 356.6 685.55 C 354.767 683.75 352.583 682.85 350.05 682.85 C 347.483 682.85 345.283 683.75 343.45 685.55 C 341.65 687.35 340.75 689.533 340.75 692.1"/>
  </g>
</svg>