<?xml version="1.0" encoding="utf-8"?>
<svg viewBox="36.58 1001.725 182.84 170.261" xmlns="http://www.w3.org/2000/svg">
  <g>
    <title>Bison</title>
    <path stroke="none" fill="#704E35" d="M 109.05 1162.95 C 108.35 1160.983 108.9 1158.3 110.7 1154.9 C 112.5 1151.4 115.083 1148.233 118.45 1145.4 C 124.55 1140.3 130.917 1140.3 137.55 1145.4 C 140.917 1148.233 143.483 1151.4 145.25 1154.9 C 147.083 1158.3 147.65 1160.967 146.95 1162.9 C 146.617 1161.7 146.05 1160.367 145.25 1158.9 C 143.483 1155.4 140.917 1152.233 137.55 1149.4 C 130.917 1144.3 124.55 1144.3 118.45 1149.4 C 115.083 1152.233 112.5 1155.4 110.7 1158.9 C 109.9 1160.367 109.35 1161.717 109.05 1162.95"/>
    <path stroke="none" fill="#5F422D" d="M 109.05 1162.95 C 109.35 1161.717 109.9 1160.367 110.7 1158.9 C 112.5 1155.4 115.083 1152.233 118.45 1149.4 C 124.55 1144.3 130.917 1144.3 137.55 1149.4 C 140.917 1152.233 143.483 1155.4 145.25 1158.9 C 146.05 1160.367 146.617 1161.7 146.95 1162.9 L 146.85 1163.05 C 146.083 1165.117 144.2 1165.85 141.2 1165.25 C 139.167 1164.817 137.033 1163.85 134.8 1162.35 C 135.167 1163.817 135.4 1165.233 135.5 1166.6 L 135.55 1166.85 C 135.65 1168.117 135.617 1169.167 135.45 1170 C 135.317 1170.767 135.05 1171.317 134.65 1171.65 C 133.817 1172.383 132.65 1171.917 131.15 1170.25 C 130.017 1168.917 128.967 1167.15 128 1164.95 C 127 1167.15 125.933 1168.917 124.8 1170.25 C 123.333 1171.917 122.167 1172.383 121.3 1171.65 C 120.933 1171.317 120.667 1170.767 120.5 1170 C 120.333 1169.167 120.317 1168.133 120.45 1166.9 L 120.45 1166.6 C 120.583 1165.233 120.833 1163.817 121.2 1162.35 C 118.967 1163.85 116.833 1164.817 114.8 1165.25 C 111.8 1165.85 109.9 1165.117 109.1 1163.05 L 109.05 1162.95"/>
    <path stroke="none" fill="#5F422D" d="M 85 1060.3 L 81.65 1059.25 L 80.3 1058.8 C 74.767 1057.633 68.65 1057.733 61.95 1059.1 L 60.05 1059.55 C 58.017 1060.117 56.55 1061.5 55.65 1063.7 C 54.75 1066.267 54.85 1069.05 55.95 1072.05 C 57.05 1075.083 58.817 1077.533 61.25 1079.4 C 62.383 1080.2 63.467 1080.767 64.5 1081.1 L 60 1082.4 L 57 1083 L 54.2 1083.55 L 53 1083.6 C 51.633 1083.167 50.3 1082.433 49 1081.4 C 45.6 1078.9 43.133 1075.5 41.6 1071.2 C 40.133 1067.067 40.017 1063.25 41.25 1059.75 C 42.45 1056.65 44.433 1054.683 47.2 1053.85 L 50 1053.2 C 58.233 1051.567 65.8 1051.3 72.7 1052.4 C 78.9 1053.967 82.917 1056.417 84.75 1059.75 L 85 1060.3 M 183.3 1052.4 C 190.2 1051.3 197.767 1051.567 206 1053.2 L 208.8 1053.85 C 211.567 1054.65 213.55 1056.6 214.75 1059.7 C 215.983 1063.233 215.867 1067.067 214.4 1071.2 C 212.9 1075.467 210.433 1078.867 207 1081.4 C 205.7 1082.433 204.367 1083.15 203 1083.55 L 201.8 1083.55 L 199 1082.95 L 196 1082.35 L 191.5 1081.05 C 192.533 1080.717 193.617 1080.167 194.75 1079.4 C 197.183 1077.5 198.95 1075.033 200.05 1072 C 201.15 1069 201.25 1066.233 200.35 1063.7 C 199.45 1061.5 197.983 1060.117 195.95 1059.55 C 195.383 1059.283 194.75 1059.133 194.05 1059.1 C 187.35 1057.7 181.233 1057.6 175.7 1058.8 L 174.35 1059.2 L 172.65 1059.7 L 171 1060.25 L 171.25 1059.75 C 172.517 1057.383 174.867 1055.467 178.3 1054 C 179.8 1053.4 181.467 1052.867 183.3 1052.4"/>
    <path stroke="none" fill="#4F3725" d="M 64.5 1081.1 C 63.467 1080.767 62.383 1080.2 61.25 1079.4 C 58.817 1077.533 57.05 1075.083 55.95 1072.05 C 54.85 1069.05 54.75 1066.267 55.65 1063.7 C 56.55 1061.5 58.017 1060.117 60.05 1059.55 L 61.95 1059.1 C 68.65 1057.733 74.767 1057.633 80.3 1058.8 L 81.65 1059.25 L 85 1060.3 L 85.3 1060.9 C 86.1 1063.167 85.917 1065.417 84.75 1067.65 C 83.717 1069.683 81.883 1071.717 79.25 1073.75 C 75.583 1076.583 71.15 1078.883 65.95 1080.65 L 64.5 1081.1 M 191.5 1081.05 L 190.05 1080.65 C 184.85 1078.883 180.417 1076.567 176.75 1073.7 C 174.117 1071.7 172.283 1069.683 171.25 1067.65 C 170.283 1065.75 169.983 1063.867 170.35 1062 L 170.7 1060.85 L 171 1060.25 L 172.65 1059.7 L 174.35 1059.2 L 175.7 1058.8 C 181.233 1057.6 187.35 1057.7 194.05 1059.1 C 194.75 1059.133 195.383 1059.283 195.95 1059.55 C 197.983 1060.117 199.45 1061.5 200.35 1063.7 C 201.25 1066.233 201.15 1069 200.05 1072 C 198.95 1075.033 197.183 1077.5 194.75 1079.4 C 193.617 1080.167 192.533 1080.717 191.5 1081.05"/>
    <path stroke="none" fill="#704E35" d="M 72.7 1052.4 C 65.8 1051.3 58.233 1051.567 50 1053.2 L 47.2 1053.85 C 44.433 1054.683 42.45 1056.65 41.25 1059.75 C 40.017 1063.25 40.133 1067.067 41.6 1071.2 C 43.133 1075.5 45.6 1078.9 49 1081.4 C 50.3 1082.433 51.633 1083.167 53 1083.6 C 50.433 1083.533 47.783 1082.533 45.05 1080.6 C 41.75 1078.067 39.333 1074.683 37.8 1070.45 C 36.3 1066.25 36.183 1062.417 37.45 1058.95 C 38.617 1055.85 40.6 1053.883 43.4 1053.05 L 46 1052.5 C 55.367 1050.6 63.867 1050.467 71.5 1052.1 L 72.7 1052.4 M 183.3 1052.4 L 184.5 1052.05 C 192.133 1050.417 200.633 1050.55 210 1052.45 L 212.6 1053 C 215.4 1053.867 217.383 1055.85 218.55 1058.95 C 219.817 1062.417 219.7 1066.25 218.2 1070.45 C 216.667 1074.683 214.25 1078.067 210.95 1080.6 C 208.217 1082.533 205.567 1083.517 203 1083.55 C 204.367 1083.15 205.7 1082.433 207 1081.4 C 210.433 1078.867 212.9 1075.467 214.4 1071.2 C 215.867 1067.067 215.983 1063.233 214.75 1059.7 C 213.55 1056.6 211.567 1054.65 208.8 1053.85 L 206 1053.2 C 197.767 1051.567 190.2 1051.3 183.3 1052.4"/>
    <path stroke="none" fill="#BD7841" d="M 192 1090.55 C 191.533 1073.75 185.283 1059.317 173.25 1047.25 C 163.183 1037.217 151.433 1031.217 138 1029.25 L 128 1028.55 L 118 1029.25 C 104.567 1031.217 92.817 1037.217 82.75 1047.25 C 70.717 1059.317 64.483 1073.75 64.05 1090.55 L 64 1088.55 C 64 1077.65 66.383 1067.717 71.15 1058.75 C 73.917 1053.583 77.483 1048.733 81.85 1044.2 L 82.75 1043.25 C 84.45 1041.55 86.183 1039.983 87.95 1038.55 L 89.65 1037.2 C 100.683 1028.767 113.467 1024.55 128 1024.55 C 142.567 1024.55 155.367 1028.783 166.4 1037.25 L 168.1 1038.6 L 173.25 1043.25 L 174.2 1044.25 C 178.533 1048.75 182.083 1053.583 184.85 1058.75 C 189.617 1067.717 192 1077.65 192 1088.55 L 192 1090.55"/>
    <path stroke="none" fill="#A16639" d="M 192 1090.55 C 191.733 1100.483 189.45 1109.567 185.15 1117.8 C 182.15 1123.533 178.183 1128.85 173.25 1133.75 L 171 1135.9 L 167.1 1139.25 C 156.3 1130.083 143.267 1125.5 128 1125.5 C 112.767 1125.5 99.733 1130.083 88.9 1139.25 L 85 1135.9 L 82.75 1133.75 C 70.717 1121.75 64.483 1107.35 64.05 1090.55 C 64.483 1073.75 70.717 1059.317 82.75 1047.25 C 92.817 1037.217 104.567 1031.217 118 1029.25 L 128 1028.55 L 138 1029.25 C 151.433 1031.217 163.183 1037.217 173.25 1047.25 C 185.283 1059.317 191.533 1073.75 192 1090.55 M 145.5 1060.35 C 145.5 1053.45 143.783 1047.583 140.35 1042.75 C 136.95 1037.917 132.833 1035.5 128 1035.5 C 123.167 1035.5 119.033 1037.917 115.6 1042.75 C 112.2 1047.583 110.5 1053.45 110.5 1060.35 L 110.55 1062.05 C 110.783 1076.083 112.467 1088.167 115.6 1098.3 C 119.033 1109.433 123.167 1115 128 1115 C 132.833 1115 136.95 1109.433 140.35 1098.3 C 143.517 1088.167 145.233 1076.083 145.5 1062.05 L 145.5 1060.35"/>
    <path stroke="none" fill="#B6733F" d="M 145.5 1060.35 L 145.5 1062.05 C 145.233 1076.083 143.517 1088.167 140.35 1098.3 C 136.95 1109.433 132.833 1115 128 1115 C 123.167 1115 119.033 1109.433 115.6 1098.3 C 112.467 1088.167 110.783 1076.083 110.55 1062.05 L 110.5 1060.35 C 110.5 1053.45 112.2 1047.583 115.6 1042.75 C 119.033 1037.917 123.167 1035.5 128 1035.5 C 132.833 1035.5 136.95 1037.917 140.35 1042.75 C 143.783 1047.583 145.5 1053.45 145.5 1060.35"/>
    <path stroke="none" fill="#955E34" d="M 88.9 1139.25 C 99.733 1130.083 112.767 1125.5 128 1125.5 C 143.267 1125.5 156.3 1130.083 167.1 1139.25 C 155.9 1148.117 142.867 1152.55 128 1152.55 C 113.133 1152.55 100.1 1148.117 88.9 1139.25"/>
    <path stroke="none" fill="#464646" d="M 123.5 1131.8 L 123.2 1131.7 L 123.25 1131.7 C 121.317 1131 119.583 1129.883 118.05 1128.35 C 116.483 1126.817 115.383 1125.083 114.75 1123.15 C 114.65 1122.883 114.667 1122.633 114.8 1122.4 L 115.3 1121.9 L 116.05 1121.85 L 119.85 1122.95 C 125.55 1124.217 131 1124.217 136.2 1122.95 L 136.25 1122.95 L 140.05 1121.9 L 140.75 1121.95 L 141.3 1122.45 L 141.3 1123.2 C 140.6 1125.1 139.483 1126.817 137.95 1128.35 C 136.417 1129.883 134.7 1131 132.8 1131.7 L 132.85 1131.7 L 132.5 1131.85 L 129.8 1132.5 L 128.85 1132.6 L 126.7 1132.55 L 125.95 1132.45 L 123.5 1131.8"/>
    <path stroke="none" fill="#383838" d="M 123.5 1131.8 L 125.95 1132.45 L 126.7 1132.55 L 128.85 1132.6 L 129.8 1132.5 L 132.5 1131.85 L 133.3 1132.75 C 133.933 1133.383 134.617 1133.883 135.35 1134.25 C 136.283 1134.683 137.3 1134.9 138.4 1134.9 C 140.4 1134.9 142.117 1134.183 143.55 1132.75 L 144.8 1131.1 L 145.3 1130.65 L 146 1130.7 L 150.7 1133.15 L 151.15 1133.65 L 151.1 1134.3 L 149.6 1136.6 L 148.55 1137.75 C 145.717 1140.55 142.333 1141.95 138.4 1141.95 C 134.467 1141.95 131.1 1140.55 128.3 1137.75 L 128 1137.45 L 127.7 1137.75 C 124.867 1140.55 121.483 1141.95 117.55 1141.95 C 113.583 1141.95 110.217 1140.55 107.45 1137.75 L 106.4 1136.6 L 104.9 1134.4 C 104.767 1134.167 104.75 1133.95 104.85 1133.75 C 104.883 1133.517 105.017 1133.333 105.25 1133.2 L 109.85 1130.65 L 110.5 1130.55 L 111.05 1131 L 112.4 1132.75 C 113.833 1134.183 115.55 1134.9 117.55 1134.9 C 118.65 1134.9 119.683 1134.683 120.65 1134.25 L 122.7 1132.75 L 123.5 1131.8"/>
    <path stroke="none" fill="#5B5B5B" d="M 89.3 1080.35 C 89.3 1078.717 89.867 1077.35 91 1076.25 C 92.133 1075.117 93.5 1074.55 95.1 1074.55 C 96.7 1074.55 98.083 1075.117 99.25 1076.25 C 100.383 1077.35 100.95 1078.717 100.95 1080.35 C 100.95 1081.95 100.383 1083.3 99.25 1084.4 C 98.083 1085.567 96.7 1086.15 95.1 1086.15 C 93.5 1086.15 92.133 1085.567 91 1084.4 C 89.867 1083.3 89.3 1081.95 89.3 1080.35 M 166.7 1080.35 C 166.7 1081.95 166.133 1083.3 165 1084.4 C 163.867 1085.567 162.5 1086.15 160.9 1086.15 C 159.3 1086.15 157.917 1085.567 156.75 1084.4 C 155.617 1083.3 155.05 1081.95 155.05 1080.35 C 155.05 1078.717 155.617 1077.35 156.75 1076.25 C 157.917 1075.117 159.3 1074.55 160.9 1074.55 C 162.5 1074.55 163.867 1075.117 165 1076.25 C 166.133 1077.35 166.7 1078.717 166.7 1080.35"/>
    <path stroke="none" fill="#FFFFFF" d="M 166.7 1080.35 C 166.7 1078.717 166.133 1077.35 165 1076.25 C 163.867 1075.117 162.5 1074.55 160.9 1074.55 C 159.3 1074.55 157.917 1075.117 156.75 1076.25 C 155.617 1077.35 155.05 1078.717 155.05 1080.35 C 155.05 1081.95 155.617 1083.3 156.75 1084.4 C 157.917 1085.567 159.3 1086.15 160.9 1086.15 C 162.5 1086.15 163.867 1085.567 165 1084.4 C 166.133 1083.3 166.7 1081.95 166.7 1080.35 M 84.8 1080.2 C 84.8 1077.633 85.7 1075.45 87.5 1073.65 C 89.333 1071.85 91.533 1070.95 94.1 1070.95 C 96.633 1070.95 98.817 1071.85 100.65 1073.65 C 102.45 1075.45 103.35 1077.633 103.35 1080.2 C 103.35 1082.767 102.45 1084.917 100.65 1086.65 C 98.817 1088.517 96.633 1089.45 94.1 1089.45 C 91.533 1089.45 89.333 1088.517 87.5 1086.65 C 85.7 1084.917 84.8 1082.767 84.8 1080.2 M 89.3 1080.35 C 89.3 1081.95 89.867 1083.3 91 1084.4 C 92.133 1085.567 93.5 1086.15 95.1 1086.15 C 96.7 1086.15 98.083 1085.567 99.25 1084.4 C 100.383 1083.3 100.95 1081.95 100.95 1080.35 C 100.95 1078.717 100.383 1077.35 99.25 1076.25 C 98.083 1075.117 96.7 1074.55 95.1 1074.55 C 93.5 1074.55 92.133 1075.117 91 1076.25 C 89.867 1077.35 89.3 1078.717 89.3 1080.35 M 171.2 1080.2 C 171.2 1082.767 170.3 1084.917 168.5 1086.65 C 166.667 1088.517 164.467 1089.45 161.9 1089.45 C 159.367 1089.45 157.183 1088.517 155.35 1086.65 C 153.55 1084.917 152.65 1082.767 152.65 1080.2 C 152.65 1077.633 153.55 1075.45 155.35 1073.65 C 157.183 1071.85 159.367 1070.95 161.9 1070.95 C 164.467 1070.95 166.667 1071.85 168.5 1073.65 C 170.3 1075.45 171.2 1077.633 171.2 1080.2"/>
    <path stroke="none" fill="#8E5A32" d="M 171.2 1080.2 C 171.2 1077.633 170.3 1075.45 168.5 1073.65 C 166.667 1071.85 164.467 1070.95 161.9 1070.95 C 159.367 1070.95 157.183 1071.85 155.35 1073.65 C 153.55 1075.45 152.65 1077.633 152.65 1080.2 C 152.65 1082.767 153.55 1084.917 155.35 1086.65 C 157.183 1088.517 159.367 1089.45 161.9 1089.45 C 164.467 1089.45 166.667 1088.517 168.5 1086.65 C 170.3 1084.917 171.2 1082.767 171.2 1080.2 M 84.8 1080.2 C 84.8 1082.767 85.7 1084.917 87.5 1086.65 C 89.333 1088.517 91.533 1089.45 94.1 1089.45 C 96.633 1089.45 98.817 1088.517 100.65 1086.65 C 102.45 1084.917 103.35 1082.767 103.35 1080.2 C 103.35 1077.633 102.45 1075.45 100.65 1073.65 C 98.817 1071.85 96.633 1070.95 94.1 1070.95 C 91.533 1070.95 89.333 1071.85 87.5 1073.65 C 85.7 1075.45 84.8 1077.633 84.8 1080.2 M 79.15 1076.75 L 79.15 1076.7 C 80.25 1072.7 82.567 1069.683 86.1 1067.65 C 89.7 1065.583 93.5 1065.083 97.5 1066.15 C 101.467 1067.183 104.5 1069.5 106.6 1073.1 C 108.667 1076.667 109.167 1080.45 108.1 1084.45 L 108.1 1084.5 C 106.8 1089.3 104.3 1092.983 100.6 1095.55 C 96.833 1098.217 92.967 1099.033 89 1098 C 85 1096.933 82.033 1094.3 80.1 1090.1 C 78.2 1086 77.883 1081.55 79.15 1076.75 M 176.85 1076.75 C 178.117 1081.55 177.8 1086 175.9 1090.1 C 173.967 1094.3 171 1096.933 167 1098 C 163.033 1099.033 159.167 1098.217 155.4 1095.55 C 151.7 1092.983 149.2 1089.3 147.9 1084.5 L 147.9 1084.45 C 146.833 1080.45 147.333 1076.667 149.4 1073.1 C 151.5 1069.5 154.533 1067.183 158.5 1066.15 C 162.5 1065.083 166.3 1065.583 169.9 1067.65 C 173.433 1069.683 175.75 1072.7 176.85 1076.7 L 176.85 1076.75"/>
    <path stroke="none" fill="#FFDFC6" d="M 108.05 1045.1 C 107.117 1042.667 104.7 1040.067 100.8 1037.3 C 89.8 1029.333 80.217 1017.583 72.05 1002.05 L 72 1002.05 C 72.167 1001.917 72.35 1001.833 72.55 1001.8 C 72.85 1001.7 73.133 1001.7 73.4 1001.8 L 74.05 1002.4 C 82.217 1016.067 91.8 1025.633 102.8 1031.1 C 109.567 1034.367 111.883 1038.1 109.75 1042.3 L 109.75 1042.35 L 108.05 1045.1 M 147.95 1045.1 L 146.25 1042.35 L 146.25 1042.3 C 144.117 1038.1 146.433 1034.367 153.2 1031.1 C 164.2 1025.633 173.783 1016.067 181.95 1002.4 L 182.6 1001.8 C 182.867 1001.7 183.15 1001.7 183.45 1001.8 L 184 1002.05 L 183.95 1002.05 C 175.783 1017.583 166.2 1029.333 155.2 1037.3 C 151.3 1040.067 148.883 1042.667 147.95 1045.1"/>
    <path stroke="none" fill="#EBCEB7" d="M 147.95 1045.1 C 148.883 1042.667 151.3 1040.067 155.2 1037.3 C 166.2 1029.333 175.783 1017.583 183.95 1002.05 L 184 1002.05 L 184.15 1002.2 L 184.45 1003.05 C 184.983 1019.35 179.8 1033.983 168.9 1046.95 L 168.95 1046.95 C 165.017 1052.017 160.117 1053.117 154.25 1050.25 C 151.683 1048.983 149.583 1047.267 147.95 1045.1 M 108.05 1045.1 C 106.417 1047.267 104.317 1048.983 101.75 1050.25 C 95.883 1053.117 90.983 1052.017 87.05 1046.95 L 87.1 1046.95 C 76.2 1033.983 71.017 1019.35 71.55 1003.05 L 71.85 1002.2 L 72 1002.05 L 72.05 1002.05 C 80.217 1017.583 89.8 1029.333 100.8 1037.3 C 104.7 1040.067 107.117 1042.667 108.05 1045.1"/>
  </g>
</svg>