<?xml version="1.0" encoding="utf-8"?>
<svg viewBox="307.799 256 152.351 128" xmlns="http://www.w3.org/2000/svg">
  <g>
    <title>Blue dude</title>
    <path stroke="none" fill="#528CDB" d="M 460.05 284.4 C 459.683 281.1 458.517 277.767 456.55 274.4 C 454.117 270.167 451.15 267.05 447.65 265.05 C 444.483 263.317 441.767 262.917 439.5 263.85 L 437.35 265.05 C 430.917 268.783 426.117 273.267 422.95 278.5 L 422.35 278 L 421.4 277.25 L 422.15 275.85 C 425.317 270.017 430.383 265.083 437.35 261.05 L 439.5 259.85 C 441.767 258.917 444.483 259.317 447.65 261.05 C 451.15 263.05 454.117 266.167 456.55 270.4 C 458.983 274.567 460.183 278.65 460.15 282.65 L 460.05 284.4 M 345 278.45 C 341.8 273.217 337 268.75 330.6 265.05 L 328.45 263.85 C 326.183 262.917 323.467 263.317 320.3 265.05 C 316.8 267.05 313.833 270.167 311.4 274.4 C 309.433 277.767 308.283 281.1 307.95 284.4 L 307.8 282.65 C 307.767 278.65 308.967 274.567 311.4 270.4 C 313.833 266.167 316.8 263.05 320.3 261.05 C 323.467 259.317 326.183 258.917 328.45 259.85 L 330.6 261.05 C 337.567 265.083 342.633 270.017 345.8 275.85 L 346.55 277.25 L 345 278.45"/>
    <path stroke="none" fill="#4B80C9" d="M 345 278.45 C 342.933 280.05 340.933 281.817 339 283.75 C 336.6 281.05 333.6 278.65 330 276.55 L 328.25 275.6 C 326.383 274.833 324.133 275.15 321.5 276.55 C 318.633 278.217 316.2 280.8 314.2 284.3 C 312.9 286.5 312.033 288.683 311.6 290.85 L 310.85 290.35 C 309.217 289.117 308.25 287.133 307.95 284.4 C 308.283 281.1 309.433 277.767 311.4 274.4 C 313.833 270.167 316.8 267.05 320.3 265.05 C 323.467 263.317 326.183 262.917 328.45 263.85 L 330.6 265.05 C 337 268.75 341.8 273.217 345 278.45 M 422.95 278.5 C 426.117 273.267 430.917 268.783 437.35 265.05 L 439.5 263.85 C 441.767 262.917 444.483 263.317 447.65 265.05 C 451.15 267.05 454.117 270.167 456.55 274.4 C 458.517 277.767 459.683 281.1 460.05 284.4 C 459.717 287.133 458.733 289.117 457.1 290.35 L 456.35 290.85 C 455.917 288.683 455.05 286.5 453.75 284.3 C 451.75 280.8 449.317 278.217 446.45 276.55 C 443.817 275.15 441.567 274.833 439.7 275.6 L 437.95 276.55 C 434.35 278.65 431.35 281.05 428.95 283.75 L 422.95 278.5"/>
    <path stroke="none" fill="#3B6EB4" d="M 428.95 283.75 C 431.35 281.05 434.35 278.65 437.95 276.55 L 439.7 275.6 C 441.567 274.833 443.817 275.15 446.45 276.55 C 449.317 278.217 451.75 280.8 453.75 284.3 C 455.05 286.5 455.917 288.683 456.35 290.85 L 455.05 291.6 C 449.783 294.633 444.617 296.5 439.55 297.2 C 436.783 292.5 433.35 288.1 429.25 284 L 428.95 283.75 M 311.6 290.85 C 312.033 288.683 312.9 286.5 314.2 284.3 C 316.2 280.8 318.633 278.217 321.5 276.55 C 324.133 275.15 326.383 274.833 328.25 275.6 L 330 276.55 C 333.6 278.65 336.6 281.05 339 283.75 L 338.7 284 C 334.6 288.1 331.167 292.5 328.4 297.2 C 323.333 296.5 318.167 294.633 312.9 291.6 L 311.6 290.85"/>
    <path stroke="none" fill="#5A9BF3" d="M 320 322 L 319.95 320 C 319.95 302.3 326.2 287.217 338.7 274.75 L 342.35 271.35 C 344.05 269.883 345.783 268.517 347.55 267.25 C 358.15 259.75 370.283 256 383.95 256 C 397.65 256 409.783 259.733 420.35 267.2 C 422.117 268.467 423.85 269.833 425.55 271.3 L 429.25 274.75 C 441.717 287.217 447.95 302.3 447.95 320 L 447.95 322 C 447.483 305.167 441.25 290.75 429.25 278.75 C 427.217 276.717 425.117 274.85 422.95 273.15 L 422.5 273.45 C 411.867 280.483 399.017 284 383.95 284 C 368.883 284 356.017 280.483 345.35 273.45 L 344.95 273.2 C 342.783 274.9 340.7 276.75 338.7 278.75 C 326.667 290.75 320.433 305.167 320 322"/>
    <path stroke="none" fill="#528CDB" d="M 320 322 C 320.433 305.167 326.667 290.75 338.7 278.75 C 340.7 276.75 342.783 274.9 344.95 273.2 L 345.35 273.45 C 356.017 280.483 368.883 284 383.95 284 C 399.017 284 411.867 280.483 422.5 273.45 L 422.95 273.15 C 425.117 274.85 427.217 276.717 429.25 278.75 C 441.25 290.75 447.483 305.167 447.95 322 C 447.65 332.133 445.267 341.417 440.8 349.85 C 439.5 352.317 438.017 354.7 436.35 357 L 436.3 357 C 434.2 359.867 431.833 362.617 429.2 365.25 L 424.55 369.55 C 421.617 368.483 420.167 366.383 420.2 363.25 C 419.467 355.75 415.983 349.25 409.75 343.75 C 402.75 337.583 394.3 334.5 384.4 334.5 C 374.5 334.5 366.033 337.583 359 343.75 C 352.8 349.25 349.35 355.75 348.65 363.25 C 347.75 366.45 346.017 368.583 343.45 369.65 L 338.65 365.25 C 333.583 360.183 329.55 354.7 326.55 348.8 L 321 332.1 L 321 331.9 L 320.8 330.8 L 320.75 330.55 L 320.7 330.05 L 320.6 329.5 L 320.45 328.25 L 320.45 328.05 L 320.35 327.45 L 320.35 327.2 L 320.3 327 L 320.3 326.75 L 320.25 326.45 L 320.2 325.8 L 320.2 325.55 L 320.15 325.25 L 320 322"/>
    <path stroke="none" fill="#4178C2" d="M 424.55 369.55 L 420.35 372.75 C 409.75 380.25 397.617 384 383.95 384 C 370.25 384 358.117 380.267 347.55 372.8 L 343.45 369.65 C 346.017 368.583 347.75 366.45 348.65 363.25 C 349.35 355.75 352.8 349.25 359 343.75 C 366.033 337.583 374.5 334.5 384.4 334.5 C 394.3 334.5 402.75 337.583 409.75 343.75 C 415.983 349.25 419.467 355.75 420.2 363.25 C 420.167 366.383 421.617 368.483 424.55 369.55 M 401.55 347.35 C 400.817 346.617 399.717 346.45 398.25 346.85 C 396.75 347.25 395.35 348.117 394.05 349.45 L 393.9 349.55 C 393.2 350.283 392.85 351.183 392.85 352.25 C 392.85 353.317 393.233 354.217 394 354.95 C 394.733 355.717 395.65 356.1 396.75 356.1 C 397.75 356.1 398.633 355.75 399.4 355.05 L 399.5 354.95 C 400.833 353.617 401.7 352.217 402.1 350.75 C 402.533 349.25 402.35 348.117 401.55 347.35 M 369.4 355.05 C 370.133 355.75 371.017 356.1 372.05 356.1 C 373.117 356.1 374.033 355.717 374.8 354.95 C 375.533 354.217 375.9 353.317 375.9 352.25 C 375.9 351.183 375.55 350.283 374.85 349.55 L 374.75 349.45 C 373.417 348.117 372.017 347.25 370.55 346.85 C 369.083 346.45 367.967 346.617 367.2 347.35 C 366.433 348.117 366.267 349.25 366.7 350.75 C 367.1 352.217 367.967 353.617 369.3 354.95 L 369.4 355.05"/>
    <path stroke="none" fill="#2D5D9C" d="M 369.4 355.05 L 369.3 354.95 C 367.967 353.617 367.1 352.217 366.7 350.75 C 366.267 349.25 366.433 348.117 367.2 347.35 C 367.967 346.617 369.083 346.45 370.55 346.85 C 372.017 347.25 373.417 348.117 374.75 349.45 L 374.85 349.55 C 375.55 350.283 375.9 351.183 375.9 352.25 C 375.9 353.317 375.533 354.217 374.8 354.95 C 374.033 355.717 373.117 356.1 372.05 356.1 C 371.017 356.1 370.133 355.75 369.4 355.05 M 401.55 347.35 C 402.35 348.117 402.533 349.25 402.1 350.75 C 401.7 352.217 400.833 353.617 399.5 354.95 L 399.4 355.05 C 398.633 355.75 397.75 356.1 396.75 356.1 C 395.65 356.1 394.733 355.717 394 354.95 C 393.233 354.217 392.85 353.317 392.85 352.25 C 392.85 351.183 393.2 350.283 393.9 349.55 L 394.05 349.45 C 395.35 348.117 396.75 347.25 398.25 346.85 C 399.717 346.45 400.817 346.617 401.55 347.35"/>
    <path stroke="none" fill="#FFFFFF" d="M 435.2 327.2 C 435.2 331 433.85 334.2 431.15 336.8 C 428.45 339.533 425.2 340.9 421.4 340.9 C 417.667 340.9 414.417 339.533 411.65 336.8 C 409.017 334.2 407.7 331 407.7 327.2 C 407.7 323.367 409.017 320.117 411.65 317.45 C 414.417 314.75 417.667 313.4 421.4 313.4 C 425.2 313.4 428.45 314.75 431.15 317.45 C 433.85 320.117 435.2 323.367 435.2 327.2 M 427.65 327.1 C 427.65 324.667 426.833 322.633 425.2 321 C 423.5 319.3 421.433 318.45 419 318.45 C 416.667 318.45 414.633 319.3 412.9 321 C 411.2 322.633 410.35 324.667 410.35 327.1 L 410.4 327.95 C 410.567 329.917 411.4 331.617 412.9 333.05 C 414.633 334.717 416.667 335.55 419 335.55 C 421.433 335.55 423.5 334.717 425.2 333.05 C 426.633 331.617 427.433 329.917 427.6 327.95 L 427.65 327.1"/>
    <path stroke="none" fill="#5B5B5B" d="M 427.65 327.1 L 427.6 327.95 C 427.433 329.917 426.633 331.617 425.2 333.05 C 423.5 334.717 421.433 335.55 419 335.55 C 416.667 335.55 414.633 334.717 412.9 333.05 C 411.4 331.617 410.567 329.917 410.4 327.95 L 410.35 327.1 C 410.35 324.667 411.2 322.633 412.9 321 C 414.633 319.3 416.667 318.45 419 318.45 C 421.433 318.45 423.5 319.3 425.2 321 C 426.833 322.633 427.65 324.667 427.65 327.1"/>
    <path stroke="none" fill="#FFFFFF" d="M 340.25 327.1 L 340.3 327.95 C 340.467 329.917 341.267 331.617 342.7 333.05 C 344.4 334.717 346.467 335.55 348.9 335.55 C 351.233 335.55 353.267 334.717 355 333.05 C 356.5 331.617 357.333 329.917 357.5 327.95 L 357.55 327.1 C 357.55 324.667 356.7 322.633 355 321 C 353.267 319.3 351.233 318.45 348.9 318.45 C 346.467 318.45 344.4 319.3 342.7 321 C 341.067 322.633 340.25 324.667 340.25 327.1 M 332.7 327.2 C 332.7 323.367 334.05 320.117 336.75 317.45 C 339.45 314.75 342.7 313.4 346.5 313.4 C 350.233 313.4 353.483 314.75 356.25 317.45 C 358.883 320.117 360.2 323.367 360.2 327.2 C 360.2 331 358.883 334.2 356.25 336.8 C 353.483 339.533 350.233 340.9 346.5 340.9 C 342.7 340.9 339.45 339.533 336.75 336.8 C 334.05 334.2 332.7 331 332.7 327.2"/>
    <path stroke="none" fill="#5B5B5B" d="M 340.25 327.1 C 340.25 324.667 341.067 322.633 342.7 321 C 344.4 319.3 346.467 318.45 348.9 318.45 C 351.233 318.45 353.267 319.3 355 321 C 356.7 322.633 357.55 324.667 357.55 327.1 L 357.5 327.95 C 357.333 329.917 356.5 331.617 355 333.05 C 353.267 334.717 351.233 335.55 348.9 335.55 C 346.467 335.55 344.4 334.717 342.7 333.05 C 341.267 331.617 340.467 329.917 340.3 327.95 L 340.25 327.1"/>
  </g>
</svg>