<?xml version="1.0" encoding="utf-8"?>
<svg viewBox="1058.08 631.2 182.84 150.936" xmlns="http://www.w3.org/2000/svg">
  <g>
    <title>Bull</title>
    <path stroke="none" fill="#704E35" d="M 1094.2 668.3 C 1087.3 667.2 1079.733 667.467 1071.5 669.1 L 1068.7 669.75 C 1065.933 670.583 1063.95 672.55 1062.75 675.65 C 1061.517 679.15 1061.633 682.967 1063.1 687.1 C 1064.633 691.4 1067.1 694.8 1070.5 697.3 C 1071.8 698.333 1073.133 699.067 1074.5 699.5 C 1071.933 699.433 1069.283 698.433 1066.55 696.5 C 1063.25 693.967 1060.833 690.583 1059.3 686.35 C 1057.8 682.15 1057.683 678.317 1058.95 674.85 C 1060.117 671.75 1062.1 669.783 1064.9 668.95 L 1067.5 668.4 C 1076.867 666.5 1085.367 666.367 1093 668 L 1094.2 668.3 M 1204.8 668.3 L 1206 667.95 C 1213.633 666.317 1222.133 666.45 1231.5 668.35 L 1234.1 668.9 C 1236.9 669.767 1238.883 671.75 1240.05 674.85 C 1241.317 678.317 1241.2 682.15 1239.7 686.35 C 1238.167 690.583 1235.75 693.967 1232.45 696.5 C 1229.717 698.433 1227.067 699.417 1224.5 699.45 C 1225.867 699.05 1227.2 698.333 1228.5 697.3 C 1231.933 694.767 1234.4 691.367 1235.9 687.1 C 1237.367 682.967 1237.483 679.133 1236.25 675.6 C 1235.05 672.5 1233.067 670.55 1230.3 669.75 L 1227.5 669.1 C 1219.267 667.467 1211.7 667.2 1204.8 668.3"/>
    <path stroke="none" fill="#5F422D" d="M 1204.8 668.3 C 1211.7 667.2 1219.267 667.467 1227.5 669.1 L 1230.3 669.75 C 1233.067 670.55 1235.05 672.5 1236.25 675.6 C 1237.483 679.133 1237.367 682.967 1235.9 687.1 C 1234.4 691.367 1231.933 694.767 1228.5 697.3 C 1227.2 698.333 1225.867 699.05 1224.5 699.45 L 1223.3 699.45 L 1220.5 698.85 L 1217.5 698.25 L 1213 696.95 L 1216.25 695.3 C 1218.683 693.4 1220.45 690.933 1221.55 687.9 C 1222.65 684.9 1222.75 682.133 1221.85 679.6 C 1220.95 677.4 1219.483 676.017 1217.45 675.45 C 1216.883 675.183 1216.25 675.033 1215.55 675 C 1208.85 673.6 1202.733 673.5 1197.2 674.7 L 1195.85 675.1 L 1194.15 675.6 L 1192.5 676.15 L 1192.75 675.65 C 1194.017 673.283 1196.367 671.367 1199.8 669.9 L 1204.8 668.3 M 1074.5 699.5 C 1073.133 699.067 1071.8 698.333 1070.5 697.3 C 1067.1 694.8 1064.633 691.4 1063.1 687.1 C 1061.633 682.967 1061.517 679.15 1062.75 675.65 C 1063.95 672.55 1065.933 670.583 1068.7 669.75 L 1071.5 669.1 C 1079.733 667.467 1087.3 667.2 1094.2 668.3 C 1100.4 669.867 1104.417 672.317 1106.25 675.65 L 1106.5 676.2 C 1105.533 675.8 1104.417 675.45 1103.15 675.15 L 1101.8 674.7 C 1096.267 673.533 1090.15 673.633 1083.45 675 L 1081.55 675.45 C 1079.517 676.017 1078.05 677.4 1077.15 679.6 C 1076.25 682.167 1076.35 684.95 1077.45 687.95 C 1078.55 690.983 1080.317 693.433 1082.75 695.3 C 1083.883 696.1 1084.967 696.667 1086 697 L 1081.5 698.3 L 1078.5 698.9 L 1075.7 699.45 L 1074.5 699.5"/>
    <path stroke="none" fill="#4F3725" d="M 1086 697 C 1084.967 696.667 1083.883 696.1 1082.75 695.3 C 1080.317 693.433 1078.55 690.983 1077.45 687.95 C 1076.35 684.95 1076.25 682.167 1077.15 679.6 C 1078.05 677.4 1079.517 676.017 1081.55 675.45 L 1083.45 675 C 1090.15 673.633 1096.267 673.533 1101.8 674.7 L 1103.15 675.15 C 1104.417 675.45 1105.533 675.8 1106.5 676.2 L 1106.8 676.8 C 1107.6 679.067 1107.417 681.317 1106.25 683.55 C 1105.217 685.583 1103.383 687.617 1100.75 689.65 C 1097.083 692.483 1092.65 694.783 1087.45 696.55 L 1086 697 M 1213 696.95 L 1211.55 696.55 C 1206.35 694.783 1201.917 692.467 1198.25 689.6 C 1195.617 687.6 1193.783 685.583 1192.75 683.55 C 1191.783 681.65 1191.483 679.767 1191.85 677.9 L 1192.2 676.75 L 1192.5 676.15 L 1194.15 675.6 L 1195.85 675.1 L 1197.2 674.7 C 1202.733 673.5 1208.85 673.6 1215.55 675 C 1216.25 675.033 1216.883 675.183 1217.45 675.45 C 1219.483 676.017 1220.95 677.4 1221.85 679.6 C 1222.75 682.133 1222.65 684.9 1221.55 687.9 C 1220.45 690.933 1218.683 693.4 1216.25 695.3 L 1213 696.95"/>
    <path stroke="none" fill="#704E35" d="M 1121.7 773.1 C 1120.667 771.133 1121.467 768.45 1124.1 765.05 C 1126.733 761.55 1130.533 758.383 1135.5 755.55 C 1144.467 750.45 1153.8 750.45 1163.5 755.55 C 1168.433 758.383 1172.217 761.55 1174.85 765.05 C 1177.517 768.45 1178.333 771.117 1177.3 773.05 C 1176.833 771.85 1176.017 770.517 1174.85 769.05 C 1172.217 765.55 1168.433 762.383 1163.5 759.55 C 1153.8 754.45 1144.467 754.45 1135.5 759.55 C 1130.533 762.383 1126.733 765.55 1124.1 769.05 C 1122.933 770.517 1122.133 771.867 1121.7 773.1"/>
    <path stroke="none" fill="#5F422D" d="M 1121.7 773.1 C 1122.133 771.867 1122.933 770.517 1124.1 769.05 C 1126.733 765.55 1130.533 762.383 1135.5 759.55 C 1144.467 754.45 1153.8 754.45 1163.5 759.55 C 1168.433 762.383 1172.217 765.55 1174.85 769.05 C 1176.017 770.517 1176.833 771.85 1177.3 773.05 L 1177.2 773.2 C 1176.033 775.267 1173.25 776 1168.85 775.4 C 1165.883 774.967 1162.767 774 1159.5 772.5 C 1160.033 773.967 1160.383 775.383 1160.55 776.75 L 1160.6 777 C 1160.733 778.267 1160.683 779.317 1160.45 780.15 C 1160.25 780.917 1159.867 781.467 1159.3 781.8 C 1158.033 782.533 1156.317 782.067 1154.15 780.4 C 1152.483 779.067 1150.933 777.3 1149.5 775.1 C 1148.033 777.3 1146.467 779.067 1144.8 780.4 C 1142.667 782.067 1140.967 782.533 1139.7 781.8 C 1139.133 781.467 1138.733 780.917 1138.5 780.15 C 1138.267 779.317 1138.233 778.283 1138.4 777.05 L 1138.4 776.75 C 1138.6 775.383 1138.983 773.967 1139.55 772.5 C 1136.25 774 1133.1 774.967 1130.1 775.4 C 1125.733 776 1122.95 775.267 1121.75 773.2 L 1121.7 773.1"/>
    <path stroke="none" fill="#704E35" d="M 1186.95 736.05 C 1186.383 728.117 1182.733 721.267 1176 715.5 C 1174 713.8 1171.883 712.333 1169.65 711.1 C 1163.717 707.8 1157 706.15 1149.5 706.15 C 1142 706.15 1135.3 707.783 1129.4 711.05 C 1127.133 712.283 1124.983 713.767 1122.95 715.5 C 1116.217 721.267 1112.583 728.117 1112.05 736.05 L 1112 734.15 L 1112 733.15 C 1112.267 724.75 1115.917 717.533 1122.95 711.5 C 1125.45 709.367 1128.133 707.6 1131 706.2 C 1136.5 703.5 1142.667 702.15 1149.5 702.15 C 1156.333 702.15 1162.5 703.517 1168 706.25 C 1170.833 707.617 1173.5 709.367 1176 711.5 C 1183.033 717.533 1186.7 724.75 1187 733.15 L 1187 734.15 L 1186.95 736.05"/>
    <path stroke="none" fill="#5F422D" d="M 1186.95 736.05 C 1186.45 744.083 1182.8 750.983 1176 756.75 C 1168.667 763.017 1159.833 766.15 1149.5 766.15 C 1139.133 766.15 1130.283 763.017 1122.95 756.75 C 1116.183 750.95 1112.55 744.05 1112.05 736.05 C 1112.583 728.117 1116.217 721.267 1122.95 715.5 C 1124.983 713.767 1127.133 712.283 1129.4 711.05 C 1135.3 707.783 1142 706.15 1149.5 706.15 C 1157 706.15 1163.717 707.8 1169.65 711.1 C 1171.883 712.333 1174 713.8 1176 715.5 C 1182.733 721.267 1186.383 728.117 1186.95 736.05 M 1168 706.25 C 1162.5 703.517 1156.333 702.15 1149.5 702.15 C 1142.667 702.15 1136.5 703.5 1131 706.2 C 1136.967 687.467 1139.8 667.017 1139.5 644.85 L 1149.5 644.15 L 1159.5 644.85 C 1159.2 667.017 1162.033 687.483 1168 706.25 M 1133.9 726.55 C 1134.9 727.483 1136.083 727.95 1137.45 727.95 C 1138.883 727.95 1140.1 727.45 1141.1 726.45 C 1142.1 725.45 1142.6 724.233 1142.6 722.8 C 1142.6 722.067 1142.483 721.4 1142.25 720.8 L 1141.2 719.25 L 1141.05 719.1 C 1139.35 717.4 1137.55 716.267 1135.65 715.7 L 1135.45 715.65 C 1133.983 715.217 1132.8 715.233 1131.9 715.7 C 1131.567 715.833 1131.267 716.033 1131 716.3 L 1130.4 717.15 C 1129.967 717.983 1129.9 719.033 1130.2 720.3 L 1130.3 720.8 L 1130.75 722.1 C 1131.383 723.6 1132.383 725.033 1133.75 726.4 L 1133.9 726.55 M 1168 716.3 L 1167.15 715.7 C 1166.217 715.233 1165.017 715.217 1163.55 715.65 L 1163.3 715.75 C 1161.4 716.317 1159.617 717.433 1157.95 719.1 L 1157.8 719.25 C 1157.367 719.717 1157.033 720.233 1156.8 720.8 C 1156.533 721.4 1156.4 722.067 1156.4 722.8 C 1156.4 724.233 1156.9 725.45 1157.9 726.45 C 1158.9 727.45 1160.117 727.95 1161.55 727.95 C 1162.917 727.95 1164.1 727.483 1165.1 726.55 L 1165.25 726.4 C 1166.617 725.033 1167.617 723.6 1168.25 722.1 L 1168.7 720.8 L 1168.85 720.3 C 1169.117 719.033 1169.033 717.983 1168.6 717.15 L 1168 716.3"/>
    <path stroke="none" fill="#A16639" d="M 1186.95 736.05 L 1187 734.15 L 1187 733.15 C 1186.7 724.75 1183.033 717.533 1176 711.5 C 1173.5 709.367 1170.833 707.617 1168 706.25 C 1162.033 687.483 1159.2 667.017 1159.5 644.85 C 1172.933 646.817 1184.683 652.817 1194.75 662.85 C 1206.783 674.917 1213.033 689.35 1213.5 706.15 C 1213.233 716.083 1210.95 725.167 1206.65 733.4 C 1203.65 739.133 1199.683 744.45 1194.75 749.35 C 1182.25 761.883 1167.167 768.15 1149.5 768.15 C 1131.833 768.15 1116.75 761.883 1104.25 749.35 C 1092.217 737.35 1085.983 722.95 1085.55 706.15 C 1085.983 689.35 1092.217 674.917 1104.25 662.85 C 1114.317 652.817 1126.067 646.817 1139.5 644.85 C 1139.8 667.017 1136.967 687.467 1131 706.2 C 1128.133 707.6 1125.45 709.367 1122.95 711.5 C 1115.917 717.533 1112.267 724.75 1112 733.15 L 1112 734.15 L 1112.05 736.05 C 1112.55 744.05 1116.183 750.95 1122.95 756.75 C 1130.283 763.017 1139.133 766.15 1149.5 766.15 C 1159.833 766.15 1168.667 763.017 1176 756.75 C 1182.8 750.983 1186.45 744.083 1186.95 736.05"/>
    <path stroke="none" fill="#4F3725" d="M 1133.9 726.55 L 1133.75 726.4 C 1132.383 725.033 1131.383 723.6 1130.75 722.1 L 1130.3 720.8 L 1130.2 720.3 C 1129.9 719.033 1129.967 717.983 1130.4 717.15 L 1131 716.3 C 1131.267 716.033 1131.567 715.833 1131.9 715.7 C 1132.8 715.233 1133.983 715.217 1135.45 715.65 L 1135.65 715.7 C 1137.55 716.267 1139.35 717.4 1141.05 719.1 L 1141.2 719.25 L 1142.25 720.8 C 1142.483 721.4 1142.6 722.067 1142.6 722.8 C 1142.6 724.233 1142.1 725.45 1141.1 726.45 C 1140.1 727.45 1138.883 727.95 1137.45 727.95 C 1136.083 727.95 1134.9 727.483 1133.9 726.55 M 1168 716.3 L 1168.6 717.15 C 1169.033 717.983 1169.117 719.033 1168.85 720.3 L 1168.7 720.8 L 1168.25 722.1 C 1167.617 723.6 1166.617 725.033 1165.25 726.4 L 1165.1 726.55 C 1164.1 727.483 1162.917 727.95 1161.55 727.95 C 1160.117 727.95 1158.9 727.45 1157.9 726.45 C 1156.9 725.45 1156.4 724.233 1156.4 722.8 C 1156.4 722.067 1156.533 721.4 1156.8 720.8 C 1157.033 720.233 1157.367 719.717 1157.8 719.25 L 1157.95 719.1 C 1159.617 717.433 1161.4 716.317 1163.3 715.75 L 1163.55 715.65 C 1165.017 715.217 1166.217 715.233 1167.15 715.7 L 1168 716.3"/>
    <path stroke="none" fill="#BD7841" d="M 1085.55 706.15 L 1085.5 704.15 C 1085.5 686.483 1091.75 671.383 1104.25 658.85 C 1116.75 646.383 1131.833 640.15 1149.5 640.15 C 1167.167 640.15 1182.25 646.383 1194.75 658.85 C 1207.25 671.383 1213.5 686.483 1213.5 704.15 L 1213.5 706.15 C 1213.033 689.35 1206.783 674.917 1194.75 662.85 C 1184.683 652.817 1172.933 646.817 1159.5 644.85 L 1149.5 644.15 L 1139.5 644.85 C 1126.067 646.817 1114.317 652.817 1104.25 662.85 C 1092.217 674.917 1085.983 689.35 1085.55 706.15"/>
    <path stroke="none" fill="#5B5B5B" d="M 1107.45 693.7 C 1107.45 691.933 1108.05 690.45 1109.25 689.25 C 1110.483 688.017 1111.983 687.4 1113.75 687.4 C 1115.45 687.4 1116.933 688.017 1118.2 689.25 C 1119.433 690.45 1120.05 691.933 1120.05 693.7 C 1120.05 695.4 1119.433 696.85 1118.2 698.05 C 1116.933 699.25 1115.45 699.85 1113.75 699.85 C 1111.983 699.85 1110.483 699.25 1109.25 698.05 C 1108.05 696.85 1107.45 695.4 1107.45 693.7 M 1189.55 693.7 C 1189.55 695.4 1188.95 696.85 1187.75 698.05 C 1186.517 699.25 1185.017 699.85 1183.25 699.85 C 1181.55 699.85 1180.067 699.25 1178.8 698.05 C 1177.567 696.85 1176.95 695.4 1176.95 693.7 C 1176.95 691.933 1177.567 690.45 1178.8 689.25 C 1180.067 688.017 1181.55 687.4 1183.25 687.4 C 1185.017 687.4 1186.517 688.017 1187.75 689.25 C 1188.95 690.45 1189.55 691.933 1189.55 693.7"/>
    <path stroke="none" fill="#FFFFFF" d="M 1189.55 693.7 C 1189.55 691.933 1188.95 690.45 1187.75 689.25 C 1186.517 688.017 1185.017 687.4 1183.25 687.4 C 1181.55 687.4 1180.067 688.017 1178.8 689.25 C 1177.567 690.45 1176.95 691.933 1176.95 693.7 C 1176.95 695.4 1177.567 696.85 1178.8 698.05 C 1180.067 699.25 1181.55 699.85 1183.25 699.85 C 1185.017 699.85 1186.517 699.25 1187.75 698.05 C 1188.95 696.85 1189.55 695.4 1189.55 693.7 M 1101.95 692.5 C 1101.95 689.7 1102.933 687.333 1104.9 685.4 C 1106.867 683.433 1109.233 682.45 1112 682.45 C 1114.733 682.45 1117.1 683.433 1119.1 685.4 C 1121.033 687.333 1122 689.7 1122 692.5 C 1122 695.267 1121.033 697.6 1119.1 699.5 C 1117.1 701.5 1114.733 702.5 1112 702.5 C 1109.233 702.5 1106.867 701.5 1104.9 699.5 C 1102.933 697.6 1101.95 695.267 1101.95 692.5 M 1107.45 693.7 C 1107.45 695.4 1108.05 696.85 1109.25 698.05 C 1110.483 699.25 1111.983 699.85 1113.75 699.85 C 1115.45 699.85 1116.933 699.25 1118.2 698.05 C 1119.433 696.85 1120.05 695.4 1120.05 693.7 C 1120.05 691.933 1119.433 690.45 1118.2 689.25 C 1116.933 688.017 1115.45 687.4 1113.75 687.4 C 1111.983 687.4 1110.483 688.017 1109.25 689.25 C 1108.05 690.45 1107.45 691.933 1107.45 693.7 M 1195.05 692.5 C 1195.05 695.267 1194.067 697.6 1192.1 699.5 C 1190.133 701.5 1187.767 702.5 1185 702.5 C 1182.267 702.5 1179.9 701.5 1177.9 699.5 C 1175.967 697.6 1175 695.267 1175 692.5 C 1175 689.7 1175.967 687.333 1177.9 685.4 C 1179.9 683.433 1182.267 682.45 1185 682.45 C 1187.767 682.45 1190.133 683.433 1192.1 685.4 C 1194.067 687.333 1195.05 689.7 1195.05 692.5"/>
    <path stroke="none" fill="#FFDFC6" d="M 1087.25 634.85 C 1089.083 632.75 1091.867 631.533 1095.6 631.2 C 1094.233 636.133 1095.733 639.233 1100.1 640.5 C 1105.433 642.2 1111.25 641.417 1117.55 638.15 C 1125.117 634.283 1132.35 634.05 1139.25 637.45 C 1142.85 639.75 1144.983 642.667 1145.65 646.2 C 1143.617 644.233 1141.017 642.517 1137.85 641.05 C 1128.85 637.65 1121 637.883 1114.3 641.75 C 1108.733 645.017 1102.667 645.8 1096.1 644.1 C 1090.8 642.833 1087.85 639.75 1087.25 634.85 M 1154.85 646.2 C 1155.517 642.667 1157.65 639.75 1161.25 637.45 C 1168.15 634.05 1175.383 634.283 1182.95 638.15 C 1189.25 641.417 1195.067 642.2 1200.4 640.5 C 1204.767 639.233 1206.267 636.133 1204.9 631.2 C 1208.633 631.533 1211.417 632.75 1213.25 634.85 C 1212.65 639.75 1209.7 642.833 1204.4 644.1 C 1197.833 645.8 1191.767 645.017 1186.2 641.75 C 1179.5 637.883 1171.65 637.65 1162.65 641.05 C 1159.483 642.517 1156.883 644.233 1154.85 646.2"/>
    <path stroke="none" fill="#EBCEB7" d="M 1154.85 646.2 C 1156.883 644.233 1159.483 642.517 1162.65 641.05 C 1171.65 637.65 1179.5 637.883 1186.2 641.75 C 1191.767 645.017 1197.833 645.8 1204.4 644.1 C 1209.7 642.833 1212.65 639.75 1213.25 634.85 C 1215.817 637.817 1216.533 642.567 1215.4 649.1 C 1214.1 656.533 1207.067 661.683 1194.3 664.55 C 1173.633 668.483 1161.033 665.75 1156.5 656.35 C 1155.7 654.517 1155.117 652.5 1154.75 650.3 C 1154.583 648.833 1154.617 647.467 1154.85 646.2 M 1145.65 646.2 C 1145.883 647.467 1145.917 648.833 1145.75 650.3 C 1145.383 652.5 1144.8 654.517 1144 656.35 C 1139.467 665.75 1126.867 668.483 1106.2 664.55 C 1093.433 661.683 1086.4 656.533 1085.1 649.1 C 1083.967 642.567 1084.683 637.817 1087.25 634.85 C 1087.85 639.75 1090.8 642.833 1096.1 644.1 C 1102.667 645.8 1108.733 645.017 1114.3 641.75 C 1121 637.883 1128.85 637.65 1137.85 641.05 C 1141.017 642.517 1143.617 644.233 1145.65 646.2"/>
  </g>
</svg>