<?xml version="1.0" encoding="utf-8"?>
<svg viewBox="319.95 430.7 128 145.3" xmlns="http://www.w3.org/2000/svg">
  <g>
    <title>Chicken</title>
    <path stroke="none" fill="#FFFFFF" d="M 320 514 L 319.95 512 C 319.95 494.333 326.2 479.25 338.7 466.75 C 351.2 454.25 366.283 448 383.95 448 C 401.583 448 416.65 454.25 429.15 466.75 C 441.683 479.25 447.95 494.333 447.95 512 L 447.95 514 C 447.483 497.2 441.217 482.783 429.15 470.75 C 416.65 458.25 401.583 452 383.95 452 C 366.283 452 351.2 458.25 338.7 470.75 C 326.667 482.783 320.433 497.2 320 514 M 421 564.25 C 410.233 572.083 397.883 576 383.95 576 C 369.017 576 355.933 571.517 344.7 562.55 L 345.95 560.25 C 356.017 542.683 368.167 533.9 382.4 533.9 C 396.633 533.9 408.767 542.683 418.8 560.25 L 421 564.25"/>
    <path stroke="none" fill="#F0F0F0" d="M 421 564.25 L 418.8 560.25 C 408.767 542.683 396.633 533.9 382.4 533.9 C 368.167 533.9 356.017 542.683 345.95 560.25 L 344.7 562.55 L 338.7 557.2 C 326.667 545.167 320.433 530.767 320 514 C 320.433 497.2 326.667 482.783 338.7 470.75 C 351.2 458.25 366.283 452 383.95 452 C 401.583 452 416.65 458.25 429.15 470.75 C 441.217 482.783 447.483 497.2 447.95 514 C 447.483 530.767 441.217 545.167 429.15 557.2 C 426.55 559.833 423.833 562.183 421 564.25"/>
    <path stroke="none" fill="#FFFFFF" d="M 435.2 515 C 435.2 518.8 433.85 522 431.15 524.6 C 428.45 527.333 425.2 528.7 421.4 528.7 C 417.667 528.7 414.417 527.333 411.65 524.6 C 409.017 522 407.7 518.8 407.7 515 C 407.7 511.167 409.017 507.917 411.65 505.25 C 414.417 502.55 417.667 501.2 421.4 501.2 C 425.2 501.2 428.45 502.55 431.15 505.25 C 433.85 507.917 435.2 511.167 435.2 515 M 427.65 514.9 C 427.65 512.467 426.833 510.433 425.2 508.8 C 423.5 507.1 421.433 506.25 419 506.25 C 416.667 506.25 414.633 507.1 412.9 508.8 C 411.2 510.433 410.35 512.467 410.35 514.9 L 410.4 515.75 C 410.567 517.717 411.4 519.417 412.9 520.85 C 414.633 522.517 416.667 523.35 419 523.35 C 421.433 523.35 423.5 522.517 425.2 520.85 C 426.633 519.417 427.433 517.717 427.6 515.75 L 427.65 514.9"/>
    <path stroke="none" fill="#5B5B5B" d="M 427.65 514.9 L 427.6 515.75 C 427.433 517.717 426.633 519.417 425.2 520.85 C 423.5 522.517 421.433 523.35 419 523.35 C 416.667 523.35 414.633 522.517 412.9 520.85 C 411.4 519.417 410.567 517.717 410.4 515.75 L 410.35 514.9 C 410.35 512.467 411.2 510.433 412.9 508.8 C 414.633 507.1 416.667 506.25 419 506.25 C 421.433 506.25 423.5 507.1 425.2 508.8 C 426.833 510.433 427.65 512.467 427.65 514.9"/>
    <path stroke="none" fill="#FFFFFF" d="M 332.7 515 C 332.7 511.167 334.05 507.917 336.75 505.25 C 339.45 502.55 342.7 501.2 346.5 501.2 C 350.233 501.2 353.483 502.55 356.25 505.25 C 358.883 507.917 360.2 511.167 360.2 515 C 360.2 518.8 358.883 522 356.25 524.6 C 353.483 527.333 350.233 528.7 346.5 528.7 C 342.7 528.7 339.45 527.333 336.75 524.6 C 334.05 522 332.7 518.8 332.7 515 M 340.25 514.9 L 340.3 515.75 C 340.467 517.717 341.267 519.417 342.7 520.85 C 344.4 522.517 346.467 523.35 348.9 523.35 C 351.233 523.35 353.267 522.517 355 520.85 C 356.5 519.417 357.333 517.717 357.5 515.75 L 357.55 514.9 C 357.55 512.467 356.7 510.433 355 508.8 C 353.267 507.1 351.233 506.25 348.9 506.25 C 346.467 506.25 344.4 507.1 342.7 508.8 C 341.067 510.433 340.25 512.467 340.25 514.9"/>
    <path stroke="none" fill="#5B5B5B" d="M 340.25 514.9 C 340.25 512.467 341.067 510.433 342.7 508.8 C 344.4 507.1 346.467 506.25 348.9 506.25 C 351.233 506.25 353.267 507.1 355 508.8 C 356.7 510.433 357.55 512.467 357.55 514.9 L 357.5 515.75 C 357.333 517.717 356.5 519.417 355 520.85 C 353.267 522.517 351.233 523.35 348.9 523.35 C 346.467 523.35 344.4 522.517 342.7 520.85 C 341.267 519.417 340.467 517.717 340.3 515.75 L 340.25 514.9"/>
    <path stroke="none" fill="#D23007" d="M 366.3 553.15 C 366.3 550.583 367.45 548.267 369.75 546.2 L 371.8 544.3 C 376.533 539.7 380.05 534.483 382.35 528.65 C 382.65 528.35 383.017 528.15 383.45 528.05 L 383.8 528 L 384.1 528 L 384.4 528.05 C 384.833 528.15 385.217 528.35 385.55 528.65 C 387.883 534.483 391.417 539.717 396.15 544.35 L 398.15 546.2 C 400.45 548.267 401.6 550.583 401.6 553.15 L 401.55 553.3 C 400.25 557.467 396.783 559.217 391.15 558.55 C 388.883 558.283 386.817 557.417 384.95 555.95 L 383.95 555.05 L 382.9 555.95 C 381.067 557.417 379 558.283 376.7 558.55 C 371.067 559.217 367.617 557.467 366.35 553.3 L 366.3 553.15"/>
    <path stroke="none" fill="#C62C05" d="M 366.3 553.15 L 366.35 553.3 C 367.617 557.467 371.067 559.217 376.7 558.55 C 379 558.283 381.067 557.417 382.9 555.95 L 383.95 555.05 L 384.95 555.95 C 386.817 557.417 388.883 558.283 391.15 558.55 C 396.783 559.217 400.25 557.467 401.55 553.3 L 401.6 553.15 L 401.3 555.4 C 400.033 560.633 396.617 562.833 391.05 562 C 388.817 561.633 386.783 560.533 384.95 558.7 L 383.95 557.6 L 382.95 558.7 C 381.117 560.533 379.067 561.633 376.8 562 C 371.267 562.833 367.867 560.633 366.6 555.4 C 366.4 554.633 366.3 553.883 366.3 553.15"/>
    <path stroke="none" fill="#FF9900" d="M 361.7 524.05 C 362.433 519.417 364.533 515.333 368 511.8 L 370.65 509.55 C 374.517 506.65 378.983 505.2 384.05 505.2 C 389.117 505.2 393.583 506.65 397.45 509.55 L 400 511.8 C 403.5 515.333 405.6 519.417 406.3 524.05 C 405.967 524.95 405.317 525.817 404.35 526.65 C 403.483 523.283 401.65 520.283 398.85 517.65 L 396.5 515.7 C 392.9 513.2 388.75 511.95 384.05 511.95 C 379.35 511.95 375.2 513.2 371.6 515.7 L 369.15 517.65 C 366.383 520.283 364.567 523.283 363.7 526.65 C 362.7 525.85 362.033 524.983 361.7 524.05"/>
    <path stroke="none" fill="#F39100" d="M 363.7 526.65 C 364.567 523.283 366.383 520.283 369.15 517.65 L 371.6 515.7 C 375.2 513.2 379.35 511.95 384.05 511.95 C 388.75 511.95 392.9 513.2 396.5 515.7 L 398.85 517.65 C 401.65 520.283 403.483 523.283 404.35 526.65 C 403.283 527.517 401.833 528.317 400 529.05 C 395.6 530.85 390.283 531.75 384.05 531.75 C 377.783 531.75 372.433 530.85 368 529.05 C 366.167 528.317 364.733 527.517 363.7 526.65"/>
    <path stroke="none" fill="#E08600" d="M 363.7 526.65 C 364.733 527.517 366.167 528.317 368 529.05 C 372.433 530.85 377.783 531.75 384.05 531.75 C 390.283 531.75 395.6 530.85 400 529.05 C 401.833 528.317 403.283 527.517 404.35 526.65 C 405.317 525.817 405.967 524.95 406.3 524.05 L 406.6 527.75 L 406.5 529.25 C 406.233 532.583 404.067 535.45 400 537.85 C 395.6 540.417 390.283 541.7 384.05 541.7 C 377.783 541.7 372.433 540.417 368 537.85 C 363.967 535.45 361.8 532.583 361.5 529.25 L 361.45 527.75 C 361.45 526.45 361.533 525.217 361.7 524.05 C 362.033 524.983 362.7 525.85 363.7 526.65"/>
    <path stroke="none" fill="#F53707" d="M 359.85 460.95 L 359.75 458.95 C 359.75 454.283 361.333 450.283 364.5 446.95 L 364.95 446.45 C 365.283 448.517 364.7 450.517 363.2 452.45 C 361.3 454.95 360.183 457.783 359.85 460.95 M 364.65 445 L 364.5 442.95 C 364.5 439.55 365.683 436.65 368.05 434.25 C 370.45 431.883 373.35 430.7 376.75 430.7 C 379.483 430.7 381.883 431.483 383.95 433.05 C 386.017 431.483 388.433 430.7 391.2 430.7 C 394.567 430.7 397.45 431.883 399.85 434.25 C 402.217 436.65 403.4 439.55 403.4 442.95 L 403.25 445 C 402.883 442.433 401.75 440.183 399.85 438.25 C 397.45 435.883 394.567 434.7 391.2 434.7 C 388.433 434.7 386.017 435.483 383.95 437.05 C 381.883 435.483 379.483 434.7 376.75 434.7 C 373.35 434.7 370.45 435.883 368.05 438.25 C 366.15 440.183 365.017 442.433 364.65 445 M 402.95 446.45 L 403 446.45 L 403.4 446.9 C 405 448.567 406.2 450.417 407 452.45 C 407.767 454.45 408.15 456.617 408.15 458.95 L 408.05 460.95 C 407.717 457.783 406.617 454.95 404.75 452.45 C 403.217 450.517 402.617 448.517 402.95 446.45 M 403 450.45 L 402.95 450.45 L 403 450.3 L 403 450.45"/>
    <path stroke="none" fill="#D23007" d="M 403 450.45 L 403 450.3 L 402.95 450.45 L 403 450.45 M 408.05 460.95 C 407.75 463.917 406.767 466.583 405.1 468.95 L 405.6 472.2 L 405.65 473.9 L 405.6 475.9 C 405.167 480.667 403.2 484.8 399.7 488.3 C 395.7 492.3 390.883 494.3 385.25 494.3 L 383.95 494.25 L 382.65 494.3 C 377.017 494.3 372.217 492.3 368.25 488.3 C 364.75 484.833 362.783 480.717 362.35 475.95 L 362.25 473.9 L 362.35 472.15 C 362.417 471.05 362.583 469.983 362.85 468.95 C 361.15 466.583 360.15 463.917 359.85 460.95 C 360.183 457.783 361.3 454.95 363.2 452.45 C 364.7 450.517 365.283 448.517 364.95 446.45 L 364.65 445 C 365.017 442.433 366.15 440.183 368.05 438.25 C 370.45 435.883 373.35 434.7 376.75 434.7 C 379.483 434.7 381.883 435.483 383.95 437.05 C 386.017 435.483 388.433 434.7 391.2 434.7 C 394.567 434.7 397.45 435.883 399.85 438.25 C 401.75 440.183 402.883 442.433 403.25 445 L 402.95 446.45 C 402.617 448.517 403.217 450.517 404.75 452.45 C 406.617 454.95 407.717 457.783 408.05 460.95"/>
  </g>
</svg>