<?xml version="1.0" encoding="utf-8"?>
<svg viewBox="573.85 448 128 128" xmlns="http://www.w3.org/2000/svg">
  <g>
    <title>Chick</title>
    <path stroke="none" fill="#FFD738" d="M 573.9 514 L 573.85 512 C 573.85 494.333 580.1 479.25 592.6 466.75 C 605.1 454.25 620.183 448 637.85 448 C 655.483 448 670.55 454.25 683.05 466.75 C 695.583 479.25 701.85 494.333 701.85 512 L 701.85 514 C 701.383 497.2 695.117 482.783 683.05 470.75 C 670.55 458.25 655.483 452 637.85 452 C 620.183 452 605.1 458.25 592.6 470.75 C 580.567 482.783 574.333 497.2 573.9 514"/>
    <path stroke="none" fill="#FFCC00" d="M 701.85 514 C 701.383 530.767 695.117 545.167 683.05 557.2 C 680.45 559.833 677.733 562.183 674.9 564.25 L 672.7 560.25 C 662.667 542.683 650.533 533.9 636.3 533.9 C 622.067 533.9 609.917 542.683 599.85 560.25 L 598.6 562.55 L 592.6 557.2 C 580.567 545.167 574.333 530.767 573.9 514 C 574.333 497.2 580.567 482.783 592.6 470.75 C 605.1 458.25 620.183 452 637.85 452 C 655.483 452 670.55 458.25 683.05 470.75 C 695.117 482.783 701.383 497.2 701.85 514"/>
    <path stroke="none" fill="#EEBE00" d="M 674.9 564.25 C 664.133 572.083 651.783 576 637.85 576 C 622.917 576 609.833 571.517 598.6 562.55 L 599.85 560.25 C 609.917 542.683 622.067 533.9 636.3 533.9 C 650.533 533.9 662.667 542.683 672.7 560.25 L 674.9 564.25"/>
    <path stroke="none" fill="#FFFFFF" d="M 681.55 514.9 C 681.55 512.467 680.733 510.433 679.1 508.8 C 677.4 507.1 675.333 506.25 672.9 506.25 C 670.567 506.25 668.533 507.1 666.8 508.8 C 665.1 510.433 664.25 512.467 664.25 514.9 L 664.3 515.75 C 664.467 517.717 665.3 519.417 666.8 520.85 C 668.533 522.517 670.567 523.35 672.9 523.35 C 675.333 523.35 677.4 522.517 679.1 520.85 C 680.533 519.417 681.333 517.717 681.5 515.75 L 681.55 514.9 M 689.1 515 C 689.1 518.8 687.75 522 685.05 524.6 C 682.35 527.333 679.1 528.7 675.3 528.7 C 671.567 528.7 668.317 527.333 665.55 524.6 C 662.917 522 661.6 518.8 661.6 515 C 661.6 511.167 662.917 507.917 665.55 505.25 C 668.317 502.55 671.567 501.2 675.3 501.2 C 679.1 501.2 682.35 502.55 685.05 505.25 C 687.75 507.917 689.1 511.167 689.1 515"/>
    <path stroke="none" fill="#5B5B5B" d="M 681.55 514.9 L 681.5 515.75 C 681.333 517.717 680.533 519.417 679.1 520.85 C 677.4 522.517 675.333 523.35 672.9 523.35 C 670.567 523.35 668.533 522.517 666.8 520.85 C 665.3 519.417 664.467 517.717 664.3 515.75 L 664.25 514.9 C 664.25 512.467 665.1 510.433 666.8 508.8 C 668.533 507.1 670.567 506.25 672.9 506.25 C 675.333 506.25 677.4 507.1 679.1 508.8 C 680.733 510.433 681.55 512.467 681.55 514.9"/>
    <path stroke="none" fill="#5B5B5B" d="M 594.15 514.9 C 594.15 512.467 594.967 510.433 596.6 508.8 C 598.3 507.1 600.367 506.25 602.8 506.25 C 605.133 506.25 607.167 507.1 608.9 508.8 C 610.6 510.433 611.45 512.467 611.45 514.9 L 611.4 515.75 C 611.233 517.717 610.4 519.417 608.9 520.85 C 607.167 522.517 605.133 523.35 602.8 523.35 C 600.367 523.35 598.3 522.517 596.6 520.85 C 595.167 519.417 594.367 517.717 594.2 515.75 L 594.15 514.9"/>
    <path stroke="none" fill="#FFFFFF" d="M 594.15 514.9 L 594.2 515.75 C 594.367 517.717 595.167 519.417 596.6 520.85 C 598.3 522.517 600.367 523.35 602.8 523.35 C 605.133 523.35 607.167 522.517 608.9 520.85 C 610.4 519.417 611.233 517.717 611.4 515.75 L 611.45 514.9 C 611.45 512.467 610.6 510.433 608.9 508.8 C 607.167 507.1 605.133 506.25 602.8 506.25 C 600.367 506.25 598.3 507.1 596.6 508.8 C 594.967 510.433 594.15 512.467 594.15 514.9 M 586.6 515 C 586.6 511.167 587.95 507.917 590.65 505.25 C 593.35 502.55 596.6 501.2 600.4 501.2 C 604.133 501.2 607.383 502.55 610.15 505.25 C 612.783 507.917 614.1 511.167 614.1 515 C 614.1 518.8 612.783 522 610.15 524.6 C 607.383 527.333 604.133 528.7 600.4 528.7 C 596.6 528.7 593.35 527.333 590.65 524.6 C 587.95 522 586.6 518.8 586.6 515"/>
    <path stroke="none" fill="#FF9900" d="M 660.2 524.05 C 659.867 524.95 659.217 525.817 658.25 526.65 C 657.383 523.283 655.55 520.283 652.75 517.65 L 650.4 515.7 C 646.8 513.2 642.65 511.95 637.95 511.95 C 633.25 511.95 629.1 513.2 625.5 515.7 C 624.667 516.267 623.85 516.917 623.05 517.65 C 620.283 520.283 618.467 523.283 617.6 526.65 C 616.6 525.85 615.933 524.983 615.6 524.05 C 616.333 519.417 618.433 515.333 621.9 511.8 C 622.767 510.933 623.65 510.183 624.55 509.55 C 628.417 506.65 632.883 505.2 637.95 505.2 C 643.017 505.2 647.483 506.65 651.35 509.55 L 653.9 511.8 C 657.4 515.333 659.5 519.417 660.2 524.05"/>
    <path stroke="none" fill="#F39100" d="M 617.6 526.65 C 618.467 523.283 620.283 520.283 623.05 517.65 C 623.85 516.917 624.667 516.267 625.5 515.7 C 629.1 513.2 633.25 511.95 637.95 511.95 C 642.65 511.95 646.8 513.2 650.4 515.7 L 652.75 517.65 C 655.55 520.283 657.383 523.283 658.25 526.65 C 657.183 527.517 655.733 528.317 653.9 529.05 C 649.5 530.85 644.183 531.75 637.95 531.75 C 631.683 531.75 626.333 530.85 621.9 529.05 C 620.067 528.317 618.633 527.517 617.6 526.65"/>
    <path stroke="none" fill="#E08600" d="M 660.2 524.05 L 660.5 527.75 L 660.4 529.25 C 660.133 532.583 657.967 535.45 653.9 537.85 C 649.5 540.417 644.183 541.7 637.95 541.7 C 631.683 541.7 626.333 540.417 621.9 537.85 C 617.867 535.45 615.7 532.583 615.4 529.25 L 615.35 527.75 C 615.35 526.45 615.433 525.217 615.6 524.05 C 615.933 524.983 616.6 525.85 617.6 526.65 C 618.633 527.517 620.067 528.317 621.9 529.05 C 626.333 530.85 631.683 531.75 637.95 531.75 C 644.183 531.75 649.5 530.85 653.9 529.05 C 655.733 528.317 657.183 527.517 658.25 526.65 C 659.217 525.817 659.867 524.95 660.2 524.05"/>
    <path stroke="none" fill="#EEBE00" d="M 651.25 464.45 C 653.85 468.95 655.4 473.167 655.9 477.1 C 656.5 481 655.883 483.467 654.05 484.5 C 652.217 485.567 649.733 484.883 646.6 482.45 C 643.533 480.017 640.7 476.55 638.1 472.05 L 637.2 470.5 C 636.133 468.367 635.733 466.2 636 464 C 636.267 461.567 637.317 459.817 639.15 458.75 C 640.983 457.717 643.033 457.683 645.3 458.65 C 647.3 459.517 648.967 460.95 650.3 462.95 L 651.25 464.45 M 631.55 472.15 C 629.85 475.15 627.95 477.45 625.85 479.05 C 623.817 480.683 622.2 481.133 621 480.4 C 619.8 479.733 619.383 478.1 619.75 475.5 C 620.117 472.9 621.15 470.117 622.85 467.15 L 623.45 466.1 C 624.35 464.767 625.467 463.817 626.8 463.25 C 628.3 462.583 629.65 462.6 630.85 463.3 C 632.05 464.033 632.75 465.217 632.95 466.85 C 633.117 468.25 632.85 469.667 632.15 471.1 L 631.55 472.15"/>
  </g>
</svg>