<?xml version="1.0" encoding="utf-8"?>
<svg viewBox="319.95 818.83 128 141.17" xmlns="http://www.w3.org/2000/svg">
  <g>
    <title>Cow</title>
    <path stroke="none" fill="#414040" d="M 412.8 838.65 L 411.55 838.05 C 408.983 836.817 406.35 835.767 403.65 834.9 L 403.7 834.45 L 403.8 832.2 L 404.45 831.25 C 406.983 827.85 410.383 825.4 414.65 823.9 C 418.817 822.4 422.633 822.283 426.1 823.55 C 429.233 824.75 431.217 826.733 432.05 829.5 L 432.65 832.2 C 434.217 840.033 434.533 847.267 433.6 853.9 L 433.45 854.95 L 433.4 855.25 L 432.25 853.9 L 429.2 850.7 L 427.6 849.15 L 426.8 844.2 L 426.35 842.3 C 425.783 840.267 424.383 838.817 422.15 837.95 L 413.85 838.2 L 412.8 838.65 M 409.25 841 C 413.85 842.967 418.217 845.533 422.35 848.7 C 418.883 850.333 415.767 852.067 413 853.9 L 410.65 855.55 L 408.95 856.7 C 406.517 858.033 405.2 857.45 405 854.95 L 405.05 853.9 C 405.117 852.333 405.317 850.85 405.65 849.45 C 406.317 846.35 407.517 843.533 409.25 841 M 334.5 855 C 333.4 848.067 333.667 840.483 335.3 832.25 L 335.9 829.5 C 336.733 826.733 338.717 824.767 341.85 823.6 C 345.317 822.333 349.15 822.45 353.35 823.95 C 357.583 825.417 360.967 827.867 363.5 831.3 L 364.1 832.2 C 364.033 832.9 364.067 833.65 364.2 834.45 L 364.3 834.9 C 361.567 835.767 358.917 836.817 356.35 838.05 L 355.15 838.65 L 354.1 838.25 L 345.85 838 C 343.583 838.867 342.15 840.317 341.55 842.35 L 341.15 844.2 L 340.4 849.1 C 339.833 849.6 339.267 850.133 338.7 850.7 L 334.55 855.25 L 334.5 855 M 364.85 838.15 C 364.717 837.417 364.733 836.7 364.9 836 L 365.4 834.55 L 365.6 834.1 L 365.95 833.5 C 366.983 831.867 368.4 831.05 370.2 831.05 L 397.75 831.05 C 399.017 831.05 400.083 831.467 400.95 832.3 L 401.95 833.5 L 402.35 834.15 L 402.55 834.55 L 403 836.05 C 403.133 836.883 403.15 837.767 403.05 838.7 L 403.05 838.75 L 401.3 850.65 L 400.95 851.95 C 400.55 852.983 399.95 853.883 399.15 854.65 L 395.4 857.6 C 391.4 860.167 387.567 861.467 383.9 861.5 C 380.267 861.467 376.55 860.2 372.75 857.7 L 368.75 854.65 C 367.617 853.583 366.9 852.25 366.6 850.65 L 364.85 838.75 L 364.85 838.3 L 364.85 838.15 M 358.7 841 C 360.433 843.567 361.633 846.433 362.3 849.6 C 362.667 851.3 362.867 853.083 362.9 854.95 C 362.7 857.417 361.417 858 359.05 856.7 L 357.25 855.55 C 353.95 853.083 350.067 850.8 345.6 848.7 C 349.7 845.533 354.067 842.967 358.7 841 M 320.65 905.7 C 326.583 902.267 333.283 900.617 340.75 900.75 C 344.75 900.95 345.033 902.7 341.6 906 C 334.4 912.933 330.833 921.583 330.9 931.95 C 325.4 924.05 321.983 915.3 320.65 905.7 M 437 932 C 437.1 921.6 433.533 912.933 426.3 906 C 422.867 902.7 423.15 900.95 427.15 900.75 C 434.617 900.617 441.35 902.283 447.35 905.75 C 446.35 912.683 444.267 919.183 441.1 925.25 C 439.9 927.55 438.533 929.8 437 932 M 365.45 898.05 L 367.8 889.95 C 369.967 883.35 375.35 880.167 383.95 880.4 C 393.283 880.667 398.667 883.85 400.1 889.95 L 402.5 898.1 C 396.967 895.367 390.783 894 383.95 894 C 377.117 894 370.95 895.35 365.45 898.05 M 421.4 927.9 C 420.9 935.933 417.25 942.833 410.45 948.6 C 403.117 954.867 394.283 958 383.95 958 C 373.583 958 364.733 954.867 357.4 948.6 C 350.633 942.8 347 935.9 346.5 927.9 C 347.033 919.967 350.667 913.117 357.4 907.35 C 359.433 905.617 361.567 904.133 363.8 902.9 C 369.733 899.633 376.45 898 383.95 898 C 391.45 898 398.167 899.65 404.1 902.95 C 406.333 904.183 408.45 905.65 410.45 907.35 C 417.183 913.117 420.833 919.967 421.4 927.9 M 402.45 908.15 L 401.6 907.55 C 400.667 907.083 399.467 907.067 398 907.5 L 397.75 907.6 C 395.85 908.167 394.067 909.283 392.4 910.95 L 392.25 911.1 C 391.817 911.567 391.483 912.083 391.25 912.65 C 390.983 913.25 390.85 913.917 390.85 914.65 C 390.85 916.083 391.35 917.3 392.35 918.3 C 393.35 919.3 394.567 919.8 396 919.8 C 397.367 919.8 398.55 919.333 399.55 918.4 L 399.7 918.25 C 401.067 916.883 402.067 915.45 402.7 913.95 L 403.15 912.65 L 403.3 912.15 C 403.567 910.883 403.483 909.833 403.05 909 L 402.45 908.15 M 368.35 918.4 C 369.35 919.333 370.533 919.8 371.9 919.8 C 373.333 919.8 374.55 919.3 375.55 918.3 C 376.55 917.3 377.05 916.083 377.05 914.65 C 377.05 913.917 376.933 913.25 376.7 912.65 L 375.65 911.1 L 375.5 910.95 C 373.8 909.25 372 908.117 370.1 907.55 L 369.9 907.5 C 368.433 907.067 367.25 907.083 366.35 907.55 C 366.017 907.683 365.717 907.883 365.45 908.15 L 364.85 909 C 364.417 909.833 364.35 910.883 364.65 912.15 L 364.75 912.65 L 365.2 913.95 C 365.833 915.45 366.833 916.883 368.2 918.25 L 368.35 918.4"/>
    <path stroke="none" fill="#4F4E4E" d="M 411.55 838.05 L 412.8 838.65 C 417.267 840.917 421.5 843.783 425.5 847.25 C 424.4 847.717 423.35 848.2 422.35 848.7 C 418.217 845.533 413.85 842.967 409.25 841 L 409.6 840.45 C 410.2 839.617 410.85 838.817 411.55 838.05 M 342.4 847.25 C 346.4 843.783 350.65 840.917 355.15 838.65 L 356.35 838.05 L 358.35 840.45 L 358.7 841 C 354.067 842.967 349.7 845.533 345.6 848.7 L 342.4 847.25"/>
    <path stroke="none" fill="#FFFFFF" d="M 342.4 847.25 L 345.6 848.7 C 343.7 850.133 341.867 851.7 340.1 853.4 L 338.7 854.7 L 335.45 858.25 C 325.55 869.55 320.4 882.8 320 898 L 319.95 896 C 319.95 880.4 324.817 866.817 334.55 855.25 L 338.7 850.7 C 339.267 850.133 339.833 849.6 340.4 849.1 L 342.4 847.25 M 427.6 849.15 L 429.2 850.7 L 432.25 853.9 L 433.4 855.25 C 443.1 866.85 447.95 880.433 447.95 896 L 447.95 898 C 447.517 882.8 442.367 869.55 432.5 858.25 L 429.2 854.7 L 428.4 853.9 L 427.9 853.45 C 426.1 851.717 424.25 850.133 422.35 848.7 C 423.35 848.2 424.4 847.717 425.5 847.25 L 427.6 849.15 M 403.65 834.9 C 406.35 835.767 408.983 836.817 411.55 838.05 C 410.85 838.817 410.2 839.617 409.6 840.45 L 409.25 841 L 409 840.9 C 407.067 840.067 405.083 839.35 403.05 838.75 L 403.05 838.7 L 403.65 834.9 M 364.3 834.9 L 364.85 838.15 L 364.85 838.3 L 364.85 838.75 C 362.817 839.35 360.833 840.067 358.9 840.9 L 358.7 841 L 358.35 840.45 L 356.35 838.05 C 358.917 836.817 361.567 835.767 364.3 834.9 M 432.45 878.55 C 432.45 881.983 431.233 884.9 428.8 887.3 C 426.367 889.767 423.417 891 419.95 891 C 416.55 891 413.617 889.767 411.15 887.3 C 408.717 884.9 407.5 881.983 407.5 878.55 C 407.5 875.083 408.717 872.133 411.15 869.7 C 413.617 867.267 416.55 866.05 419.95 866.05 C 423.417 866.05 426.367 867.267 428.8 869.7 C 431.233 872.133 432.45 875.083 432.45 878.55 M 427.7 878.75 C 427.7 876.35 426.867 874.3 425.2 872.6 C 423.533 870.933 421.483 870.1 419.05 870.1 C 416.683 870.1 414.633 870.933 412.9 872.6 C 411.233 874.3 410.4 876.35 410.4 878.75 C 410.4 881.15 411.233 883.167 412.9 884.8 C 414.633 886.5 416.683 887.35 419.05 887.35 C 421.483 887.35 423.533 886.5 425.2 884.8 C 426.867 883.167 427.7 881.15 427.7 878.75 M 340.15 878.75 C 340.15 881.15 341 883.167 342.7 884.8 C 344.367 886.5 346.417 887.35 348.85 887.35 C 351.217 887.35 353.25 886.5 354.95 884.8 C 356.65 883.167 357.5 881.15 357.5 878.75 C 357.5 876.35 356.65 874.3 354.95 872.6 C 353.25 870.933 351.217 870.1 348.85 870.1 C 346.417 870.1 344.367 870.933 342.7 872.6 C 341 874.3 340.15 876.35 340.15 878.75 M 335.45 878.55 C 335.45 875.083 336.667 872.133 339.1 869.7 C 341.533 867.267 344.483 866.05 347.95 866.05 C 351.35 866.05 354.283 867.267 356.75 869.7 C 359.183 872.133 360.4 875.083 360.4 878.55 C 360.4 881.983 359.183 884.9 356.75 887.3 C 354.283 889.767 351.35 891 347.95 891 C 344.483 891 341.533 889.767 339.1 887.3 C 336.667 884.9 335.45 881.983 335.45 878.55"/>
    <path stroke="none" fill="#545353" d="M 433.45 854.95 L 433.6 853.9 C 434.533 847.267 434.217 840.033 432.65 832.2 L 432.05 829.5 C 431.217 826.733 429.233 824.75 426.1 823.55 C 422.633 822.283 418.817 822.4 414.65 823.9 C 410.383 825.4 406.983 827.85 404.45 831.25 L 403.8 832.2 L 403.7 834.45 L 403.65 834.9 L 403.05 838.7 C 403.15 837.767 403.133 836.883 403 836.05 L 402.55 834.55 L 402.35 834.15 L 401.95 833.5 L 400.95 832.3 C 400.083 831.467 399.017 831.05 397.75 831.05 L 370.2 831.05 C 368.4 831.05 366.983 831.867 365.95 833.5 L 365.6 834.1 L 365.4 834.55 L 364.9 836 C 364.733 836.7 364.717 837.417 364.85 838.15 L 364.3 834.9 L 364.2 834.45 C 364.067 833.65 364.033 832.9 364.1 832.2 L 363.5 831.3 C 360.967 827.867 357.583 825.417 353.35 823.95 C 349.15 822.45 345.317 822.333 341.85 823.6 C 338.717 824.767 336.733 826.733 335.9 829.5 L 335.3 832.25 C 333.667 840.483 333.4 848.067 334.5 855 L 334.2 853.8 C 332.567 846.167 332.683 837.683 334.55 828.35 L 335.1 825.65 C 335.967 822.85 337.95 820.883 341.05 819.75 C 344.55 818.483 348.383 818.6 352.55 820.1 C 356.783 821.567 360.167 824 362.7 827.4 C 363.4 828.4 363.983 829.383 364.45 830.35 L 365.25 828.55 C 366.317 826.783 367.783 825.9 369.65 825.9 L 398.25 825.9 C 399.283 825.9 400.183 826.183 400.95 826.75 C 401.583 827.15 402.133 827.75 402.6 828.55 C 402.967 829.117 403.267 829.733 403.5 830.4 C 403.933 829.4 404.517 828.383 405.25 827.35 C 407.783 823.983 411.167 821.55 415.4 820.05 C 419.6 818.55 423.433 818.433 426.9 819.7 C 430 820.867 431.983 822.85 432.85 825.65 L 433.4 828.3 C 435.3 837.667 435.417 846.167 433.75 853.8 L 433.75 853.9 L 433.45 854.95 M 402.5 898.1 C 405.3 899.5 407.95 901.25 410.45 903.35 C 417.483 909.383 421.15 916.6 421.45 925 L 421.45 926 L 421.4 927.9 C 420.833 919.967 417.183 913.117 410.45 907.35 C 408.45 905.65 406.333 904.183 404.1 902.95 C 398.167 899.65 391.45 898 383.95 898 C 376.45 898 369.733 899.633 363.8 902.9 C 361.567 904.133 359.433 905.617 357.4 907.35 C 350.667 913.117 347.033 919.967 346.5 927.9 L 346.45 926 L 346.45 925 C 346.717 916.6 350.367 909.383 357.4 903.35 C 359.9 901.217 362.583 899.45 365.45 898.05 C 370.95 895.35 377.117 894 383.95 894 C 390.783 894 396.967 895.367 402.5 898.1"/>
    <path stroke="none" fill="#2E2D2D" d="M 412.8 838.65 L 413.85 838.2 L 422.15 837.95 C 424.383 838.817 425.783 840.267 426.35 842.3 L 426.8 844.2 L 427.6 849.15 L 425.5 847.25 C 421.5 843.783 417.267 840.917 412.8 838.65 M 340.4 849.1 L 341.15 844.2 L 341.55 842.35 C 342.15 840.317 343.583 838.867 345.85 838 L 354.1 838.25 L 355.15 838.65 C 350.65 840.917 346.4 843.783 342.4 847.25 L 340.4 849.1 M 402.45 908.15 L 403.05 909 C 403.483 909.833 403.567 910.883 403.3 912.15 L 403.15 912.65 L 402.7 913.95 C 402.067 915.45 401.067 916.883 399.7 918.25 L 399.55 918.4 C 398.55 919.333 397.367 919.8 396 919.8 C 394.567 919.8 393.35 919.3 392.35 918.3 C 391.35 917.3 390.85 916.083 390.85 914.65 C 390.85 913.917 390.983 913.25 391.25 912.65 C 391.483 912.083 391.817 911.567 392.25 911.1 L 392.4 910.95 C 394.067 909.283 395.85 908.167 397.75 907.6 L 398 907.5 C 399.467 907.067 400.667 907.083 401.6 907.55 L 402.45 908.15 M 368.35 918.4 L 368.2 918.25 C 366.833 916.883 365.833 915.45 365.2 913.95 L 364.75 912.65 L 364.65 912.15 C 364.35 910.883 364.417 909.833 364.85 909 L 365.45 908.15 C 365.717 907.883 366.017 907.683 366.35 907.55 C 367.25 907.083 368.433 907.067 369.9 907.5 L 370.1 907.55 C 372 908.117 373.8 909.25 375.5 910.95 L 375.65 911.1 L 376.7 912.65 C 376.933 913.25 377.05 913.917 377.05 914.65 C 377.05 916.083 376.55 917.3 375.55 918.3 C 374.55 919.3 373.333 919.8 371.9 919.8 C 370.533 919.8 369.35 919.333 368.35 918.4"/>
    <path stroke="none" fill="#E9E9E9" d="M 403.05 838.75 C 405.083 839.35 407.067 840.067 409 840.9 L 409.25 841 C 407.517 843.533 406.317 846.35 405.65 849.45 C 405.317 850.85 405.117 852.333 405.05 853.9 L 405 854.95 C 405.2 857.45 406.517 858.033 408.95 856.7 L 410.65 855.55 L 413 853.9 C 415.767 852.067 418.883 850.333 422.35 848.7 C 424.25 850.133 426.1 851.717 427.9 853.45 L 428.4 853.9 L 429.2 854.7 L 432.5 858.25 C 442.367 869.55 447.517 882.8 447.95 898 C 447.883 900.633 447.683 903.217 447.35 905.75 C 441.35 902.283 434.617 900.617 427.15 900.75 C 423.15 900.95 422.867 902.7 426.3 906 C 433.533 912.933 437.1 921.6 437 932 C 434.733 935.2 432.133 938.267 429.2 941.2 C 416.7 953.733 401.617 960 383.95 960 C 366.283 960 351.2 953.733 338.7 941.2 C 335.733 938.267 333.133 935.183 330.9 931.95 C 330.833 921.583 334.4 912.933 341.6 906 C 345.033 902.7 344.75 900.95 340.75 900.75 C 333.283 900.617 326.583 902.267 320.65 905.7 C 320.283 903.2 320.067 900.633 320 898 C 320.4 882.8 325.55 869.55 335.45 858.25 L 338.7 854.7 L 340.1 853.4 C 341.867 851.7 343.7 850.133 345.6 848.7 C 350.067 850.8 353.95 853.083 357.25 855.55 L 359.05 856.7 C 361.417 858 362.7 857.417 362.9 854.95 C 362.867 853.083 362.667 851.3 362.3 849.6 C 361.633 846.433 360.433 843.567 358.7 841 L 358.9 840.9 C 360.833 840.067 362.817 839.35 364.85 838.75 L 366.6 850.65 C 366.9 852.25 367.617 853.583 368.75 854.65 L 372.75 857.7 C 376.55 860.2 380.267 861.467 383.9 861.5 C 387.567 861.467 391.4 860.167 395.4 857.6 L 399.15 854.65 C 399.95 853.883 400.55 852.983 400.95 851.95 L 401.3 850.65 L 403.05 838.75 M 432.45 878.55 C 432.45 875.083 431.233 872.133 428.8 869.7 C 426.367 867.267 423.417 866.05 419.95 866.05 C 416.55 866.05 413.617 867.267 411.15 869.7 C 408.717 872.133 407.5 875.083 407.5 878.55 C 407.5 881.983 408.717 884.9 411.15 887.3 C 413.617 889.767 416.55 891 419.95 891 C 423.417 891 426.367 889.767 428.8 887.3 C 431.233 884.9 432.45 881.983 432.45 878.55 M 335.45 878.55 C 335.45 881.983 336.667 884.9 339.1 887.3 C 341.533 889.767 344.483 891 347.95 891 C 351.35 891 354.283 889.767 356.75 887.3 C 359.183 884.9 360.4 881.983 360.4 878.55 C 360.4 875.083 359.183 872.133 356.75 869.7 C 354.283 867.267 351.35 866.05 347.95 866.05 C 344.483 866.05 341.533 867.267 339.1 869.7 C 336.667 872.133 335.45 875.083 335.45 878.55 M 402.5 898.1 L 400.1 889.95 C 398.667 883.85 393.283 880.667 383.95 880.4 C 375.35 880.167 369.967 883.35 367.8 889.95 L 365.45 898.05 C 362.583 899.45 359.9 901.217 357.4 903.35 C 350.367 909.383 346.717 916.6 346.45 925 L 346.45 926 L 346.5 927.9 C 347 935.9 350.633 942.8 357.4 948.6 C 364.733 954.867 373.583 958 383.95 958 C 394.283 958 403.117 954.867 410.45 948.6 C 417.25 942.833 420.9 935.933 421.4 927.9 L 421.45 926 L 421.45 925 C 421.15 916.6 417.483 909.383 410.45 903.35 C 407.95 901.25 405.3 899.5 402.5 898.1"/>
    <path stroke="none" fill="#5B5B5B" d="M 427.7 878.75 C 427.7 881.15 426.867 883.167 425.2 884.8 C 423.533 886.5 421.483 887.35 419.05 887.35 C 416.683 887.35 414.633 886.5 412.9 884.8 C 411.233 883.167 410.4 881.15 410.4 878.75 C 410.4 876.35 411.233 874.3 412.9 872.6 C 414.633 870.933 416.683 870.1 419.05 870.1 C 421.483 870.1 423.533 870.933 425.2 872.6 C 426.867 874.3 427.7 876.35 427.7 878.75 M 340.15 878.75 C 340.15 876.35 341 874.3 342.7 872.6 C 344.367 870.933 346.417 870.1 348.85 870.1 C 351.217 870.1 353.25 870.933 354.95 872.6 C 356.65 874.3 357.5 876.35 357.5 878.75 C 357.5 881.15 356.65 883.167 354.95 884.8 C 353.25 886.5 351.217 887.35 348.85 887.35 C 346.417 887.35 344.367 886.5 342.7 884.8 C 341 883.167 340.15 881.15 340.15 878.75"/>
  </g>
</svg>