<?xml version="1.0" encoding="utf-8"?>
<svg viewBox="1077.236 832 144.479 128" xmlns="http://www.w3.org/2000/svg">
  <g>
    <title>Cow_Pink</title>
    <path stroke="none" fill="#414040" d="M 1176.7 841.35 C 1178.833 839.75 1181.8 838.483 1185.6 837.55 L 1186.75 837.25 C 1194.383 835.583 1202.883 835.7 1212.25 837.6 L 1214.9 838.15 C 1217.7 839.017 1219.683 841 1220.85 844.1 C 1221.25 845.233 1221.517 846.4 1221.65 847.6 C 1221.483 849.2 1221.1 850.867 1220.5 852.6 C 1219 856.833 1216.567 860.217 1213.2 862.75 C 1210.467 864.683 1207.833 865.683 1205.3 865.75 L 1204.05 865.65 L 1201.25 865.15 L 1198.3 864.55 L 1197.35 864.3 L 1193.75 863.25 C 1194.783 862.883 1195.883 862.3 1197.05 861.5 C 1199.483 859.667 1201.25 857.217 1202.35 854.15 C 1202.75 853.083 1203.017 852.033 1203.15 851 C 1203.383 849.2 1203.2 847.483 1202.6 845.85 C 1201.733 843.617 1200.283 842.217 1198.25 841.65 L 1196.35 841.2 C 1189.617 839.833 1183.5 839.75 1178 840.95 L 1176.7 841.35 M 1077.3 847.6 C 1077.433 846.4 1077.7 845.233 1078.1 844.1 C 1079.267 841 1081.25 839.017 1084.05 838.15 L 1086.7 837.6 C 1096.067 835.7 1104.567 835.583 1112.2 837.25 L 1113.35 837.55 C 1117.15 838.483 1120.117 839.75 1122.25 841.35 L 1120.95 840.95 C 1115.45 839.75 1109.333 839.833 1102.6 841.2 L 1100.7 841.65 C 1098.667 842.217 1097.217 843.617 1096.35 845.85 C 1095.75 847.483 1095.567 849.2 1095.8 851 C 1095.933 852.033 1096.2 853.083 1096.6 854.15 C 1097.7 857.217 1099.467 859.667 1101.9 861.5 C 1103.067 862.3 1104.167 862.883 1105.2 863.25 L 1101.6 864.3 L 1100.65 864.55 L 1097.7 865.15 L 1094.9 865.65 L 1093.65 865.75 C 1091.117 865.683 1088.483 864.683 1085.75 862.75 C 1082.383 860.217 1079.95 856.833 1078.45 852.6 C 1077.85 850.867 1077.467 849.2 1077.3 847.6"/>
    <path stroke="none" fill="#545353" d="M 1077.3 847.6 C 1077.1 845.3 1077.367 843.133 1078.1 841.1 C 1079.267 838 1081.25 836.017 1084.05 835.15 L 1086.7 834.6 C 1096.067 832.7 1104.567 832.583 1112.2 834.25 L 1113.35 834.55 C 1119.617 836.083 1123.65 838.533 1125.45 841.9 L 1125.7 842.45 L 1122.3 841.35 L 1122.25 841.35 C 1120.117 839.75 1117.15 838.483 1113.35 837.55 L 1112.2 837.25 C 1104.567 835.583 1096.067 835.7 1086.7 837.6 L 1084.05 838.15 C 1081.25 839.017 1079.267 841 1078.1 844.1 C 1077.7 845.233 1077.433 846.4 1077.3 847.6 M 1221.65 847.6 C 1221.517 846.4 1221.25 845.233 1220.85 844.1 C 1219.683 841 1217.7 839.017 1214.9 838.15 L 1212.25 837.6 C 1202.883 835.7 1194.383 835.583 1186.75 837.25 L 1185.6 837.55 C 1181.8 838.483 1178.833 839.75 1176.7 841.35 L 1176.65 841.35 C 1175.35 841.65 1174.217 842.017 1173.25 842.45 L 1173.5 841.9 C 1175.3 838.533 1179.333 836.083 1185.6 834.55 L 1186.75 834.25 C 1194.383 832.583 1202.883 832.7 1212.25 834.6 L 1214.9 835.15 C 1217.7 836.017 1219.683 838 1220.85 841.1 C 1221.583 843.133 1221.85 845.3 1221.65 847.6"/>
    <path stroke="none" fill="#FFAAFF" d="M 1176.7 841.35 L 1178 840.95 C 1183.5 839.75 1189.617 839.833 1196.35 841.2 L 1198.25 841.65 C 1200.283 842.217 1201.733 843.617 1202.6 845.85 C 1203.2 847.483 1203.383 849.2 1203.15 851 C 1203.017 852.033 1202.75 853.083 1202.35 854.15 C 1201.25 857.217 1199.483 859.667 1197.05 861.5 C 1195.883 862.3 1194.783 862.883 1193.75 863.25 L 1192.35 862.8 C 1187.117 861 1182.683 858.683 1179.05 855.85 C 1176.417 853.85 1174.583 851.833 1173.55 849.8 C 1172.383 847.567 1172.183 845.317 1172.95 843.05 L 1173.25 842.45 C 1174.217 842.017 1175.35 841.65 1176.65 841.35 L 1176.7 841.35 M 1122.25 841.35 L 1122.3 841.35 L 1125.7 842.45 L 1126 843.05 C 1126.767 845.317 1126.567 847.567 1125.4 849.8 C 1124.367 851.833 1122.533 853.85 1119.9 855.85 C 1116.267 858.683 1111.833 861 1106.6 862.8 L 1105.2 863.25 C 1104.167 862.883 1103.067 862.3 1101.9 861.5 C 1099.467 859.667 1097.7 857.217 1096.6 854.15 C 1096.2 853.083 1095.933 852.033 1095.8 851 C 1095.567 849.2 1095.75 847.483 1096.35 845.85 C 1097.217 843.617 1098.667 842.217 1100.7 841.65 L 1102.6 841.2 C 1109.333 839.833 1115.45 839.75 1120.95 840.95 L 1122.25 841.35"/>
    <path stroke="none" fill="#4F4E4E" d="M 1165.05 837.75 L 1165.5 833.85 C 1176.433 836.55 1186.183 842.167 1194.75 850.7 L 1196 852 C 1207.667 864.267 1213.5 878.933 1213.5 896 L 1213.5 898 C 1213.033 881.8 1207.2 867.8 1196 856 L 1194.75 854.7 C 1186.083 846.067 1176.183 840.417 1165.05 837.75 M 1133.5 833.9 L 1133.95 837.75 L 1133.95 837.8 C 1127.183 839.4 1120.867 842.117 1115 845.95 C 1111.233 848.417 1107.65 851.333 1104.25 854.7 C 1092.217 866.767 1085.983 881.2 1085.55 898 L 1085.5 896 C 1085.5 878.333 1091.75 863.233 1104.25 850.7 C 1107.65 847.3 1111.233 844.383 1115 841.95 C 1120.733 838.183 1126.9 835.5 1133.5 833.9"/>
    <path stroke="none" fill="#FFFFFF" d="M 1133.5 833.9 C 1138.567 832.633 1143.9 832 1149.5 832 C 1155.067 832 1160.383 832.617 1165.45 833.85 L 1165.5 833.85 L 1165.05 837.75 L 1165 837.75 L 1159.5 836.7 L 1149.5 836 L 1139.5 836.7 L 1133.95 837.8 L 1133.95 837.75 L 1133.5 833.9"/>
    <path stroke="none" fill="#F0F0F0" d="M 1133.95 837.8 L 1139.5 836.7 L 1149.5 836 L 1159.5 836.7 L 1165 837.75 L 1165.05 837.75 C 1162.883 848.05 1161.483 858.45 1160.85 868.95 C 1160.35 877.05 1160.317 885.217 1160.75 893.45 C 1161.55 908.25 1175.733 920.733 1203.3 930.9 C 1200.867 934.533 1198.017 937.967 1194.75 941.2 C 1182.25 953.733 1167.167 960 1149.5 960 C 1131.833 960 1116.75 953.733 1104.25 941.2 C 1100.983 937.933 1098.15 934.5 1095.75 930.9 C 1123.283 920.733 1137.45 908.25 1138.25 893.45 C 1138.683 885.217 1138.667 877.05 1138.2 868.95 C 1137.533 858.483 1136.117 848.1 1133.95 837.8"/>
    <path stroke="none" fill="#414040" d="M 1133.95 837.8 C 1136.117 848.1 1137.533 858.483 1138.2 868.95 C 1138.667 877.05 1138.683 885.217 1138.25 893.45 C 1137.45 908.25 1123.283 920.733 1095.75 930.9 C 1089.25 921.2 1085.85 910.233 1085.55 898 C 1085.983 881.2 1092.217 866.767 1104.25 854.7 C 1107.65 851.333 1111.233 848.417 1115 845.95 C 1120.867 842.117 1127.183 839.4 1133.95 837.8 M 1203.3 930.9 C 1175.733 920.733 1161.55 908.25 1160.75 893.45 C 1160.317 885.217 1160.35 877.05 1160.85 868.95 C 1161.483 858.45 1162.883 848.05 1165.05 837.75 C 1176.183 840.417 1186.083 846.067 1194.75 854.7 L 1196 856 C 1207.2 867.8 1213.033 881.8 1213.5 898 C 1213.233 907.933 1210.95 917.017 1206.65 925.25 L 1203.3 930.9"/>
    <path stroke="none" fill="#FFC4FF" d="M 1112.05 927.9 L 1112 926 L 1112 925 C 1112.267 916.6 1115.917 909.383 1122.95 903.35 C 1130.283 897.117 1139.133 894 1149.5 894 C 1159.833 894 1168.667 897.117 1176 903.35 C 1183.033 909.383 1186.7 916.6 1187 925 L 1187 926 L 1186.95 927.9 C 1186.383 919.967 1182.733 913.117 1176 907.35 C 1168.667 901.117 1159.833 898 1149.5 898 C 1139.133 898 1130.283 901.117 1122.95 907.35 C 1116.217 913.117 1112.583 919.967 1112.05 927.9"/>
    <path stroke="none" fill="#FFAAFF" d="M 1112.05 927.9 C 1112.583 919.967 1116.217 913.117 1122.95 907.35 C 1130.283 901.117 1139.133 898 1149.5 898 C 1159.833 898 1168.667 901.117 1176 907.35 C 1182.733 913.117 1186.383 919.967 1186.95 927.9 C 1186.517 934.7 1183.833 940.7 1178.9 945.9 L 1176 948.6 C 1174.6 949.8 1173.133 950.9 1171.6 951.9 C 1165.033 950.567 1157.667 949.9 1149.5 949.9 C 1141.3 949.9 1133.933 950.567 1127.4 951.9 L 1122.95 948.6 L 1120.1 945.9 C 1115.167 940.7 1112.483 934.7 1112.05 927.9 M 1168 908.15 L 1167.15 907.55 C 1166.217 907.083 1165.017 907.067 1163.55 907.5 L 1163.3 907.6 C 1161.4 908.167 1159.617 909.283 1157.95 910.95 L 1157.8 911.1 C 1157.367 911.567 1157.033 912.083 1156.8 912.65 C 1156.533 913.25 1156.4 913.917 1156.4 914.65 C 1156.4 916.083 1156.9 917.3 1157.9 918.3 C 1158.9 919.3 1160.117 919.8 1161.55 919.8 C 1162.917 919.8 1164.1 919.333 1165.1 918.4 L 1165.25 918.25 C 1166.617 916.883 1167.617 915.45 1168.25 913.95 L 1168.7 912.65 L 1168.85 912.15 C 1169.117 910.883 1169.033 909.833 1168.6 909 L 1168 908.15 M 1133.9 918.4 C 1134.9 919.333 1136.083 919.8 1137.45 919.8 C 1138.883 919.8 1140.1 919.3 1141.1 918.3 C 1142.1 917.3 1142.6 916.083 1142.6 914.65 C 1142.6 913.917 1142.483 913.25 1142.25 912.65 L 1141.2 911.1 L 1141.05 910.95 C 1139.35 909.25 1137.55 908.117 1135.65 907.55 L 1135.45 907.5 C 1133.983 907.067 1132.8 907.083 1131.9 907.55 C 1131.567 907.683 1131.267 907.883 1131 908.15 L 1130.4 909 C 1129.967 909.833 1129.9 910.883 1130.2 912.15 L 1130.3 912.65 L 1130.75 913.95 C 1131.383 915.45 1132.383 916.883 1133.75 918.25 L 1133.9 918.4"/>
    <path stroke="none" fill="#A66EA6" d="M 1133.9 918.4 L 1133.75 918.25 C 1132.383 916.883 1131.383 915.45 1130.75 913.95 L 1130.3 912.65 L 1130.2 912.15 C 1129.9 910.883 1129.967 909.833 1130.4 909 L 1131 908.15 C 1131.267 907.883 1131.567 907.683 1131.9 907.55 C 1132.8 907.083 1133.983 907.067 1135.45 907.5 L 1135.65 907.55 C 1137.55 908.117 1139.35 909.25 1141.05 910.95 L 1141.2 911.1 L 1142.25 912.65 C 1142.483 913.25 1142.6 913.917 1142.6 914.65 C 1142.6 916.083 1142.1 917.3 1141.1 918.3 C 1140.1 919.3 1138.883 919.8 1137.45 919.8 C 1136.083 919.8 1134.9 919.333 1133.9 918.4 M 1168 908.15 L 1168.6 909 C 1169.033 909.833 1169.117 910.883 1168.85 912.15 L 1168.7 912.65 L 1168.25 913.95 C 1167.617 915.45 1166.617 916.883 1165.25 918.25 L 1165.1 918.4 C 1164.1 919.333 1162.917 919.8 1161.55 919.8 C 1160.117 919.8 1158.9 919.3 1157.9 918.3 C 1156.9 917.3 1156.4 916.083 1156.4 914.65 C 1156.4 913.917 1156.533 913.25 1156.8 912.65 C 1157.033 912.083 1157.367 911.567 1157.8 911.1 L 1157.95 910.95 C 1159.617 909.283 1161.4 908.167 1163.3 907.6 L 1163.55 907.5 C 1165.017 907.067 1166.217 907.083 1167.15 907.55 L 1168 908.15"/>
    <path stroke="none" fill="#F0A0F0" d="M 1171.6 951.9 C 1165.2 955.967 1157.833 958 1149.5 958 C 1141.133 958 1133.767 955.967 1127.4 951.9 C 1133.933 950.567 1141.3 949.9 1149.5 949.9 C 1157.667 949.9 1165.033 950.567 1171.6 951.9"/>
    <path stroke="none" fill="#FFFFFF" d="M 1190.5 872.05 C 1190.5 874.783 1189.517 877.117 1187.55 879.05 C 1185.617 881.017 1183.267 882 1180.5 882 C 1177.767 882 1175.417 881.017 1173.45 879.05 C 1171.517 877.117 1170.55 874.783 1170.55 872.05 C 1170.55 869.25 1171.517 866.883 1173.45 864.95 C 1175.417 863.017 1177.767 862.05 1180.5 862.05 C 1183.267 862.05 1185.617 863.017 1187.55 864.95 C 1189.517 866.883 1190.5 869.25 1190.5 872.05 M 1186.7 872.2 C 1186.7 870.267 1186.033 868.617 1184.7 867.25 C 1183.367 865.917 1181.717 865.25 1179.75 865.25 C 1177.883 865.25 1176.25 865.917 1174.85 867.25 C 1173.517 868.617 1172.85 870.267 1172.85 872.2 C 1172.85 874.1 1173.517 875.717 1174.85 877.05 C 1176.25 878.383 1177.883 879.05 1179.75 879.05 C 1181.717 879.05 1183.367 878.383 1184.7 877.05 C 1186.033 875.717 1186.7 874.1 1186.7 872.2 M 1108.5 872.05 C 1108.5 869.25 1109.467 866.883 1111.4 864.95 C 1113.367 863.017 1115.733 862.05 1118.5 862.05 C 1121.2 862.05 1123.55 863.017 1125.55 864.95 C 1127.483 866.883 1128.45 869.25 1128.45 872.05 C 1128.45 874.783 1127.483 877.117 1125.55 879.05 C 1123.55 881.017 1121.2 882 1118.5 882 C 1115.733 882 1113.367 881.017 1111.4 879.05 C 1109.467 877.117 1108.5 874.783 1108.5 872.05 M 1112.25 872.2 C 1112.25 874.1 1112.933 875.717 1114.3 877.05 C 1115.633 878.383 1117.267 879.05 1119.2 879.05 C 1121.1 879.05 1122.733 878.383 1124.1 877.05 C 1125.467 875.717 1126.15 874.1 1126.15 872.2 C 1126.15 870.267 1125.467 868.617 1124.1 867.25 C 1122.733 865.917 1121.1 865.25 1119.2 865.25 C 1117.267 865.25 1115.633 865.917 1114.3 867.25 C 1112.933 868.617 1112.25 870.267 1112.25 872.2"/>
    <path stroke="none" fill="#5B5B5B" d="M 1112.25 872.2 C 1112.25 870.267 1112.933 868.617 1114.3 867.25 C 1115.633 865.917 1117.267 865.25 1119.2 865.25 C 1121.1 865.25 1122.733 865.917 1124.1 867.25 C 1125.467 868.617 1126.15 870.267 1126.15 872.2 C 1126.15 874.1 1125.467 875.717 1124.1 877.05 C 1122.733 878.383 1121.1 879.05 1119.2 879.05 C 1117.267 879.05 1115.633 878.383 1114.3 877.05 C 1112.933 875.717 1112.25 874.1 1112.25 872.2 M 1186.7 872.2 C 1186.7 874.1 1186.033 875.717 1184.7 877.05 C 1183.367 878.383 1181.717 879.05 1179.75 879.05 C 1177.883 879.05 1176.25 878.383 1174.85 877.05 C 1173.517 875.717 1172.85 874.1 1172.85 872.2 C 1172.85 870.267 1173.517 868.617 1174.85 867.25 C 1176.25 865.917 1177.883 865.25 1179.75 865.25 C 1181.717 865.25 1183.367 865.917 1184.7 867.25 C 1186.033 868.617 1186.7 870.267 1186.7 872.2"/>
  </g>
</svg>