<?xml version="1.0" encoding="utf-8"?>
<svg viewBox="573.85 1024 128 128" xmlns="http://www.w3.org/2000/svg">
  <g>
    <title>Croc</title>
    <path stroke="none" fill="#EBCEB7" d="M 653.5 1106.25 L 652.75 1105.7 C 651.983 1105.333 650.967 1105.333 649.7 1105.7 L 649.5 1105.75 C 647.9 1106.25 646.4 1107.2 645 1108.6 L 644.85 1108.75 C 644.483 1109.117 644.2 1109.55 644 1110.05 C 643.767 1110.55 643.65 1111.117 643.65 1111.75 C 643.65 1112.95 644.083 1113.967 644.95 1114.8 C 645.783 1115.667 646.817 1116.1 648.05 1116.1 C 649.183 1116.1 650.183 1115.7 651.05 1114.9 L 651.15 1114.8 C 652.317 1113.633 653.167 1112.417 653.7 1111.15 L 654.1 1110.05 L 654.2 1109.6 C 654.433 1108.533 654.367 1107.65 654 1106.95 L 653.5 1106.25 M 687.2 1128.7 L 683.05 1133.2 L 681.85 1134.4 L 674.9 1140.25 C 664.133 1148.083 651.783 1152 637.85 1152 C 622.917 1152 609.833 1147.517 598.6 1138.55 L 593.85 1134.4 L 592.6 1133.2 L 588.5 1128.7 C 581.6 1120.567 577.15 1111.433 575.15 1101.3 L 580.35 1103.45 C 590.183 1107.15 601.267 1109.717 613.6 1111.15 C 613.933 1108.183 615.183 1105.583 617.35 1103.35 C 619.983 1100.75 623.15 1099.45 626.85 1099.45 C 630.517 1099.45 633.65 1100.75 636.25 1103.35 L 637.85 1105.2 L 639.4 1103.35 C 642.033 1100.75 645.2 1099.45 648.9 1099.45 C 652.567 1099.45 655.7 1100.75 658.3 1103.35 C 660.533 1105.583 661.817 1108.183 662.15 1111.15 C 674.483 1109.717 685.55 1107.15 695.35 1103.45 L 700.6 1101.3 C 698.567 1111.433 694.1 1120.567 687.2 1128.7 M 624.65 1114.9 C 625.483 1115.7 626.483 1116.1 627.65 1116.1 C 628.85 1116.1 629.867 1115.667 630.7 1114.8 C 631.567 1113.967 632 1112.95 632 1111.75 L 631.7 1110.05 L 630.8 1108.75 L 630.7 1108.6 C 629.233 1107.167 627.7 1106.2 626.1 1105.7 L 625.95 1105.7 C 624.717 1105.333 623.717 1105.333 622.95 1105.7 C 622.65 1105.833 622.4 1106.017 622.2 1106.25 L 621.65 1106.95 C 621.283 1107.65 621.233 1108.533 621.5 1109.6 L 621.6 1110.05 L 621.95 1111.15 C 622.483 1112.417 623.333 1113.633 624.5 1114.8 L 624.65 1114.9"/>
    <path stroke="none" fill="#B19A89" d="M 624.65 1114.9 L 624.5 1114.8 C 623.333 1113.633 622.483 1112.417 621.95 1111.15 L 621.6 1110.05 L 621.5 1109.6 C 621.233 1108.533 621.283 1107.65 621.65 1106.95 L 622.2 1106.25 C 622.4 1106.017 622.65 1105.833 622.95 1105.7 C 623.717 1105.333 624.717 1105.333 625.95 1105.7 L 626.1 1105.7 C 627.7 1106.2 629.233 1107.167 630.7 1108.6 L 630.8 1108.75 L 631.7 1110.05 L 632 1111.75 C 632 1112.95 631.567 1113.967 630.7 1114.8 C 629.867 1115.667 628.85 1116.1 627.65 1116.1 C 626.483 1116.1 625.483 1115.7 624.65 1114.9 M 653.5 1106.25 L 654 1106.95 C 654.367 1107.65 654.433 1108.533 654.2 1109.6 L 654.1 1110.05 L 653.7 1111.15 C 653.167 1112.417 652.317 1113.633 651.15 1114.8 L 651.05 1114.9 C 650.183 1115.7 649.183 1116.1 648.05 1116.1 C 646.817 1116.1 645.783 1115.667 644.95 1114.8 C 644.083 1113.967 643.65 1112.95 643.65 1111.75 C 643.65 1111.117 643.767 1110.55 644 1110.05 C 644.2 1109.55 644.483 1109.117 644.85 1108.75 L 645 1108.6 C 646.4 1107.2 647.9 1106.25 649.5 1105.75 L 649.7 1105.7 C 650.967 1105.333 651.983 1105.333 652.75 1105.7 L 653.5 1106.25"/>
    <path stroke="none" fill="#F0EDE7" d="M 592.05 1111.1 L 591.05 1106.45 C 590.983 1106.217 591 1106 591.1 1105.8 C 591.2 1105.533 591.35 1105.35 591.55 1105.25 L 592.25 1105.2 L 606 1107.7 C 606.267 1107.733 606.5 1107.85 606.7 1108.05 L 607.15 1108.65 L 607.25 1109.45 L 606.3 1113.7 L 592.05 1111.1 M 669.4 1113.7 C 669.033 1112.367 668.717 1110.95 668.45 1109.45 L 668.55 1108.65 L 669 1108.05 C 669.2 1107.85 669.433 1107.733 669.7 1107.7 L 683.45 1105.2 L 684.15 1105.25 L 684.6 1105.8 L 684.65 1106.45 L 683.65 1111.1 L 669.4 1113.7"/>
    <path stroke="none" fill="#FFFCF5" d="M 669.4 1113.7 L 683.65 1111.1 C 682.317 1115.933 680.3 1120.4 677.6 1124.5 L 677.05 1125.05 L 676.35 1125.25 L 675.7 1125 C 672.9 1122.867 670.8 1119.1 669.4 1113.7 M 606.3 1113.7 C 604.9 1119.1 602.8 1122.867 600 1125 L 599.35 1125.25 L 598.65 1125.05 L 598.1 1124.5 C 595.4 1120.4 593.383 1115.933 592.05 1111.1 L 606.3 1113.7"/>
    <path stroke="none" fill="#FFFFFF" d="M 604.2 1042 C 604.2 1044.1 604.95 1045.867 606.45 1047.3 C 607.883 1048.833 609.667 1049.6 611.8 1049.6 C 613.9 1049.6 615.7 1048.833 617.2 1047.3 L 617.3 1047.25 C 617.933 1046.583 618.433 1045.867 618.8 1045.1 C 619.233 1044.167 619.45 1043.133 619.45 1042 C 619.45 1040.833 619.233 1039.767 618.8 1038.8 C 618.433 1037.967 617.9 1037.217 617.2 1036.55 L 616.85 1036.25 C 615.417 1035.017 613.733 1034.4 611.8 1034.4 C 609.667 1034.4 607.883 1035.117 606.45 1036.55 C 604.95 1037.983 604.2 1039.8 604.2 1042 M 598.25 1041.75 L 598.25 1041.7 C 598.25 1039.967 598.583 1038.367 599.25 1036.9 C 599.817 1035.533 600.683 1034.283 601.85 1033.15 C 604.25 1030.817 607.117 1029.65 610.45 1029.65 L 611.15 1029.7 C 613.217 1029.767 615.117 1030.333 616.85 1031.4 L 616.9 1031.45 L 618.8 1032.85 L 619.15 1033.15 C 621.483 1035.517 622.65 1038.383 622.65 1041.75 C 622.65 1045.117 621.483 1047.95 619.15 1050.25 L 618.8 1050.6 L 617.65 1051.55 C 615.517 1053.117 613.117 1053.9 610.45 1053.9 C 607.117 1053.9 604.25 1052.683 601.85 1050.25 C 599.45 1047.95 598.25 1045.117 598.25 1041.75 M 671.6 1042 C 671.6 1039.8 670.85 1037.983 669.35 1036.55 C 667.85 1035.117 666.05 1034.4 663.95 1034.4 C 662.05 1034.4 660.35 1035.017 658.85 1036.25 L 658.5 1036.55 C 657 1037.983 656.25 1039.8 656.25 1042 C 656.25 1044.067 656.983 1045.817 658.45 1047.25 L 658.5 1047.3 C 660.067 1048.833 661.883 1049.6 663.95 1049.6 C 666.05 1049.6 667.85 1048.833 669.35 1047.3 C 670.85 1045.867 671.6 1044.1 671.6 1042 M 677.45 1041.75 C 677.45 1045.117 676.283 1047.95 673.95 1050.25 C 671.55 1052.683 668.65 1053.9 665.25 1053.9 C 662.517 1053.9 660.117 1053.1 658.05 1051.5 L 656.7 1050.25 C 654.3 1047.95 653.1 1045.117 653.1 1041.75 C 653.1 1038.383 654.3 1035.517 656.7 1033.15 C 657.367 1032.483 658.067 1031.933 658.8 1031.5 L 658.95 1031.4 C 660.617 1030.333 662.5 1029.767 664.6 1029.7 L 665.25 1029.65 C 668.65 1029.65 671.55 1030.817 673.95 1033.15 C 675.083 1034.317 675.95 1035.6 676.55 1037 C 677.15 1038.433 677.45 1040 677.45 1041.7 L 677.45 1041.75"/>
    <path stroke="none" fill="#2ECC71" d="M 677.45 1041.75 L 677.45 1041.7 C 677.45 1040 677.15 1038.433 676.55 1037 C 675.95 1035.6 675.083 1034.317 673.95 1033.15 C 671.55 1030.817 668.65 1029.65 665.25 1029.65 L 664.6 1029.7 C 662.5 1029.767 660.617 1030.333 658.95 1031.4 L 658.8 1031.5 C 658.067 1031.933 657.367 1032.483 656.7 1033.15 C 654.3 1035.517 653.1 1038.383 653.1 1041.75 C 653.1 1045.117 654.3 1047.95 656.7 1050.25 L 658.05 1051.5 C 660.117 1053.1 662.517 1053.9 665.25 1053.9 C 668.65 1053.9 671.55 1052.683 673.95 1050.25 C 676.283 1047.95 677.45 1045.117 677.45 1041.75 M 598.25 1041.75 C 598.25 1045.117 599.45 1047.95 601.85 1050.25 C 604.25 1052.683 607.117 1053.9 610.45 1053.9 C 613.117 1053.9 615.517 1053.117 617.65 1051.55 L 618.8 1050.6 L 619.15 1050.25 C 621.483 1047.95 622.65 1045.117 622.65 1041.75 C 622.65 1038.383 621.483 1035.517 619.15 1033.15 L 618.8 1032.85 L 616.9 1031.45 L 616.85 1031.4 C 615.117 1030.333 613.217 1029.767 611.15 1029.7 L 610.45 1029.65 C 607.117 1029.65 604.25 1030.817 601.85 1033.15 C 600.683 1034.283 599.817 1035.533 599.25 1036.9 C 598.583 1038.367 598.25 1039.967 598.25 1041.7 L 598.25 1041.75 M 622.75 1029.65 L 622.95 1029.95 C 626.083 1033.217 627.65 1037.15 627.65 1041.75 C 627.617 1046.383 626.05 1050.3 622.95 1053.5 L 622.7 1053.8 L 622.35 1054.15 L 622.1 1054.35 C 620.9 1055.417 619.65 1056.3 618.35 1057 L 619.65 1064.05 L 618.35 1065.3 C 617.917 1065.833 617.667 1066.467 617.6 1067.2 L 617.6 1067.6 L 617.6 1067.95 C 617.667 1068.417 617.817 1068.85 618.05 1069.25 C 618.417 1069.817 618.867 1070.15 619.4 1070.25 C 619.967 1070.35 620.467 1070.133 620.9 1069.6 L 621 1069.5 L 623 1075.7 C 623.867 1078.033 624.767 1080.117 625.7 1081.95 C 624.9 1082.483 624.267 1083.067 623.8 1083.7 L 623.85 1083.6 C 623.217 1084.267 622.867 1085.1 622.8 1086.1 L 622.8 1086.2 L 622.8 1086.45 L 622.8 1086.65 L 622.8 1086.9 C 622.867 1087.467 623.067 1088.017 623.4 1088.55 L 623.45 1088.6 C 624.017 1089.5 624.717 1090 625.55 1090.1 L 625.6 1090.15 C 626.633 1090.383 627.583 1090.033 628.45 1089.1 L 628.55 1088.95 L 629.2 1088.4 L 629.55 1088.25 L 629.7 1088.2 C 632.2 1091.067 634.917 1092.5 637.85 1092.5 C 640.783 1092.5 643.517 1091.05 646.05 1088.15 L 646.2 1088.2 L 646.6 1088.4 L 647.25 1089 L 647.3 1089.05 C 648.067 1090.017 649 1090.383 650.1 1090.15 L 650.15 1090.1 C 650.983 1090 651.7 1089.5 652.3 1088.6 L 652.3 1088.55 L 652.9 1087 L 652.9 1086.9 L 652.95 1086.45 L 652.9 1085.95 C 652.8 1085.05 652.5 1084.3 652 1083.7 L 651.95 1083.65 C 651.45 1083.05 650.817 1082.483 650.05 1081.95 L 652.7 1075.7 L 654.75 1069.4 L 654.9 1069.6 C 655.3 1070.133 655.783 1070.35 656.35 1070.25 C 656.883 1070.15 657.333 1069.817 657.7 1069.25 L 658.15 1067.95 L 658.2 1067.65 L 658.15 1067.2 C 658.083 1066.467 657.85 1065.833 657.45 1065.3 L 656.1 1064 L 657.35 1057 C 655.883 1056.2 654.517 1055.167 653.25 1053.9 L 653.1 1053.75 C 649.767 1050.483 648.1 1046.483 648.1 1041.75 C 648.1 1037.017 649.767 1033 653.1 1029.7 L 653.2 1029.6 C 654.367 1028.433 655.617 1027.483 656.95 1026.75 C 659.417 1025.35 662.183 1024.65 665.25 1024.65 C 670.017 1024.65 674.083 1026.3 677.45 1029.6 L 677.7 1029.85 C 680.867 1033.15 682.45 1037.117 682.45 1041.75 L 682.45 1042.15 L 682 1045.75 L 683.05 1046.75 C 686.917 1050.617 690.183 1054.717 692.85 1059.05 C 698.517 1068.25 701.517 1078.567 701.85 1090 C 701.75 1093.9 701.333 1097.667 700.6 1101.3 L 695.35 1103.45 C 685.55 1107.15 674.483 1109.717 662.15 1111.15 C 661.817 1108.183 660.533 1105.583 658.3 1103.35 C 655.7 1100.75 652.567 1099.45 648.9 1099.45 C 645.2 1099.45 642.033 1100.75 639.4 1103.35 L 637.85 1105.2 L 636.25 1103.35 C 633.65 1100.75 630.517 1099.45 626.85 1099.45 C 623.15 1099.45 619.983 1100.75 617.35 1103.35 C 615.183 1105.583 613.933 1108.183 613.6 1111.15 C 601.267 1109.717 590.183 1107.15 580.35 1103.45 L 575.15 1101.3 C 574.417 1097.667 574 1093.9 573.9 1090 C 574.2 1078.567 577.183 1068.25 582.85 1059.05 C 585.483 1054.717 588.733 1050.617 592.6 1046.75 L 593.7 1045.7 C 593.433 1044.567 593.283 1043.367 593.25 1042.1 L 593.25 1041.75 C 593.25 1037.083 594.883 1033.1 598.15 1029.8 L 598.35 1029.6 C 601.717 1026.3 605.75 1024.65 610.45 1024.65 C 613.483 1024.65 616.267 1025.35 618.8 1026.75 C 619.967 1027.383 621.083 1028.167 622.15 1029.1 L 622.05 1029.05 L 622.7 1029.6 L 622.75 1029.65"/>
    <path stroke="none" fill="#5B5B5B" d="M 604.2 1042 C 604.2 1039.8 604.95 1037.983 606.45 1036.55 C 607.883 1035.117 609.667 1034.4 611.8 1034.4 C 613.733 1034.4 615.417 1035.017 616.85 1036.25 L 617.2 1036.55 C 617.9 1037.217 618.433 1037.967 618.8 1038.8 C 619.233 1039.767 619.45 1040.833 619.45 1042 C 619.45 1043.133 619.233 1044.167 618.8 1045.1 C 618.433 1045.867 617.933 1046.583 617.3 1047.25 L 617.2 1047.3 C 615.7 1048.833 613.9 1049.6 611.8 1049.6 C 609.667 1049.6 607.883 1048.833 606.45 1047.3 C 604.95 1045.867 604.2 1044.1 604.2 1042 M 671.6 1042 C 671.6 1044.1 670.85 1045.867 669.35 1047.3 C 667.85 1048.833 666.05 1049.6 663.95 1049.6 C 661.883 1049.6 660.067 1048.833 658.5 1047.3 L 658.45 1047.25 C 656.983 1045.817 656.25 1044.067 656.25 1042 C 656.25 1039.8 657 1037.983 658.5 1036.55 L 658.85 1036.25 C 660.35 1035.017 662.05 1034.4 663.95 1034.4 C 666.05 1034.4 667.85 1035.117 669.35 1036.55 C 670.85 1037.983 671.6 1039.8 671.6 1042"/>
    <path stroke="none" fill="#31DE7A" d="M 653.1 1029.7 L 645.85 1028.45 L 637.85 1028 L 629.85 1028.45 L 622.75 1029.65 L 622.7 1029.6 L 622.05 1029.05 L 622.15 1029.1 C 621.083 1028.167 619.967 1027.383 618.8 1026.75 C 624.767 1024.917 631.117 1024 637.85 1024 C 644.55 1024 650.917 1024.917 656.95 1026.75 C 655.617 1027.483 654.367 1028.433 653.2 1029.6 L 653.1 1029.7 M 593.25 1042.1 C 593.283 1043.367 593.433 1044.567 593.7 1045.7 L 592.6 1046.75 C 588.733 1050.617 585.483 1054.717 582.85 1059.05 C 577.183 1068.25 574.2 1078.567 573.9 1090 L 573.85 1088 C 573.85 1077.833 575.933 1068.517 580.1 1060.05 C 583.133 1053.817 587.3 1048.05 592.6 1042.75 L 593.25 1042.1 M 701.85 1090 C 701.517 1078.567 698.517 1068.25 692.85 1059.05 C 690.183 1054.717 686.917 1050.617 683.05 1046.75 L 682 1045.75 L 682.45 1042.15 L 683.05 1042.75 C 688.35 1048.05 692.55 1053.817 695.65 1060.05 C 699.783 1068.517 701.85 1077.833 701.85 1088 L 701.85 1090"/>
    <path stroke="none" fill="#30D776" d="M 619.65 1064.05 L 618.35 1057 C 619.65 1056.3 620.9 1055.417 622.1 1054.35 L 622.35 1054.15 L 622.7 1053.8 L 622.95 1053.5 C 626.05 1050.3 627.617 1046.383 627.65 1041.75 C 627.65 1037.15 626.083 1033.217 622.95 1029.95 L 622.75 1029.65 L 629.85 1028.45 L 637.85 1028 L 645.85 1028.45 L 653.1 1029.7 C 649.767 1033 648.1 1037.017 648.1 1041.75 C 648.1 1046.483 649.767 1050.483 653.1 1053.75 L 653.25 1053.9 C 654.517 1055.167 655.883 1056.2 657.35 1057 L 656.1 1064 L 652.95 1061.85 C 648.75 1059.583 643.733 1058.45 637.9 1058.45 C 632 1058.45 627 1059.583 622.9 1061.85 C 621.633 1062.55 620.55 1063.283 619.65 1064.05 M 621 1069.5 C 621.467 1068.933 622.067 1068.417 622.8 1067.95 L 624.35 1067.25 L 624.35 1067.3 C 628.083 1065.833 632.6 1065.1 637.9 1065.1 C 643.2 1065.1 647.733 1065.833 651.5 1067.3 L 651.45 1067.25 L 653 1067.95 L 654.75 1069.4 L 652.7 1075.7 L 650.05 1081.95 L 648.5 1081 C 645.533 1079.367 642 1078.55 637.9 1078.55 C 633.733 1078.55 630.2 1079.367 627.3 1081 L 627.25 1081 C 626.65 1081.3 626.133 1081.617 625.7 1081.95 C 624.767 1080.117 623.867 1078.033 623 1075.7 L 621 1069.5 M 629.7 1088.2 L 629.9 1088.15 C 632.1 1087.283 634.767 1086.85 637.9 1086.85 C 641.033 1086.85 643.717 1087.283 645.95 1088.15 L 646.05 1088.15 C 643.517 1091.05 640.783 1092.5 637.85 1092.5 C 634.917 1092.5 632.2 1091.067 629.7 1088.2"/>
    <path stroke="none" fill="#28B463" d="M 629.7 1088.2 L 629.55 1088.25 L 629.2 1088.4 L 628.55 1088.95 L 628.45 1089.1 C 627.583 1090.033 626.633 1090.383 625.6 1090.15 L 625.55 1090.1 C 624.717 1090 624.017 1089.5 623.45 1088.6 L 623.4 1088.55 C 623.067 1088.017 622.867 1087.467 622.8 1086.9 L 622.8 1086.65 L 622.8 1086.45 L 622.8 1086.2 L 622.8 1086.1 C 622.867 1085.1 623.217 1084.267 623.85 1083.6 L 623.8 1083.7 C 624.267 1083.067 624.9 1082.483 625.7 1081.95 C 626.133 1081.617 626.65 1081.3 627.25 1081 L 627.3 1081 C 630.2 1079.367 633.733 1078.55 637.9 1078.55 C 642 1078.55 645.533 1079.367 648.5 1081 L 650.05 1081.95 C 650.817 1082.483 651.45 1083.05 651.95 1083.65 L 652 1083.7 C 652.5 1084.3 652.8 1085.05 652.9 1085.95 L 652.95 1086.45 L 652.9 1086.9 L 652.9 1087 L 652.3 1088.55 L 652.3 1088.6 C 651.7 1089.5 650.983 1090 650.15 1090.1 L 650.1 1090.15 C 649 1090.383 648.067 1090.017 647.3 1089.05 L 647.25 1089 L 646.6 1088.4 L 646.2 1088.2 L 646.05 1088.15 L 645.95 1088.15 C 643.717 1087.283 641.033 1086.85 637.9 1086.85 C 634.767 1086.85 632.1 1087.283 629.9 1088.15 L 629.7 1088.2 M 619.65 1064.05 C 620.55 1063.283 621.633 1062.55 622.9 1061.85 C 627 1059.583 632 1058.45 637.9 1058.45 C 643.733 1058.45 648.75 1059.583 652.95 1061.85 L 656.1 1064 L 657.45 1065.3 C 657.85 1065.833 658.083 1066.467 658.15 1067.2 L 658.2 1067.65 L 658.15 1067.95 L 657.7 1069.25 C 657.333 1069.817 656.883 1070.15 656.35 1070.25 C 655.783 1070.35 655.3 1070.133 654.9 1069.6 L 654.75 1069.4 L 653 1067.95 L 651.45 1067.25 L 651.5 1067.3 C 647.733 1065.833 643.2 1065.1 637.9 1065.1 C 632.6 1065.1 628.083 1065.833 624.35 1067.3 L 624.35 1067.25 L 622.8 1067.95 C 622.067 1068.417 621.467 1068.933 621 1069.5 L 620.9 1069.6 C 620.467 1070.133 619.967 1070.35 619.4 1070.25 C 618.867 1070.15 618.417 1069.817 618.05 1069.25 C 617.817 1068.85 617.667 1068.417 617.6 1067.95 L 617.6 1067.6 L 617.6 1067.2 C 617.667 1066.467 617.917 1065.833 618.35 1065.3 L 619.65 1064.05"/>
  </g>
</svg>