<?xml version="1.0" encoding="utf-8"?>
<svg viewBox="831.7 832 128 128" xmlns="http://www.w3.org/2000/svg">
  <g>
    <title>Duck</title>
    <path stroke="none" fill="#31DE7A" d="M 831.75 898 L 831.7 896 C 831.7 878.333 837.95 863.25 850.45 850.75 C 855.85 845.35 861.75 841.117 868.15 838.05 C 876.517 834.017 885.7 832 895.7 832 C 905.7 832 914.883 834.017 923.25 838.05 C 929.617 841.117 935.5 845.35 940.9 850.75 C 953.433 863.25 959.7 878.333 959.7 896 L 959.7 898 C 959.233 881.2 952.967 866.783 940.9 854.75 C 935.367 849.217 929.333 844.917 922.8 841.85 C 914.567 837.95 905.533 836 895.7 836 C 885.867 836 876.833 837.933 868.6 841.8 C 862.033 844.9 855.983 849.217 850.45 854.75 C 838.417 866.783 832.183 881.2 831.75 898"/>
    <path stroke="none" fill="#2ECC71" d="M 831.75 898 C 832.183 881.2 838.417 866.783 850.45 854.75 C 855.983 849.217 862.033 844.9 868.6 841.8 C 869.8 850.4 872.233 858.05 875.9 864.75 C 881.367 874.783 887.967 879.8 895.7 879.8 C 903.433 879.8 910.033 874.783 915.5 864.75 C 919.167 858.05 921.6 850.417 922.8 841.85 C 929.333 844.917 935.367 849.217 940.9 854.75 C 952.967 866.783 959.233 881.2 959.7 898 C 959.3 912.733 954.417 925.633 945.05 936.7 C 936.95 941.367 930.517 941.367 925.75 936.7 C 916.717 924.167 906.183 917.9 894.15 917.9 C 882.117 917.9 871.583 924.167 862.55 936.7 C 858.983 941.3 853.583 941.3 846.35 936.7 C 836.983 925.633 832.117 912.733 831.75 898"/>
    <path stroke="none" fill="#2FD274" d="M 868.6 841.8 C 876.833 837.933 885.867 836 895.7 836 C 905.533 836 914.567 837.95 922.8 841.85 C 921.6 850.417 919.167 858.05 915.5 864.75 C 910.033 874.783 903.433 879.8 895.7 879.8 C 887.967 879.8 881.367 874.783 875.9 864.75 C 872.233 858.05 869.8 850.4 868.6 841.8"/>
    <path stroke="none" fill="#F3F3F3" d="M 945.05 936.7 L 940.9 941.2 C 938.3 943.833 935.583 946.183 932.75 948.25 C 921.983 956.083 909.633 960 895.7 960 C 880.767 960 867.683 955.517 856.45 946.55 L 850.45 941.2 L 846.35 936.7 C 853.583 941.3 858.983 941.3 862.55 936.7 C 871.583 924.167 882.117 917.9 894.15 917.9 C 906.183 917.9 916.717 924.167 925.75 936.7 C 930.517 941.367 936.95 941.367 945.05 936.7"/>
    <path stroke="none" fill="#FFFFFF" d="M 929.45 890 C 929.45 887.8 928.7 885.983 927.2 884.55 C 925.7 883.117 923.9 882.4 921.8 882.4 C 919.733 882.4 917.917 883.117 916.35 884.55 C 914.85 885.983 914.1 887.8 914.1 890 C 914.1 892.1 914.85 893.867 916.35 895.3 C 917.917 896.833 919.733 897.6 921.8 897.6 C 923.9 897.6 925.7 896.833 927.2 895.3 C 928.7 893.867 929.45 892.1 929.45 890 M 935.3 889.75 C 935.3 893.117 934.133 895.95 931.8 898.25 C 929.4 900.683 926.5 901.9 923.1 901.9 C 919.767 901.9 916.917 900.683 914.55 898.25 C 912.15 895.95 910.95 893.117 910.95 889.75 C 910.95 886.383 912.15 883.517 914.55 881.15 C 916.917 878.817 919.767 877.65 923.1 877.65 C 926.5 877.65 929.4 878.817 931.8 881.15 C 934.133 883.517 935.3 886.383 935.3 889.75 M 862.05 890 C 862.05 892.1 862.8 893.867 864.3 895.3 C 865.733 896.833 867.517 897.6 869.65 897.6 C 871.75 897.6 873.55 896.833 875.05 895.3 C 875.75 894.633 876.283 893.9 876.65 893.1 C 877.083 892.167 877.3 891.133 877.3 890 C 877.3 888.833 877.083 887.767 876.65 886.8 C 876.283 885.967 875.75 885.217 875.05 884.55 C 873.55 883.117 871.75 882.4 869.65 882.4 C 867.517 882.4 865.733 883.117 864.3 884.55 C 862.8 885.983 862.05 887.8 862.05 890 M 856.1 889.75 C 856.1 886.383 857.3 883.517 859.7 881.15 C 862.1 878.817 864.967 877.65 868.3 877.65 C 871.467 877.65 874.25 878.717 876.65 880.85 L 877 881.15 C 879.333 883.517 880.5 886.383 880.5 889.75 C 880.5 893.117 879.333 895.95 877 898.25 L 876.65 898.6 C 874.25 900.8 871.467 901.9 868.3 901.9 C 864.967 901.9 862.1 900.683 859.7 898.25 C 857.3 895.95 856.1 893.117 856.1 889.75"/>
    <path stroke="none" fill="#5B5B5B" d="M 929.45 890 C 929.45 892.1 928.7 893.867 927.2 895.3 C 925.7 896.833 923.9 897.6 921.8 897.6 C 919.733 897.6 917.917 896.833 916.35 895.3 C 914.85 893.867 914.1 892.1 914.1 890 C 914.1 887.8 914.85 885.983 916.35 884.55 C 917.917 883.117 919.733 882.4 921.8 882.4 C 923.9 882.4 925.7 883.117 927.2 884.55 C 928.7 885.983 929.45 887.8 929.45 890 M 862.05 890 C 862.05 887.8 862.8 885.983 864.3 884.55 C 865.733 883.117 867.517 882.4 869.65 882.4 C 871.75 882.4 873.55 883.117 875.05 884.55 C 875.75 885.217 876.283 885.967 876.65 886.8 C 877.083 887.767 877.3 888.833 877.3 890 C 877.3 891.133 877.083 892.167 876.65 893.1 C 876.283 893.9 875.75 894.633 875.05 895.3 C 873.55 896.833 871.75 897.6 869.65 897.6 C 867.517 897.6 865.733 896.833 864.3 895.3 C 862.8 893.867 862.05 892.1 862.05 890"/>
    <path stroke="none" fill="#FFD738" d="M 916.2 914.45 L 916 913.05 L 915.65 911.05 C 915.383 909.75 915 908.5 914.5 907.3 C 913.5 904.933 912.1 902.767 910.3 900.8 L 907.95 898.55 C 904.417 895.65 900.35 894.2 895.75 894.2 C 891.117 894.2 887.05 895.65 883.55 898.55 C 882.717 899.183 881.9 899.933 881.1 900.8 C 879.333 902.767 877.95 904.933 876.95 907.3 C 876.45 908.5 876.05 909.75 875.75 911.05 L 875.35 913.05 L 875.25 914.55 L 875.2 914.25 L 875.15 912.75 L 875.35 909.05 L 875.65 907.5 L 875.75 907.05 C 876.617 903.217 878.4 899.8 881.1 896.8 C 881.9 895.933 882.717 895.183 883.55 894.55 C 887.05 891.65 891.117 890.2 895.75 890.2 C 900.35 890.2 904.417 891.65 907.95 894.55 L 910.3 896.8 C 913.033 899.8 914.817 903.217 915.65 907.05 L 915.75 907.5 L 916 909.05 L 916.3 912.75 L 916.2 914.25 L 916.2 914.45"/>
    <path stroke="none" fill="#FFCC00" d="M 916.2 914.45 L 916.1 915.3 L 915.65 916.85 C 914.783 919.083 913 921.083 910.3 922.85 L 909.7 923.25 L 909.3 923.5 C 905.467 925.633 900.95 926.7 895.75 926.7 C 890.517 926.7 885.983 925.633 882.15 923.5 L 881.75 923.25 L 881.1 922.85 C 878.4 921.083 876.633 919.067 875.8 916.8 L 875.4 915.3 L 875.25 914.55 L 875.35 913.05 L 875.75 911.05 C 876.05 909.75 876.45 908.5 876.95 907.3 C 877.95 904.933 879.333 902.767 881.1 900.8 C 881.9 899.933 882.717 899.183 883.55 898.55 C 887.05 895.65 891.117 894.2 895.75 894.2 C 900.35 894.2 904.417 895.65 907.95 898.55 L 910.3 900.8 C 912.1 902.767 913.5 904.933 914.5 907.3 C 915 908.5 915.383 909.75 915.65 911.05 L 916 913.05 L 916.2 914.45"/>
    <path stroke="none" fill="#EEBE00" d="M 916.2 914.45 L 916.2 914.25 L 916.3 912.75 L 916 909.05 L 915.75 907.5 L 920.65 908.55 C 927.417 910.283 930.883 912.367 931.05 914.8 L 915.65 916.85 L 916.1 915.3 L 916.2 914.45 M 875.65 907.5 L 875.35 909.05 L 875.15 912.75 L 875.2 914.25 L 875.25 914.55 L 875.4 915.3 L 875.8 916.8 L 860.35 914.75 C 860.55 912.317 863.983 910.25 870.65 908.55 L 875.65 907.5"/>
    <path stroke="none" fill="#DEB100" d="M 875.8 916.8 C 876.633 919.067 878.4 921.083 881.1 922.85 L 881.75 923.25 L 879.5 923 C 876.333 922.567 873.383 922 870.65 921.3 C 864.117 919.633 860.7 917.633 860.4 915.3 L 860.35 914.95 L 860.35 914.75 L 875.8 916.8 M 909.7 923.25 L 910.3 922.85 C 913 921.083 914.783 919.083 915.65 916.85 L 931.05 914.8 L 931.05 914.95 L 931.05 915.3 C 930.717 917.633 927.25 919.633 920.65 921.3 C 917.95 922 915.033 922.567 911.9 923 L 909.7 923.25"/>
    <path stroke="none" fill="#29BB67" d="M 906.1 848.05 C 908.133 851.55 909.333 854.817 909.7 857.85 C 910.167 860.883 909.7 862.8 908.3 863.6 C 906.867 864.433 904.933 863.9 902.5 862 C 900.133 860.1 897.933 857.417 895.9 853.95 L 895.2 852.75 C 894.4 851.083 894.1 849.4 894.3 847.7 C 894.5 845.8 895.317 844.433 896.75 843.6 C 898.15 842.8 899.733 842.783 901.5 843.55 C 903.067 844.217 904.367 845.333 905.4 846.9 L 906.1 848.05 M 890.85 854 C 889.517 856.333 888.033 858.117 886.4 859.35 C 884.833 860.617 883.583 860.967 882.65 860.4 C 881.717 859.9 881.4 858.633 881.7 856.6 C 881.967 854.6 882.767 852.45 884.1 850.15 L 884.55 849.3 C 885.25 848.267 886.117 847.533 887.15 847.1 L 890.3 847.15 C 891.233 847.717 891.783 848.633 891.95 849.9 C 892.05 851 891.833 852.1 891.3 853.2 L 890.85 854"/>
  </g>
</svg>