<?xml version="1.0" encoding="utf-8"?>
<svg viewBox="804.34 256 182.721 154.1" xmlns="http://www.w3.org/2000/svg">
  <g>
    <title>Elephant</title>
    <path stroke="none" fill="#BDB6B6" d="M 887.05 315.95 C 886.983 323.15 885.983 330.017 884.05 336.55 C 879.783 350.883 872.267 359.5 861.5 362.4 C 850.733 365.267 839.917 361.55 829.05 351.25 C 818.517 341.283 810.9 328.017 806.2 311.45 L 805.85 310.2 C 804.95 306.867 804.45 303.6 804.35 300.4 C 804.55 293.9 806.4 287.633 809.9 281.6 C 815.433 272 823.55 265.733 834.25 262.8 C 845.05 259.967 855.267 261.35 864.9 266.95 C 874.533 272.483 880.783 280.617 883.65 291.35 L 883.9 292.6 C 885.933 300.7 886.983 308.483 887.05 315.95 M 924.1 301.75 L 923.9 302.6 C 921.033 314.133 921 324.667 923.8 334.2 C 926.733 344.067 931.9 349.983 939.3 351.95 C 946.7 353.917 954.15 351.367 961.65 344.3 C 968.883 337.433 974.117 328.317 977.35 316.95 L 977.6 316.1 C 979.567 308.7 978.633 301.683 974.8 295.05 C 971 288.45 965.417 284.133 958.05 282.1 C 950.617 280.167 943.6 281.117 937 284.95 C 930.367 288.783 926.067 294.383 924.1 301.75 M 987.05 300.4 C 986.95 303.6 986.45 306.867 985.55 310.2 L 985.2 311.45 C 980.5 328.017 972.883 341.283 962.35 351.25 C 951.483 361.55 940.667 365.267 929.9 362.4 C 919.133 359.5 911.617 350.883 907.35 336.55 C 905.417 330.017 904.417 323.15 904.35 315.95 C 904.417 308.483 905.467 300.7 907.5 292.6 L 907.75 291.35 C 910.617 280.617 916.867 272.483 926.5 266.95 C 936.133 261.35 946.35 259.967 957.15 262.8 C 967.85 265.733 975.967 272 981.5 281.6 C 985 287.633 986.85 293.9 987.05 300.4 M 867.3 301.75 C 865.333 294.383 861.033 288.783 854.4 284.95 C 847.8 281.117 840.783 280.167 833.35 282.1 C 825.983 284.133 820.4 288.45 816.6 295.05 C 812.767 301.683 811.833 308.7 813.8 316.1 L 814.05 316.95 C 817.283 328.317 822.517 337.433 829.75 344.3 C 837.25 351.367 844.7 353.917 852.1 351.95 C 859.5 349.983 864.667 344.067 867.6 334.2 C 870.4 324.667 870.367 314.133 867.5 302.6 L 867.3 301.75"/>
    <path stroke="none" fill="#AFA8A8" d="M 867.3 301.75 L 867.5 302.6 C 870.367 314.133 870.4 324.667 867.6 334.2 C 864.667 344.067 859.5 349.983 852.1 351.95 C 844.7 353.917 837.25 351.367 829.75 344.3 C 822.517 337.433 817.283 328.317 814.05 316.95 L 813.8 316.1 C 811.833 308.7 812.767 301.683 816.6 295.05 C 820.4 288.45 825.983 284.133 833.35 282.1 C 840.783 280.167 847.8 281.117 854.4 284.95 C 861.033 288.783 865.333 294.383 867.3 301.75 M 924.1 301.75 C 926.067 294.383 930.367 288.783 937 284.95 C 943.6 281.117 950.617 280.167 958.05 282.1 C 965.417 284.133 971 288.45 974.8 295.05 C 978.633 301.683 979.567 308.7 977.6 316.1 L 977.35 316.95 C 974.117 328.317 968.883 337.433 961.65 344.3 C 954.15 351.367 946.7 353.917 939.3 351.95 C 931.9 349.983 926.733 344.067 923.8 334.2 C 921 324.667 921.033 314.133 923.9 302.6 L 924.1 301.75"/>
    <path stroke="none" fill="#DBD9D9" d="M 904.35 315.95 C 904.25 307.883 905.3 299.433 907.5 290.6 L 907.75 289.35 C 910.617 278.617 916.867 270.483 926.5 264.95 C 936.133 259.35 946.35 257.967 957.15 260.8 C 967.85 263.733 975.967 270 981.5 279.6 C 985.367 286.267 987.217 293.2 987.05 300.4 C 986.85 293.9 985 287.633 981.5 281.6 C 975.967 272 967.85 265.733 957.15 262.8 C 946.35 259.967 936.133 261.35 926.5 266.95 C 916.867 272.483 910.617 280.617 907.75 291.35 L 907.5 292.6 C 905.467 300.7 904.417 308.483 904.35 315.95 M 887.05 315.95 C 886.983 308.483 885.933 300.7 883.9 292.6 L 883.65 291.35 C 880.783 280.617 874.533 272.483 864.9 266.95 C 855.267 261.35 845.05 259.967 834.25 262.8 C 823.55 265.733 815.433 272 809.9 281.6 C 806.4 287.633 804.55 293.9 804.35 300.4 C 804.183 293.2 806.033 286.267 809.9 279.6 C 815.433 270 823.55 263.733 834.25 260.8 C 845.05 257.967 855.267 259.35 864.9 264.95 C 874.533 270.483 880.783 278.617 883.65 289.35 L 883.9 290.6 C 886.1 299.433 887.15 307.883 887.05 315.95"/>
    <path stroke="none" fill="#DBD9D9" d="M 831.75 322 L 831.7 320 C 831.7 302.3 837.95 287.217 850.45 274.75 C 853.283 271.917 856.233 269.417 859.3 267.25 C 860.467 266.45 861.65 265.683 862.85 264.95 C 872.583 258.983 883.533 256 895.7 256 C 907.9 256 918.867 258.967 928.6 264.9 L 932.1 267.2 C 935.2 269.4 938.167 271.917 941 274.75 C 953.467 287.217 959.7 302.3 959.7 320 L 959.7 322 C 959.233 305.167 953 290.75 941 278.75 C 938.067 275.817 935 273.233 931.8 271 C 929.933 269.7 928.017 268.517 926.05 267.45 L 922.9 269.95 C 915.4 275.317 906.333 278 895.7 278 C 885.067 278 875.983 275.317 868.45 269.95 L 865.35 267.5 C 863.383 268.567 861.467 269.75 859.6 271.05 C 856.4 273.283 853.35 275.85 850.45 278.75 C 838.417 290.75 832.183 305.167 831.75 322"/>
    <path stroke="none" fill="#D2D0D0" d="M 831.75 322 C 832.183 305.167 838.417 290.75 850.45 278.75 C 853.35 275.85 856.4 273.283 859.6 271.05 C 861.467 269.75 863.383 268.567 865.35 267.5 L 868.45 269.95 C 875.983 275.317 885.067 278 895.7 278 C 906.333 278 915.4 275.317 922.9 269.95 L 926.05 267.45 C 928.017 268.517 929.933 269.7 931.8 271 C 935 273.233 938.067 275.817 941 278.75 C 953 290.75 959.233 305.167 959.7 322 C 959.4 332.133 957.017 341.417 952.55 349.85 C 951.25 352.317 949.767 354.7 948.1 357 L 948.05 357 C 945.95 359.867 943.583 362.617 940.95 365.25 L 936.3 369.55 C 934.933 370.683 933.533 371.75 932.1 372.75 C 921.5 380.25 909.367 384 895.7 384 C 882 384 869.867 380.267 859.3 372.8 L 855.2 369.65 L 850.4 365.25 C 845.333 360.183 841.3 354.7 838.3 348.8 L 832.75 332.1 L 832.75 331.9 L 832.55 330.8 L 832.5 330.55 L 832.45 330.05 L 832.35 329.5 L 832.2 328.25 L 832.2 328.05 L 832.1 327.45 L 832.1 327.2 L 832.05 327 L 832.05 326.75 L 832 326.45 L 831.95 325.8 L 831.95 325.55 L 831.9 325.25 L 831.75 322"/>
    <path stroke="none" fill="#FFFCF5" d="M 853.35 394.2 C 852.817 394.1 852.333 393.867 851.9 393.5 L 851.75 393.45 C 851.283 392.95 851 392.4 850.9 391.8 C 850.067 388.167 849.467 384.733 849.1 381.5 L 848.65 376.15 C 848.25 363.083 854.117 354.65 866.25 350.85 C 868.55 352.95 870.283 355.183 871.45 357.55 L 872.1 359.05 L 869.2 361.95 C 860.3 371.15 855.15 380.6 853.75 390.3 L 853.35 394.2 M 919.3 359.05 L 920 357.55 C 921.133 355.183 922.85 352.95 925.15 350.85 C 937.283 354.65 943.15 363.083 942.75 376.15 L 942.35 381.45 C 941.983 384.683 941.367 388.133 940.5 391.8 C 940.4 392.4 940.117 392.95 939.65 393.45 L 939.5 393.5 C 939.067 393.867 938.583 394.1 938.05 394.2 L 937.7 390.3 C 936.267 380.6 931.1 371.15 922.2 361.95 L 919.3 359.05"/>
    <path stroke="none" fill="#CDCBCB" d="M 919.3 359.05 C 918.267 361.883 917.933 364.933 918.3 368.2 L 915 366.15 L 910.55 363.6 L 909.65 363 L 908.6 362 L 908.55 361.95 C 908.283 361.483 908.167 361 908.2 360.5 L 908.15 360.45 L 908.1 360.25 L 908.1 360.15 L 910.2 356.35 L 917.65 342.5 C 919.117 346.867 921.617 349.65 925.15 350.85 C 922.85 352.95 921.133 355.183 920 357.55 L 919.3 359.05 M 872.1 359.05 L 871.45 357.55 C 870.283 355.183 868.55 352.95 866.25 350.85 C 869.783 349.65 872.283 346.867 873.75 342.5 L 881.2 356.35 L 883.3 360.15 L 883.3 360.25 L 883.25 360.45 L 883.2 360.5 L 882.85 361.95 L 882.8 362 L 881.75 363 L 880.9 363.6 L 876.4 366.15 C 875.233 366.783 874.133 367.467 873.1 368.2 C 873.467 364.933 873.133 361.883 872.1 359.05"/>
    <path stroke="none" fill="#F0EDE7" d="M 872.1 359.05 C 873.133 361.883 873.467 364.933 873.1 368.2 L 871.25 369.45 C 868.683 371.45 866.417 373.783 864.45 376.45 C 863.317 378.017 862.283 379.7 861.35 381.5 C 860.75 382.6 860.2 383.75 859.7 384.95 L 858.55 388.05 C 857.25 391.917 855.517 393.967 853.35 394.2 L 853.75 390.3 C 855.15 380.6 860.3 371.15 869.2 361.95 L 872.1 359.05 M 881.2 356.35 L 882.9 359 L 882.95 359 L 883.3 360.15 L 881.2 356.35 M 926.7 376.15 C 924.8 373.583 922.617 371.35 920.15 369.45 L 918.3 368.2 C 917.933 364.933 918.267 361.883 919.3 359.05 L 922.2 361.95 C 931.1 371.15 936.267 380.6 937.7 390.3 L 938.05 394.2 C 935.883 393.967 934.15 391.917 932.85 388.05 L 931.7 384.95 L 930.1 381.5 C 929.067 379.567 927.933 377.783 926.7 376.15 M 910.2 356.35 L 908.1 360.15 C 908.167 359.683 908.283 359.3 908.45 359 L 908.5 359 C 909.033 358.033 909.6 357.15 910.2 356.35"/>
    <path stroke="none" fill="#000000" fill-opacity="0.050980392156862744" d="M 880.9 363.6 L 881.2 364 L 882.9 365.85 L 882.95 365.85 L 883.3 366.65 L 883.3 366.7 L 883.25 366.85 L 883.2 366.85 L 882.85 367.9 L 882.8 367.9 L 881.75 368.6 L 876.4 370.8 C 875.233 371.233 874.133 371.717 873.1 372.25 C 872.467 372.483 871.85 372.767 871.25 373.1 C 869.183 374.2 867.317 375.467 865.65 376.9 L 864.45 376.45 C 866.417 373.783 868.683 371.45 871.25 369.45 L 873.1 368.2 C 874.133 367.467 875.233 366.783 876.4 366.15 L 880.9 363.6 M 910.55 363.6 L 915 366.15 L 918.3 368.2 L 920.15 369.45 C 922.617 371.35 924.8 373.583 926.7 376.15 L 925.6 376.8 C 923.967 375.4 922.15 374.167 920.15 373.1 C 919.55 372.767 918.933 372.483 918.3 372.25 C 917.267 371.717 916.167 371.233 915 370.8 L 909.65 368.6 L 908.6 367.9 L 908.55 367.9 C 908.283 367.567 908.167 367.217 908.2 366.85 L 908.15 366.85 L 908.1 366.7 L 908.1 366.65 C 908.167 366.317 908.283 366.05 908.45 365.85 L 908.5 365.85 L 910.2 364 L 910.55 363.6"/>
    <path stroke="none" fill="#E7E5E5" d="M 871.6 352.85 L 871.2 351.5 C 869.733 345.567 871.133 340.167 875.4 335.3 C 880.467 329.767 887.233 327 895.7 327 C 904.2 327 910.917 329.767 915.85 335.3 C 920.25 340.167 921.683 345.567 920.15 351.5 L 919.85 352.85 C 919.017 351.283 917.683 349.783 915.85 348.35 C 910.917 344.483 904.2 342.55 895.7 342.55 C 887.233 342.55 880.467 344.483 875.4 348.35 C 873.6 349.783 872.333 351.283 871.6 352.85"/>
    <path stroke="none" fill="#DBD9D9" d="M 919.85 352.85 C 916.15 362.517 913.1 372.567 910.7 383 C 908.9 390.667 907.467 398.55 906.4 406.65 C 906.167 407.683 904.967 408.533 902.8 409.2 C 900.8 409.8 898.433 410.1 895.7 410.1 C 892.967 410.1 890.583 409.8 888.55 409.2 C 886.45 408.533 885.283 407.683 885.05 406.65 C 884.083 398.283 882.8 390.4 881.2 383 C 878.733 371.833 875.533 361.783 871.6 352.85 C 872.333 351.283 873.6 349.783 875.4 348.35 C 880.467 344.483 887.233 342.55 895.7 342.55 C 904.2 342.55 910.917 344.483 915.85 348.35 C 917.683 349.783 919.017 351.283 919.85 352.85 M 883.55 359 L 883.5 359 C 891.967 362.9 900.1 362.9 907.9 359 L 907.95 358.95 C 908.417 358.75 908.733 358.383 908.9 357.85 L 908.9 357.95 C 909.067 357.483 909.067 357.05 908.9 356.65 C 908.733 356.117 908.417 355.75 907.95 355.55 L 907.9 355.55 C 900.133 351.583 892.017 351.567 883.55 355.5 C 882.983 355.7 882.633 356.083 882.5 356.65 C 882.333 357.05 882.333 357.483 882.5 357.95 C 882.667 358.417 883.017 358.767 883.55 359"/>
    <path stroke="none" fill="#CDCBCB" d="M 883.55 359 C 883.017 358.767 882.667 358.417 882.5 357.95 C 882.333 357.483 882.333 357.05 882.5 356.65 C 882.633 356.083 882.983 355.7 883.55 355.5 C 892.017 351.567 900.133 351.583 907.9 355.55 L 907.95 355.55 C 908.417 355.75 908.733 356.117 908.9 356.65 C 909.067 357.05 909.067 357.483 908.9 357.95 L 908.9 357.85 C 908.733 358.383 908.417 358.75 907.95 358.95 L 907.9 359 C 900.1 362.9 891.967 362.9 883.5 359 L 883.55 359"/>
    <path stroke="none" fill="#FFFFFF" d="M 854.65 330.5 C 854.65 332.2 855.25 333.65 856.45 334.85 C 857.683 336.05 859.183 336.65 860.95 336.65 C 862.65 336.65 864.133 336.05 865.4 334.85 C 866.633 333.65 867.25 332.2 867.25 330.5 C 867.25 328.733 866.633 327.25 865.4 326.05 C 864.133 324.817 862.65 324.2 860.95 324.2 C 859.183 324.2 857.683 324.817 856.45 326.05 C 855.25 327.25 854.65 328.733 854.65 330.5 M 849.15 329.3 C 849.15 326.5 850.133 324.133 852.1 322.2 C 854.067 320.233 856.433 319.25 859.2 319.25 C 861.933 319.25 864.3 320.233 866.3 322.2 C 868.233 324.133 869.2 326.5 869.2 329.3 C 869.2 332.067 868.233 334.4 866.3 336.3 C 864.3 338.3 861.933 339.3 859.2 339.3 C 856.433 339.3 854.067 338.3 852.1 336.3 C 850.133 334.4 849.15 332.067 849.15 329.3 M 942.25 329.3 C 942.25 332.067 941.267 334.4 939.3 336.3 C 937.333 338.3 934.967 339.3 932.2 339.3 C 929.467 339.3 927.1 338.3 925.1 336.3 C 923.167 334.4 922.2 332.067 922.2 329.3 C 922.2 326.5 923.167 324.133 925.1 322.2 C 927.1 320.233 929.467 319.25 932.2 319.25 C 934.967 319.25 937.333 320.233 939.3 322.2 C 941.267 324.133 942.25 326.5 942.25 329.3 M 936.75 330.5 C 936.75 328.733 936.15 327.25 934.95 326.05 C 933.717 324.817 932.217 324.2 930.45 324.2 C 928.75 324.2 927.267 324.817 926 326.05 C 924.767 327.25 924.15 328.733 924.15 330.5 C 924.15 332.2 924.767 333.65 926 334.85 C 927.267 336.05 928.75 336.65 930.45 336.65 C 932.217 336.65 933.717 336.05 934.95 334.85 C 936.15 333.65 936.75 332.2 936.75 330.5"/>
    <path stroke="none" fill="#5B5B5B" d="M 936.75 330.5 C 936.75 332.2 936.15 333.65 934.95 334.85 C 933.717 336.05 932.217 336.65 930.45 336.65 C 928.75 336.65 927.267 336.05 926 334.85 C 924.767 333.65 924.15 332.2 924.15 330.5 C 924.15 328.733 924.767 327.25 926 326.05 C 927.267 324.817 928.75 324.2 930.45 324.2 C 932.217 324.2 933.717 324.817 934.95 326.05 C 936.15 327.25 936.75 328.733 936.75 330.5 M 854.65 330.5 C 854.65 328.733 855.25 327.25 856.45 326.05 C 857.683 324.817 859.183 324.2 860.95 324.2 C 862.65 324.2 864.133 324.817 865.4 326.05 C 866.633 327.25 867.25 328.733 867.25 330.5 C 867.25 332.2 866.633 333.65 865.4 334.85 C 864.133 336.05 862.65 336.65 860.95 336.65 C 859.183 336.65 857.683 336.05 856.45 334.85 C 855.25 333.65 854.65 332.2 854.65 330.5"/>
  </g>
</svg>