<?xml version="1.0" encoding="utf-8"?>
<svg viewBox="831.683 625.25 128.428 143.2" xmlns="http://www.w3.org/2000/svg">
  <g>
    <title>Frog</title>
    <path stroke="none" fill="#31DE7A" d="M 836.15 681 C 839.283 673 844.117 665.733 850.65 659.2 C 856.05 653.8 861.95 649.567 868.35 646.5 C 873.883 643.833 879.767 642.05 886 641.15 L 895.9 640.45 L 905.8 641.15 C 912.033 642.05 917.917 643.833 923.45 646.5 C 929.817 649.567 935.7 653.8 941.1 659.2 C 947.667 665.767 952.517 673.033 955.65 681 L 954.15 681.45 C 951.017 674.85 946.667 668.767 941.1 663.2 C 935.567 657.667 929.533 653.367 923 650.3 C 914.767 646.4 905.733 644.45 895.9 644.45 C 886.067 644.45 877.033 646.383 868.8 650.25 C 862.233 653.35 856.183 657.667 850.65 663.2 C 845.083 668.767 840.767 674.833 837.7 681.4 L 836.15 681"/>
    <path stroke="none" fill="#23A35A" d="M 907.1 656.9 L 907.45 657.4 C 907.717 657.9 907.767 658.533 907.6 659.3 L 907.5 659.6 L 907.25 660.4 C 906.85 661.3 906.233 662.167 905.4 663 L 905.35 663.1 C 904.75 663.667 904.033 663.95 903.2 663.95 C 902.333 663.95 901.6 663.633 901 663 C 900.4 662.4 900.1 661.683 900.1 660.85 C 900.1 660.383 900.183 659.967 900.35 659.6 L 900.95 658.7 L 901.05 658.6 C 902.05 657.6 903.117 656.917 904.25 656.55 L 904.4 656.55 C 905.3 656.283 906.017 656.283 906.55 656.55 L 907.1 656.9 M 886.55 663.1 L 886.45 663 C 885.617 662.167 885.017 661.3 884.65 660.4 C 884.517 660.133 884.433 659.867 884.4 659.6 L 884.3 659.3 C 884.1 658.533 884.133 657.9 884.4 657.4 L 884.8 656.9 C 884.933 656.733 885.117 656.617 885.35 656.55 C 885.883 656.283 886.6 656.283 887.5 656.55 L 887.6 656.55 C 888.733 656.883 889.817 657.567 890.85 658.6 L 890.95 658.7 L 891.55 659.6 L 891.8 660.85 C 891.8 661.683 891.483 662.4 890.85 663 C 890.25 663.633 889.533 663.95 888.7 663.95 C 887.867 663.95 887.15 663.667 886.55 663.1"/>
    <path stroke="none" fill="#2ECC71" d="M 837.7 681.4 C 840.767 674.833 845.083 668.767 850.65 663.2 C 856.183 657.667 862.233 653.35 868.8 650.25 C 877.033 646.383 886.067 644.45 895.9 644.45 C 905.733 644.45 914.767 646.4 923 650.3 C 929.533 653.367 935.567 657.667 941.1 663.2 C 946.667 668.767 951.017 674.85 954.15 681.45 C 937.85 685.817 918.45 688 895.95 688 C 873.45 688 854.033 685.8 837.7 681.4 M 907.1 656.9 L 906.55 656.55 C 906.017 656.283 905.3 656.283 904.4 656.55 L 904.25 656.55 C 903.117 656.917 902.05 657.6 901.05 658.6 L 900.95 658.7 L 900.35 659.6 C 900.183 659.967 900.1 660.383 900.1 660.85 C 900.1 661.683 900.4 662.4 901 663 C 901.6 663.633 902.333 663.95 903.2 663.95 C 904.033 663.95 904.75 663.667 905.35 663.1 L 905.4 663 C 906.233 662.167 906.85 661.3 907.25 660.4 L 907.5 659.6 L 907.6 659.3 C 907.767 658.533 907.717 657.9 907.45 657.4 L 907.1 656.9 M 886.55 663.1 C 887.15 663.667 887.867 663.95 888.7 663.95 C 889.533 663.95 890.25 663.633 890.85 663 C 891.483 662.4 891.8 661.683 891.8 660.85 L 891.55 659.6 L 890.95 658.7 L 890.85 658.6 C 889.817 657.567 888.733 656.883 887.6 656.55 L 887.5 656.55 C 886.6 656.283 885.883 656.283 885.35 656.55 C 885.117 656.617 884.933 656.733 884.8 656.9 L 884.4 657.4 C 884.133 657.9 884.1 658.533 884.3 659.3 L 884.4 659.6 C 884.433 659.867 884.517 660.133 884.65 660.4 C 885.017 661.3 885.617 662.167 886.45 663 L 886.55 663.1"/>
    <path stroke="none" fill="#FFFFFF" d="M 955.65 681 L 956.95 684.65 L 955.65 685 L 954.15 685.45 C 937.85 689.817 918.45 692 895.95 692 C 873.45 692 854.033 689.8 837.7 685.4 L 836.15 685 L 834.85 684.6 L 836.15 681 L 837.7 681.4 C 854.033 685.8 873.45 688 895.95 688 C 918.45 688 937.85 685.817 954.15 681.45 L 955.65 681"/>
    <path stroke="none" fill="#E5E5E5" d="M 956.95 684.65 C 958.917 690.817 959.9 697.417 959.9 704.45 L 959.9 706.45 C 959.5 721.183 954.617 734.083 945.25 745.15 L 941.1 749.65 C 938.5 752.283 935.783 754.633 932.95 756.7 C 922.183 764.533 909.833 768.45 895.9 768.45 C 880.967 768.45 867.883 763.967 856.65 755 L 850.65 749.65 L 846.55 745.15 C 837.183 734.083 832.317 721.183 831.95 706.45 L 831.9 704.45 C 831.9 697.417 832.883 690.8 834.85 684.6 L 836.15 685 L 837.7 685.4 C 854.033 689.8 873.45 692 895.95 692 C 918.45 692 937.85 689.817 954.15 685.45 L 955.65 685 L 956.95 684.65 M 923 746.25 C 922.6 744.717 921.7 743.567 920.3 742.8 C 918.967 742.033 917.55 741.85 916.05 742.25 C 914.517 742.65 913.333 743.533 912.5 744.9 C 911.767 746.233 911.6 747.667 912 749.2 C 912.4 750.7 913.267 751.85 914.6 752.65 C 916 753.45 917.467 753.65 919 753.25 C 920.5 752.85 921.633 751.95 922.4 750.55 C 923.2 749.183 923.4 747.75 923 746.25 M 921.85 731.45 C 921.583 730.517 921.033 729.8 920.2 729.3 C 919.3 728.8 918.383 728.683 917.45 728.95 C 916.517 729.183 915.817 729.733 915.35 730.6 C 914.85 731.467 914.733 732.367 915 733.3 C 915.233 734.233 915.783 734.95 916.65 735.45 C 917.483 735.917 918.367 736.033 919.3 735.8 C 920.233 735.533 920.967 734.983 921.5 734.15 C 921.967 733.283 922.083 732.383 921.85 731.45 M 935.65 740.15 C 935.317 738.883 934.583 737.917 933.45 737.25 C 932.317 736.583 931.133 736.417 929.9 736.75 C 928.633 737.083 927.667 737.833 927 739 C 926.333 740.133 926.167 741.333 926.5 742.6 C 926.867 743.833 927.617 744.783 928.75 745.45 C 929.883 746.083 931.083 746.233 932.35 745.9 C 933.583 745.567 934.533 744.833 935.2 743.7 C 935.867 742.567 936.017 741.383 935.65 740.15"/>
    <path stroke="none" fill="#D7D7D7" d="M 935.65 740.15 C 936.017 741.383 935.867 742.567 935.2 743.7 C 934.533 744.833 933.583 745.567 932.35 745.9 C 931.083 746.233 929.883 746.083 928.75 745.45 C 927.617 744.783 926.867 743.833 926.5 742.6 C 926.167 741.333 926.333 740.133 927 739 C 927.667 737.833 928.633 737.083 929.9 736.75 C 931.133 736.417 932.317 736.583 933.45 737.25 C 934.583 737.917 935.317 738.883 935.65 740.15 M 921.85 731.45 C 922.083 732.383 921.967 733.283 921.5 734.15 C 920.967 734.983 920.233 735.533 919.3 735.8 C 918.367 736.033 917.483 735.917 916.65 735.45 C 915.783 734.95 915.233 734.233 915 733.3 C 914.733 732.367 914.85 731.467 915.35 730.6 C 915.817 729.733 916.517 729.183 917.45 728.95 C 918.383 728.683 919.3 728.8 920.2 729.3 C 921.033 729.8 921.583 730.517 921.85 731.45 M 923 746.25 C 923.4 747.75 923.2 749.183 922.4 750.55 C 921.633 751.95 920.5 752.85 919 753.25 C 917.467 753.65 916 753.45 914.6 752.65 C 913.267 751.85 912.4 750.7 912 749.2 C 911.6 747.667 911.767 746.233 912.5 744.9 C 913.333 743.533 914.517 742.65 916.05 742.25 C 917.55 741.85 918.967 742.033 920.3 742.8 C 921.7 743.567 922.6 744.717 923 746.25"/>
    <path stroke="none" fill="#2ECC71" d="M 903.25 647.35 C 903.65 642.65 905.6 638.567 909.1 635.1 L 909.15 635.05 C 910.083 634.15 911.05 633.367 912.05 632.7 L 912.7 632.25 C 915.4 630.517 918.45 629.55 921.85 629.35 L 923.3 629.25 C 928.867 629.25 933.633 631.183 937.6 635.05 L 937.75 635.2 C 939.583 637.067 940.983 639.15 941.95 641.45 L 942 641.5 C 942.733 643.333 943.2 645.3 943.4 647.4 C 942.967 652.1 941.067 656.133 937.7 659.5 L 937.65 659.55 C 933.683 663.517 928.9 665.5 923.3 665.5 C 918.7 665.467 914.667 664.117 911.2 661.45 L 910.9 661.2 L 909.25 659.65 L 909.1 659.5 C 905.6 656.133 903.65 652.083 903.25 647.35 M 935.5 645.35 L 935.5 645.3 C 935.5 643.6 935.2 642.033 934.6 640.6 C 934 639.2 933.133 637.917 932 636.75 C 929.6 634.417 926.7 633.25 923.3 633.25 L 922.65 633.3 C 920.55 633.367 918.667 633.933 917 635 L 916.85 635.1 C 916.117 635.533 915.417 636.083 914.75 636.75 C 912.35 639.117 911.15 641.983 911.15 645.35 C 911.15 648.717 912.35 651.55 914.75 653.85 L 916.1 655.1 C 918.167 656.7 920.567 657.5 923.3 657.5 C 926.7 657.5 929.6 656.283 932 653.85 C 934.333 651.55 935.5 648.717 935.5 645.35 M 888.6 647.3 C 888.167 652.1 886.25 656.183 882.85 659.55 L 882.85 659.5 L 882.5 659.85 L 882.25 660.15 L 880.5 661.55 L 880.45 661.6 C 876.883 664.2 872.9 665.5 868.5 665.5 C 862.967 665.533 858.2 663.533 854.2 659.5 L 854.4 659.65 C 850.833 656.283 848.833 652.217 848.4 647.45 C 848.6 645.217 849.15 643.133 850.05 641.2 L 849.9 641.45 C 850.867 639.083 852.35 636.933 854.35 635 L 854.35 635.05 C 858.283 631.183 863 629.25 868.5 629.25 L 869.85 629.35 C 873.183 629.483 876.267 630.433 879.1 632.2 L 879.6 632.55 C 880.467 633.083 881.3 633.7 882.1 634.4 L 882.85 635.1 L 882.9 635.15 C 886.267 638.55 888.167 642.6 888.6 647.3 M 856.3 645.35 C 856.3 648.717 857.5 651.55 859.9 653.85 C 862.3 656.283 865.167 657.5 868.5 657.5 C 871.167 657.5 873.567 656.717 875.7 655.15 L 876.85 654.2 L 877.2 653.85 C 879.533 651.55 880.7 648.717 880.7 645.35 C 880.7 641.983 879.533 639.117 877.2 636.75 L 876.85 636.45 L 874.95 635.05 L 874.9 635 C 873.167 633.933 871.267 633.367 869.2 633.3 L 868.5 633.25 C 865.167 633.25 862.3 634.417 859.9 636.75 C 858.733 637.883 857.867 639.133 857.3 640.5 C 856.633 641.967 856.3 643.567 856.3 645.3 L 856.3 645.35"/>
    <path stroke="none" fill="#D23007" d="M 856.3 645.35 L 856.3 645.3 C 856.3 643.567 856.633 641.967 857.3 640.5 C 857.867 639.133 858.733 637.883 859.9 636.75 C 862.3 634.417 865.167 633.25 868.5 633.25 L 869.2 633.3 C 871.267 633.367 873.167 633.933 874.9 635 L 874.95 635.05 L 876.85 636.45 L 877.2 636.75 C 879.533 639.117 880.7 641.983 880.7 645.35 C 880.7 648.717 879.533 651.55 877.2 653.85 L 876.85 654.2 L 875.7 655.15 C 873.567 656.717 871.167 657.5 868.5 657.5 C 865.167 657.5 862.3 656.283 859.9 653.85 C 857.5 651.55 856.3 648.717 856.3 645.35 M 935.5 645.35 C 935.5 648.717 934.333 651.55 932 653.85 C 929.6 656.283 926.7 657.5 923.3 657.5 C 920.567 657.5 918.167 656.7 916.1 655.1 L 914.75 653.85 C 912.35 651.55 911.15 648.717 911.15 645.35 C 911.15 641.983 912.35 639.117 914.75 636.75 C 915.417 636.083 916.117 635.533 916.85 635.1 L 917 635 C 918.667 633.933 920.55 633.367 922.65 633.3 L 923.3 633.25 C 926.7 633.25 929.6 634.417 932 636.75 C 933.133 637.917 934 639.2 934.6 640.6 C 935.2 642.033 935.5 643.6 935.5 645.3 L 935.5 645.35 M 929.65 645.6 C 929.65 643.4 928.9 641.583 927.4 640.15 C 925.9 638.717 924.1 638 922 638 C 920.1 638 918.4 638.617 916.9 639.85 L 916.55 640.15 C 915.05 641.583 914.3 643.4 914.3 645.6 C 914.3 647.667 915.033 649.417 916.5 650.85 L 916.55 650.9 C 918.117 652.433 919.933 653.2 922 653.2 C 924.1 653.2 925.9 652.433 927.4 650.9 C 928.9 649.467 929.65 647.7 929.65 645.6 M 862.25 645.6 C 862.25 647.7 863 649.467 864.5 650.9 C 865.933 652.433 867.717 653.2 869.85 653.2 C 871.95 653.2 873.75 652.433 875.25 650.9 L 875.35 650.85 C 875.983 650.183 876.483 649.467 876.85 648.7 C 877.283 647.767 877.5 646.733 877.5 645.6 C 877.5 644.433 877.283 643.367 876.85 642.4 C 876.483 641.567 875.95 640.817 875.25 640.15 L 874.9 639.85 C 873.467 638.617 871.783 638 869.85 638 C 867.717 638 865.933 638.717 864.5 640.15 C 863 641.583 862.25 643.4 862.25 645.6"/>
    <path stroke="none" fill="#31DE7A" d="M 943.4 647.4 C 943.2 645.3 942.733 643.333 942 641.5 L 941.95 641.45 C 940.983 639.15 939.583 637.067 937.75 635.2 L 937.6 635.05 C 933.633 631.183 928.867 629.25 923.3 629.25 L 921.85 629.35 C 918.45 629.55 915.4 630.517 912.7 632.25 L 912.05 632.7 C 911.05 633.367 910.083 634.15 909.15 635.05 L 909.1 635.1 C 905.6 638.567 903.65 642.65 903.25 647.35 L 903.15 645.35 C 903.15 639.783 905.133 635.033 909.1 631.1 L 909.15 631.05 C 910.083 630.15 911.05 629.367 912.05 628.7 L 912.7 628.25 C 915.4 626.517 918.45 625.55 921.85 625.35 L 923.3 625.25 C 928.867 625.25 933.633 627.183 937.6 631.05 L 937.75 631.2 C 939.583 633.067 940.983 635.15 941.95 637.45 L 942 637.5 C 942.967 639.867 943.467 642.467 943.5 645.3 L 943.5 645.35 L 943.4 647.4 M 848.4 647.45 L 848.3 645.35 L 848.3 645.3 C 848.333 642.367 848.917 639.667 850.05 637.2 L 849.9 637.45 C 850.867 635.083 852.35 632.933 854.35 631 L 854.35 631.05 C 858.283 627.183 863 625.25 868.5 625.25 L 869.85 625.35 C 873.183 625.483 876.267 626.433 879.1 628.2 L 879.6 628.55 C 880.467 629.083 881.3 629.7 882.1 630.4 L 882.85 631.1 L 882.9 631.15 C 886.767 635.05 888.7 639.783 888.7 645.35 L 888.6 647.3 C 888.167 642.6 886.267 638.55 882.9 635.15 L 882.85 635.1 L 882.1 634.4 C 881.3 633.7 880.467 633.083 879.6 632.55 L 879.1 632.2 C 876.267 630.433 873.183 629.483 869.85 629.35 L 868.5 629.25 C 863 629.25 858.283 631.183 854.35 635.05 L 854.35 635 C 852.35 636.933 850.867 639.083 849.9 641.45 L 850.05 641.2 C 849.15 643.133 848.6 645.217 848.4 647.45"/>
    <path stroke="none" fill="#3F3F3F" d="M 929.65 645.6 C 929.65 647.7 928.9 649.467 927.4 650.9 C 925.9 652.433 924.1 653.2 922 653.2 C 919.933 653.2 918.117 652.433 916.55 650.9 L 916.5 650.85 C 915.033 649.417 914.3 647.667 914.3 645.6 C 914.3 643.4 915.05 641.583 916.55 640.15 L 916.9 639.85 C 918.4 638.617 920.1 638 922 638 C 924.1 638 925.9 638.717 927.4 640.15 C 928.9 641.583 929.65 643.4 929.65 645.6 M 862.25 645.6 C 862.25 643.4 863 641.583 864.5 640.15 C 865.933 638.717 867.717 638 869.85 638 C 871.783 638 873.467 638.617 874.9 639.85 L 875.25 640.15 C 875.95 640.817 876.483 641.567 876.85 642.4 C 877.283 643.367 877.5 644.433 877.5 645.6 C 877.5 646.733 877.283 647.767 876.85 648.7 C 876.483 649.467 875.983 650.183 875.35 650.85 L 875.25 650.9 C 873.75 652.433 871.95 653.2 869.85 653.2 C 867.717 653.2 865.933 652.433 864.5 650.9 C 863 649.467 862.25 647.7 862.25 645.6"/>
    <path stroke="none" fill="#2ECC71" d="M 958.95 681.45 C 957.683 684.617 955.483 687.1 952.35 688.9 C 948.683 691.033 944.783 691.55 940.65 690.45 C 936.517 689.35 933.383 686.95 931.25 683.25 C 929.483 680.15 928.85 676.9 929.35 673.5 C 930.617 670.3 932.783 667.8 935.85 666 C 939.583 663.867 943.517 663.35 947.65 664.45 C 951.783 665.55 954.883 667.95 956.95 671.65 C 958.783 674.75 959.45 678.017 958.95 681.45 M 862.5 673.5 C 862.933 676.9 862.267 680.15 860.5 683.25 C 858.4 686.95 855.283 689.35 851.15 690.45 C 847.05 691.55 843.133 691.033 839.4 688.9 C 836.267 687.133 834.1 684.65 832.9 681.45 C 832.333 678.05 832.967 674.783 834.8 671.65 C 836.933 667.95 840.05 665.55 844.15 664.45 C 848.283 663.35 852.2 663.867 855.9 666 C 858.967 667.8 861.167 670.3 862.5 673.5"/>
    <path stroke="none" fill="#31DE7A" d="M 862.5 673.5 C 861.167 670.3 858.967 667.8 855.9 666 C 852.2 663.867 848.283 663.35 844.15 664.45 C 840.05 665.55 836.933 667.95 834.8 671.65 C 832.967 674.783 832.333 678.05 832.9 681.45 L 832.25 679.55 C 831.15 675.417 831.65 671.5 833.75 667.8 C 835.917 664.1 839.05 661.7 843.15 660.6 C 847.283 659.5 851.183 660.017 854.85 662.15 C 858.583 664.283 861 667.417 862.1 671.55 L 862.5 673.5 M 929.35 673.5 C 929.417 672.833 929.533 672.183 929.7 671.55 C 930.8 667.417 933.2 664.283 936.9 662.15 C 940.6 660.017 944.517 659.5 948.65 660.6 C 952.783 661.7 955.9 664.1 958 667.8 C 960.133 671.5 960.65 675.417 959.55 679.55 L 958.95 681.45 C 959.45 678.017 958.783 674.75 956.95 671.65 C 954.883 667.95 951.783 665.55 947.65 664.45 C 943.517 663.35 939.583 663.867 935.85 666 C 932.783 667.8 930.617 670.3 929.35 673.5"/>
  </g>
</svg>