<?xml version="1.0" encoding="utf-8"?>
<svg viewBox="307.799 31.355 152.351 161.145" xmlns="http://www.w3.org/2000/svg">
  <g style="">
    <title>Giraffe</title>
    <path stroke="none" fill="#FFCC00" d="M 460.05 92.4 C 459.683 89.1 458.517 85.767 456.55 82.4 C 454.117 78.167 451.15 75.05 447.65 73.05 C 444.483 71.317 441.767 70.917 439.5 71.85 L 437.35 73.05 C 430.917 76.783 426.117 81.267 422.95 86.5 L 422.35 86 L 421.4 85.25 L 422.15 83.85 C 425.317 78.017 430.383 73.083 437.35 69.05 L 439.5 67.85 C 441.767 66.917 444.483 67.317 447.65 69.05 C 451.15 71.05 454.117 74.167 456.55 78.4 C 458.983 82.567 460.183 86.65 460.15 90.65 L 460.05 92.4 M 345 86.45 C 341.8 81.217 337 76.75 330.6 73.05 L 328.45 71.85 C 326.183 70.917 323.467 71.317 320.3 73.05 C 316.8 75.05 313.833 78.167 311.4 82.4 C 309.433 85.767 308.283 89.1 307.95 92.4 L 307.8 90.65 C 307.767 86.65 308.967 82.567 311.4 78.4 C 313.833 74.167 316.8 71.05 320.3 69.05 C 323.467 67.317 326.183 66.917 328.45 67.85 L 330.6 69.05 C 337.567 73.083 342.633 78.017 345.8 83.85 L 346.55 85.25 L 345 86.45"/>
    <path stroke="none" fill="#E9BB00" d="M 345 86.45 C 342.933 88.05 340.933 89.817 339 91.75 C 336.6 89.05 333.6 86.65 330 84.55 L 328.25 83.6 C 326.383 82.833 324.133 83.15 321.5 84.55 C 318.633 86.217 316.2 88.8 314.2 92.3 C 312.9 94.5 312.033 96.683 311.6 98.85 L 310.85 98.35 C 309.217 97.117 308.25 95.133 307.95 92.4 C 308.283 89.1 309.433 85.767 311.4 82.4 C 313.833 78.167 316.8 75.05 320.3 73.05 C 323.467 71.317 326.183 70.917 328.45 71.85 L 330.6 73.05 C 337 76.75 341.8 81.217 345 86.45 M 422.95 86.5 C 426.117 81.267 430.917 76.783 437.35 73.05 L 439.5 71.85 C 441.767 70.917 444.483 71.317 447.65 73.05 C 451.15 75.05 454.117 78.167 456.55 82.4 C 458.517 85.767 459.683 89.1 460.05 92.4 C 459.717 95.133 458.733 97.117 457.1 98.35 L 456.35 98.85 C 455.917 96.683 455.05 94.5 453.75 92.3 C 451.75 88.8 449.317 86.217 446.45 84.55 C 443.817 83.15 441.567 82.833 439.7 83.6 L 437.95 84.55 C 434.35 86.65 431.35 89.05 428.95 91.75 L 422.95 86.5"/>
    <path stroke="none" fill="#CBA200" d="M 428.95 91.75 C 431.35 89.05 434.35 86.65 437.95 84.55 L 439.7 83.6 C 441.567 82.833 443.817 83.15 446.45 84.55 C 449.317 86.217 451.75 88.8 453.75 92.3 C 455.05 94.5 455.917 96.683 456.35 98.85 L 455.05 99.6 C 449.783 102.633 444.617 104.5 439.55 105.2 C 436.783 100.5 433.35 96.1 429.25 92 L 428.95 91.75 M 311.6 98.85 C 312.033 96.683 312.9 94.5 314.2 92.3 C 316.2 88.8 318.633 86.217 321.5 84.55 C 324.133 83.15 326.383 82.833 328.25 83.6 L 330 84.55 C 333.6 86.65 336.6 89.05 339 91.75 L 338.7 92 C 334.6 96.1 331.167 100.5 328.4 105.2 C 323.333 104.5 318.167 102.633 312.9 99.6 L 311.6 98.85"/>
    <path stroke="none" fill="#EEBE00" d="M 347.85 79.55 C 358.383 72.183 370.417 68.5 383.95 68.5 C 397.517 68.5 409.55 72.167 420.05 79.5 C 418.917 90.2 415.483 99.55 409.75 107.55 C 402.617 117.517 394.017 122.5 383.95 122.5 C 373.883 122.5 365.283 117.517 358.15 107.55 C 352.417 99.55 348.983 90.217 347.85 79.55 M 371.4 110.8 C 371.533 111.333 371.8 111.817 372.2 112.25 C 372.633 112.583 373.133 112.8 373.7 112.9 L 379.9 113.55 C 380.467 113.617 381 113.5 381.5 113.2 C 382 112.9 382.367 112.483 382.6 111.95 L 385.15 106.25 C 385.383 105.717 385.45 105.183 385.35 104.65 C 385.217 104.05 384.95 103.567 384.55 103.2 L 379.9 99 C 379.467 98.6 378.967 98.383 378.4 98.35 C 377.833 98.283 377.3 98.383 376.8 98.65 L 371.35 101.8 C 370.85 102.067 370.483 102.483 370.25 103.05 C 370.017 103.55 369.967 104.1 370.1 104.7 L 371.4 110.8 M 380 87.15 C 380.3 86.683 380.45 86.167 380.45 85.6 C 380.45 85.033 380.3 84.517 380 84.05 L 375.05 77.25 L 373.75 76.3 C 373.183 76.1 372.633 76.1 372.1 76.3 L 364.15 78.85 C 363.583 79.05 363.133 79.383 362.8 79.85 C 362.467 80.283 362.3 80.783 362.3 81.35 L 362.3 89.75 C 362.3 90.35 362.467 90.883 362.8 91.35 C 363.133 91.783 363.583 92.083 364.15 92.25 L 372.1 94.85 C 372.633 95.017 373.183 95.017 373.75 94.85 L 375.05 93.95 L 380 87.15 M 392.65 103.1 C 393.117 103.433 393.633 103.6 394.2 103.6 C 394.8 103.6 395.333 103.433 395.8 103.1 L 405.5 96.05 C 405.933 95.683 406.233 95.233 406.4 94.7 C 406.567 94.167 406.567 93.633 406.4 93.1 L 402.7 81.65 C 402.533 81.083 402.233 80.633 401.8 80.3 C 401.333 79.967 400.8 79.8 400.2 79.8 L 388.15 79.8 C 387.55 79.8 387.033 79.967 386.6 80.3 C 386.133 80.633 385.817 81.083 385.65 81.65 L 381.95 93.1 C 381.783 93.633 381.783 94.167 381.95 94.7 C 382.117 95.233 382.433 95.683 382.9 96.05 L 392.65 103.1"/>
    <path stroke="none" fill="#FFCC00" d="M 447.95 130.5 C 447.65 140.633 445.267 149.917 440.8 158.35 C 439.5 160.817 438.017 163.2 436.35 165.5 L 436.3 165.5 C 434.2 168.367 431.833 171.117 429.2 173.75 L 424.55 178.05 C 421.617 176.983 420.167 174.883 420.2 171.75 C 419.467 164.25 415.983 157.75 409.75 152.25 C 402.75 146.083 394.3 143 384.4 143 C 374.5 143 366.033 146.083 359 152.25 C 352.8 157.75 349.35 164.25 348.65 171.75 C 347.75 174.95 346.017 177.083 343.45 178.15 L 338.65 173.75 C 333.583 168.683 329.55 163.2 326.55 157.3 L 321 140.6 L 321 140.4 L 320.8 139.3 L 320.75 139.05 L 320.7 138.55 L 320.6 138 L 320.45 136.75 L 320.45 136.55 L 320.35 135.95 L 320.35 135.7 L 320.3 135.5 L 320.3 135.25 L 320.25 134.95 L 320.2 134.3 L 320.2 134.05 L 320.15 133.75 L 320 130.5 C 320.433 113.667 326.667 99.25 338.7 87.25 C 341.6 84.35 344.65 81.783 347.85 79.55 C 348.983 90.217 352.417 99.55 358.15 107.55 C 365.283 117.517 373.883 122.5 383.95 122.5 C 394.017 122.5 402.617 117.517 409.75 107.55 C 415.483 99.55 418.917 90.2 420.05 79.5 C 423.25 81.733 426.317 84.317 429.25 87.25 C 441.25 99.25 447.483 113.667 447.95 130.5 M 392.65 103.1 L 382.9 96.05 C 382.433 95.683 382.117 95.233 381.95 94.7 C 381.783 94.167 381.783 93.633 381.95 93.1 L 385.65 81.65 C 385.817 81.083 386.133 80.633 386.6 80.3 C 387.033 79.967 387.55 79.8 388.15 79.8 L 400.2 79.8 C 400.8 79.8 401.333 79.967 401.8 80.3 C 402.233 80.633 402.533 81.083 402.7 81.65 L 406.4 93.1 C 406.567 93.633 406.567 94.167 406.4 94.7 C 406.233 95.233 405.933 95.683 405.5 96.05 L 395.8 103.1 C 395.333 103.433 394.8 103.6 394.2 103.6 C 393.633 103.6 393.117 103.433 392.65 103.1 M 380 87.15 L 375.05 93.95 L 373.75 94.85 C 373.183 95.017 372.633 95.017 372.1 94.85 L 364.15 92.25 C 363.583 92.083 363.133 91.783 362.8 91.35 C 362.467 90.883 362.3 90.35 362.3 89.75 L 362.3 81.35 C 362.3 80.783 362.467 80.283 362.8 79.85 C 363.133 79.383 363.583 79.05 364.15 78.85 L 372.1 76.3 C 372.633 76.1 373.183 76.1 373.75 76.3 L 375.05 77.25 L 380 84.05 C 380.3 84.517 380.45 85.033 380.45 85.6 C 380.45 86.167 380.3 86.683 380 87.15 M 371.4 110.8 L 370.1 104.7 C 369.967 104.1 370.017 103.55 370.25 103.05 C 370.483 102.483 370.85 102.067 371.35 101.8 L 376.8 98.65 C 377.3 98.383 377.833 98.283 378.4 98.35 C 378.967 98.383 379.467 98.6 379.9 99 L 384.55 103.2 C 384.95 103.567 385.217 104.05 385.35 104.65 C 385.45 105.183 385.383 105.717 385.15 106.25 L 382.6 111.95 C 382.367 112.483 382 112.9 381.5 113.2 C 381 113.5 380.467 113.617 379.9 113.55 L 373.7 112.9 C 373.133 112.8 372.633 112.583 372.2 112.25 C 371.8 111.817 371.533 111.333 371.4 110.8"/>
    <path stroke="none" fill="#FFD738" d="M 320 130.5 L 319.95 128.5 C 319.95 110.8 326.2 95.717 338.7 83.25 C 341.533 80.417 344.483 77.917 347.55 75.75 C 358.15 68.25 370.283 64.5 383.95 64.5 C 397.65 64.5 409.783 68.233 420.35 75.7 C 423.45 77.9 426.417 80.417 429.25 83.25 C 441.717 95.717 447.95 110.8 447.95 128.5 L 447.95 130.5 C 447.483 113.667 441.25 99.25 429.25 87.25 C 426.317 84.317 423.25 81.733 420.05 79.5 C 409.55 72.167 397.517 68.5 383.95 68.5 C 370.417 68.5 358.383 72.183 347.85 79.55 C 344.65 81.783 341.6 84.35 338.7 87.25 C 326.667 99.25 320.433 113.667 320 130.5"/>
    <path stroke="none" fill="#D2A800" d="M 424.55 178.05 L 420.35 181.25 C 409.75 188.75 397.617 192.5 383.95 192.5 C 370.25 192.5 358.117 188.767 347.55 181.3 L 343.45 178.15 C 346.017 177.083 347.75 174.95 348.65 171.75 C 349.35 164.25 352.8 157.75 359 152.25 C 366.033 146.083 374.5 143 384.4 143 C 394.3 143 402.75 146.083 409.75 152.25 C 415.983 157.75 419.467 164.25 420.2 171.75 C 420.167 174.883 421.617 176.983 424.55 178.05 M 402.9 156.5 C 401.9 155.5 400.417 155.283 398.45 155.85 C 396.483 156.383 394.617 157.533 392.85 159.3 L 392.7 159.45 C 391.767 160.417 391.3 161.6 391.3 163 C 391.3 164.433 391.8 165.65 392.8 166.65 C 393.8 167.65 395.017 168.15 396.45 168.15 C 397.817 168.15 399 167.683 400 166.75 L 400.15 166.6 C 401.917 164.833 403.067 162.967 403.6 161 C 404.167 159.033 403.933 157.533 402.9 156.5 M 368.8 166.75 C 369.8 167.683 370.983 168.15 372.35 168.15 C 373.783 168.15 375 167.65 376 166.65 C 377 165.65 377.5 164.433 377.5 163 C 377.5 161.6 377.033 160.417 376.1 159.45 L 375.95 159.3 C 374.183 157.533 372.317 156.383 370.35 155.85 C 368.383 155.283 366.9 155.5 365.9 156.5 C 364.867 157.533 364.633 159.033 365.2 161 C 365.733 162.967 366.883 164.833 368.65 166.6 L 368.8 166.75"/>
    <path stroke="none" fill="#A38200" d="M 368.8 166.75 L 368.65 166.6 C 366.883 164.833 365.733 162.967 365.2 161 C 364.633 159.033 364.867 157.533 365.9 156.5 C 366.9 155.5 368.383 155.283 370.35 155.85 C 372.317 156.383 374.183 157.533 375.95 159.3 L 376.1 159.45 C 377.033 160.417 377.5 161.6 377.5 163 C 377.5 164.433 377 165.65 376 166.65 C 375 167.65 373.783 168.15 372.35 168.15 C 370.983 168.15 369.8 167.683 368.8 166.75 M 402.9 156.5 C 403.933 157.533 404.167 159.033 403.6 161 C 403.067 162.967 401.917 164.833 400.15 166.6 L 400 166.75 C 399 167.683 397.817 168.15 396.45 168.15 C 395.017 168.15 393.8 167.65 392.8 166.65 C 391.8 165.65 391.3 164.433 391.3 163 C 391.3 161.6 391.767 160.417 392.7 159.45 L 392.85 159.3 C 394.617 157.533 396.483 156.383 398.45 155.85 C 400.417 155.283 401.9 155.5 402.9 156.5"/>
    <path stroke="none" fill="#FFFFFF" d="M 334.9 135.05 C 334.9 131.583 336.117 128.633 338.55 126.2 C 340.983 123.767 343.933 122.55 347.4 122.55 C 350.8 122.55 353.733 123.767 356.2 126.2 C 358.633 128.633 359.85 131.583 359.85 135.05 C 359.85 138.483 358.633 141.4 356.2 143.8 C 353.733 146.267 350.8 147.5 347.4 147.5 C 343.933 147.5 340.983 146.267 338.55 143.8 C 336.117 141.4 334.9 138.483 334.9 135.05 M 339.6 135.25 C 339.6 137.65 340.45 139.667 342.15 141.3 C 343.817 143 345.867 143.85 348.3 143.85 C 350.667 143.85 352.7 143 354.4 141.3 C 356.1 139.667 356.95 137.65 356.95 135.25 C 356.95 132.85 356.1 130.8 354.4 129.1 C 352.7 127.433 350.667 126.6 348.3 126.6 C 345.867 126.6 343.817 127.433 342.15 129.1 C 340.45 130.8 339.6 132.85 339.6 135.25 M 427.15 135.25 C 427.15 132.85 426.317 130.8 424.65 129.1 C 422.983 127.433 420.933 126.6 418.5 126.6 C 416.133 126.6 414.083 127.433 412.35 129.1 C 410.683 130.8 409.85 132.85 409.85 135.25 C 409.85 137.65 410.683 139.667 412.35 141.3 C 414.083 143 416.133 143.85 418.5 143.85 C 420.933 143.85 422.983 143 424.65 141.3 C 426.317 139.667 427.15 137.65 427.15 135.25 M 431.9 135.05 C 431.9 138.483 430.683 141.4 428.25 143.8 C 425.817 146.267 422.867 147.5 419.4 147.5 C 416 147.5 413.067 146.267 410.6 143.8 C 408.167 141.4 406.95 138.483 406.95 135.05 C 406.95 131.583 408.167 128.633 410.6 126.2 C 413.067 123.767 416 122.55 419.4 122.55 C 422.867 122.55 425.817 123.767 428.25 126.2 C 430.683 128.633 431.9 131.583 431.9 135.05"/>
    <path stroke="none" fill="#5B5B5B" d="M 339.6 135.25 C 339.6 132.85 340.45 130.8 342.15 129.1 C 343.817 127.433 345.867 126.6 348.3 126.6 C 350.667 126.6 352.7 127.433 354.4 129.1 C 356.1 130.8 356.95 132.85 356.95 135.25 C 356.95 137.65 356.1 139.667 354.4 141.3 C 352.7 143 350.667 143.85 348.3 143.85 C 345.867 143.85 343.817 143 342.15 141.3 C 340.45 139.667 339.6 137.65 339.6 135.25 M 427.15 135.25 C 427.15 137.65 426.317 139.667 424.65 141.3 C 422.983 143 420.933 143.85 418.5 143.85 C 416.133 143.85 414.083 143 412.35 141.3 C 410.683 139.667 409.85 137.65 409.85 135.25 C 409.85 132.85 410.683 130.8 412.35 129.1 C 414.083 127.433 416.133 126.6 418.5 126.6 C 420.933 126.6 422.983 127.433 424.65 129.1 C 426.317 130.8 427.15 132.85 427.15 135.25"/>
    <path stroke="none" fill="#CBA200" d="M 417.15 43.95 L 416.95 44.8 C 416.183 47.6 414.533 49.75 412 51.25 L 411.5 51.55 C 410.633 51.983 409.75 52.3 408.85 52.5 L 402.3 71.15 L 402.3 71.2 C 401.967 72.033 401.417 72.65 400.65 73.05 L 400.65 73.1 L 398.25 73.35 L 398.3 73.35 C 397.5 73.183 396.85 72.7 396.35 71.9 L 396.3 71.8 C 395.867 71.067 395.75 70.283 395.95 69.45 L 399.6 50.05 C 398.8 49.283 398.083 48.4 397.45 47.4 L 397.45 47.35 C 396.85 46.317 396.45 45.283 396.25 44.25 L 396.45 43.3 C 396.983 41.2 398 39.483 399.5 38.15 C 400.067 37.65 400.683 37.2 401.35 36.8 C 403.883 35.333 406.583 34.983 409.45 35.75 C 412.25 36.517 414.4 38.167 415.9 40.7 C 416.5 41.767 416.917 42.85 417.15 43.95 M 350.8 43.95 C 351.033 42.85 351.45 41.767 352.05 40.7 C 353.517 38.167 355.667 36.517 358.5 35.75 C 361.367 34.983 364.05 35.35 366.55 36.85 L 366.6 36.85 L 367.95 37.8 C 369.683 39.167 370.867 41 371.5 43.3 L 371.7 44.2 C 371.5 45.3 371.1 46.367 370.5 47.4 L 370.5 47.45 L 368.35 50.05 L 372.05 69.5 L 372 69.45 C 372.133 70.25 372.033 71 371.7 71.7 L 371.55 71.95 L 371.6 71.95 C 371.133 72.65 370.5 73.133 369.7 73.4 L 367.3 73.15 L 367.2 73.1 C 366.5 72.7 366 72.067 365.7 71.2 L 365.65 71.2 L 359.15 52.5 C 358.05 52.267 356.983 51.867 355.95 51.3 L 355.7 51.15 C 353.3 49.65 351.733 47.533 351 44.8 L 350.8 43.95"/>
    <path stroke="none" fill="#DBAF00" d="M 350.8 43.95 C 350.3 41.383 350.717 38.967 352.05 36.7 C 353.517 34.167 355.667 32.517 358.5 31.75 C 361.367 30.983 364.05 31.35 366.55 32.85 L 366.6 32.85 L 367.95 33.8 C 369.683 35.167 370.867 37 371.5 39.3 C 371.967 41 372.033 42.633 371.7 44.2 L 371.5 43.3 C 370.867 41 369.683 39.167 367.95 37.8 L 366.6 36.85 L 366.55 36.85 C 364.05 35.35 361.367 34.983 358.5 35.75 C 355.667 36.517 353.517 38.167 352.05 40.7 C 351.45 41.767 351.033 42.85 350.8 43.95 M 396.25 44.25 C 395.917 42.65 395.983 41 396.45 39.3 C 396.983 37.2 398 35.483 399.5 34.15 C 400.067 33.65 400.683 33.2 401.35 32.8 C 403.883 31.333 406.583 30.983 409.45 31.75 C 412.25 32.517 414.4 34.167 415.9 36.7 C 417.233 38.967 417.65 41.383 417.15 43.95 C 416.917 42.85 416.5 41.767 415.9 40.7 C 414.4 38.167 412.25 36.517 409.45 35.75 C 406.583 34.983 403.883 35.333 401.35 36.8 C 400.683 37.2 400.067 37.65 399.5 38.15 C 398 39.483 396.983 41.2 396.45 43.3 L 396.25 44.25"/>
  </g>
</svg>