<?xml version="1.0" encoding="utf-8"?>
<svg viewBox="573.85 832 128 128" xmlns="http://www.w3.org/2000/svg">
  <g>
    <title>Gorilla</title>
    <path stroke="none" fill="#545353" d="M 573.9 898.5 L 573.85 898 L 573.85 897 L 573.85 896.5 L 573.85 896 C 573.85 886.967 575.483 878.617 578.75 870.95 L 579.65 868.95 C 582.717 862.35 587.033 856.267 592.6 850.7 L 593.65 849.7 C 605.917 837.9 620.65 832 637.85 832 C 655.083 832 669.833 837.9 682.1 849.7 L 683.1 850.7 C 685.567 853.167 687.8 855.75 689.8 858.45 C 692.267 861.783 694.367 865.283 696.1 868.95 L 697 870.95 C 700.233 878.617 701.85 886.967 701.85 896 L 701.85 896.5 L 701.85 897 L 701.85 898 L 701.85 898.5 C 701.65 888.467 699.4 879.283 695.1 870.95 L 694.05 868.95 C 692.783 866.717 691.367 864.55 689.8 862.45 C 687.8 859.75 685.567 857.167 683.1 854.7 L 682.1 853.7 C 669.833 841.9 655.083 836 637.85 836 C 620.65 836 605.917 841.9 593.65 853.7 L 592.6 854.7 C 588.167 859.133 584.533 863.883 581.7 868.95 L 580.6 870.95 C 576.333 879.283 574.1 888.467 573.9 898.5"/>
    <path stroke="none" fill="#414040" d="M 573.9 898.5 C 574.1 888.467 576.333 879.283 580.6 870.95 L 581.7 868.95 C 584.533 863.883 588.167 859.133 592.6 854.7 L 593.65 853.7 C 605.917 841.9 620.65 836 637.85 836 C 655.083 836 669.833 841.9 682.1 853.7 L 683.1 854.7 C 685.567 857.167 687.8 859.75 689.8 862.45 C 691.367 864.55 692.783 866.717 694.05 868.95 L 695.1 870.95 C 699.4 879.283 701.65 888.467 701.85 898.5 C 701.383 911.633 697.367 923.3 689.8 933.5 L 687.7 936.15 L 686.3 937.8 L 683.1 941.2 C 676.967 947.367 670.2 952.017 662.8 955.15 C 655.133 958.383 646.817 960 637.85 960 C 632.15 960 626.733 959.35 621.6 958.05 C 618.633 957.317 615.75 956.35 612.95 955.15 C 605.517 952.017 598.733 947.367 592.6 941.2 L 589.4 937.8 C 579.567 926.667 574.4 913.567 573.9 898.5 M 681.4 872.85 L 679.35 870.95 L 676.6 868.95 C 672.3 866.183 667.433 864.8 662 864.8 C 656.533 864.8 651.65 866.183 647.35 868.95 C 641.017 872.183 634.683 872.183 628.35 868.95 C 624.05 866.183 619.183 864.8 613.75 864.8 C 608.317 864.8 603.45 866.183 599.15 868.95 C 598.217 869.55 597.3 870.217 596.4 870.95 L 594.3 872.85 C 588.933 878.217 586.25 884.683 586.25 892.25 C 586.25 899.85 588.933 906.35 594.3 911.75 L 594.4 911.75 L 598.95 915.45 C 598.983 926.083 602.783 935.15 610.35 942.65 C 613.35 945.683 616.617 948.1 620.15 949.9 C 625.483 952.667 631.383 954.05 637.85 954.05 C 648.583 954.05 657.767 950.25 665.4 942.65 L 669.05 938.55 C 674.117 931.883 676.683 924.183 676.75 915.45 L 681.4 911.75 C 686.767 906.35 689.45 899.85 689.45 892.25 C 689.45 884.683 686.767 878.217 681.4 872.85 M 655.85 859.75 L 655.8 859.2 C 655.5 854.4 653.8 850.25 650.7 846.75 C 647.267 842.917 643.15 841 638.35 841 C 633.517 841 629.383 842.917 625.95 846.75 C 622.883 850.25 621.2 854.4 620.9 859.2 L 620.85 859.75 C 620.85 860.217 620.95 860.667 621.15 861.1 C 621.75 862.533 623.35 863.8 625.95 864.9 C 629.383 866.3 633.517 867 638.35 867 C 643.15 867 647.267 866.3 650.7 864.9 C 653.333 863.8 654.967 862.533 655.6 861.1 L 655.85 859.75"/>
    <path stroke="none" fill="#FFFFFF" d="M 596.2 896.1 C 596.2 893.033 597.283 890.433 599.45 888.3 C 601.65 886.167 604.283 885.1 607.35 885.1 C 610.383 885.1 613.017 886.167 615.25 888.3 C 617.383 890.433 618.45 893.033 618.45 896.1 C 618.45 899.167 617.383 901.75 615.25 903.85 C 613.017 906.083 610.383 907.2 607.35 907.2 C 604.283 907.2 601.65 906.083 599.45 903.85 C 597.283 901.75 596.2 899.167 596.2 896.1 M 601.65 896.35 C 601.65 898.25 602.333 899.85 603.7 901.15 C 604.967 902.55 606.583 903.25 608.55 903.25 C 610.483 903.25 612.133 902.55 613.5 901.15 C 614.867 899.85 615.55 898.25 615.55 896.35 C 615.55 894.35 614.867 892.7 613.5 891.4 C 612.133 890.067 610.483 889.4 608.55 889.4 C 606.583 889.4 604.967 890.067 603.7 891.4 C 602.333 892.7 601.65 894.35 601.65 896.35 M 620.15 918.4 C 633.483 914.3 645.817 914.3 657.15 918.4 C 659.25 924.667 659.25 930.583 657.15 936.15 C 655.817 936.25 654.5 936.033 653.2 935.5 C 644.033 931.8 633.95 931.867 622.95 935.7 L 620.15 936.2 C 617.783 930.933 617.783 925 620.15 918.4 M 680.25 896.1 C 680.25 899.167 679.167 901.75 677 903.85 C 674.833 906.083 672.2 907.2 669.1 907.2 C 666.067 907.2 663.483 906.083 661.35 903.85 C 659.117 901.75 658 899.167 658 896.1 C 658 893.033 659.117 890.433 661.35 888.3 C 663.483 886.167 666.067 885.1 669.1 885.1 C 672.2 885.1 674.833 886.167 677 888.3 C 679.167 890.433 680.25 893.033 680.25 896.1 M 674.9 896.35 C 674.9 894.35 674.217 892.7 672.85 891.4 C 671.483 890.067 669.85 889.4 667.95 889.4 C 666.05 889.4 664.383 890.067 662.95 891.4 C 661.583 892.7 660.9 894.35 660.9 896.35 C 660.9 898.25 661.583 899.85 662.95 901.15 C 664.383 902.55 666.05 903.25 667.95 903.25 C 669.85 903.25 671.483 902.55 672.85 901.15 C 674.217 899.85 674.9 898.25 674.9 896.35"/>
    <path stroke="none" fill="#BDB6B6" d="M 596.2 896.1 C 596.2 899.167 597.283 901.75 599.45 903.85 C 601.65 906.083 604.283 907.2 607.35 907.2 C 610.383 907.2 613.017 906.083 615.25 903.85 C 617.383 901.75 618.45 899.167 618.45 896.1 C 618.45 893.033 617.383 890.433 615.25 888.3 C 613.017 886.167 610.383 885.1 607.35 885.1 C 604.283 885.1 601.65 886.167 599.45 888.3 C 597.283 890.433 596.2 893.033 596.2 896.1 M 681.4 872.85 C 686.767 878.217 689.45 884.683 689.45 892.25 C 689.45 899.85 686.767 906.35 681.4 911.75 L 676.75 915.45 C 676.683 924.183 674.117 931.883 669.05 938.55 L 665.4 942.65 C 657.767 950.25 648.583 954.05 637.85 954.05 C 631.383 954.05 625.483 952.667 620.15 949.9 C 616.617 948.1 613.35 945.683 610.35 942.65 C 602.783 935.15 598.983 926.083 598.95 915.45 L 594.4 911.75 L 594.3 911.75 C 588.933 906.35 586.25 899.85 586.25 892.25 C 586.25 884.683 588.933 878.217 594.3 872.85 L 596.4 870.95 C 597.3 870.217 598.217 869.55 599.15 868.95 C 603.45 866.183 608.317 864.8 613.75 864.8 C 619.183 864.8 624.05 866.183 628.35 868.95 C 634.683 872.183 641.017 872.183 647.35 868.95 C 651.65 866.183 656.533 864.8 662 864.8 C 667.433 864.8 672.3 866.183 676.6 868.95 L 679.35 870.95 L 681.4 872.85 M 616.1 875.75 C 615.233 875.85 614.467 876.217 613.8 876.85 C 613.167 877.483 612.85 878.25 612.85 879.15 C 612.85 880.05 613.167 880.817 613.8 881.45 C 614.467 882.083 615.333 882.467 616.4 882.6 C 630.667 884.333 644.867 884.267 659 882.4 C 660.233 882.4 661.167 882.083 661.8 881.45 C 662.433 880.817 662.75 880.05 662.75 879.15 C 662.75 878.25 662.433 877.483 661.8 876.85 C 661.167 876.217 660.233 875.833 659 875.7 C 644.333 874.333 630.033 874.35 616.1 875.75 M 641.6 899.2 L 641.45 899.3 C 640.683 900.067 640.3 901.017 640.3 902.15 C 640.3 903.317 640.717 904.317 641.55 905.15 L 641.95 905.45 L 642.35 905.75 C 642.95 906.15 643.667 906.35 644.5 906.35 C 645.6 906.35 646.533 905.967 647.3 905.2 L 647.45 905 L 649.1 903 C 649.667 902.2 650.05 901.383 650.25 900.55 L 650.35 900.2 C 650.65 898.733 650.433 897.633 649.7 896.9 C 648.9 896.1 647.683 895.917 646.05 896.35 C 644.517 896.817 643.033 897.767 641.6 899.2 M 635.1 905.15 C 635.9 904.317 636.3 903.317 636.3 902.15 C 636.3 901.017 635.917 900.067 635.15 899.3 L 635 899.2 C 633.6 897.767 632.1 896.817 630.5 896.35 C 628.9 895.917 627.683 896.1 626.85 896.9 C 626.117 897.633 625.917 898.733 626.25 900.2 L 626.35 900.55 C 626.55 901.383 626.917 902.217 627.45 903.05 L 629.1 905 L 629.2 905.2 C 630 905.967 630.967 906.35 632.1 906.35 C 632.9 906.35 633.633 906.15 634.3 905.75 L 634.7 905.45 L 635.1 905.15 M 620.15 918.4 L 617.3 919.3 C 615 920.1 613.35 921.567 612.35 923.7 C 611.283 925.9 611.15 928.1 611.95 930.3 C 612.717 932.6 614.2 934.267 616.4 935.3 C 617.633 935.9 618.883 936.2 620.15 936.2 L 622.95 935.7 C 633.95 931.867 644.033 931.8 653.2 935.5 C 654.5 936.033 655.817 936.25 657.15 936.15 L 659.8 935.5 C 662 934.633 663.55 933.083 664.45 930.85 C 665.35 928.65 665.367 926.433 664.5 924.2 C 663.6 922.033 662.067 920.467 659.9 919.5 L 657.15 918.4 C 645.817 914.3 633.483 914.3 620.15 918.4 M 680.25 896.1 C 680.25 893.033 679.167 890.433 677 888.3 C 674.833 886.167 672.2 885.1 669.1 885.1 C 666.067 885.1 663.483 886.167 661.35 888.3 C 659.117 890.433 658 893.033 658 896.1 C 658 899.167 659.117 901.75 661.35 903.85 C 663.483 906.083 666.067 907.2 669.1 907.2 C 672.2 907.2 674.833 906.083 677 903.85 C 679.167 901.75 680.25 899.167 680.25 896.1"/>
    <path stroke="none" fill="#464545" d="M 655.85 859.75 L 655.6 861.1 C 654.967 862.533 653.333 863.8 650.7 864.9 C 647.267 866.3 643.15 867 638.35 867 C 633.517 867 629.383 866.3 625.95 864.9 C 623.35 863.8 621.75 862.533 621.15 861.1 C 620.95 860.667 620.85 860.217 620.85 859.75 L 620.9 859.2 C 621.2 854.4 622.883 850.25 625.95 846.75 C 629.383 842.917 633.517 841 638.35 841 C 643.15 841 647.267 842.917 650.7 846.75 C 653.8 850.25 655.5 854.4 655.8 859.2 L 655.85 859.75"/>
    <path stroke="none" fill="#A8A1A1" d="M 616.1 875.75 C 630.033 874.35 644.333 874.333 659 875.7 C 660.233 875.833 661.167 876.217 661.8 876.85 C 662.433 877.483 662.75 878.25 662.75 879.15 C 662.75 880.05 662.433 880.817 661.8 881.45 C 661.167 882.083 660.233 882.4 659 882.4 C 644.867 884.267 630.667 884.333 616.4 882.6 C 615.333 882.467 614.467 882.083 613.8 881.45 C 613.167 880.817 612.85 880.05 612.85 879.15 C 612.85 878.25 613.167 877.483 613.8 876.85 C 614.467 876.217 615.233 875.85 616.1 875.75"/>
    <path stroke="none" fill="#989292" d="M 641.6 899.2 C 643.033 897.767 644.517 896.817 646.05 896.35 C 647.683 895.917 648.9 896.1 649.7 896.9 C 650.433 897.633 650.65 898.733 650.35 900.2 L 650.25 900.55 C 650.05 901.383 649.667 902.2 649.1 903 L 647.45 905 L 647.3 905.2 C 646.533 905.967 645.6 906.35 644.5 906.35 C 643.667 906.35 642.95 906.15 642.35 905.75 L 641.95 905.45 L 641.55 905.15 C 640.717 904.317 640.3 903.317 640.3 902.15 C 640.3 901.017 640.683 900.067 641.45 899.3 L 641.6 899.2 M 635.1 905.15 L 634.7 905.45 L 634.3 905.75 C 633.633 906.15 632.9 906.35 632.1 906.35 C 630.967 906.35 630 905.967 629.2 905.2 L 629.1 905 L 627.45 903.05 C 626.917 902.217 626.55 901.383 626.35 900.55 L 626.25 900.2 C 625.917 898.733 626.117 897.633 626.85 896.9 C 627.683 896.1 628.9 895.917 630.5 896.35 C 632.1 896.817 633.6 897.767 635 899.2 L 635.15 899.3 C 635.917 900.067 636.3 901.017 636.3 902.15 C 636.3 903.317 635.9 904.317 635.1 905.15"/>
    <path stroke="none" fill="#5B5B5B" d="M 601.65 896.35 C 601.65 894.35 602.333 892.7 603.7 891.4 C 604.967 890.067 606.583 889.4 608.55 889.4 C 610.483 889.4 612.133 890.067 613.5 891.4 C 614.867 892.7 615.55 894.35 615.55 896.35 C 615.55 898.25 614.867 899.85 613.5 901.15 C 612.133 902.55 610.483 903.25 608.55 903.25 C 606.583 903.25 604.967 902.55 603.7 901.15 C 602.333 899.85 601.65 898.25 601.65 896.35 M 674.9 896.35 C 674.9 898.25 674.217 899.85 672.85 901.15 C 671.483 902.55 669.85 903.25 667.95 903.25 C 666.05 903.25 664.383 902.55 662.95 901.15 C 661.583 899.85 660.9 898.25 660.9 896.35 C 660.9 894.35 661.583 892.7 662.95 891.4 C 664.383 890.067 666.05 889.4 667.95 889.4 C 669.85 889.4 671.483 890.067 672.85 891.4 C 674.217 892.7 674.9 894.35 674.9 896.35"/>
    <path stroke="none" fill="#E7E7E7" d="M 620.15 936.2 C 618.883 936.2 617.633 935.9 616.4 935.3 C 614.2 934.267 612.717 932.6 611.95 930.3 C 611.15 928.1 611.283 925.9 612.35 923.7 C 613.35 921.567 615 920.1 617.3 919.3 L 620.15 918.4 C 617.783 925 617.783 930.933 620.15 936.2 M 657.15 918.4 L 659.9 919.5 C 662.067 920.467 663.6 922.033 664.5 924.2 C 665.367 926.433 665.35 928.65 664.45 930.85 C 663.55 933.083 662 934.633 659.8 935.5 L 657.15 936.15 C 659.25 930.583 659.25 924.667 657.15 918.4"/>
  </g>
</svg>