<?xml version="1.0" encoding="utf-8"?>
<svg viewBox="831.7 434.83 128 141.17" xmlns="http://www.w3.org/2000/svg">
  <g>
    <title>Horse</title>
    <path stroke="none" fill="#B67340" d="M 917 451.25 C 917.067 448.717 918.067 446.083 920 443.35 C 922.533 439.983 925.917 437.55 930.15 436.05 C 934.35 434.55 938.183 434.433 941.65 435.7 C 944.75 436.867 946.733 438.85 947.6 441.65 L 948.15 444.3 C 950.05 453.667 950.167 462.167 948.5 469.8 L 948.2 470.95 C 949.3 464.05 949.033 456.467 947.4 448.2 L 946.8 445.5 C 945.967 442.733 943.983 440.75 940.85 439.55 C 937.383 438.283 933.567 438.4 929.4 439.9 C 925.133 441.4 921.733 443.85 919.2 447.25 C 918.2 448.583 917.467 449.917 917 451.25 M 843.25 471 L 842.95 469.8 C 841.317 462.167 841.433 453.683 843.3 444.35 L 843.85 441.65 C 844.717 438.85 846.7 436.883 849.8 435.75 C 853.3 434.483 857.133 434.6 861.3 436.1 C 865.533 437.567 868.917 440 871.45 443.4 C 873.383 446.1 874.383 448.717 874.45 451.25 C 873.95 449.95 873.217 448.633 872.25 447.3 C 869.717 443.867 866.333 441.417 862.1 439.95 C 857.9 438.45 854.067 438.333 850.6 439.6 C 847.467 440.767 845.483 442.733 844.65 445.5 L 844.05 448.25 C 842.417 456.483 842.15 464.067 843.25 471"/>
    <path stroke="none" fill="#8E5A32" d="M 843.25 471 C 842.15 464.067 842.417 456.483 844.05 448.25 L 844.65 445.5 C 845.483 442.733 847.467 440.767 850.6 439.6 C 854.067 438.333 857.9 438.45 862.1 439.95 C 866.333 441.417 869.717 443.867 872.25 447.3 C 873.217 448.633 873.95 449.95 874.45 451.25 L 874.4 452.55 L 873.85 455.35 L 873.2 458.25 L 871.95 462.85 C 871.583 461.783 871 460.683 870.2 459.55 C 868.367 457.083 865.917 455.317 862.85 454.25 L 854.6 454 C 852.333 454.867 850.9 456.317 850.3 458.35 L 849.9 460.2 C 848.533 466.933 848.45 473.05 849.65 478.55 L 850 479.95 C 850.3 481.217 850.683 482.35 851.15 483.35 L 850.55 483.05 C 847.183 481.25 844.75 477.233 843.25 471 M 948.2 470.95 C 946.667 477.217 944.217 481.25 940.85 483.05 L 940.3 483.3 L 941.4 479.9 L 941.8 478.55 C 943 473.05 942.917 466.933 941.55 460.2 L 941.1 458.3 C 940.533 456.267 939.133 454.817 936.9 453.95 L 928.6 454.2 C 925.533 455.3 923.083 457.067 921.25 459.5 C 920.45 460.667 919.867 461.767 919.5 462.8 L 918.2 458.25 L 917.6 455.3 L 917.1 452.5 L 917 451.25 C 917.467 449.917 918.2 448.583 919.2 447.25 C 921.733 443.85 925.133 441.4 929.4 439.9 C 933.567 438.4 937.383 438.283 940.85 439.55 C 943.983 440.75 945.967 442.733 946.8 445.5 L 947.4 448.2 C 949.033 456.467 949.3 464.05 948.2 470.95"/>
    <path stroke="none" fill="#774B2A" d="M 940.3 483.3 L 939.7 483.6 C 937.433 484.367 935.183 484.167 932.95 483 C 930.917 481.967 928.9 480.133 926.9 477.5 C 924.067 473.867 921.75 469.433 919.95 464.2 L 919.5 462.8 C 919.867 461.767 920.45 460.667 921.25 459.5 C 923.083 457.067 925.533 455.3 928.6 454.2 L 936.9 453.95 C 939.133 454.817 940.533 456.267 941.1 458.3 L 941.55 460.2 C 942.917 466.933 943 473.05 941.8 478.55 L 941.4 479.9 L 940.3 483.3 M 871.95 462.85 L 871.55 464.2 C 869.75 469.467 867.417 473.9 864.55 477.5 C 862.55 480.133 860.533 481.967 858.5 483 C 856.267 484.167 854.017 484.367 851.75 483.6 L 851.15 483.35 C 850.683 482.35 850.3 481.217 850 479.95 L 849.65 478.55 C 848.45 473.05 848.533 466.933 849.9 460.2 L 850.3 458.35 C 850.9 456.317 852.333 454.867 854.6 454 L 862.85 454.25 C 865.917 455.317 868.367 457.083 870.2 459.55 C 871 460.683 871.583 461.783 871.95 462.85"/>
    <path stroke="none" fill="#BD7841" d="M 905.7 452.7 L 895.7 452 L 885.7 452.7 C 872.267 454.667 860.517 460.667 850.45 470.7 C 838.417 482.767 832.183 497.2 831.75 514 L 831.7 512 C 831.7 494.333 837.95 479.233 850.45 466.7 C 862.95 454.233 878.033 448 895.7 448 C 913.367 448 928.45 454.233 940.95 466.7 C 953.45 479.233 959.7 494.333 959.7 512 L 959.7 514 C 959.233 497.2 952.983 482.767 940.95 470.7 C 930.883 460.667 919.133 454.667 905.7 452.7"/>
    <path stroke="none" fill="#F3DBC8" d="M 905.7 452.7 C 905.233 486.133 911.917 515.65 925.75 541.25 L 865.65 541.25 C 879.483 515.65 886.167 486.133 885.7 452.7 L 895.7 452 L 905.7 452.7"/>
    <path stroke="none" fill="#A16639" d="M 905.7 452.7 C 919.133 454.667 930.883 460.667 940.95 470.7 C 952.983 482.767 959.233 497.2 959.7 514 C 959.433 523.933 957.15 533.017 952.85 541.25 C 949.85 546.983 945.883 552.3 940.95 557.2 C 928.45 569.733 913.367 576 895.7 576 C 878.033 576 862.95 569.733 850.45 557.2 C 838.417 545.2 832.183 530.8 831.75 514 C 832.183 497.2 838.417 482.767 850.45 470.7 C 860.517 460.667 872.267 454.667 885.7 452.7 C 886.167 486.133 879.483 515.65 865.65 541.25 L 925.75 541.25 C 911.917 515.65 905.233 486.133 905.7 452.7"/>
    <path stroke="none" fill="#9C6236" d="M 867.9 460.7 C 866.867 458.733 867.667 456.05 870.3 452.65 C 872.933 449.15 876.733 445.983 881.7 443.15 C 890.667 438.05 900 438.05 909.7 443.15 C 914.633 445.983 918.417 449.15 921.05 452.65 C 923.717 456.05 924.533 458.717 923.5 460.65 C 923.033 459.45 922.217 458.117 921.05 456.65 C 918.417 453.15 914.633 449.983 909.7 447.15 C 900 442.05 890.667 442.05 881.7 447.15 C 876.733 449.983 872.933 453.15 870.3 456.65 C 869.133 458.117 868.333 459.467 867.9 460.7"/>
    <path stroke="none" fill="#8E5A32" d="M 867.9 460.7 C 868.333 459.467 869.133 458.117 870.3 456.65 C 872.933 453.15 876.733 449.983 881.7 447.15 C 890.667 442.05 900 442.05 909.7 447.15 C 914.633 449.983 918.417 453.15 921.05 456.65 C 922.217 458.117 923.033 459.45 923.5 460.65 L 923.4 460.8 C 922.233 462.867 919.45 463.6 915.05 463 C 912.083 462.567 908.967 461.6 905.7 460.1 C 906.233 461.567 906.583 462.983 906.75 464.35 L 906.8 464.6 C 906.933 465.867 906.883 466.917 906.65 467.75 C 906.45 468.517 906.067 469.067 905.5 469.4 C 904.233 470.133 902.517 469.667 900.35 468 C 898.683 466.667 897.133 464.9 895.7 462.7 C 894.233 464.9 892.667 466.667 891 468 C 888.867 469.667 887.167 470.133 885.9 469.4 C 885.333 469.067 884.933 468.517 884.7 467.75 C 884.467 466.917 884.433 465.883 884.6 464.65 L 884.6 464.35 C 884.8 462.983 885.183 461.567 885.75 460.1 C 882.45 461.6 879.3 462.567 876.3 463 C 871.933 463.6 869.15 462.867 867.95 460.8 L 867.9 460.7"/>
    <path stroke="none" fill="#B67340" d="M 858.25 543.9 L 858.2 542 L 858.2 541 C 858.467 532.6 862.117 525.383 869.15 519.35 C 876.483 513.117 885.333 510 895.7 510 C 906.033 510 914.867 513.117 922.2 519.35 C 929.233 525.383 932.9 532.6 933.2 541 L 933.2 542 L 933.15 543.9 C 932.583 535.967 928.933 529.117 922.2 523.35 C 914.867 517.117 906.033 514 895.7 514 C 885.333 514 876.483 517.117 869.15 523.35 C 862.417 529.117 858.783 535.967 858.25 543.9"/>
    <path stroke="none" fill="#8E5A32" d="M 858.25 543.9 C 858.783 535.967 862.417 529.117 869.15 523.35 C 876.483 517.117 885.333 514 895.7 514 C 906.033 514 914.867 517.117 922.2 523.35 C 928.933 529.117 932.583 535.967 933.15 543.9 C 932.65 551.933 929 558.833 922.2 564.6 C 914.867 570.867 906.033 574 895.7 574 C 885.333 574 876.483 570.867 869.15 564.6 C 862.383 558.8 858.75 551.9 858.25 543.9 M 880.1 534.4 C 881.1 535.333 882.283 535.8 883.65 535.8 C 885.083 535.8 886.3 535.3 887.3 534.3 C 888.3 533.3 888.8 532.083 888.8 530.65 C 888.8 529.917 888.683 529.25 888.45 528.65 L 887.4 527.1 L 887.25 526.95 C 885.55 525.25 883.75 524.117 881.85 523.55 L 881.65 523.5 C 880.183 523.067 879 523.083 878.1 523.55 C 877.767 523.683 877.467 523.883 877.2 524.15 L 876.6 525 C 876.167 525.833 876.1 526.883 876.4 528.15 L 876.5 528.65 L 876.95 529.95 C 877.583 531.45 878.583 532.883 879.95 534.25 L 880.1 534.4 M 914.2 524.15 L 913.35 523.55 C 912.417 523.083 911.217 523.067 909.75 523.5 L 909.5 523.6 C 907.6 524.167 905.817 525.283 904.15 526.95 L 904 527.1 C 903.567 527.567 903.233 528.083 903 528.65 C 902.733 529.25 902.6 529.917 902.6 530.65 C 902.6 532.083 903.1 533.3 904.1 534.3 C 905.1 535.3 906.317 535.8 907.75 535.8 C 909.117 535.8 910.3 535.333 911.3 534.4 L 911.45 534.25 C 912.817 532.883 913.817 531.45 914.45 529.95 L 914.9 528.65 L 915.05 528.15 C 915.317 526.883 915.233 525.833 914.8 525 L 914.2 524.15"/>
    <path stroke="none" fill="#704627" d="M 914.2 524.15 L 914.8 525 C 915.233 525.833 915.317 526.883 915.05 528.15 L 914.9 528.65 L 914.45 529.95 C 913.817 531.45 912.817 532.883 911.45 534.25 L 911.3 534.4 C 910.3 535.333 909.117 535.8 907.75 535.8 C 906.317 535.8 905.1 535.3 904.1 534.3 C 903.1 533.3 902.6 532.083 902.6 530.65 C 902.6 529.917 902.733 529.25 903 528.65 C 903.233 528.083 903.567 527.567 904 527.1 L 904.15 526.95 C 905.817 525.283 907.6 524.167 909.5 523.6 L 909.75 523.5 C 911.217 523.067 912.417 523.083 913.35 523.55 L 914.2 524.15 M 880.1 534.4 L 879.95 534.25 C 878.583 532.883 877.583 531.45 876.95 529.95 L 876.5 528.65 L 876.4 528.15 C 876.1 526.883 876.167 525.833 876.6 525 L 877.2 524.15 C 877.467 523.883 877.767 523.683 878.1 523.55 C 879 523.083 880.183 523.067 881.65 523.5 L 881.85 523.55 C 883.75 524.117 885.55 525.25 887.25 526.95 L 887.4 527.1 L 888.45 528.65 C 888.683 529.25 888.8 529.917 888.8 530.65 C 888.8 532.083 888.3 533.3 887.3 534.3 C 886.3 535.3 885.083 535.8 883.65 535.8 C 882.283 535.8 881.1 535.333 880.1 534.4"/>
    <path stroke="none" fill="#FFFFFF" d="M 944.2 494.55 C 944.2 497.983 942.983 500.9 940.55 503.3 C 938.117 505.767 935.167 507 931.7 507 C 928.3 507 925.367 505.767 922.9 503.3 C 920.467 500.9 919.25 497.983 919.25 494.55 C 919.25 491.083 920.467 488.133 922.9 485.7 C 925.367 483.267 928.3 482.05 931.7 482.05 C 935.167 482.05 938.117 483.267 940.55 485.7 C 942.983 488.133 944.2 491.083 944.2 494.55 M 939.45 494.75 C 939.45 492.35 938.617 490.3 936.95 488.6 C 935.283 486.933 933.233 486.1 930.8 486.1 C 928.433 486.1 926.383 486.933 924.65 488.6 C 922.983 490.3 922.15 492.35 922.15 494.75 C 922.15 497.15 922.983 499.167 924.65 500.8 C 926.383 502.5 928.433 503.35 930.8 503.35 C 933.233 503.35 935.283 502.5 936.95 500.8 C 938.617 499.167 939.45 497.15 939.45 494.75 M 847.2 494.55 C 847.2 491.083 848.417 488.133 850.85 485.7 C 853.283 483.267 856.233 482.05 859.7 482.05 C 863.1 482.05 866.033 483.267 868.5 485.7 C 870.933 488.133 872.15 491.083 872.15 494.55 C 872.15 497.983 870.933 500.9 868.5 503.3 C 866.033 505.767 863.1 507 859.7 507 C 856.233 507 853.283 505.767 850.85 503.3 C 848.417 500.9 847.2 497.983 847.2 494.55 M 851.9 494.75 C 851.9 497.15 852.75 499.167 854.45 500.8 C 856.117 502.5 858.167 503.35 860.6 503.35 C 862.967 503.35 865 502.5 866.7 500.8 C 868.4 499.167 869.25 497.15 869.25 494.75 C 869.25 492.35 868.4 490.3 866.7 488.6 C 865 486.933 862.967 486.1 860.6 486.1 C 858.167 486.1 856.117 486.933 854.45 488.6 C 852.75 490.3 851.9 492.35 851.9 494.75"/>
    <path stroke="none" fill="#5B5B5B" d="M 851.9 494.75 C 851.9 492.35 852.75 490.3 854.45 488.6 C 856.117 486.933 858.167 486.1 860.6 486.1 C 862.967 486.1 865 486.933 866.7 488.6 C 868.4 490.3 869.25 492.35 869.25 494.75 C 869.25 497.15 868.4 499.167 866.7 500.8 C 865 502.5 862.967 503.35 860.6 503.35 C 858.167 503.35 856.117 502.5 854.45 500.8 C 852.75 499.167 851.9 497.15 851.9 494.75 M 939.45 494.75 C 939.45 497.15 938.617 499.167 936.95 500.8 C 935.283 502.5 933.233 503.35 930.8 503.35 C 928.433 503.35 926.383 502.5 924.65 500.8 C 922.983 499.167 922.15 497.15 922.15 494.75 C 922.15 492.35 922.983 490.3 924.65 488.6 C 926.383 486.933 928.433 486.1 930.8 486.1 C 933.233 486.1 935.283 486.933 936.95 488.6 C 938.617 490.3 939.45 492.35 939.45 494.75"/>
  </g>
</svg>