<?xml version="1.0" encoding="utf-8"?>
<svg viewBox="41.5 256 173 128" xmlns="http://www.w3.org/2000/svg">
  <g>
    <title>Monkey</title>
    <path stroke="none" fill="#774B2A" d="M 60.05 307.15 C 60.05 302.517 61.717 298.55 65.05 295.25 C 68.35 291.95 72.3 290.3 76.9 290.3 C 81.6 290.3 85.6 291.95 88.9 295.25 C 92.233 298.55 93.9 302.517 93.9 307.15 C 93.9 311.85 92.233 315.833 88.9 319.1 C 85.6 322.467 81.6 324.15 76.9 324.15 C 72.3 324.15 68.35 322.467 65.05 319.1 C 61.717 315.833 60.05 311.85 60.05 307.15 M 195.95 307.15 C 195.95 311.85 194.283 315.833 190.95 319.1 C 187.65 322.467 183.7 324.15 179.1 324.15 C 174.4 324.15 170.4 322.467 167.1 319.1 C 163.767 315.833 162.1 311.85 162.1 307.15 C 162.1 302.517 163.767 298.55 167.1 295.25 C 170.4 291.95 174.4 290.3 179.1 290.3 C 183.7 290.3 187.65 291.95 190.95 295.25 C 194.283 298.55 195.95 302.517 195.95 307.15"/>
    <path stroke="none" fill="#8E5A32" d="M 195.95 307.15 C 195.95 302.517 194.283 298.55 190.95 295.25 C 187.65 291.95 183.7 290.3 179.1 290.3 C 174.4 290.3 170.4 291.95 167.1 295.25 C 163.767 298.55 162.1 302.517 162.1 307.15 C 162.1 311.85 163.767 315.833 167.1 319.1 C 170.4 322.467 174.4 324.15 179.1 324.15 C 183.7 324.15 187.65 322.467 190.95 319.1 C 194.283 315.833 195.95 311.85 195.95 307.15 M 41.55 309.15 C 41.983 301.75 44.917 295.333 50.35 289.9 C 56.183 284.067 63.233 281.15 71.5 281.15 C 79.733 281.15 86.817 284.067 92.75 289.9 C 98.117 295.333 101.017 301.75 101.45 309.15 C 101.017 316.55 98.117 322.95 92.75 328.35 C 86.817 334.217 79.733 337.15 71.5 337.15 C 63.233 337.15 56.183 334.217 50.35 328.35 C 44.917 322.95 41.983 316.55 41.55 309.15 M 60.05 307.15 C 60.05 311.85 61.717 315.833 65.05 319.1 C 68.35 322.467 72.3 324.15 76.9 324.15 C 81.6 324.15 85.6 322.467 88.9 319.1 C 92.233 315.833 93.9 311.85 93.9 307.15 C 93.9 302.517 92.233 298.55 88.9 295.25 C 85.6 291.95 81.6 290.3 76.9 290.3 C 72.3 290.3 68.35 291.95 65.05 295.25 C 61.717 298.55 60.05 302.517 60.05 307.15 M 214.45 309.15 C 214.017 316.55 211.083 322.95 205.65 328.35 C 199.817 334.217 192.767 337.15 184.5 337.15 C 176.267 337.15 169.183 334.217 163.25 328.35 C 157.883 322.95 154.983 316.55 154.55 309.15 C 154.983 301.75 157.883 295.333 163.25 289.9 C 169.183 284.067 176.267 281.15 184.5 281.15 C 192.767 281.15 199.817 284.067 205.65 289.9 C 211.083 295.333 214.017 301.75 214.45 309.15"/>
    <path stroke="none" fill="#B67340" d="M 214.45 309.15 C 214.017 301.75 211.083 295.333 205.65 289.9 C 199.817 284.067 192.767 281.15 184.5 281.15 C 176.267 281.15 169.183 284.067 163.25 289.9 C 157.883 295.333 154.983 301.75 154.55 309.15 L 154.5 307.15 C 154.5 298.917 157.417 291.833 163.25 285.9 C 169.183 280.067 176.267 277.15 184.5 277.15 C 192.767 277.15 199.817 280.067 205.65 285.9 C 211.55 291.833 214.5 298.917 214.5 307.15 L 214.45 309.15 M 101.45 309.15 C 101.017 301.75 98.117 295.333 92.75 289.9 C 86.817 284.067 79.733 281.15 71.5 281.15 C 63.233 281.15 56.183 284.067 50.35 289.9 C 44.917 295.333 41.983 301.75 41.55 309.15 L 41.5 307.15 C 41.5 298.917 44.45 291.833 50.35 285.9 C 56.183 280.067 63.233 277.15 71.5 277.15 C 79.733 277.15 86.817 280.067 92.75 285.9 C 98.583 291.833 101.5 298.917 101.5 307.15 L 101.45 309.15"/>
    <path stroke="none" fill="#B4723F" d="M 85 274.6 L 82.75 276.7 C 70.617 288.833 64.367 303.433 64 320.5 L 64 320 C 64 302.3 70.25 287.2 82.75 274.7 L 83.8 273.7 C 96.067 261.9 110.8 256 128 256 C 145.233 256 159.983 261.9 172.25 273.7 L 173.25 274.7 C 175.717 277.167 177.95 279.75 179.95 282.45 C 187.983 293.283 192 305.8 192 320 L 192 320.5 C 191.7 306.933 187.683 294.917 179.95 284.45 C 177.95 281.75 175.717 279.167 173.25 276.7 L 171.05 274.6 C 159.017 263.533 144.667 258 128 258 C 111.367 258 97.033 263.533 85 274.6"/>
    <path stroke="none" fill="#A16639" d="M 85 274.6 C 86.833 275.867 88.967 277.083 91.4 278.25 C 101.5 283.083 113.7 285.5 128 285.5 C 142.3 285.5 154.5 283.083 164.6 278.25 C 167.033 277.083 169.183 275.867 171.05 274.6 L 173.25 276.7 C 175.717 279.167 177.95 281.75 179.95 284.45 C 187.683 294.917 191.7 306.933 192 320.5 L 192 321 L 192 322 C 191.633 335.333 187.617 347.167 179.95 357.5 L 177.85 360.15 L 176.45 361.8 L 173.25 365.2 C 167.117 371.367 160.35 376.017 152.95 379.15 C 145.283 382.383 136.967 384 128 384 C 122.3 384 116.883 383.35 111.75 382.05 C 108.783 381.317 105.9 380.35 103.1 379.15 C 95.667 376.017 88.883 371.367 82.75 365.2 L 79.55 361.8 C 69.617 350.533 64.433 337.267 64 322 L 64 321 L 64 320.5 C 64.367 303.433 70.617 288.833 82.75 276.7 L 85 274.6 M 168 299.85 C 163.067 294.917 157.133 292.45 150.2 292.45 C 143.2 292.45 137.25 294.917 132.35 299.85 C 131.317 300.85 129.867 301.35 128 301.35 C 126.133 301.35 124.7 300.85 123.7 299.85 C 118.767 294.917 112.833 292.45 105.9 292.45 C 98.933 292.45 92.983 294.917 88.05 299.85 C 83.117 304.783 80.65 310.717 80.65 317.65 C 80.65 324.617 83.117 330.583 88.05 335.55 L 88.1 335.55 L 92.3 338.95 C 92.333 348.717 95.817 357.05 102.75 363.95 C 105.517 366.717 108.517 368.933 111.75 370.6 C 116.65 373.133 122.067 374.4 128 374.4 C 137.867 374.4 146.3 370.917 153.3 363.95 L 156.65 360.15 C 161.317 354.05 163.683 346.983 163.75 338.95 L 168 335.55 C 172.933 330.583 175.4 324.617 175.4 317.65 C 175.4 310.717 172.933 304.783 168 299.85 M 133.3 333.7 C 134.6 332.4 135.967 331.533 137.4 331.1 C 138.9 330.7 140.017 330.867 140.75 331.6 C 141.483 332.333 141.65 333.45 141.25 334.95 C 140.85 336.383 139.983 337.75 138.65 339.05 L 138.55 339.2 C 137.817 339.9 136.95 340.25 135.95 340.25 C 134.883 340.25 133.983 339.883 133.25 339.15 C 132.483 338.383 132.1 337.467 132.1 336.4 C 132.1 335.367 132.45 334.5 133.15 333.8 L 133.3 333.7 M 123.65 339.15 C 122.85 339.883 121.933 340.25 120.9 340.25 C 119.867 340.25 118.983 339.9 118.25 339.2 L 118.15 339.05 C 116.817 337.75 115.967 336.383 115.6 334.95 C 115.2 333.45 115.367 332.333 116.1 331.6 C 116.867 330.867 117.983 330.7 119.45 331.1 C 120.917 331.533 122.283 332.4 123.55 333.7 L 123.7 333.8 C 124.4 334.5 124.75 335.367 124.75 336.4 C 124.75 337.467 124.383 338.383 123.65 339.15"/>
    <path stroke="none" fill="#AA6C3B" d="M 171.05 274.6 C 169.183 275.867 167.033 277.083 164.6 278.25 C 154.5 283.083 142.3 285.5 128 285.5 C 113.7 285.5 101.5 283.083 91.4 278.25 C 88.967 277.083 86.833 275.867 85 274.6 C 97.033 263.533 111.367 258 128 258 C 144.667 258 159.017 263.533 171.05 274.6"/>
    <path stroke="none" fill="#FFFFFF" d="M 163.1 319.15 C 163.1 316.95 162.35 315.133 160.85 313.7 C 159.35 312.267 157.55 311.55 155.45 311.55 C 153.383 311.55 151.567 312.267 150 313.7 C 148.5 315.133 147.75 316.95 147.75 319.15 C 147.75 321.25 148.5 323.017 150 324.45 C 151.567 325.983 153.383 326.75 155.45 326.75 C 157.55 326.75 159.35 325.983 160.85 324.45 C 162.35 323.017 163.1 321.25 163.1 319.15 M 168.95 318.9 C 168.95 322.267 167.783 325.1 165.45 327.4 C 163.05 329.833 160.15 331.05 156.75 331.05 C 153.417 331.05 150.567 329.833 148.2 327.4 C 145.8 325.1 144.6 322.267 144.6 318.9 C 144.6 315.533 145.8 312.667 148.2 310.3 C 150.567 307.967 153.417 306.8 156.75 306.8 C 160.15 306.8 163.05 307.967 165.45 310.3 C 167.783 312.667 168.95 315.533 168.95 318.9 M 111.75 343.8 L 114.35 344.25 C 124.45 347.783 133.7 347.85 142.1 344.45 C 143.3 343.95 144.517 343.75 145.75 343.85 C 147.683 348.95 147.683 354.383 145.75 360.15 C 135.35 363.917 124.017 363.917 111.75 360.15 C 109.583 354.083 109.583 348.633 111.75 343.8 M 87.75 318.9 C 87.75 315.533 88.95 312.667 91.35 310.3 C 93.75 307.967 96.617 306.8 99.95 306.8 C 103.283 306.8 106.183 307.967 108.65 310.3 C 110.983 312.667 112.15 315.533 112.15 318.9 C 112.15 322.267 110.983 325.1 108.65 327.4 C 106.183 329.833 103.283 331.05 99.95 331.05 C 96.617 331.05 93.75 329.833 91.35 327.4 C 88.95 325.1 87.75 322.267 87.75 318.9 M 93.7 319.15 C 93.7 321.25 94.45 323.017 95.95 324.45 C 97.383 325.983 99.167 326.75 101.3 326.75 C 103.4 326.75 105.2 325.983 106.7 324.45 C 108.2 323.017 108.95 321.25 108.95 319.15 C 108.95 316.95 108.2 315.133 106.7 313.7 C 105.2 312.267 103.4 311.55 101.3 311.55 C 99.167 311.55 97.383 312.267 95.95 313.7 C 94.45 315.133 93.7 316.95 93.7 319.15"/>
    <path stroke="none" fill="#5B5B5B" d="M 93.7 319.15 C 93.7 316.95 94.45 315.133 95.95 313.7 C 97.383 312.267 99.167 311.55 101.3 311.55 C 103.4 311.55 105.2 312.267 106.7 313.7 C 108.2 315.133 108.95 316.95 108.95 319.15 C 108.95 321.25 108.2 323.017 106.7 324.45 C 105.2 325.983 103.4 326.75 101.3 326.75 C 99.167 326.75 97.383 325.983 95.95 324.45 C 94.45 323.017 93.7 321.25 93.7 319.15 M 163.1 319.15 C 163.1 321.25 162.35 323.017 160.85 324.45 C 159.35 325.983 157.55 326.75 155.45 326.75 C 153.383 326.75 151.567 325.983 150 324.45 C 148.5 323.017 147.75 321.25 147.75 319.15 C 147.75 316.95 148.5 315.133 150 313.7 C 151.567 312.267 153.383 311.55 155.45 311.55 C 157.55 311.55 159.35 312.267 160.85 313.7 C 162.35 315.133 163.1 316.95 163.1 319.15"/>
    <path stroke="none" fill="#BF8559" d="M 168.95 318.9 C 168.95 315.533 167.783 312.667 165.45 310.3 C 163.05 307.967 160.15 306.8 156.75 306.8 C 153.417 306.8 150.567 307.967 148.2 310.3 C 145.8 312.667 144.6 315.533 144.6 318.9 C 144.6 322.267 145.8 325.1 148.2 327.4 C 150.567 329.833 153.417 331.05 156.75 331.05 C 160.15 331.05 163.05 329.833 165.45 327.4 C 167.783 325.1 168.95 322.267 168.95 318.9 M 168 299.85 C 172.933 304.783 175.4 310.717 175.4 317.65 C 175.4 324.617 172.933 330.583 168 335.55 L 163.75 338.95 C 163.683 346.983 161.317 354.05 156.65 360.15 L 153.3 363.95 C 146.3 370.917 137.867 374.4 128 374.4 C 122.067 374.4 116.65 373.133 111.75 370.6 C 108.517 368.933 105.517 366.717 102.75 363.95 C 95.817 357.05 92.333 348.717 92.3 338.95 L 88.1 335.55 L 88.05 335.55 C 83.117 330.583 80.65 324.617 80.65 317.65 C 80.65 310.717 83.117 304.783 88.05 299.85 C 92.983 294.917 98.933 292.45 105.9 292.45 C 112.833 292.45 118.767 294.917 123.7 299.85 C 124.7 300.85 126.133 301.35 128 301.35 C 129.867 301.35 131.317 300.85 132.35 299.85 C 137.25 294.917 143.2 292.45 150.2 292.45 C 157.133 292.45 163.067 294.917 168 299.85 M 133.3 333.7 L 133.15 333.8 C 132.45 334.5 132.1 335.367 132.1 336.4 C 132.1 337.467 132.483 338.383 133.25 339.15 C 133.983 339.883 134.883 340.25 135.95 340.25 C 136.95 340.25 137.817 339.9 138.55 339.2 L 138.65 339.05 C 139.983 337.75 140.85 336.383 141.25 334.95 C 141.65 333.45 141.483 332.333 140.75 331.6 C 140.017 330.867 138.9 330.7 137.4 331.1 C 135.967 331.533 134.6 332.4 133.3 333.7 M 123.65 339.15 C 124.383 338.383 124.75 337.467 124.75 336.4 C 124.75 335.367 124.4 334.5 123.7 333.8 L 123.55 333.7 C 122.283 332.4 120.917 331.533 119.45 331.1 C 117.983 330.7 116.867 330.867 116.1 331.6 C 115.367 332.333 115.2 333.45 115.6 334.95 C 115.967 336.383 116.817 337.75 118.15 339.05 L 118.25 339.2 C 118.983 339.9 119.867 340.25 120.9 340.25 C 121.933 340.25 122.85 339.883 123.65 339.15 M 145.75 343.85 C 144.517 343.75 143.3 343.95 142.1 344.45 C 133.7 347.85 124.45 347.783 114.35 344.25 L 111.75 343.8 C 110.583 343.8 109.433 344.067 108.3 344.6 C 106.3 345.567 104.95 347.1 104.25 349.2 C 103.517 351.233 103.633 353.25 104.6 355.25 C 105.533 357.217 107.05 358.567 109.15 359.3 L 111.75 360.15 C 124.017 363.917 135.35 363.917 145.75 360.15 L 148.25 359.15 C 150.25 358.25 151.667 356.8 152.5 354.8 C 153.3 352.767 153.283 350.733 152.45 348.7 C 151.617 346.667 150.183 345.25 148.15 344.45 L 145.75 343.85 M 87.75 318.9 C 87.75 322.267 88.95 325.1 91.35 327.4 C 93.75 329.833 96.617 331.05 99.95 331.05 C 103.283 331.05 106.183 329.833 108.65 327.4 C 110.983 325.1 112.15 322.267 112.15 318.9 C 112.15 315.533 110.983 312.667 108.65 310.3 C 106.183 307.967 103.283 306.8 99.95 306.8 C 96.617 306.8 93.75 307.967 91.35 310.3 C 88.95 312.667 87.75 315.533 87.75 318.9"/>
    <path stroke="none" fill="#E7E7E7" d="M 111.75 343.8 C 109.583 348.633 109.583 354.083 111.75 360.15 L 109.15 359.3 C 107.05 358.567 105.533 357.217 104.6 355.25 C 103.633 353.25 103.517 351.233 104.25 349.2 C 104.95 347.1 106.3 345.567 108.3 344.6 C 109.433 344.067 110.583 343.8 111.75 343.8 M 145.75 360.15 C 147.683 354.383 147.683 348.95 145.75 343.85 L 148.15 344.45 C 150.183 345.25 151.617 346.667 152.45 348.7 C 153.283 350.733 153.3 352.767 152.5 354.8 C 151.667 356.8 150.25 358.25 148.25 359.15 L 145.75 360.15"/>
  </g>
</svg>