<?xml version="1.0" encoding="utf-8"?>
<svg viewBox="569.227 614.5 137.245 153.95" xmlns="http://www.w3.org/2000/svg">
  <g>
    <title>Narwal</title>
    <path stroke="none" fill="#5A9BF3" d="M 702.45 701 L 702.25 701.15 L 702.1 699.7 C 700.6 684.7 694.317 671.667 683.25 660.6 C 677.95 655.3 672.183 651.1 665.95 648 C 661.783 645.933 657.417 644.35 652.85 643.25 L 650.5 642.75 C 646.167 641.883 641.65 641.45 636.95 641.45 L 625.35 642.4 L 622.95 642.85 C 610.75 645.35 599.967 651.267 590.6 660.6 C 579.233 672 572.933 685.517 571.7 701.15 L 571.5 701 C 571.933 683.733 578.3 668.933 590.6 656.6 C 599.967 647.267 610.75 641.35 622.95 638.85 L 624 638.65 L 625.35 638.4 L 636.95 637.45 C 641.65 637.45 646.167 637.883 650.5 638.75 L 651.8 639.05 L 652.85 639.25 C 657.417 640.35 661.783 641.933 665.95 644 C 672.183 647.1 677.95 651.3 683.25 656.6 C 694.317 667.667 700.6 680.7 702.1 695.7 L 702.45 701"/>
    <path stroke="none" fill="#528CDB" d="M 702.45 701 L 702.45 702.95 L 702.45 704.25 L 702.45 704.65 L 702.45 705.05 L 702.35 706.85 L 702.3 707.7 L 702.2 709 C 701.5 717.533 699.267 725.45 695.5 732.75 L 692.55 737.9 L 691.75 739.1 C 689.317 742.633 686.483 746.017 683.25 749.25 L 681.25 751.2 C 678.283 753.967 675.183 756.4 671.95 758.5 C 661.65 765.133 649.983 768.45 636.95 768.45 C 624.35 768.45 613.05 765.35 603.05 759.15 C 599.417 756.917 595.95 754.283 592.65 751.25 L 590.6 749.25 C 587.933 746.583 585.567 743.817 583.5 740.95 L 582.2 739.1 L 579.1 734 C 574.933 726.4 572.467 718.1 571.7 709.1 L 571.7 709 L 571.6 707.25 L 571.5 705.25 L 571.5 705.15 L 571.45 704.25 L 571.45 702.95 L 571.5 701 L 571.7 701.15 C 572.933 685.517 579.233 672 590.6 660.6 C 599.967 651.267 610.75 645.35 622.95 642.85 L 625.35 642.4 L 636.95 641.45 C 641.65 641.45 646.167 641.883 650.5 642.75 L 652.85 643.25 C 657.417 644.35 661.783 645.933 665.95 648 C 672.183 651.1 677.95 655.3 683.25 660.6 C 694.317 671.667 700.6 684.7 702.1 699.7 L 702.25 701.15 L 702.45 701 M 624.35 669.7 C 624.35 668.4 623.883 667.283 622.95 666.35 C 622.017 665.417 620.9 664.95 619.6 664.95 C 618.3 664.95 617.183 665.417 616.25 666.35 C 615.317 667.283 614.85 668.4 614.85 669.7 C 614.85 671 615.317 672.117 616.25 673.05 C 617.183 673.983 618.3 674.45 619.6 674.45 C 620.9 674.45 622.017 673.983 622.95 673.05 C 623.883 672.117 624.35 671 624.35 669.7 M 613.2 657.75 C 613.2 656.783 612.85 655.95 612.15 655.25 C 611.45 654.55 610.617 654.2 609.65 654.2 C 608.683 654.2 607.85 654.55 607.15 655.25 C 606.45 655.95 606.1 656.783 606.1 657.75 C 606.1 658.717 606.45 659.55 607.15 660.25 C 607.85 660.95 608.683 661.3 609.65 661.3 C 610.617 661.3 611.45 660.95 612.15 660.25 C 612.85 659.55 613.2 658.717 613.2 657.75 M 610.5 672.35 C 610.5 670.783 609.933 669.433 608.8 668.3 C 607.7 667.2 606.367 666.65 604.8 666.65 C 603.233 666.65 601.883 667.2 600.75 668.3 C 599.65 669.433 599.1 670.783 599.1 672.35 C 599.1 673.917 599.65 675.25 600.75 676.35 C 601.883 677.483 603.233 678.05 604.8 678.05 C 606.367 678.05 607.7 677.483 608.8 676.35 C 609.933 675.25 610.5 673.917 610.5 672.35 M 658.15 753.2 C 657.75 751.667 656.85 750.517 655.45 749.75 C 654.117 748.983 652.7 748.8 651.2 749.2 C 649.667 749.6 648.483 750.483 647.65 751.85 C 646.917 753.183 646.75 754.617 647.15 756.15 C 647.55 757.65 648.417 758.8 649.75 759.6 C 651.15 760.4 652.617 760.6 654.15 760.2 C 655.65 759.8 656.783 758.9 657.55 757.5 C 658.35 756.133 658.55 754.7 658.15 753.2 M 670.8 747.1 C 670.467 745.833 669.733 744.867 668.6 744.2 C 667.467 743.533 666.283 743.367 665.05 743.7 C 663.783 744.033 662.817 744.783 662.15 745.95 C 661.483 747.083 661.317 748.283 661.65 749.55 C 662.017 750.783 662.767 751.733 663.9 752.4 C 665.033 753.033 666.233 753.183 667.5 752.85 C 668.733 752.517 669.683 751.783 670.35 750.65 C 671.017 749.517 671.167 748.333 670.8 747.1 M 657 738.4 C 656.733 737.467 656.183 736.75 655.35 736.25 C 654.45 735.75 653.533 735.633 652.6 735.9 C 651.667 736.133 650.967 736.683 650.5 737.55 C 650 738.417 649.883 739.317 650.15 740.25 C 650.383 741.183 650.933 741.9 651.8 742.4 C 652.633 742.867 653.517 742.983 654.45 742.75 C 655.383 742.483 656.117 741.933 656.65 741.1 C 657.117 740.233 657.233 739.333 657 738.4"/>
    <path stroke="none" fill="#406EAF" d="M 582.2 739.1 L 583.5 740.95 C 585.567 743.817 587.933 746.583 590.6 749.25 L 592.65 751.25 C 595.95 754.283 599.417 756.917 603.05 759.15 L 602.2 759.85 L 600.3 761.35 C 596.233 764.317 592 766.383 587.6 767.55 C 583.333 768.683 579.75 768.733 576.85 767.7 C 576.15 767.467 575.5 767.167 574.9 766.8 C 573.5 764.4 572.983 761.483 573.35 758.05 C 573.483 756.783 573.733 755.45 574.1 754.05 C 575.333 749.483 577.55 745.083 580.75 740.85 L 582.2 739.1 M 671.95 758.5 C 675.183 756.4 678.283 753.967 681.25 751.2 L 683.25 749.25 C 686.483 746.017 689.317 742.633 691.75 739.1 L 692.55 737.9 L 693.95 739.6 C 697.683 744.2 700.233 749.017 701.6 754.05 L 702.35 758.05 C 702.717 761.517 702.2 764.433 700.8 766.8 L 700.15 767.15 C 697.017 768.717 693 768.85 688.1 767.55 C 683.4 766.317 678.9 764.033 674.6 760.7 L 672.7 759.15 L 671.95 758.5"/>
    <path stroke="none" fill="#4475BB" d="M 579.1 734 L 582.2 739.1 L 580.75 740.85 C 577.55 745.083 575.333 749.483 574.1 754.05 C 573.733 755.45 573.483 756.783 573.35 758.05 C 572.983 761.483 573.5 764.4 574.9 766.8 C 574.1 766.333 573.35 765.75 572.65 765.05 C 570.783 763.183 569.683 760.85 569.35 758.05 C 569.05 755.717 569.3 753.05 570.1 750.05 C 571.467 745.017 574.033 740.183 577.8 735.55 L 579.1 734 M 692.55 737.9 L 695.5 732.75 L 696.8 734.15 C 701.167 739.183 704.1 744.483 705.6 750.05 C 706.4 753.05 706.65 755.717 706.35 758.05 C 706.017 760.85 704.917 763.183 703.05 765.05 L 700.8 766.8 C 702.2 764.433 702.717 761.517 702.35 758.05 L 701.6 754.05 C 700.233 749.017 697.683 744.2 693.95 739.6 L 692.55 737.9"/>
    <path stroke="none" fill="#4A7FC6" d="M 657 738.4 C 657.233 739.333 657.117 740.233 656.65 741.1 C 656.117 741.933 655.383 742.483 654.45 742.75 C 653.517 742.983 652.633 742.867 651.8 742.4 C 650.933 741.9 650.383 741.183 650.15 740.25 C 649.883 739.317 650 738.417 650.5 737.55 C 650.967 736.683 651.667 736.133 652.6 735.9 C 653.533 735.633 654.45 735.75 655.35 736.25 C 656.183 736.75 656.733 737.467 657 738.4 M 670.8 747.1 C 671.167 748.333 671.017 749.517 670.35 750.65 C 669.683 751.783 668.733 752.517 667.5 752.85 C 666.233 753.183 665.033 753.033 663.9 752.4 C 662.767 751.733 662.017 750.783 661.65 749.55 C 661.317 748.283 661.483 747.083 662.15 745.95 C 662.817 744.783 663.783 744.033 665.05 743.7 C 666.283 743.367 667.467 743.533 668.6 744.2 C 669.733 744.867 670.467 745.833 670.8 747.1 M 658.15 753.2 C 658.55 754.7 658.35 756.133 657.55 757.5 C 656.783 758.9 655.65 759.8 654.15 760.2 C 652.617 760.6 651.15 760.4 649.75 759.6 C 648.417 758.8 647.55 757.65 647.15 756.15 C 646.75 754.617 646.917 753.183 647.65 751.85 C 648.483 750.483 649.667 749.6 651.2 749.2 C 652.7 748.8 654.117 748.983 655.45 749.75 C 656.85 750.517 657.75 751.667 658.15 753.2 M 610.5 672.35 C 610.5 673.917 609.933 675.25 608.8 676.35 C 607.7 677.483 606.367 678.05 604.8 678.05 C 603.233 678.05 601.883 677.483 600.75 676.35 C 599.65 675.25 599.1 673.917 599.1 672.35 C 599.1 670.783 599.65 669.433 600.75 668.3 C 601.883 667.2 603.233 666.65 604.8 666.65 C 606.367 666.65 607.7 667.2 608.8 668.3 C 609.933 669.433 610.5 670.783 610.5 672.35 M 613.2 657.75 C 613.2 658.717 612.85 659.55 612.15 660.25 C 611.45 660.95 610.617 661.3 609.65 661.3 C 608.683 661.3 607.85 660.95 607.15 660.25 C 606.45 659.55 606.1 658.717 606.1 657.75 C 606.1 656.783 606.45 655.95 607.15 655.25 C 607.85 654.55 608.683 654.2 609.65 654.2 C 610.617 654.2 611.45 654.55 612.15 655.25 C 612.85 655.95 613.2 656.783 613.2 657.75 M 624.35 669.7 C 624.35 671 623.883 672.117 622.95 673.05 C 622.017 673.983 620.9 674.45 619.6 674.45 C 618.3 674.45 617.183 673.983 616.25 673.05 C 615.317 672.117 614.85 671 614.85 669.7 C 614.85 668.4 615.317 667.283 616.25 666.35 C 617.183 665.417 618.3 664.95 619.6 664.95 C 620.9 664.95 622.017 665.417 622.95 666.35 C 623.883 667.283 624.35 668.4 624.35 669.7"/>
    <path stroke="none" fill="#5B5B5B" d="M 677.3 692.3 C 678.933 692.767 680.15 693.683 680.95 695.05 C 681.817 696.517 682.033 698.067 681.6 699.7 C 681.2 701.267 680.267 702.483 678.8 703.35 C 677.367 704.183 675.833 704.383 674.2 703.95 L 673.65 703.8 C 672.35 703.333 671.367 702.467 670.7 701.2 C 669.833 699.733 669.633 698.183 670.1 696.55 C 670.5 694.983 671.417 693.783 672.85 692.95 C 674.083 692.25 675.367 692 676.7 692.2 L 677.3 692.3 M 598.4 692.3 L 599 692.2 C 600.333 692 601.617 692.25 602.85 692.95 C 604.283 693.783 605.2 694.983 605.6 696.55 C 606.067 698.183 605.867 699.733 605 701.2 C 604.333 702.467 603.35 703.333 602.05 703.8 L 601.5 703.95 C 599.867 704.383 598.333 704.183 596.9 703.35 C 595.433 702.483 594.5 701.267 594.1 699.7 C 593.667 698.067 593.883 696.517 594.75 695.05 C 595.55 693.683 596.767 692.767 598.4 692.3"/>
    <path stroke="none" fill="#FFFFFF" d="M 598.4 692.3 C 596.767 692.767 595.55 693.683 594.75 695.05 C 593.883 696.517 593.667 698.067 594.1 699.7 C 594.5 701.267 595.433 702.483 596.9 703.35 C 598.333 704.183 599.867 704.383 601.5 703.95 L 602.05 703.8 C 603.35 703.333 604.333 702.467 605 701.2 C 605.867 699.733 606.067 698.183 605.6 696.55 C 605.2 694.983 604.283 693.783 602.85 692.95 C 601.617 692.25 600.333 692 599 692.2 L 598.4 692.3 M 680.2 688.6 C 682.767 689.333 684.7 690.833 686 693.1 C 687.3 695.367 687.617 697.783 686.95 700.35 C 686.25 702.883 684.767 704.833 682.5 706.2 C 680.2 707.467 677.767 707.75 675.2 707.05 C 672.667 706.383 670.75 704.933 669.45 702.7 C 668.117 700.367 667.8 697.933 668.5 695.4 C 669.167 692.867 670.667 690.933 673 689.6 C 675.267 688.3 677.667 687.967 680.2 688.6 M 677.3 692.3 L 676.7 692.2 C 675.367 692 674.083 692.25 672.85 692.95 C 671.417 693.783 670.5 694.983 670.1 696.55 C 669.633 698.183 669.833 699.733 670.7 701.2 C 671.367 702.467 672.35 703.333 673.65 703.8 L 674.2 703.95 C 675.833 704.383 677.367 704.183 678.8 703.35 C 680.267 702.483 681.2 701.267 681.6 699.7 C 682.033 698.067 681.817 696.517 680.95 695.05 C 680.15 693.683 678.933 692.767 677.3 692.3 M 595.5 688.6 C 598.033 687.967 600.433 688.3 602.7 689.6 C 605.033 690.933 606.533 692.867 607.2 695.4 C 607.9 697.933 607.583 700.367 606.25 702.7 C 604.95 704.933 603.033 706.383 600.5 707.05 C 597.933 707.75 595.5 707.467 593.2 706.2 C 590.933 704.833 589.45 702.883 588.75 700.35 C 588.083 697.783 588.4 695.367 589.7 693.1 C 591 690.833 592.933 689.333 595.5 688.6"/>
    <path stroke="none" fill="#5A9BF3" d="M 595.5 688.6 C 592.933 689.333 591 690.833 589.7 693.1 C 588.4 695.367 588.083 697.783 588.75 700.35 C 589.45 702.883 590.933 704.833 593.2 706.2 C 595.5 707.467 597.933 707.75 600.5 707.05 C 603.033 706.383 604.95 704.933 606.25 702.7 C 607.583 700.367 607.9 697.933 607.2 695.4 C 606.533 692.867 605.033 690.933 602.7 689.6 C 600.433 688.3 598.033 687.967 595.5 688.6 M 690.9 702.6 L 690.7 703.05 C 689.633 706.55 687.5 709.25 684.3 711.15 C 680.967 713.083 677.433 713.55 673.7 712.55 C 670.033 711.55 667.233 709.4 665.3 706.1 C 663.433 702.833 662.983 699.417 663.95 695.85 L 663.9 695.45 C 665.667 688.883 668.5 683.633 672.4 679.7 C 676.233 675.767 680.017 674.3 683.75 675.3 C 687.417 676.267 689.95 679.433 691.35 684.8 C 692.683 690.1 692.533 696.033 690.9 702.6 M 680.2 688.6 C 677.667 687.967 675.267 688.3 673 689.6 C 670.667 690.933 669.167 692.867 668.5 695.4 C 667.8 697.933 668.117 700.367 669.45 702.7 C 670.75 704.933 672.667 706.383 675.2 707.05 C 677.767 707.75 680.2 707.467 682.5 706.2 C 684.767 704.833 686.25 702.883 686.95 700.35 C 687.617 697.783 687.3 695.367 686 693.1 C 684.7 690.833 682.767 689.333 680.2 688.6 M 584.8 702.6 C 583.167 696.033 583.017 690.1 584.35 684.8 C 585.75 679.433 588.283 676.267 591.95 675.3 C 595.683 674.3 599.467 675.767 603.3 679.7 C 607.2 683.633 610.033 688.883 611.8 695.45 L 611.75 695.85 C 612.717 699.417 612.267 702.833 610.4 706.1 C 608.467 709.4 605.667 711.55 602 712.55 C 598.267 713.55 594.733 713.083 591.4 711.15 C 588.2 709.25 586.067 706.55 585 703.05 L 584.8 702.6"/>
    <path stroke="none" fill="#FFFCF5" d="M 632.25 650.2 L 635.8 616.4 C 635.867 615.833 636.1 615.367 636.5 615 L 636.9 614.75 L 637.9 614.5 L 638.95 614.75 L 639.3 615 L 639.35 615 C 639.75 615.367 639.967 615.833 640 616.4 L 643.6 650 L 637.55 650.75 L 632.25 650.2 M 644.05 653.9 L 645.75 670.1 C 644.283 671.533 641.55 672.267 637.55 672.3 C 633.917 672.333 631.417 671.717 630.05 670.45 L 631.8 654.15 C 633.2 654.617 635.117 654.833 637.55 654.8 C 640.283 654.767 642.45 654.467 644.05 653.9 M 646.2 674.35 L 646.95 681.4 C 646.35 684.933 643.217 686.75 637.55 686.85 C 632.25 686.917 629.35 685.233 628.85 681.8 L 629.6 674.75 C 630.833 676.35 633.483 677.117 637.55 677.05 C 641.983 676.983 644.867 676.083 646.2 674.35"/>
    <path stroke="none" fill="#F0EDE7" d="M 646.2 674.35 C 644.867 676.083 641.983 676.983 637.55 677.05 C 633.483 677.117 630.833 676.35 629.6 674.75 L 630.05 670.45 C 631.417 671.717 633.917 672.333 637.55 672.3 C 641.55 672.267 644.283 671.533 645.75 670.1 L 646.2 674.35 M 643.6 650 L 644.05 653.9 C 642.45 654.467 640.283 654.767 637.55 654.8 C 635.117 654.833 633.2 654.617 631.8 654.15 L 632.25 650.2 L 637.55 650.75 L 643.6 650 M 646.95 681.4 L 647.05 682.25 C 647.217 688.05 644.05 691.017 637.55 691.15 C 631.317 691.283 628.383 688.317 628.75 682.25 L 628.85 681.8 C 629.35 685.233 632.25 686.917 637.55 686.85 C 643.217 686.75 646.35 684.933 646.95 681.4"/>
    <path stroke="none" fill="#FFFFFF" d="M 621.15 710.9 C 622.017 710.9 622.883 711.05 623.75 711.35 C 633.85 714.883 643.1 714.95 651.5 711.55 C 652.7 711.05 653.917 710.85 655.15 710.95 C 657.083 716.05 657.083 721.483 655.15 727.25 C 644.75 731.017 633.417 731.017 621.15 727.25 C 618.983 721.183 618.983 715.733 621.15 710.9"/>
    <path stroke="none" fill="#E7E7E7" d="M 621.15 710.9 C 618.983 715.733 618.983 721.183 621.15 727.25 L 618.55 726.4 C 616.45 725.667 614.933 724.317 614 722.35 C 613.033 720.35 612.917 718.333 613.65 716.3 C 614.35 714.2 615.7 712.667 617.7 711.7 C 618.833 711.167 619.983 710.9 621.15 710.9 M 655.15 727.25 C 657.083 721.483 657.083 716.05 655.15 710.95 L 657.55 711.55 C 659.583 712.35 661.017 713.767 661.85 715.8 C 662.683 717.833 662.7 719.867 661.9 721.9 C 661.067 723.9 659.65 725.35 657.65 726.25 L 655.15 727.25"/>
  </g>
</svg>