<?xml version="1.0" encoding="utf-8"?>
<svg viewBox="319.95 1024 128 128" xmlns="http://www.w3.org/2000/svg">
  <g>
    <title>Owl</title>
    <path stroke="none" fill="#BD7841" d="M 320 1090 L 319.95 1088 C 319.95 1070.3 326.183 1055.2 338.65 1042.7 C 351.183 1030.233 366.283 1024 383.95 1024 C 401.65 1024 416.733 1030.233 429.2 1042.7 C 441.7 1055.2 447.95 1070.3 447.95 1088 L 447.95 1090 C 447.483 1073.167 441.233 1058.733 429.2 1046.7 C 416.733 1034.233 401.65 1028 383.95 1028 C 366.283 1028 351.183 1034.233 338.65 1046.7 C 326.65 1058.733 320.433 1073.167 320 1090"/>
    <path stroke="none" fill="#8E5A32" d="M 441.55 1116.4 C 442.083 1119.067 442.2 1122.517 441.9 1126.75 C 441.4 1132.383 438.717 1137.133 433.85 1141 C 429.017 1144.833 426.4 1144.017 426 1138.55 L 425.8 1136.45 L 429.2 1133.2 C 434.367 1128.033 438.483 1122.433 441.55 1116.4 M 342.2 1136.5 L 342 1138.45 C 341.6 1143.917 338.983 1144.783 334.15 1141.05 C 329.283 1137.117 326.6 1132.333 326.1 1126.7 C 325.8 1122.567 325.917 1119.167 326.45 1116.5 C 329.45 1122.5 333.517 1128.067 338.65 1133.2 L 342.2 1136.5 M 377.65 1047.75 L 378.25 1048.8 C 378.95 1050.233 379.217 1051.65 379.05 1053.05 C 378.85 1054.683 378.15 1055.867 376.95 1056.6 C 375.75 1057.3 374.4 1057.317 372.9 1056.65 C 371.567 1056.083 370.45 1055.133 369.55 1053.8 L 368.95 1052.75 C 367.25 1049.783 366.217 1047 365.85 1044.4 C 365.483 1041.8 365.9 1040.167 367.1 1039.5 C 368.3 1038.767 369.917 1039.217 371.95 1040.85 C 374.05 1042.45 375.95 1044.75 377.65 1047.75 M 397.35 1055.45 L 396.4 1056.95 C 395.067 1058.95 393.4 1060.383 391.4 1061.25 C 389.133 1062.217 387.083 1062.183 385.25 1061.15 C 383.417 1060.083 382.367 1058.333 382.1 1055.9 C 381.833 1053.7 382.233 1051.533 383.3 1049.4 L 384.2 1047.85 C 386.8 1043.35 389.633 1039.883 392.7 1037.45 C 395.833 1035.017 398.317 1034.333 400.15 1035.4 C 401.983 1036.433 402.6 1038.9 402 1042.8 C 401.5 1046.733 399.95 1050.95 397.35 1055.45"/>
    <path stroke="none" fill="#A16639" d="M 397.35 1055.45 C 399.95 1050.95 401.5 1046.733 402 1042.8 C 402.6 1038.9 401.983 1036.433 400.15 1035.4 C 398.317 1034.333 395.833 1035.017 392.7 1037.45 C 389.633 1039.883 386.8 1043.35 384.2 1047.85 L 383.3 1049.4 C 382.233 1051.533 381.833 1053.7 382.1 1055.9 C 382.367 1058.333 383.417 1060.083 385.25 1061.15 C 387.083 1062.183 389.133 1062.217 391.4 1061.25 C 393.4 1060.383 395.067 1058.95 396.4 1056.95 L 397.35 1055.45 M 447.95 1090 C 447.683 1099.567 445.55 1108.367 441.55 1116.4 C 438.483 1122.433 434.367 1128.033 429.2 1133.2 L 425.8 1136.45 L 422.55 1139.15 C 421.383 1133.117 417.7 1127.85 411.5 1123.35 C 403.9 1117.783 394.717 1115 383.95 1115 C 373.183 1115 363.983 1117.783 356.35 1123.35 C 350.217 1127.85 346.567 1133.117 345.4 1139.15 L 342.2 1136.5 L 338.65 1133.2 C 333.517 1128.067 329.45 1122.5 326.45 1116.5 C 322.383 1108.433 320.233 1099.6 320 1090 C 320.433 1073.167 326.65 1058.733 338.65 1046.7 C 351.183 1034.233 366.283 1028 383.95 1028 C 401.65 1028 416.733 1034.233 429.2 1046.7 C 441.233 1058.733 447.483 1073.167 447.95 1090 M 377.65 1047.75 C 375.95 1044.75 374.05 1042.45 371.95 1040.85 C 369.917 1039.217 368.3 1038.767 367.1 1039.5 C 365.9 1040.167 365.483 1041.8 365.85 1044.4 C 366.217 1047 367.25 1049.783 368.95 1052.75 L 369.55 1053.8 C 370.45 1055.133 371.567 1056.083 372.9 1056.65 C 374.4 1057.317 375.75 1057.3 376.95 1056.6 C 378.15 1055.867 378.85 1054.683 379.05 1053.05 C 379.217 1051.65 378.95 1050.233 378.25 1048.8 L 377.65 1047.75"/>
    <path stroke="none" fill="#EBCEB7" d="M 422.55 1139.15 C 420.183 1140.983 417.75 1142.617 415.25 1144.05 C 405.917 1149.35 395.483 1152 383.95 1152 C 372.45 1152 362.033 1149.333 352.7 1144 C 350.167 1142.567 347.733 1140.95 345.4 1139.15 C 346.567 1133.117 350.217 1127.85 356.35 1123.35 C 363.983 1117.783 373.183 1115 383.95 1115 C 394.717 1115 403.9 1117.783 411.5 1123.35 C 417.7 1127.85 421.383 1133.117 422.55 1139.15 M 377.05 1133.65 C 378.95 1135.55 381.25 1136.5 383.95 1136.5 C 386.617 1136.5 388.9 1135.55 390.8 1133.65 C 392.7 1131.75 393.65 1129.467 393.65 1126.8 C 393.65 1125.8 393.517 1124.85 393.25 1123.95 L 393 1123.6 L 392.6 1123.5 L 392 1123.5 L 391.55 1123.65 L 391.35 1124.1 C 391.25 1125.933 390.533 1127.5 389.2 1128.8 C 387.733 1130.267 385.983 1131 383.95 1131 C 381.883 1131 380.133 1130.267 378.7 1128.8 C 377.367 1127.5 376.633 1125.933 376.5 1124.1 L 376.3 1123.65 L 375.85 1123.5 L 375.25 1123.5 L 374.85 1123.6 L 374.65 1123.95 C 374.383 1124.85 374.25 1125.8 374.25 1126.8 C 374.25 1129.5 375.183 1131.783 377.05 1133.65 M 364.7 1142.75 C 367.2 1142.75 369.35 1141.85 371.15 1140.05 L 372.05 1139 L 372.25 1138.4 L 372 1137.75 C 371.867 1137.583 371.683 1137.483 371.45 1137.45 L 370.8 1137.55 C 369.567 1138.183 368.2 1138.5 366.7 1138.5 C 364.3 1138.5 362.233 1137.617 360.5 1135.85 C 359.1 1134.483 358.25 1132.883 357.95 1131.05 L 357.65 1130.5 L 357.05 1130.2 L 356.4 1130.4 L 356 1130.9 C 355.733 1131.767 355.6 1132.683 355.6 1133.65 C 355.6 1136.15 356.483 1138.283 358.25 1140.05 L 358.3 1140.1 C 360.067 1141.867 362.2 1142.75 364.7 1142.75 M 403.2 1142.75 C 405.7 1142.75 407.833 1141.867 409.6 1140.1 L 409.65 1140.05 C 411.417 1138.283 412.3 1136.15 412.3 1133.65 C 412.3 1132.683 412.167 1131.767 411.9 1130.9 L 411.5 1130.4 L 410.85 1130.2 L 410.25 1130.5 L 409.95 1131.05 C 409.65 1132.883 408.8 1134.483 407.4 1135.85 C 405.667 1137.617 403.6 1138.5 401.2 1138.5 C 399.7 1138.5 398.333 1138.183 397.1 1137.55 L 396.45 1137.45 L 395.9 1137.75 C 395.733 1137.917 395.65 1138.133 395.65 1138.4 C 395.617 1138.6 395.683 1138.8 395.85 1139 L 396.75 1140.05 C 398.55 1141.85 400.7 1142.75 403.2 1142.75"/>
    <path stroke="none" fill="#C6AD99" d="M 403.2 1142.75 C 400.7 1142.75 398.55 1141.85 396.75 1140.05 L 395.85 1139 C 395.683 1138.8 395.617 1138.6 395.65 1138.4 C 395.65 1138.133 395.733 1137.917 395.9 1137.75 L 396.45 1137.45 L 397.1 1137.55 C 398.333 1138.183 399.7 1138.5 401.2 1138.5 C 403.6 1138.5 405.667 1137.617 407.4 1135.85 C 408.8 1134.483 409.65 1132.883 409.95 1131.05 L 410.25 1130.5 L 410.85 1130.2 L 411.5 1130.4 L 411.9 1130.9 C 412.167 1131.767 412.3 1132.683 412.3 1133.65 C 412.3 1136.15 411.417 1138.283 409.65 1140.05 L 409.6 1140.1 C 407.833 1141.867 405.7 1142.75 403.2 1142.75 M 377.05 1133.65 C 375.183 1131.783 374.25 1129.5 374.25 1126.8 C 374.25 1125.8 374.383 1124.85 374.65 1123.95 L 374.85 1123.6 L 375.25 1123.5 L 375.85 1123.5 L 376.3 1123.65 L 376.5 1124.1 C 376.633 1125.933 377.367 1127.5 378.7 1128.8 C 380.133 1130.267 381.883 1131 383.95 1131 C 385.983 1131 387.733 1130.267 389.2 1128.8 C 390.533 1127.5 391.25 1125.933 391.35 1124.1 L 391.55 1123.65 L 392 1123.5 L 392.6 1123.5 L 393 1123.6 L 393.25 1123.95 C 393.517 1124.85 393.65 1125.8 393.65 1126.8 C 393.65 1129.467 392.7 1131.75 390.8 1133.65 C 388.9 1135.55 386.617 1136.5 383.95 1136.5 C 381.25 1136.5 378.95 1135.55 377.05 1133.65 M 364.7 1142.75 C 362.2 1142.75 360.067 1141.867 358.3 1140.1 L 358.25 1140.05 C 356.483 1138.283 355.6 1136.15 355.6 1133.65 C 355.6 1132.683 355.733 1131.767 356 1130.9 L 356.4 1130.4 L 357.05 1130.2 L 357.65 1130.5 L 357.95 1131.05 C 358.25 1132.883 359.1 1134.483 360.5 1135.85 C 362.233 1137.617 364.3 1138.5 366.7 1138.5 C 368.2 1138.5 369.567 1138.183 370.8 1137.55 L 371.45 1137.45 C 371.683 1137.483 371.867 1137.583 372 1137.75 L 372.25 1138.4 L 372.05 1139 L 371.15 1140.05 C 369.35 1141.85 367.2 1142.75 364.7 1142.75"/>
    <path stroke="none" fill="#EBCEB7" d="M 377.35 1082.55 C 377.883 1084.483 378.15 1086.533 378.15 1088.7 C 378.15 1094.933 375.933 1100.25 371.5 1104.65 C 367.1 1109.083 361.783 1111.3 355.55 1111.3 C 349.317 1111.3 344 1109.083 339.6 1104.65 C 335.2 1100.25 333 1094.933 333 1088.7 C 333 1086.467 333.283 1084.35 333.85 1082.35 C 335.25 1077.75 334.717 1074.5 332.25 1072.6 C 330.917 1071.533 330.1 1070.433 329.8 1069.3 C 353.367 1067.833 369.217 1072.25 377.35 1082.55 M 423.2 1088.7 C 423.2 1085.7 422.15 1083.133 420.05 1081 C 417.883 1078.9 415.317 1077.85 412.35 1077.85 C 409.35 1077.85 406.783 1078.9 404.65 1081 C 402.517 1083.133 401.45 1085.7 401.45 1088.7 C 401.45 1091.733 402.517 1094.3 404.65 1096.4 C 406.783 1098.533 409.35 1099.6 412.35 1099.6 C 415.317 1099.6 417.883 1098.533 420.05 1096.4 C 422.15 1094.3 423.2 1091.733 423.2 1088.7 M 438.1 1069.3 C 437.8 1070.433 436.983 1071.533 435.65 1072.6 C 433.183 1074.5 432.65 1077.75 434.05 1082.35 C 434.617 1084.35 434.9 1086.467 434.9 1088.7 C 434.9 1094.933 432.7 1100.25 428.3 1104.65 C 423.9 1109.083 418.583 1111.3 412.35 1111.3 C 406.117 1111.3 400.8 1109.083 396.4 1104.65 C 391.967 1100.25 389.75 1094.933 389.75 1088.7 C 389.75 1086.533 390.017 1084.483 390.55 1082.55 C 398.683 1072.25 414.533 1067.833 438.1 1069.3 M 344.7 1088.7 C 344.7 1091.733 345.75 1094.3 347.85 1096.4 C 350.017 1098.533 352.583 1099.6 355.55 1099.6 C 358.55 1099.6 361.117 1098.533 363.25 1096.4 C 365.383 1094.3 366.45 1091.733 366.45 1088.7 C 366.45 1085.7 365.383 1083.133 363.25 1081 C 361.117 1078.9 358.55 1077.85 355.55 1077.85 C 352.583 1077.85 350.017 1078.9 347.85 1081 C 345.75 1083.133 344.7 1085.7 344.7 1088.7"/>
    <path stroke="none" fill="#FFFFFF" d="M 344.7 1088.7 C 344.7 1085.7 345.75 1083.133 347.85 1081 C 350.017 1078.9 352.583 1077.85 355.55 1077.85 C 358.55 1077.85 361.117 1078.9 363.25 1081 C 365.383 1083.133 366.45 1085.7 366.45 1088.7 C 366.45 1091.733 365.383 1094.3 363.25 1096.4 C 361.117 1098.533 358.55 1099.6 355.55 1099.6 C 352.583 1099.6 350.017 1098.533 347.85 1096.4 C 345.75 1094.3 344.7 1091.733 344.7 1088.7 M 423.2 1088.7 C 423.2 1091.733 422.15 1094.3 420.05 1096.4 C 417.883 1098.533 415.317 1099.6 412.35 1099.6 C 409.35 1099.6 406.783 1098.533 404.65 1096.4 C 402.517 1094.3 401.45 1091.733 401.45 1088.7 C 401.45 1085.7 402.517 1083.133 404.65 1081 C 406.783 1078.9 409.35 1077.85 412.35 1077.85 C 415.317 1077.85 417.883 1078.9 420.05 1081 C 422.15 1083.133 423.2 1085.7 423.2 1088.7 M 416.9 1088.7 C 416.9 1087 416.283 1085.55 415.05 1084.35 C 413.85 1083.15 412.4 1082.55 410.7 1082.55 C 409 1082.55 407.517 1083.15 406.25 1084.35 C 405.05 1085.55 404.45 1087 404.45 1088.7 C 404.45 1090.433 405.05 1091.917 406.25 1093.15 C 407.517 1094.35 409 1094.95 410.7 1094.95 C 412.4 1094.95 413.85 1094.35 415.05 1093.15 C 416.283 1091.917 416.9 1090.433 416.9 1088.7 M 351 1088.7 C 351 1090.433 351.617 1091.917 352.85 1093.15 C 354.05 1094.35 355.5 1094.95 357.2 1094.95 C 358.9 1094.95 360.383 1094.35 361.65 1093.15 C 362.85 1091.917 363.45 1090.433 363.45 1088.7 C 363.45 1087 362.85 1085.55 361.65 1084.35 C 360.383 1083.15 358.9 1082.55 357.2 1082.55 C 355.5 1082.55 354.05 1083.15 352.85 1084.35 C 351.617 1085.55 351 1087 351 1088.7"/>
    <path stroke="none" fill="#5B5B5B" d="M 351 1088.7 C 351 1087 351.617 1085.55 352.85 1084.35 C 354.05 1083.15 355.5 1082.55 357.2 1082.55 C 358.9 1082.55 360.383 1083.15 361.65 1084.35 C 362.85 1085.55 363.45 1087 363.45 1088.7 C 363.45 1090.433 362.85 1091.917 361.65 1093.15 C 360.383 1094.35 358.9 1094.95 357.2 1094.95 C 355.5 1094.95 354.05 1094.35 352.85 1093.15 C 351.617 1091.917 351 1090.433 351 1088.7 M 416.9 1088.7 C 416.9 1090.433 416.283 1091.917 415.05 1093.15 C 413.85 1094.35 412.4 1094.95 410.7 1094.95 C 409 1094.95 407.517 1094.35 406.25 1093.15 C 405.05 1091.917 404.45 1090.433 404.45 1088.7 C 404.45 1087 405.05 1085.55 406.25 1084.35 C 407.517 1083.15 409 1082.55 410.7 1082.55 C 412.4 1082.55 413.85 1083.15 415.05 1084.35 C 416.283 1085.55 416.9 1087 416.9 1088.7"/>
    <path stroke="none" fill="#DEC2AD" d="M 390.55 1082.55 C 391.55 1078.883 393.5 1075.617 396.4 1072.75 C 400.067 1069.05 406.283 1066.233 415.05 1064.3 C 421.183 1063.1 426.4 1062.783 430.7 1063.35 C 435 1063.85 437.45 1065.217 438.05 1067.45 C 438.217 1068.083 438.233 1068.7 438.1 1069.3 C 414.533 1067.833 398.683 1072.25 390.55 1082.55 M 377.35 1082.55 C 369.217 1072.25 353.367 1067.833 329.8 1069.3 C 329.667 1068.7 329.683 1068.083 329.85 1067.45 C 330.45 1065.217 332.9 1063.85 337.2 1063.35 C 341.5 1062.783 346.717 1063.1 352.85 1064.3 C 361.617 1066.233 367.833 1069.05 371.5 1072.75 C 374.4 1075.617 376.35 1078.883 377.35 1082.55"/>
    <path stroke="none" fill="#FF9900" d="M 370.45 1101.85 C 370.883 1099.05 372.15 1096.567 374.25 1094.4 L 375.85 1093.05 C 378.183 1091.317 380.883 1090.45 383.95 1090.45 C 387.017 1090.45 389.717 1091.317 392.05 1093.05 L 393.6 1094.4 C 395.733 1096.567 397 1099.05 397.4 1101.85 L 396.25 1103.4 C 395.717 1101.367 394.6 1099.55 392.9 1097.95 L 391.5 1096.8 C 389.3 1095.267 386.783 1094.5 383.95 1094.5 C 381.117 1094.5 378.617 1095.267 376.45 1096.8 L 374.95 1097.95 C 373.283 1099.55 372.183 1101.367 371.65 1103.4 C 371.05 1102.933 370.65 1102.417 370.45 1101.85"/>
    <path stroke="none" fill="#F39100" d="M 371.65 1103.4 C 372.183 1101.367 373.283 1099.55 374.95 1097.95 L 376.45 1096.8 C 378.617 1095.267 381.117 1094.5 383.95 1094.5 C 386.783 1094.5 389.3 1095.267 391.5 1096.8 L 392.9 1097.95 C 394.6 1099.55 395.717 1101.367 396.25 1103.4 C 395.583 1103.933 394.7 1104.417 393.6 1104.85 C 390.933 1105.95 387.717 1106.5 383.95 1106.5 C 380.15 1106.5 376.917 1105.95 374.25 1104.85 L 371.65 1103.4"/>
    <path stroke="none" fill="#E08600" d="M 371.65 1103.4 L 374.25 1104.85 C 376.917 1105.95 380.15 1106.5 383.95 1106.5 C 387.717 1106.5 390.933 1105.95 393.6 1104.85 C 394.7 1104.417 395.583 1103.933 396.25 1103.4 L 397.4 1101.85 L 397.6 1104.05 L 397.55 1104.95 C 397.383 1106.983 396.067 1108.717 393.6 1110.15 C 390.933 1111.717 387.717 1112.5 383.95 1112.5 C 380.15 1112.5 376.917 1111.717 374.25 1110.15 C 371.817 1108.717 370.5 1106.983 370.3 1104.95 L 370.3 1104.05 C 370.3 1103.283 370.35 1102.55 370.45 1101.85 C 370.65 1102.417 371.05 1102.933 371.65 1103.4"/>
  </g>
</svg>