<?xml version="1.0" encoding="utf-8"?>
<svg viewBox="568.836 64 139.028 128" xmlns="http://www.w3.org/2000/svg">
  <g>
    <title>Penguin</title>
    <path stroke="none" fill="#29454F" d="M 704.75 174.55 C 701.883 177.417 697.9 178.333 692.8 177.3 C 687.833 176.267 683.217 173.683 678.95 169.55 L 678.85 169.45 C 676.783 167.35 676.033 164.567 676.6 161.1 C 677.167 157.6 678.883 154.417 681.75 151.55 C 684.583 148.717 687.75 147.017 691.25 146.45 C 694.75 145.85 697.533 146.6 699.6 148.7 L 699.7 148.8 C 703.833 153.067 706.417 157.683 707.45 162.65 C 708.483 167.75 707.583 171.717 704.75 174.55 M 571.95 174.55 C 569.117 171.717 568.217 167.75 569.25 162.65 C 570.283 157.683 572.867 153.067 577 148.8 L 577.1 148.7 C 579.167 146.6 581.95 145.85 585.45 146.45 C 588.95 147.017 592.117 148.717 594.95 151.55 C 597.817 154.417 599.533 157.6 600.1 161.1 C 600.667 164.567 599.917 167.35 597.85 169.45 L 597.75 169.55 C 593.483 173.683 588.867 176.267 583.9 177.3 C 578.8 178.333 574.817 177.417 571.95 174.55"/>
    <path stroke="none" fill="#447180" d="M 702.35 130 C 701.883 113.167 695.65 98.75 683.65 86.75 C 680.717 83.817 677.65 81.233 674.45 79 C 663.95 71.667 651.917 68 638.35 68 C 624.817 68 612.783 71.683 602.25 79.05 C 599.05 81.283 596 83.85 593.1 86.75 C 581.067 98.75 574.833 113.167 574.4 130 L 574.35 128 C 574.35 110.3 580.6 95.217 593.1 82.75 C 595.933 79.917 598.883 77.417 601.95 75.25 C 612.55 67.75 624.683 64 638.35 64 C 652.05 64 664.183 67.733 674.75 75.2 C 677.85 77.4 680.817 79.917 683.65 82.75 C 696.117 95.217 702.35 110.3 702.35 128 L 702.35 130"/>
    <path stroke="none" fill="#365A66" d="M 702.35 130 C 702.05 140.133 699.667 149.417 695.2 157.85 C 693.9 160.317 692.417 162.7 690.75 165 L 690.7 165 C 688.6 167.867 686.233 170.617 683.6 173.25 L 678.95 177.55 L 676.35 179.65 L 673.35 177.5 C 663.683 171.167 652.017 168 638.35 168 C 624.683 168 613.017 171.167 603.35 177.5 L 600.35 179.65 L 597.85 177.65 L 593.05 173.25 C 587.983 168.183 583.95 162.7 580.95 156.8 L 575.4 140.1 L 575.4 139.9 L 575.2 138.8 L 575.15 138.55 L 575.1 138.05 L 575 137.5 L 574.85 136.25 L 574.85 136.05 L 574.75 135.45 L 574.75 135.2 L 574.7 135 L 574.7 134.75 L 574.65 134.45 L 574.6 133.8 L 574.6 133.55 L 574.55 133.25 L 574.4 130 C 574.833 113.167 581.067 98.75 593.1 86.75 C 596 83.85 599.05 81.283 602.25 79.05 C 612.783 71.683 624.817 68 638.35 68 C 651.917 68 663.95 71.667 674.45 79 C 677.65 81.233 680.717 83.817 683.65 86.75 C 695.65 98.75 701.883 113.167 702.35 130 M 685.3 118.75 C 684.067 114.383 681.467 111.05 677.5 108.75 C 673.367 106.35 669.017 105.767 664.45 107 C 659.917 108.2 656.45 110.883 654.05 115.05 C 651.75 118.983 651.133 123.183 652.2 127.65 L 652.35 128.2 C 654.517 136.267 658 142.7 662.8 147.5 C 667.567 152.3 672.233 154.1 676.8 152.9 C 681.367 151.667 684.5 147.767 686.2 141.2 C 687.867 134.667 687.617 127.367 685.45 119.3 L 685.3 118.75 M 654.1 145.4 C 653.6 142.167 652.133 139.317 649.7 136.85 L 647.9 135.3 C 645.2 133.267 642.083 132.25 638.55 132.25 C 635.017 132.25 631.9 133.267 629.2 135.3 L 627.35 136.85 C 624.917 139.317 623.45 142.167 622.95 145.4 L 622.75 148 L 622.8 149.05 C 623 151.383 624.517 153.383 627.35 155.05 C 630.45 156.85 634.183 157.75 638.55 157.75 C 642.917 157.75 646.633 156.85 649.7 155.05 C 652.533 153.383 654.05 151.383 654.25 149.05 L 654.3 148 L 654.1 145.4 M 624.95 127.7 C 626.05 123.233 625.433 119.017 623.1 115.05 C 620.767 110.917 617.3 108.25 612.7 107.05 C 608.133 105.783 603.783 106.35 599.65 108.75 C 595.683 111.05 593.067 114.383 591.8 118.75 L 591.6 119.3 C 589.467 127.367 589.267 134.683 591 141.25 C 592.733 147.783 595.867 151.683 600.4 152.95 C 605 154.15 609.683 152.333 614.45 147.5 C 619.183 142.733 622.617 136.317 624.75 128.25 L 624.95 127.7"/>
    <path stroke="none" fill="#D5EEF7" d="M 624.95 127.7 L 624.75 128.25 C 622.617 136.317 619.183 142.733 614.45 147.5 C 609.683 152.333 605 154.15 600.4 152.95 C 595.867 151.683 592.733 147.783 591 141.25 C 589.267 134.683 589.467 127.367 591.6 119.3 L 591.8 118.75 C 593.067 114.383 595.683 111.05 599.65 108.75 C 603.783 106.35 608.133 105.783 612.7 107.05 C 617.3 108.25 620.767 110.917 623.1 115.05 C 625.433 119.017 626.05 123.233 624.95 127.7 M 685.3 118.75 L 685.45 119.3 C 687.617 127.367 687.867 134.667 686.2 141.2 C 684.5 147.767 681.367 151.667 676.8 152.9 C 672.233 154.1 667.567 152.3 662.8 147.5 C 658 142.7 654.517 136.267 652.35 128.2 L 652.2 127.65 C 651.133 123.183 651.75 118.983 654.05 115.05 C 656.45 110.883 659.917 108.2 664.45 107 C 669.017 105.767 673.367 106.35 677.5 108.75 C 681.467 111.05 684.067 114.383 685.3 118.75"/>
    <path stroke="none" fill="#FF9900" d="M 622.95 145.4 C 623.45 142.167 624.917 139.317 627.35 136.85 L 629.2 135.3 C 631.9 133.267 635.017 132.25 638.55 132.25 C 642.083 132.25 645.2 133.267 647.9 135.3 L 649.7 136.85 C 652.133 139.317 653.6 142.167 654.1 145.4 C 653.633 146.733 652.167 147.9 649.7 148.9 C 646.633 150.167 642.917 150.8 638.55 150.8 C 634.183 150.8 630.45 150.167 627.35 148.9 C 624.883 147.9 623.417 146.733 622.95 145.4"/>
    <path stroke="none" fill="#E08600" d="M 622.95 145.4 C 623.417 146.733 624.883 147.9 627.35 148.9 C 630.45 150.167 634.183 150.8 638.55 150.8 C 642.917 150.8 646.633 150.167 649.7 148.9 C 652.167 147.9 653.633 146.733 654.1 145.4 L 654.3 148 L 654.25 149.05 C 654.05 151.383 652.533 153.383 649.7 155.05 C 646.633 156.85 642.917 157.75 638.55 157.75 C 634.183 157.75 630.45 156.85 627.35 155.05 C 624.517 153.383 623 151.383 622.8 149.05 L 622.75 148 L 622.95 145.4"/>
    <path stroke="none" fill="#F2F9FB" d="M 600.35 179.65 L 603.35 177.5 C 613.017 171.167 624.683 168 638.35 168 C 652.017 168 663.683 171.167 673.35 177.5 L 676.35 179.65 L 674.75 180.75 C 664.15 188.25 652.017 192 638.35 192 C 624.65 192 612.517 188.267 601.95 180.8 L 600.35 179.65"/>
    <path stroke="none" fill="#FFFFFF" d="M 677.6 130.6 C 677.6 133.5 676.567 135.95 674.5 137.95 C 672.433 140.05 669.95 141.1 667.05 141.1 C 664.217 141.1 661.733 140.05 659.6 137.95 C 657.6 135.95 656.6 133.5 656.6 130.6 C 656.6 127.667 657.6 125.183 659.6 123.15 C 661.733 121.117 664.217 120.1 667.05 120.1 C 669.95 120.1 672.433 121.117 674.5 123.15 C 676.567 125.183 677.6 127.667 677.6 130.6 M 672.85 132.55 C 672.85 130.683 672.217 129.133 670.95 127.9 C 669.65 126.6 668.083 125.95 666.25 125.95 C 664.45 125.95 662.883 126.6 661.55 127.9 C 660.283 129.133 659.65 130.683 659.65 132.55 L 659.65 133.2 C 659.783 134.7 660.417 136 661.55 137.1 C 662.883 138.367 664.45 139 666.25 139 C 668.083 139 669.65 138.367 670.95 137.1 C 672.05 136 672.667 134.7 672.8 133.2 L 672.85 132.55 M 599.35 130.6 C 599.35 127.667 600.367 125.183 602.4 123.15 C 604.467 121.117 606.95 120.1 609.85 120.1 C 612.717 120.1 615.2 121.117 617.3 123.15 C 619.333 125.183 620.35 127.667 620.35 130.6 C 620.35 133.5 619.333 135.95 617.3 137.95 C 615.2 140.05 612.717 141.1 609.85 141.1 C 606.95 141.1 604.467 140.05 602.4 137.95 C 600.367 135.95 599.35 133.5 599.35 130.6 M 604.1 132.55 L 604.15 133.2 C 604.25 134.7 604.85 136 605.95 137.1 C 607.25 138.367 608.833 139 610.7 139 C 612.467 139 614.017 138.367 615.35 137.1 C 616.517 136 617.15 134.7 617.25 133.2 L 617.3 132.55 C 617.3 130.683 616.65 129.133 615.35 127.9 C 614.017 126.6 612.467 125.95 610.7 125.95 C 608.833 125.95 607.25 126.6 605.95 127.9 C 604.717 129.133 604.1 130.683 604.1 132.55"/>
    <path stroke="none" fill="#5B5B5B" d="M 604.1 132.55 C 604.1 130.683 604.717 129.133 605.95 127.9 C 607.25 126.6 608.833 125.95 610.7 125.95 C 612.467 125.95 614.017 126.6 615.35 127.9 C 616.65 129.133 617.3 130.683 617.3 132.55 L 617.25 133.2 C 617.15 134.7 616.517 136 615.35 137.1 C 614.017 138.367 612.467 139 610.7 139 C 608.833 139 607.25 138.367 605.95 137.1 C 604.85 136 604.25 134.7 604.15 133.2 L 604.1 132.55 M 672.85 132.55 L 672.8 133.2 C 672.667 134.7 672.05 136 670.95 137.1 C 669.65 138.367 668.083 139 666.25 139 C 664.45 139 662.883 138.367 661.55 137.1 C 660.417 136 659.783 134.7 659.65 133.2 L 659.65 132.55 C 659.65 130.683 660.283 129.133 661.55 127.9 C 662.883 126.6 664.45 125.95 666.25 125.95 C 668.083 125.95 669.65 126.6 670.95 127.9 C 672.217 129.133 672.85 130.683 672.85 132.55"/>
  </g>
</svg>