<?xml version="1.0" encoding="utf-8"?>
<svg viewBox="564.005 256 143.839 128" xmlns="http://www.w3.org/2000/svg">
  <g>
    <title>Pig</title>
    <path stroke="none" fill="#F095F0" d="M 664.3 278.7 C 664.367 276.167 665.7 273.533 668.3 270.8 C 671.667 267.433 676.183 265 681.85 263.5 C 687.417 262 692.517 261.883 697.15 263.15 C 701.283 264.317 703.933 266.3 705.1 269.1 L 705.85 271.75 C 708.35 281.117 708.5 289.617 706.3 297.25 L 705.9 298.4 C 707.367 291.5 707.017 283.917 704.85 275.65 L 704.05 272.95 C 702.917 270.183 700.267 268.2 696.1 267 C 691.467 265.733 686.367 265.85 680.8 267.35 C 675.133 268.85 670.617 271.3 667.25 274.7 C 665.917 276.033 664.933 277.367 664.3 278.7 M 565.95 298.45 L 565.55 297.25 C 563.35 289.617 563.5 281.133 566 271.8 L 566.75 269.1 C 567.883 266.3 570.533 264.333 574.7 263.2 C 579.333 261.933 584.433 262.05 590 263.55 C 595.667 265.017 600.183 267.45 603.55 270.85 C 606.117 273.55 607.45 276.167 607.55 278.7 C 606.883 277.4 605.9 276.083 604.6 274.75 C 601.233 271.317 596.717 268.867 591.05 267.4 C 585.483 265.9 580.383 265.783 575.75 267.05 C 571.55 268.217 568.9 270.183 567.8 272.95 L 567 275.7 C 564.8 283.933 564.45 291.517 565.95 298.45"/>
    <path stroke="none" fill="#D987D9" d="M 565.95 298.45 C 564.45 291.517 564.8 283.933 567 275.7 L 567.8 272.95 C 568.9 270.183 571.55 268.217 575.75 267.05 C 580.383 265.783 585.483 265.9 591.05 267.4 C 596.717 268.867 601.233 271.317 604.6 274.75 C 605.9 276.083 606.883 277.4 607.55 278.7 L 607.45 280 L 606.75 282.8 L 605.9 285.7 L 604.2 290.3 C 603.7 289.233 602.933 288.133 601.9 287 C 599.433 284.533 596.167 282.767 592.1 281.7 C 588.067 280.6 584.383 280.517 581.05 281.45 C 578.05 282.317 576.15 283.767 575.35 285.8 L 574.8 287.65 C 573 294.383 572.9 300.5 574.5 306 L 574.95 307.4 C 575.35 308.667 575.867 309.8 576.5 310.8 L 575.7 310.5 C 571.2 308.7 567.95 304.683 565.95 298.45 M 705.9 298.4 C 703.867 304.667 700.6 308.7 696.1 310.5 L 695.35 310.75 C 695.95 309.783 696.45 308.65 696.85 307.35 L 697.35 306 C 698.95 300.5 698.85 294.383 697.05 287.65 L 696.45 285.75 C 695.683 283.717 693.8 282.267 690.8 281.4 C 687.433 280.467 683.75 280.55 679.75 281.65 C 675.683 282.75 672.417 284.517 669.95 286.95 C 668.883 288.117 668.117 289.217 667.65 290.25 L 665.9 285.7 L 665.1 282.75 L 664.4 279.95 L 664.3 278.7 C 664.933 277.367 665.917 276.033 667.25 274.7 C 670.617 271.3 675.133 268.85 680.8 267.35 C 686.367 265.85 691.467 265.733 696.1 267 C 700.267 268.2 702.917 270.183 704.05 272.95 L 704.85 275.65 C 707.017 283.917 707.367 291.5 705.9 298.4"/>
    <path stroke="none" fill="#C97DC9" d="M 695.35 310.75 L 694.55 311.05 C 691.55 311.817 688.55 311.617 685.55 310.45 C 682.85 309.417 680.167 307.583 677.5 304.95 C 673.7 301.317 670.6 296.883 668.2 291.65 L 667.65 290.25 C 668.117 289.217 668.883 288.117 669.95 286.95 C 672.417 284.517 675.683 282.75 679.75 281.65 C 683.75 280.55 687.433 280.467 690.8 281.4 C 693.8 282.267 695.683 283.717 696.45 285.75 L 697.05 287.65 C 698.85 294.383 698.95 300.5 697.35 306 L 696.85 307.35 C 696.45 308.65 695.95 309.783 695.35 310.75 M 604.2 290.3 L 603.65 291.65 C 601.25 296.917 598.15 301.35 594.35 304.95 C 591.683 307.583 589 309.417 586.3 310.45 C 583.3 311.617 580.3 311.817 577.3 311.05 L 576.5 310.8 C 575.867 309.8 575.35 308.667 574.95 307.4 L 574.5 306 C 572.9 300.5 573 294.383 574.8 287.65 L 575.35 285.8 C 576.15 283.767 578.05 282.317 581.05 281.45 C 584.383 280.517 588.067 280.6 592.1 281.7 C 596.167 282.767 599.433 284.533 601.9 287 C 602.933 288.133 603.7 289.233 604.2 290.3"/>
    <path stroke="none" fill="#FFAAFF" d="M 699.9 322 C 699.433 305.167 693.2 290.75 681.2 278.75 C 678.267 275.817 675.2 273.233 672 271 C 670.133 269.7 668.217 268.517 666.25 267.45 L 663.1 269.95 C 655.6 275.317 646.533 278 635.9 278 C 625.267 278 616.183 275.317 608.65 269.95 L 605.55 267.5 C 603.583 268.567 601.667 269.75 599.8 271.05 C 596.6 273.283 593.55 275.85 590.65 278.75 C 582.883 286.483 577.55 295.217 574.65 304.95 C 573.017 310.317 572.117 316 571.95 322 L 571.9 320 C 571.9 314.767 572.45 309.75 573.55 304.95 C 576.15 293.583 581.85 283.517 590.65 274.75 C 593.483 271.917 596.433 269.417 599.5 267.25 L 603.05 264.95 C 612.783 258.983 623.733 256 635.9 256 C 648.1 256 659.067 258.967 668.8 264.9 L 672.3 267.2 C 675.4 269.4 678.367 271.917 681.2 274.75 C 693.667 287.217 699.9 302.3 699.9 320 L 699.9 322"/>
    <path stroke="none" fill="#EE9FEE" d="M 699.9 322 C 699.6 332.133 697.217 341.417 692.75 349.85 C 691.45 352.317 689.967 354.7 688.3 357 L 688.25 357 C 686.15 359.867 683.783 362.617 681.15 365.25 L 676.5 369.55 L 672.3 372.75 C 661.7 380.25 649.567 384 635.9 384 C 622.2 384 610.067 380.267 599.5 372.8 L 595.4 369.65 L 590.6 365.25 C 585.533 360.183 581.5 354.7 578.5 348.8 L 572.95 332.1 L 572.95 331.9 L 572.75 330.8 L 572.7 330.55 L 572.65 330.05 L 572.55 329.5 L 572.4 328.25 L 572.4 328.05 L 572.3 327.45 L 572.3 327.2 L 572.25 327 L 572.25 326.75 L 572.2 326.45 L 572.15 325.8 L 572.15 325.55 L 572.1 325.25 L 571.95 322 C 572.117 316 573.017 310.317 574.65 304.95 C 577.55 295.217 582.883 286.483 590.65 278.75 C 593.55 275.85 596.6 273.283 599.8 271.05 C 601.667 269.75 603.583 268.567 605.55 267.5 L 608.65 269.95 C 616.183 275.317 625.267 278 635.9 278 C 646.533 278 655.6 275.317 663.1 269.95 L 666.25 267.45 C 668.217 268.517 670.133 269.7 672 271 C 675.2 273.233 678.267 275.817 681.2 278.75 C 693.2 290.75 699.433 305.167 699.9 322 M 684.4 322.5 C 684.4 319.033 683.183 316.083 680.75 313.65 C 678.317 311.217 675.367 310 671.9 310 C 668.5 310 665.567 311.217 663.1 313.65 C 660.667 316.083 659.45 319.033 659.45 322.5 C 659.45 325.933 660.667 328.85 663.1 331.25 C 665.567 333.717 668.5 334.95 671.9 334.95 C 675.367 334.95 678.317 333.717 680.75 331.25 C 683.183 328.85 684.4 325.933 684.4 322.5 M 587.4 322.5 C 587.4 325.933 588.617 328.85 591.05 331.25 C 593.483 333.717 596.433 334.95 599.9 334.95 C 603.3 334.95 606.233 333.717 608.7 331.25 C 611.133 328.85 612.35 325.933 612.35 322.5 C 612.35 319.033 611.133 316.083 608.7 313.65 C 606.233 311.217 603.3 310 599.9 310 C 596.433 310 593.483 311.217 591.05 313.65 C 588.617 316.083 587.4 319.033 587.4 322.5"/>
    <path stroke="none" fill="#FFFFFF" d="M 684.4 322.5 C 684.4 325.933 683.183 328.85 680.75 331.25 C 678.317 333.717 675.367 334.95 671.9 334.95 C 668.5 334.95 665.567 333.717 663.1 331.25 C 660.667 328.85 659.45 325.933 659.45 322.5 C 659.45 319.033 660.667 316.083 663.1 313.65 C 665.567 311.217 668.5 310 671.9 310 C 675.367 310 678.317 311.217 680.75 313.65 C 683.183 316.083 684.4 319.033 684.4 322.5 M 679.65 322.7 C 679.65 320.3 678.817 318.25 677.15 316.55 C 675.483 314.883 673.433 314.05 671 314.05 C 668.633 314.05 666.583 314.883 664.85 316.55 C 663.183 318.25 662.35 320.3 662.35 322.7 C 662.35 325.1 663.183 327.117 664.85 328.75 C 666.583 330.45 668.633 331.3 671 331.3 C 673.433 331.3 675.483 330.45 677.15 328.75 C 678.817 327.117 679.65 325.1 679.65 322.7 M 587.4 322.5 C 587.4 319.033 588.617 316.083 591.05 313.65 C 593.483 311.217 596.433 310 599.9 310 C 603.3 310 606.233 311.217 608.7 313.65 C 611.133 316.083 612.35 319.033 612.35 322.5 C 612.35 325.933 611.133 328.85 608.7 331.25 C 606.233 333.717 603.3 334.95 599.9 334.95 C 596.433 334.95 593.483 333.717 591.05 331.25 C 588.617 328.85 587.4 325.933 587.4 322.5 M 592.1 322.7 C 592.1 325.1 592.95 327.117 594.65 328.75 C 596.317 330.45 598.367 331.3 600.8 331.3 C 603.167 331.3 605.2 330.45 606.9 328.75 C 608.6 327.117 609.45 325.1 609.45 322.7 C 609.45 320.3 608.6 318.25 606.9 316.55 C 605.2 314.883 603.167 314.05 600.8 314.05 C 598.367 314.05 596.317 314.883 594.65 316.55 C 592.95 318.25 592.1 320.3 592.1 322.7"/>
    <path stroke="none" fill="#5B5B5B" d="M 592.1 322.7 C 592.1 320.3 592.95 318.25 594.65 316.55 C 596.317 314.883 598.367 314.05 600.8 314.05 C 603.167 314.05 605.2 314.883 606.9 316.55 C 608.6 318.25 609.45 320.3 609.45 322.7 C 609.45 325.1 608.6 327.117 606.9 328.75 C 605.2 330.45 603.167 331.3 600.8 331.3 C 598.367 331.3 596.317 330.45 594.65 328.75 C 592.95 327.117 592.1 325.1 592.1 322.7 M 679.65 322.7 C 679.65 325.1 678.817 327.117 677.15 328.75 C 675.483 330.45 673.433 331.3 671 331.3 C 668.633 331.3 666.583 330.45 664.85 328.75 C 663.183 327.117 662.35 325.1 662.35 322.7 C 662.35 320.3 663.183 318.25 664.85 316.55 C 666.583 314.883 668.633 314.05 671 314.05 C 673.433 314.05 675.483 314.883 677.15 316.55 C 678.817 318.25 679.65 320.3 679.65 322.7"/>
    <path stroke="none" fill="#FFC4FF" d="M 610 348.55 L 609.9 347.45 L 609.9 346.6 C 609.9 339.4 612.417 333.267 617.45 328.2 L 619.3 326.5 C 624.033 322.567 629.567 320.6 635.9 320.6 C 642.233 320.6 647.75 322.583 652.45 326.55 L 654.25 328.2 C 659.35 333.267 661.9 339.4 661.9 346.6 L 661.9 347.45 L 661.85 348.5 C 661.383 342.2 658.85 336.767 654.25 332.2 L 652.45 330.55 C 647.75 326.583 642.233 324.6 635.9 324.6 C 629.567 324.6 624.033 326.567 619.3 330.5 L 617.45 332.2 C 612.917 336.767 610.433 342.217 610 348.55"/>
    <path stroke="none" fill="#FFAAFF" d="M 610 348.55 C 610.433 342.217 612.917 336.767 617.45 332.2 L 619.3 330.5 C 624.033 326.567 629.567 324.6 635.9 324.6 C 642.233 324.6 647.75 326.583 652.45 330.55 L 654.25 332.2 C 658.85 336.767 661.383 342.2 661.85 348.5 C 661.65 350.433 661.15 352.267 660.35 354 C 659.35 356.133 657.883 358.1 655.95 359.9 L 654.25 361.35 C 649.183 365.383 643.067 367.4 635.9 367.4 C 628.7 367.4 622.55 365.383 617.45 361.35 L 615.85 360 C 613.917 358.167 612.45 356.183 611.45 354.05 C 610.65 352.317 610.167 350.483 610 348.55 M 654.4 340 C 653.4 339 651.917 338.783 649.95 339.35 L 649.7 339.45 C 647.8 340.017 646.017 341.133 644.35 342.8 L 644.2 342.95 C 643.767 343.417 643.433 343.933 643.2 344.5 C 642.933 345.1 642.8 345.767 642.8 346.5 C 642.8 347.933 643.3 349.15 644.3 350.15 C 645.3 351.15 646.517 351.65 647.95 351.65 C 649.317 351.65 650.5 351.183 651.5 350.25 L 651.65 350.1 C 653.017 348.733 654.017 347.3 654.65 345.8 L 655.1 344.5 C 655.533 343 655.5 341.783 655 340.85 L 654.4 340 M 620.3 350.25 C 621.3 351.183 622.483 351.65 623.85 351.65 C 625.283 351.65 626.5 351.15 627.5 350.15 C 628.5 349.15 629 347.933 629 346.5 C 629 345.767 628.883 345.1 628.65 344.5 L 627.6 342.95 L 627.45 342.8 C 625.75 341.1 623.95 339.967 622.05 339.4 L 621.85 339.35 C 619.883 338.783 618.4 339 617.4 340 L 616.8 340.85 C 616.3 341.783 616.267 343 616.7 344.5 C 616.8 344.933 616.95 345.367 617.15 345.8 C 617.783 347.3 618.783 348.733 620.15 350.1 L 620.3 350.25"/>
    <path stroke="none" fill="#AF74AF" d="M 620.3 350.25 L 620.15 350.1 C 618.783 348.733 617.783 347.3 617.15 345.8 C 616.95 345.367 616.8 344.933 616.7 344.5 C 616.267 343 616.3 341.783 616.8 340.85 L 617.4 340 C 618.4 339 619.883 338.783 621.85 339.35 L 622.05 339.4 C 623.95 339.967 625.75 341.1 627.45 342.8 L 627.6 342.95 L 628.65 344.5 C 628.883 345.1 629 345.767 629 346.5 C 629 347.933 628.5 349.15 627.5 350.15 C 626.5 351.15 625.283 351.65 623.85 351.65 C 622.483 351.65 621.3 351.183 620.3 350.25 M 654.4 340 L 655 340.85 C 655.5 341.783 655.533 343 655.1 344.5 L 654.65 345.8 C 654.017 347.3 653.017 348.733 651.65 350.1 L 651.5 350.25 C 650.5 351.183 649.317 351.65 647.95 351.65 C 646.517 351.65 645.3 351.15 644.3 350.15 C 643.3 349.15 642.8 347.933 642.8 346.5 C 642.8 345.767 642.933 345.1 643.2 344.5 C 643.433 343.933 643.767 343.417 644.2 342.95 L 644.35 342.8 C 646.017 341.133 647.8 340.017 649.7 339.45 L 649.95 339.35 C 651.917 338.783 653.4 339 654.4 340"/>
    <path stroke="none" fill="#000000" fill-opacity="0.10196078431372549" d="M 655.95 359.9 L 655.5 361 C 654.467 363.167 652.833 365.133 650.6 366.9 C 646.533 370.133 641.633 371.75 635.9 371.75 C 630.133 371.75 625.2 370.133 621.1 366.9 C 618.9 365.167 617.3 363.217 616.3 361.05 L 615.85 360 L 617.45 361.35 C 622.55 365.383 628.7 367.4 635.9 367.4 C 643.067 367.4 649.183 365.383 654.25 361.35 L 655.95 359.9"/>
  </g>
</svg>