<?xml version="1.0" encoding="utf-8"?>
<svg viewBox="1085.5 208.498 128 175.502" xmlns="http://www.w3.org/2000/svg">
  <g>
    <title>Rabbit</title>
    <path stroke="none" fill="#A8A1A1" d="M 1141.55 270.45 L 1140 273.4 C 1137.267 277.733 1133.333 280.6 1128.2 282 C 1123.067 283.367 1118.217 282.85 1113.65 280.45 L 1110.15 278.1 L 1110.15 273.9 C 1110.15 267.133 1109.717 258.783 1108.85 248.85 C 1108.017 238.917 1109.7 233.367 1113.9 232.2 C 1118.133 231.033 1123.583 234.6 1130.25 242.9 C 1136.25 253 1140.017 262.183 1141.55 270.45 M 1157.45 270.45 C 1158.983 262.183 1162.75 253 1168.75 242.9 C 1175.417 234.6 1180.867 231.033 1185.1 232.2 C 1189.3 233.367 1190.983 238.917 1190.15 248.85 C 1189.283 258.783 1188.85 267.133 1188.85 273.9 L 1188.85 278.1 L 1185.35 280.45 C 1180.783 282.85 1175.933 283.367 1170.8 282 C 1165.667 280.6 1161.733 277.733 1159 273.4 C 1158.367 272.433 1157.85 271.45 1157.45 270.45"/>
    <path stroke="none" fill="#BDB6B6" d="M 1157.45 270.45 C 1156.917 269.15 1156.567 267.85 1156.4 266.55 L 1156.3 265.4 C 1156.733 253.767 1161.45 240.4 1170.45 225.3 C 1178.25 215.567 1184.633 211.383 1189.6 212.75 C 1193.367 213.783 1195.417 217.817 1195.75 224.85 L 1195.55 228.3 C 1194.55 239.967 1194.05 249.767 1194.05 257.7 L 1194.1 258.55 L 1194.05 261.7 L 1194.05 269.8 C 1193.117 273.167 1191.383 275.933 1188.85 278.1 L 1188.85 273.9 C 1188.85 267.133 1189.283 258.783 1190.15 248.85 C 1190.983 238.917 1189.3 233.367 1185.1 232.2 C 1180.867 231.033 1175.417 234.6 1168.75 242.9 C 1162.75 253 1158.983 262.183 1157.45 270.45 M 1103.25 224.85 C 1103.583 217.817 1105.633 213.783 1109.4 212.75 C 1114.367 211.383 1120.75 215.567 1128.55 225.3 C 1137.55 240.4 1142.267 253.767 1142.7 265.4 L 1142.6 266.55 C 1142.433 267.85 1142.083 269.15 1141.55 270.45 C 1140.017 262.183 1136.25 253 1130.25 242.9 C 1123.583 234.6 1118.133 231.033 1113.9 232.2 C 1109.7 233.367 1108.017 238.917 1108.85 248.85 C 1109.717 258.783 1110.15 267.133 1110.15 273.9 L 1110.15 278.1 C 1107.617 275.933 1105.883 273.167 1104.95 269.8 L 1104.95 261.7 L 1104.9 258.55 L 1104.95 257.7 C 1104.95 249.767 1104.45 239.967 1103.45 228.3 L 1103.25 224.85"/>
    <path stroke="none" fill="#CBC3C3" d="M 1103.25 224.85 C 1102.917 215.35 1104.967 209.983 1109.4 208.75 C 1114.367 207.383 1120.75 211.567 1128.55 221.3 C 1138.617 238.167 1143.333 252.867 1142.7 265.4 C 1142.267 253.767 1137.55 240.4 1128.55 225.3 C 1120.75 215.567 1114.367 211.383 1109.4 212.75 C 1105.633 213.783 1103.583 217.817 1103.25 224.85 M 1195.75 224.85 C 1195.417 217.817 1193.367 213.783 1189.6 212.75 C 1184.633 211.383 1178.25 215.567 1170.45 225.3 C 1161.45 240.4 1156.733 253.767 1156.3 265.4 C 1155.667 252.867 1160.383 238.167 1170.45 221.3 C 1178.25 211.567 1184.633 207.383 1189.6 208.75 C 1194.033 209.983 1196.083 215.35 1195.75 224.85"/>
    <path stroke="none" fill="#DBD9D9" d="M 1213.5 322 C 1213.033 305.167 1206.8 290.75 1194.8 278.75 C 1189.2 273.15 1183.083 268.8 1176.45 265.7 L 1172.45 269.1 C 1166.117 273.7 1158.467 276 1149.5 276 C 1140.533 276 1132.867 273.7 1126.5 269.1 C 1125 268.033 1123.7 266.917 1122.6 265.75 C 1115.967 268.817 1109.85 273.15 1104.25 278.75 C 1092.217 290.75 1085.983 305.167 1085.55 322 L 1085.5 320 C 1085.5 302.3 1091.75 287.217 1104.25 274.75 C 1109.183 269.817 1114.517 265.867 1120.25 262.9 C 1129.05 258.3 1138.8 256 1149.5 256 C 1160.2 256 1169.967 258.283 1178.8 262.85 C 1184.533 265.85 1189.867 269.817 1194.8 274.75 C 1207.267 287.217 1213.5 302.3 1213.5 320 L 1213.5 322"/>
    <path stroke="none" fill="#D2D0D0" d="M 1213.5 322 C 1213.033 338.833 1206.8 353.25 1194.8 365.25 C 1188.3 371.75 1181.1 376.567 1173.2 379.7 C 1166.4 366.4 1158.5 359.75 1149.5 359.75 C 1140.567 359.75 1132.7 366.4 1125.9 379.7 C 1117.967 376.567 1110.75 371.75 1104.25 365.25 C 1092.217 353.25 1085.983 338.833 1085.55 322 C 1085.983 305.167 1092.217 290.75 1104.25 278.75 C 1109.85 273.15 1115.967 268.817 1122.6 265.75 C 1123.7 266.917 1125 268.033 1126.5 269.1 C 1132.867 273.7 1140.533 276 1149.5 276 C 1158.467 276 1166.117 273.7 1172.45 269.1 L 1176.45 265.7 C 1183.083 268.8 1189.2 273.15 1194.8 278.75 C 1206.8 290.75 1213.033 305.167 1213.5 322"/>
    <path stroke="none" fill="#E5E3E3" d="M 1125.9 379.7 C 1132.7 366.4 1140.567 359.75 1149.5 359.75 C 1158.5 359.75 1166.4 366.4 1173.2 379.7 C 1165.9 382.567 1158 384 1149.5 384 C 1141.033 384 1133.167 382.567 1125.9 379.7"/>
    <path stroke="none" fill="#FFFFFF" d="M 1184.25 305.25 C 1184.25 303.05 1183.5 301.233 1182 299.8 C 1180.5 298.367 1178.7 297.65 1176.6 297.65 C 1174.533 297.65 1172.717 298.367 1171.15 299.8 C 1169.65 301.233 1168.9 303.05 1168.9 305.25 C 1168.9 307.35 1169.65 309.117 1171.15 310.55 C 1172.717 312.083 1174.533 312.85 1176.6 312.85 C 1178.7 312.85 1180.5 312.083 1182 310.55 C 1183.5 309.117 1184.25 307.35 1184.25 305.25 M 1108.9 305 C 1108.9 301.633 1110.1 298.767 1112.5 296.4 C 1114.9 294.067 1117.767 292.9 1121.1 292.9 C 1124.433 292.9 1127.333 294.067 1129.8 296.4 C 1132.133 298.767 1133.3 301.633 1133.3 305 C 1133.3 308.367 1132.133 311.2 1129.8 313.5 C 1127.333 315.933 1124.433 317.15 1121.1 317.15 C 1117.767 317.15 1114.9 315.933 1112.5 313.5 C 1110.1 311.2 1108.9 308.367 1108.9 305 M 1114.85 305.25 C 1114.85 307.35 1115.6 309.117 1117.1 310.55 C 1118.533 312.083 1120.317 312.85 1122.45 312.85 C 1124.55 312.85 1126.35 312.083 1127.85 310.55 C 1129.35 309.117 1130.1 307.35 1130.1 305.25 C 1130.1 303.05 1129.35 301.233 1127.85 299.8 C 1126.35 298.367 1124.55 297.65 1122.45 297.65 C 1120.317 297.65 1118.533 298.367 1117.1 299.8 C 1115.6 301.233 1114.85 303.05 1114.85 305.25 M 1190.1 305 C 1190.1 308.367 1188.933 311.2 1186.6 313.5 C 1184.2 315.933 1181.3 317.15 1177.9 317.15 C 1174.567 317.15 1171.717 315.933 1169.35 313.5 C 1166.95 311.2 1165.75 308.367 1165.75 305 C 1165.75 301.633 1166.95 298.767 1169.35 296.4 C 1171.717 294.067 1174.567 292.9 1177.9 292.9 C 1181.3 292.9 1184.2 294.067 1186.6 296.4 C 1188.933 298.767 1190.1 301.633 1190.1 305"/>
    <path stroke="none" fill="#5B5B5B" d="M 1114.85 305.25 C 1114.85 303.05 1115.6 301.233 1117.1 299.8 C 1118.533 298.367 1120.317 297.65 1122.45 297.65 C 1124.55 297.65 1126.35 298.367 1127.85 299.8 C 1129.35 301.233 1130.1 303.05 1130.1 305.25 C 1130.1 307.35 1129.35 309.117 1127.85 310.55 C 1126.35 312.083 1124.55 312.85 1122.45 312.85 C 1120.317 312.85 1118.533 312.083 1117.1 310.55 C 1115.6 309.117 1114.85 307.35 1114.85 305.25 M 1184.25 305.25 C 1184.25 307.35 1183.5 309.117 1182 310.55 C 1180.5 312.083 1178.7 312.85 1176.6 312.85 C 1174.533 312.85 1172.717 312.083 1171.15 310.55 C 1169.65 309.117 1168.9 307.35 1168.9 305.25 C 1168.9 303.05 1169.65 301.233 1171.15 299.8 C 1172.717 298.367 1174.533 297.65 1176.6 297.65 C 1178.7 297.65 1180.5 298.367 1182 299.8 C 1183.5 301.233 1184.25 303.05 1184.25 305.25"/>
    <path stroke="none" fill="#FFFFFF" d="M 1142.65 349.15 C 1140.45 350.183 1138.05 350.7 1135.45 350.7 C 1130.817 350.7 1126.85 349.05 1123.55 345.75 C 1120.283 342.483 1118.65 338.533 1118.65 333.9 C 1118.65 329.233 1120.283 325.267 1123.55 322 C 1126.85 318.7 1130.817 317.05 1135.45 317.05 L 1163.95 317.05 C 1168.417 317.15 1172.233 318.8 1175.4 322 C 1178.7 325.267 1180.35 329.233 1180.35 333.9 C 1180.35 338.533 1178.7 342.483 1175.4 345.75 C 1172.133 349.05 1168.167 350.7 1163.5 350.7 C 1160.9 350.7 1158.517 350.183 1156.35 349.15 C 1154.65 348.35 1153.067 347.217 1151.6 345.75 L 1149.5 343.25 L 1147.35 345.75 C 1145.917 347.217 1144.35 348.35 1142.65 349.15"/>
    <path stroke="none" fill="#A8A1A1" d="M 1142.65 349.15 C 1144.35 348.35 1145.917 347.217 1147.35 345.75 L 1149.5 343.25 L 1151.6 345.75 C 1153.067 347.217 1154.65 348.35 1156.35 349.15 C 1154.283 350.183 1152 350.7 1149.5 350.7 C 1147 350.7 1144.717 350.183 1142.65 349.15"/>
    <path stroke="none" fill="#FFC4FF" d="M 1137.6 316.3 L 1137.5 314.7 L 1137.5 313.8 C 1137.667 312.3 1138.867 311 1141.1 309.9 C 1143.567 308.733 1146.533 308.15 1150 308.15 C 1153.433 308.15 1156.367 308.733 1158.8 309.9 C 1161.033 311 1162.25 312.3 1162.45 313.8 L 1162.5 314.7 L 1162.4 316.45 C 1162.067 315.083 1160.867 313.9 1158.8 312.9 C 1156.367 311.733 1153.433 311.15 1150 311.15 C 1146.533 311.15 1143.567 311.733 1141.1 312.9 C 1139.1 313.867 1137.933 315 1137.6 316.3"/>
    <path stroke="none" fill="#FFAAFF" d="M 1137.6 316.3 C 1137.933 315 1139.1 313.867 1141.1 312.9 C 1143.567 311.733 1146.533 311.15 1150 311.15 C 1153.433 311.15 1156.367 311.733 1158.8 312.9 C 1160.867 313.9 1162.067 315.083 1162.4 316.45 C 1162.033 319.15 1160.833 321.483 1158.8 323.45 C 1156.367 325.917 1153.433 327.15 1150 327.15 C 1146.533 327.15 1143.567 325.917 1141.1 323.45 C 1139.1 321.45 1137.933 319.067 1137.6 316.3"/>
    <path stroke="none" fill="#A8A1A1" d="M 1110.05 322.3 C 1110.083 322.067 1110.167 321.9 1110.3 321.8 L 1110.8 321.5 C 1116.5 320.4 1122.617 321.633 1129.15 325.2 L 1129.6 325.7 L 1129.6 326.3 L 1129.3 326.85 L 1128.7 327.05 C 1122.9 326.75 1116.767 327.1 1110.3 328.1 L 1109.8 328 L 1109.35 327.55 L 1109.35 326.95 L 1110.05 322.3 M 1113.6 334.45 L 1113.6 334 L 1113.9 333.6 C 1117.6 330.9 1122.4 329.717 1128.3 330.05 L 1128.8 330.25 L 1129 330.7 L 1129 331.2 L 1128.6 331.55 C 1123.767 332.883 1119.483 335.2 1115.75 338.5 L 1115.3 338.6 L 1114.85 338.45 L 1114.65 338.05 L 1113.6 334.45 M 1188.95 322.3 L 1189.65 326.95 L 1189.65 327.55 L 1189.2 328 L 1188.7 328.1 C 1182.233 327.1 1176.1 326.75 1170.3 327.05 L 1169.7 326.85 C 1169.5 326.683 1169.4 326.5 1169.4 326.3 L 1169.4 325.7 C 1169.5 325.5 1169.65 325.333 1169.85 325.2 C 1176.383 321.633 1182.5 320.4 1188.2 321.5 L 1188.7 321.8 L 1188.95 322.3 M 1185.4 334.45 L 1184.35 338.05 L 1184.15 338.45 L 1183.7 338.6 L 1183.25 338.5 C 1179.517 335.2 1175.233 332.883 1170.4 331.55 L 1170 331.2 L 1170 330.7 L 1170.2 330.25 L 1170.7 330.05 C 1176.6 329.717 1181.4 330.9 1185.1 333.6 L 1185.4 334 L 1185.4 334.45"/>
  </g>
</svg>