<?xml version="1.0" encoding="utf-8"?>
<svg viewBox="51.849 832 152.351 128" xmlns="http://www.w3.org/2000/svg">
  <g>
    <title>Rhino</title>
    <path stroke="none" fill="#CDC6C6" d="M 167 854.5 L 166.4 854 L 165.45 853.25 L 166.2 851.85 C 169.367 846.017 174.433 841.083 181.4 837.05 L 183.55 835.85 C 185.817 834.917 188.533 835.317 191.7 837.05 C 195.2 839.05 198.167 842.167 200.6 846.4 C 203.033 850.567 204.233 854.65 204.2 858.65 L 204.1 860.4 C 203.733 857.1 202.567 853.767 200.6 850.4 C 198.167 846.167 195.2 843.05 191.7 841.05 C 188.533 839.317 185.817 838.917 183.55 839.85 L 181.4 841.05 C 174.967 844.783 170.167 849.267 167 854.5 M 52 860.4 L 51.85 858.65 C 51.817 854.65 53.017 850.567 55.45 846.4 C 57.883 842.167 60.85 839.05 64.35 837.05 C 67.517 835.317 70.233 834.917 72.5 835.85 L 74.65 837.05 C 81.617 841.083 86.683 846.017 89.85 851.85 L 90.6 853.25 L 89.05 854.45 C 85.85 849.217 81.05 844.75 74.65 841.05 L 72.5 839.85 C 70.233 838.917 67.517 839.317 64.35 841.05 C 60.85 843.05 57.883 846.167 55.45 850.4 C 53.483 853.767 52.333 857.1 52 860.4"/>
    <path stroke="none" fill="#BDB6B6" d="M 52 860.4 C 52.333 857.1 53.483 853.767 55.45 850.4 C 57.883 846.167 60.85 843.05 64.35 841.05 C 67.517 839.317 70.233 838.917 72.5 839.85 L 74.65 841.05 C 81.05 844.75 85.85 849.217 89.05 854.45 C 86.983 856.05 84.983 857.817 83.05 859.75 C 80.65 857.05 77.65 854.65 74.05 852.55 L 72.3 851.6 C 70.433 850.833 68.183 851.15 65.55 852.55 C 62.683 854.217 60.25 856.8 58.25 860.3 C 56.95 862.5 56.083 864.683 55.65 866.85 L 54.9 866.35 C 53.267 865.117 52.3 863.133 52 860.4 M 204.1 860.4 C 203.767 863.133 202.783 865.117 201.15 866.35 L 200.4 866.85 C 199.967 864.683 199.1 862.5 197.8 860.3 C 195.8 856.8 193.367 854.217 190.5 852.55 C 187.867 851.15 185.617 850.833 183.75 851.6 L 182 852.55 C 178.4 854.65 175.4 857.05 173 859.75 L 167 854.5 C 170.167 849.267 174.967 844.783 181.4 841.05 L 183.55 839.85 C 185.817 838.917 188.533 839.317 191.7 841.05 C 195.2 843.05 198.167 846.167 200.6 850.4 C 202.567 853.767 203.733 857.1 204.1 860.4"/>
    <path stroke="none" fill="#A8A1A1" d="M 200.4 866.85 L 199.1 867.6 C 193.833 870.633 188.667 872.5 183.6 873.2 C 180.833 868.5 177.4 864.1 173.3 860 L 173 859.75 C 175.4 857.05 178.4 854.65 182 852.55 L 183.75 851.6 C 185.617 850.833 187.867 851.15 190.5 852.55 C 193.367 854.217 195.8 856.8 197.8 860.3 C 199.1 862.5 199.967 864.683 200.4 866.85 M 83.05 859.75 L 82.75 860 C 78.65 864.1 75.217 868.5 72.45 873.2 C 67.383 872.5 62.217 870.633 56.95 867.6 L 55.65 866.85 C 56.083 864.683 56.95 862.5 58.25 860.3 C 60.25 856.8 62.683 854.217 65.55 852.55 C 68.183 851.15 70.433 850.833 72.3 851.6 L 74.05 852.55 C 77.65 854.65 80.65 857.05 83.05 859.75"/>
    <path stroke="none" fill="#DBD9D9" d="M 192 898 C 191.533 881.167 185.3 866.75 173.3 854.75 C 171.267 852.717 169.167 850.85 167 849.15 L 166.55 849.45 C 155.917 856.483 143.067 860 128 860 C 112.933 860 100.067 856.483 89.4 849.45 L 89 849.2 C 86.833 850.9 84.75 852.75 82.75 854.75 C 70.717 866.75 64.483 881.167 64.05 898 L 64 896 C 64 878.3 70.25 863.217 82.75 850.75 L 86.4 847.35 C 88.1 845.883 89.833 844.517 91.6 843.25 C 102.2 835.75 114.333 832 128 832 C 141.7 832 153.833 835.733 164.4 843.2 L 169.6 847.3 L 173.3 850.75 C 185.767 863.217 192 878.3 192 896 L 192 898"/>
    <path stroke="none" fill="#D2D0D0" d="M 192 898 C 191.7 908.133 189.317 917.417 184.85 925.85 C 183.55 928.317 182.067 930.7 180.4 933 L 180.35 933 C 178.25 935.867 175.883 938.617 173.25 941.25 L 168.6 945.55 C 165.667 944.483 164.217 942.383 164.25 939.25 C 163.517 931.75 160.033 925.25 153.8 919.75 C 146.8 913.583 138.35 910.5 128.45 910.5 C 118.55 910.5 110.083 913.583 103.05 919.75 C 96.85 925.25 93.4 931.75 92.7 939.25 C 91.8 942.45 90.067 944.583 87.5 945.65 L 82.7 941.25 C 77.633 936.183 73.6 930.7 70.6 924.8 L 65.05 908.1 L 65.05 907.9 L 64.85 906.8 L 64.8 906.55 L 64.75 906.05 L 64.65 905.5 L 64.5 904.25 L 64.5 904.05 L 64.4 903.45 L 64.4 903.2 L 64.35 903 L 64.35 902.75 L 64.3 902.45 L 64.25 901.8 L 64.25 901.55 L 64.2 901.25 L 64.05 898 C 64.483 881.167 70.717 866.75 82.75 854.75 C 84.75 852.75 86.833 850.9 89 849.2 L 89.4 849.45 C 100.067 856.483 112.933 860 128 860 C 143.067 860 155.917 856.483 166.55 849.45 L 167 849.15 C 169.167 850.85 171.267 852.717 173.3 854.75 C 185.3 866.75 191.533 881.167 192 898"/>
    <path stroke="none" fill="#BDB6B6" d="M 87.5 945.65 C 90.067 944.583 91.8 942.45 92.7 939.25 C 93.4 931.75 96.85 925.25 103.05 919.75 C 110.083 913.583 118.55 910.5 128.45 910.5 C 138.35 910.5 146.8 913.583 153.8 919.75 C 160.033 925.25 163.517 931.75 164.25 939.25 C 164.217 942.383 165.667 944.483 168.6 945.55 L 164.4 948.75 C 153.8 956.25 141.667 960 128 960 C 114.3 960 102.167 956.267 91.6 948.8 L 87.5 945.65 M 145.6 923.35 C 144.867 922.617 143.767 922.45 142.3 922.85 C 140.8 923.25 139.4 924.117 138.1 925.45 L 137.95 925.55 C 137.25 926.283 136.9 927.183 136.9 928.25 C 136.9 929.317 137.283 930.217 138.05 930.95 C 138.783 931.717 139.7 932.1 140.8 932.1 C 141.8 932.1 142.683 931.75 143.45 931.05 L 143.55 930.95 C 144.883 929.617 145.75 928.217 146.15 926.75 C 146.583 925.25 146.4 924.117 145.6 923.35 M 113.45 931.05 C 114.183 931.75 115.067 932.1 116.1 932.1 C 117.167 932.1 118.083 931.717 118.85 930.95 C 119.583 930.217 119.95 929.317 119.95 928.25 C 119.95 927.183 119.6 926.283 118.9 925.55 L 118.8 925.45 C 117.467 924.117 116.067 923.25 114.6 922.85 C 113.133 922.45 112.017 922.617 111.25 923.35 C 110.483 924.117 110.317 925.25 110.75 926.75 C 111.15 928.217 112.017 929.617 113.35 930.95 L 113.45 931.05"/>
    <path stroke="none" fill="#9A9494" d="M 113.45 931.05 L 113.35 930.95 C 112.017 929.617 111.15 928.217 110.75 926.75 C 110.317 925.25 110.483 924.117 111.25 923.35 C 112.017 922.617 113.133 922.45 114.6 922.85 C 116.067 923.25 117.467 924.117 118.8 925.45 L 118.9 925.55 C 119.6 926.283 119.95 927.183 119.95 928.25 C 119.95 929.317 119.583 930.217 118.85 930.95 C 118.083 931.717 117.167 932.1 116.1 932.1 C 115.067 932.1 114.183 931.75 113.45 931.05 M 145.6 923.35 C 146.4 924.117 146.583 925.25 146.15 926.75 C 145.75 928.217 144.883 929.617 143.55 930.95 L 143.45 931.05 C 142.683 931.75 141.8 932.1 140.8 932.1 C 139.7 932.1 138.783 931.717 138.05 930.95 C 137.283 930.217 136.9 929.317 136.9 928.25 C 136.9 927.183 137.25 926.283 137.95 925.55 L 138.1 925.45 C 139.4 924.117 140.8 923.25 142.3 922.85 C 143.767 922.45 144.867 922.617 145.6 923.35"/>
    <path stroke="none" fill="#FFFFFF" d="M 179.25 903.2 C 179.25 907 177.9 910.2 175.2 912.8 C 172.5 915.533 169.25 916.9 165.45 916.9 C 161.717 916.9 158.467 915.533 155.7 912.8 C 153.067 910.2 151.75 907 151.75 903.2 C 151.75 899.367 153.067 896.117 155.7 893.45 C 158.467 890.75 161.717 889.4 165.45 889.4 C 169.25 889.4 172.5 890.75 175.2 893.45 C 177.9 896.117 179.25 899.367 179.25 903.2 M 171.7 903.1 C 171.7 900.667 170.883 898.633 169.25 897 C 167.55 895.3 165.483 894.45 163.05 894.45 C 160.717 894.45 158.683 895.3 156.95 897 C 155.25 898.633 154.4 900.667 154.4 903.1 L 154.45 903.95 C 154.617 905.917 155.45 907.617 156.95 909.05 C 158.683 910.717 160.717 911.55 163.05 911.55 C 165.483 911.55 167.55 910.717 169.25 909.05 C 170.683 907.617 171.483 905.917 171.65 903.95 L 171.7 903.1"/>
    <path stroke="none" fill="#5B5B5B" d="M 171.7 903.1 L 171.65 903.95 C 171.483 905.917 170.683 907.617 169.25 909.05 C 167.55 910.717 165.483 911.55 163.05 911.55 C 160.717 911.55 158.683 910.717 156.95 909.05 C 155.45 907.617 154.617 905.917 154.45 903.95 L 154.4 903.1 C 154.4 900.667 155.25 898.633 156.95 897 C 158.683 895.3 160.717 894.45 163.05 894.45 C 165.483 894.45 167.55 895.3 169.25 897 C 170.883 898.633 171.7 900.667 171.7 903.1"/>
    <path stroke="none" fill="#FFFFFF" d="M 76.75 903.2 C 76.75 899.367 78.1 896.117 80.8 893.45 C 83.5 890.75 86.75 889.4 90.55 889.4 C 94.283 889.4 97.533 890.75 100.3 893.45 C 102.933 896.117 104.25 899.367 104.25 903.2 C 104.25 907 102.933 910.2 100.3 912.8 C 97.533 915.533 94.283 916.9 90.55 916.9 C 86.75 916.9 83.5 915.533 80.8 912.8 C 78.1 910.2 76.75 907 76.75 903.2 M 84.3 903.1 L 84.35 903.95 C 84.517 905.917 85.317 907.617 86.75 909.05 C 88.45 910.717 90.517 911.55 92.95 911.55 C 95.283 911.55 97.317 910.717 99.05 909.05 C 100.55 907.617 101.383 905.917 101.55 903.95 L 101.6 903.1 C 101.6 900.667 100.75 898.633 99.05 897 C 97.317 895.3 95.283 894.45 92.95 894.45 C 90.517 894.45 88.45 895.3 86.75 897 C 85.117 898.633 84.3 900.667 84.3 903.1"/>
    <path stroke="none" fill="#5B5B5B" d="M 84.3 903.1 C 84.3 900.667 85.117 898.633 86.75 897 C 88.45 895.3 90.517 894.45 92.95 894.45 C 95.283 894.45 97.317 895.3 99.05 897 C 100.75 898.633 101.6 900.667 101.6 903.1 L 101.55 903.95 C 101.383 905.917 100.55 907.617 99.05 909.05 C 97.317 910.717 95.283 911.55 92.95 911.55 C 90.517 911.55 88.45 910.717 86.75 909.05 C 85.317 907.617 84.517 905.917 84.35 903.95 L 84.3 903.1"/>
    <path stroke="none" fill="#FFFCF5" d="M 117.95 893.15 L 126.6 863.8 C 126.7 863.5 126.883 863.25 127.15 863.05 C 127.417 862.85 127.7 862.75 128 862.75 C 128.333 862.75 128.633 862.85 128.9 863.05 L 129.4 863.8 L 138.1 893.2 L 139.25 897.15 L 140 900.6 C 139.767 901.8 139.217 902.817 138.35 903.65 C 136.517 905.55 133.067 906.5 128 906.5 C 122.933 906.5 119.5 905.55 117.7 903.65 C 116.8 902.783 116.25 901.75 116.05 900.55 C 116.15 899.483 116.383 898.35 116.75 897.15 L 117.95 893.15"/>
    <path stroke="none" fill="#BDB6B6" d="M 117.95 893.15 L 116.75 897.15 C 116.383 898.35 116.15 899.483 116.05 900.55 C 115.683 903.517 116.233 905.867 117.7 907.6 C 119.5 909.967 122.933 911.15 128 911.15 C 133.067 911.15 136.517 909.967 138.35 907.6 C 139.783 905.867 140.333 903.533 140 900.6 L 139.25 897.15 L 138.1 893.2 C 139.067 893.7 140 894.3 140.9 895 C 144.5 897.8 146.3 901.183 146.3 905.15 C 146.3 909.117 144.5 912.483 140.9 915.25 C 137.367 918.05 133.067 919.45 128 919.45 C 122.933 919.45 118.6 918.05 115 915.25 C 111.467 912.483 109.7 909.117 109.7 905.15 C 109.7 901.183 111.467 897.8 115 895 C 115.933 894.3 116.917 893.683 117.95 893.15"/>
    <path stroke="none" fill="#F0EDE7" d="M 116.05 900.55 C 116.25 901.75 116.8 902.783 117.7 903.65 C 119.5 905.55 122.933 906.5 128 906.5 C 133.067 906.5 136.517 905.55 138.35 903.65 C 139.217 902.817 139.767 901.8 140 900.6 C 140.333 903.533 139.783 905.867 138.35 907.6 C 136.517 909.967 133.067 911.15 128 911.15 C 122.933 911.15 119.5 909.967 117.7 907.6 C 116.233 905.867 115.683 903.517 116.05 900.55"/>
  </g>
</svg>