<?xml version="1.0" encoding="utf-8"?>
<svg viewBox="831.7 1024 128 128" xmlns="http://www.w3.org/2000/svg">
  <g>
    <title>Sloth</title>
    <path stroke="none" fill="#BD7841" d="M 831.75 1090 L 831.7 1088 C 831.7 1077.1 834.083 1067.167 838.85 1058.2 C 841.617 1053.033 845.183 1048.183 849.55 1043.65 L 850.45 1042.7 L 855.65 1038 L 857.35 1036.65 C 868.383 1028.217 881.167 1024 895.7 1024 C 910.267 1024 923.067 1028.233 934.1 1036.7 L 935.8 1038.05 L 940.95 1042.7 L 941.9 1043.7 C 946.233 1048.2 949.783 1053.033 952.55 1058.2 C 954.217 1061.367 955.6 1064.65 956.7 1068.05 L 957.9 1072.3 C 959.1 1077.3 959.7 1082.533 959.7 1088 L 959.7 1090 C 959.533 1083.767 958.567 1077.867 956.8 1072.3 L 955.3 1068.05 C 952.167 1060.25 947.383 1053.133 940.95 1046.7 C 930.883 1036.667 919.133 1030.667 905.7 1028.7 L 895.7 1028 L 885.7 1028.7 C 872.267 1030.667 860.517 1036.667 850.45 1046.7 C 838.417 1058.767 832.183 1073.2 831.75 1090"/>
    <path stroke="none" fill="#A16639" d="M 831.75 1090 C 832.183 1073.2 838.417 1058.767 850.45 1046.7 C 860.517 1036.667 872.267 1030.667 885.7 1028.7 L 895.7 1028 L 905.7 1028.7 C 919.133 1030.667 930.883 1036.667 940.95 1046.7 C 947.383 1053.133 952.167 1060.25 955.3 1068.05 L 956.8 1072.3 C 958.567 1077.867 959.533 1083.767 959.7 1090 C 959.633 1093 959.367 1095.933 958.9 1098.8 C 957.867 1105.367 955.85 1111.517 952.85 1117.25 C 949.85 1122.983 945.883 1128.3 940.95 1133.2 L 938.7 1135.35 L 934.8 1138.7 C 930.6 1135.133 926.083 1132.267 921.25 1130.1 C 924.65 1128.667 927.867 1126.9 930.9 1124.8 L 931.7 1124.2 L 935.4 1121.3 L 936.45 1120.35 C 943.05 1114.117 946.233 1107.483 946 1100.45 C 945.8 1093.483 943.417 1092.733 938.85 1098.2 C 937.317 1100 935.25 1101.25 932.65 1101.95 L 932.6 1101.95 C 928.6 1103.017 924.817 1102.517 921.25 1100.45 L 918.9 1098.8 C 916.633 1096.867 915.1 1094.383 914.3 1091.35 C 913.233 1087.35 913.733 1083.55 915.8 1079.95 C 917.833 1076.417 920.85 1074.1 924.85 1073 L 924.9 1073 L 928.95 1072.3 L 932 1072.3 C 936.033 1072.333 936.5 1070.933 933.4 1068.1 L 933.4 1068.05 L 931.7 1066.45 L 930.95 1065.85 C 927.35 1062.717 923.5 1060.167 919.4 1058.2 C 917.133 1057.133 914.783 1056.233 912.35 1055.5 C 912.817 1053.233 913.1 1050.833 913.2 1048.3 L 913.2 1047.45 C 913.2 1043.983 911.483 1041.033 908.05 1038.6 C 904.65 1036.167 900.533 1034.95 895.7 1034.95 C 890.867 1034.95 886.733 1036.167 883.3 1038.6 C 879.9 1041.033 878.2 1043.983 878.2 1047.45 L 878.25 1048.3 C 878.35 1050.833 878.617 1053.25 879.05 1055.55 C 871.95 1057.683 865.533 1061.317 859.8 1066.45 L 858.1 1068.05 C 855.433 1071.117 856.217 1072.533 860.45 1072.3 L 861.4 1072.3 L 866.45 1073.05 L 866.5 1073.05 C 870.5 1074.15 873.517 1076.467 875.55 1080 C 877.617 1083.6 878.117 1087.4 877.05 1091.4 C 876.283 1094.4 874.767 1096.867 872.5 1098.8 C 871.767 1099.433 870.967 1100 870.1 1100.5 C 866.533 1102.567 862.75 1103.067 858.75 1102 L 858.7 1102 C 856.067 1101.3 854.083 1100.217 852.75 1098.75 C 847.883 1093.45 845.25 1093.467 844.85 1098.8 C 844.983 1107.1 848.5 1114.417 855.4 1120.75 L 858.1 1122.95 L 859.8 1124.2 C 863.033 1126.567 866.5 1128.55 870.2 1130.15 C 865.333 1132.317 860.8 1135.167 856.6 1138.7 L 852.7 1135.35 L 850.45 1133.2 C 838.417 1121.2 832.183 1106.8 831.75 1090 M 928.35 1078.65 C 925.783 1078.65 923.6 1079.55 921.8 1081.35 C 920 1083.183 919.1 1085.383 919.1 1087.95 C 919.1 1090.483 920 1092.667 921.8 1094.5 C 923.6 1096.3 925.783 1097.2 928.35 1097.2 C 930.917 1097.2 933.067 1096.3 934.8 1094.5 C 936.667 1092.667 937.6 1090.483 937.6 1087.95 C 937.6 1085.383 936.667 1083.183 934.8 1081.35 C 933.067 1079.55 930.917 1078.65 928.35 1078.65 M 863 1078.7 C 860.433 1078.7 858.283 1079.6 856.55 1081.4 C 854.683 1083.233 853.75 1085.433 853.75 1088 C 853.75 1090.533 854.683 1092.717 856.55 1094.55 C 858.283 1096.35 860.433 1097.25 863 1097.25 C 865.567 1097.25 867.75 1096.35 869.55 1094.55 C 871.35 1092.717 872.25 1090.533 872.25 1088 C 872.25 1085.433 871.35 1083.233 869.55 1081.4 C 867.75 1079.6 865.567 1078.7 863 1078.7"/>
    <path stroke="none" fill="#AA6C3C" d="M 879.05 1055.55 C 878.617 1053.25 878.35 1050.833 878.25 1048.3 L 878.2 1047.45 C 878.2 1043.983 879.9 1041.033 883.3 1038.6 C 886.733 1036.167 890.867 1034.95 895.7 1034.95 C 900.533 1034.95 904.65 1036.167 908.05 1038.6 C 911.483 1041.033 913.2 1043.983 913.2 1047.45 L 913.2 1048.3 C 913.1 1050.833 912.817 1053.233 912.35 1055.5 C 907.15 1053.933 901.6 1053.15 895.7 1053.15 L 894.1 1053.2 C 888.8 1053.333 883.783 1054.117 879.05 1055.55"/>
    <path stroke="none" fill="#EBCEB7" d="M 879.05 1055.55 C 883.783 1054.117 888.8 1053.333 894.1 1053.2 L 895.7 1053.15 C 901.6 1053.15 907.15 1053.933 912.35 1055.5 C 914.783 1056.233 917.133 1057.133 919.4 1058.2 C 923.5 1060.167 927.35 1062.717 930.95 1065.85 L 931.7 1066.45 L 933.4 1068.05 L 933.4 1068.1 C 936.5 1070.933 936.033 1072.333 932 1072.3 L 928.95 1072.3 L 924.9 1073 L 924.85 1073 C 920.85 1074.1 917.833 1076.417 915.8 1079.95 C 913.733 1083.55 913.233 1087.35 914.3 1091.35 C 915.1 1094.383 916.633 1096.867 918.9 1098.8 L 921.25 1100.45 C 924.817 1102.517 928.6 1103.017 932.6 1101.95 L 932.65 1101.95 C 935.25 1101.25 937.317 1100 938.85 1098.2 C 943.417 1092.733 945.8 1093.483 946 1100.45 C 946.233 1107.483 943.05 1114.117 936.45 1120.35 L 935.4 1121.3 L 931.7 1124.2 L 930.9 1124.8 C 927.867 1126.9 924.65 1128.667 921.25 1130.1 L 919.4 1130.85 C 912.267 1133.583 904.367 1134.95 895.7 1134.95 L 894.1 1134.95 C 886.233 1134.783 879.017 1133.483 872.45 1131.05 L 870.2 1130.15 C 866.5 1128.55 863.033 1126.567 859.8 1124.2 L 858.1 1122.95 L 855.4 1120.75 C 848.5 1114.417 844.983 1107.1 844.85 1098.8 C 845.25 1093.467 847.883 1093.45 852.75 1098.75 C 854.083 1100.217 856.067 1101.3 858.7 1102 L 858.75 1102 C 862.75 1103.067 866.533 1102.567 870.1 1100.5 C 870.967 1100 871.767 1099.433 872.5 1098.8 C 874.767 1096.867 876.283 1094.4 877.05 1091.4 C 878.117 1087.4 877.617 1083.6 875.55 1080 C 873.517 1076.467 870.5 1074.15 866.5 1073.05 L 866.45 1073.05 L 861.4 1072.3 L 860.45 1072.3 C 856.217 1072.533 855.433 1071.117 858.1 1068.05 L 859.8 1066.45 C 865.533 1061.317 871.95 1057.683 879.05 1055.55 M 882.85 1098.1 L 883 1098.8 C 883.5 1101.133 884.65 1103.2 886.45 1105 C 887.883 1106.433 889.483 1107.467 891.25 1108.1 L 890.4 1109.1 L 888.35 1110.6 C 887.383 1111.033 886.35 1111.25 885.25 1111.25 C 883.25 1111.25 881.533 1110.533 880.1 1109.1 L 878.75 1107.35 C 878.617 1107.117 878.433 1106.967 878.2 1106.9 L 877.55 1107 L 872.95 1109.55 C 872.717 1109.683 872.583 1109.867 872.55 1110.1 C 872.45 1110.3 872.467 1110.517 872.6 1110.75 L 874.1 1112.95 L 875.15 1114.1 C 877.917 1116.9 881.283 1118.3 885.25 1118.3 C 889.183 1118.3 892.567 1116.9 895.4 1114.1 L 895.7 1113.8 L 896 1114.1 C 898.8 1116.9 902.167 1118.3 906.1 1118.3 C 910.033 1118.3 913.417 1116.9 916.25 1114.1 L 917.3 1112.95 L 918.8 1110.65 L 918.85 1110 L 918.4 1109.5 L 913.7 1107.05 L 913 1107 L 912.5 1107.45 L 911.25 1109.1 C 909.817 1110.533 908.1 1111.25 906.1 1111.25 C 905 1111.25 903.983 1111.033 903.05 1110.6 C 902.317 1110.233 901.633 1109.733 901 1109.1 L 900.15 1108.1 C 901.917 1107.467 903.517 1106.433 904.95 1105 C 906.75 1103.2 907.917 1101.133 908.45 1098.8 L 908.55 1098.1 L 908.75 1095.75 L 908.75 1094.85 C 908.517 1093.25 907.25 1091.883 904.95 1090.75 C 902.383 1089.517 899.3 1088.9 895.7 1088.9 C 892.1 1088.9 889.017 1089.517 886.45 1090.75 C 884.117 1091.883 882.85 1093.25 882.65 1094.85 L 882.65 1095.75 L 882.85 1098.1"/>
    <path stroke="none" fill="#FFFFFF" d="M 928.5 1083.15 C 926.867 1083.15 925.5 1083.717 924.4 1084.85 C 923.267 1085.983 922.7 1087.35 922.7 1088.95 C 922.7 1090.55 923.267 1091.933 924.4 1093.1 C 925.5 1094.233 926.867 1094.8 928.5 1094.8 C 930.1 1094.8 931.45 1094.233 932.55 1093.1 C 933.717 1091.933 934.3 1090.55 934.3 1088.95 C 934.3 1087.35 933.717 1085.983 932.55 1084.85 C 931.45 1083.717 930.1 1083.15 928.5 1083.15 M 928.35 1078.65 C 930.917 1078.65 933.067 1079.55 934.8 1081.35 C 936.667 1083.183 937.6 1085.383 937.6 1087.95 C 937.6 1090.483 936.667 1092.667 934.8 1094.5 C 933.067 1096.3 930.917 1097.2 928.35 1097.2 C 925.783 1097.2 923.6 1096.3 921.8 1094.5 C 920 1092.667 919.1 1090.483 919.1 1087.95 C 919.1 1085.383 920 1083.183 921.8 1081.35 C 923.6 1079.55 925.783 1078.65 928.35 1078.65 M 863 1078.7 C 865.567 1078.7 867.75 1079.6 869.55 1081.4 C 871.35 1083.233 872.25 1085.433 872.25 1088 C 872.25 1090.533 871.35 1092.717 869.55 1094.55 C 867.75 1096.35 865.567 1097.25 863 1097.25 C 860.433 1097.25 858.283 1096.35 856.55 1094.55 C 854.683 1092.717 853.75 1090.533 853.75 1088 C 853.75 1085.433 854.683 1083.233 856.55 1081.4 C 858.283 1079.6 860.433 1078.7 863 1078.7 M 862.85 1083.2 C 861.25 1083.2 859.9 1083.767 858.8 1084.9 C 857.633 1086.033 857.05 1087.4 857.05 1089 C 857.05 1090.6 857.633 1091.983 858.8 1093.15 C 859.9 1094.283 861.25 1094.85 862.85 1094.85 C 864.483 1094.85 865.85 1094.283 866.95 1093.15 C 868.083 1091.983 868.65 1090.6 868.65 1089 C 868.65 1087.4 868.083 1086.033 866.95 1084.9 C 865.85 1083.767 864.483 1083.2 862.85 1083.2"/>
    <path stroke="none" fill="#5B5B5B" d="M 862.85 1083.2 C 864.483 1083.2 865.85 1083.767 866.95 1084.9 C 868.083 1086.033 868.65 1087.4 868.65 1089 C 868.65 1090.6 868.083 1091.983 866.95 1093.15 C 865.85 1094.283 864.483 1094.85 862.85 1094.85 C 861.25 1094.85 859.9 1094.283 858.8 1093.15 C 857.633 1091.983 857.05 1090.6 857.05 1089 C 857.05 1087.4 857.633 1086.033 858.8 1084.9 C 859.9 1083.767 861.25 1083.2 862.85 1083.2 M 928.5 1083.15 C 930.1 1083.15 931.45 1083.717 932.55 1084.85 C 933.717 1085.983 934.3 1087.35 934.3 1088.95 C 934.3 1090.55 933.717 1091.933 932.55 1093.1 C 931.45 1094.233 930.1 1094.8 928.5 1094.8 C 926.867 1094.8 925.5 1094.233 924.4 1093.1 C 923.267 1091.933 922.7 1090.55 922.7 1088.95 C 922.7 1087.35 923.267 1085.983 924.4 1084.85 C 925.5 1083.717 926.867 1083.15 928.5 1083.15"/>
    <path stroke="none" fill="#545454" d="M 882.85 1098.1 L 882.65 1095.75 L 882.65 1094.85 C 882.85 1093.25 884.117 1091.883 886.45 1090.75 C 889.017 1089.517 892.1 1088.9 895.7 1088.9 C 899.3 1088.9 902.383 1089.517 904.95 1090.75 C 907.25 1091.883 908.517 1093.25 908.75 1094.85 L 908.75 1095.75 L 908.55 1098.1 C 908.083 1096.833 906.883 1095.717 904.95 1094.75 C 902.383 1093.517 899.3 1092.9 895.7 1092.9 C 892.1 1092.9 889.017 1093.517 886.45 1094.75 C 884.517 1095.683 883.317 1096.8 882.85 1098.1"/>
    <path stroke="none" fill="#464646" d="M 882.85 1098.1 C 883.317 1096.8 884.517 1095.683 886.45 1094.75 C 889.017 1093.517 892.1 1092.9 895.7 1092.9 C 899.3 1092.9 902.383 1093.517 904.95 1094.75 C 906.883 1095.717 908.083 1096.833 908.55 1098.1 L 908.45 1098.8 C 907.917 1101.133 906.75 1103.2 904.95 1105 C 903.517 1106.433 901.917 1107.467 900.15 1108.1 C 897.317 1109.267 894.35 1109.267 891.25 1108.1 C 889.483 1107.467 887.883 1106.433 886.45 1105 C 884.65 1103.2 883.5 1101.133 883 1098.8 L 882.85 1098.1"/>
    <path stroke="none" fill="#383838" d="M 900.15 1108.1 L 901 1109.1 C 901.633 1109.733 902.317 1110.233 903.05 1110.6 C 903.983 1111.033 905 1111.25 906.1 1111.25 C 908.1 1111.25 909.817 1110.533 911.25 1109.1 L 912.5 1107.45 L 913 1107 L 913.7 1107.05 L 918.4 1109.5 L 918.85 1110 L 918.8 1110.65 L 917.3 1112.95 L 916.25 1114.1 C 913.417 1116.9 910.033 1118.3 906.1 1118.3 C 902.167 1118.3 898.8 1116.9 896 1114.1 L 895.7 1113.8 L 895.4 1114.1 C 892.567 1116.9 889.183 1118.3 885.25 1118.3 C 881.283 1118.3 877.917 1116.9 875.15 1114.1 L 874.1 1112.95 L 872.6 1110.75 C 872.467 1110.517 872.45 1110.3 872.55 1110.1 C 872.583 1109.867 872.717 1109.683 872.95 1109.55 L 877.55 1107 L 878.2 1106.9 C 878.433 1106.967 878.617 1107.117 878.75 1107.35 L 880.1 1109.1 C 881.533 1110.533 883.25 1111.25 885.25 1111.25 C 886.35 1111.25 887.383 1111.033 888.35 1110.6 L 890.4 1109.1 L 891.25 1108.1 C 894.35 1109.267 897.317 1109.267 900.15 1108.1"/>
    <path stroke="none" fill="#955E34" d="M 934.8 1138.7 C 923.6 1147.567 910.567 1152 895.7 1152 C 880.833 1152 867.8 1147.567 856.6 1138.7 C 860.8 1135.167 865.333 1132.317 870.2 1130.15 L 872.45 1131.05 C 879.017 1133.483 886.233 1134.783 894.1 1134.95 L 895.7 1134.95 C 904.367 1134.95 912.267 1133.583 919.4 1130.85 L 921.25 1130.1 C 926.083 1132.267 930.6 1135.133 934.8 1138.7"/>
  </g>
</svg>