<?xml version="1.0" encoding="utf-8"?>
<svg viewBox="64 640 128 138.023" xmlns="http://www.w3.org/2000/svg">
  <g>
    <title>Walrus</title>
    <path stroke="none" fill="#B17E58" d="M 192 706 C 191.533 689.167 185.3 674.75 173.3 662.75 C 167.7 657.15 161.583 652.8 154.95 649.7 L 150.95 653.1 C 144.617 657.7 136.967 660 128 660 C 119.033 660 111.367 657.7 105 653.1 C 103.5 652.033 102.2 650.917 101.1 649.75 C 94.467 652.817 88.35 657.15 82.75 662.75 C 70.717 674.75 64.483 689.167 64.05 706 L 64 704 C 64 686.3 70.25 671.217 82.75 658.75 C 87.683 653.817 93.017 649.867 98.75 646.9 C 107.55 642.3 117.3 640 128 640 C 138.7 640 148.467 642.283 157.3 646.85 C 163.033 649.85 168.367 653.817 173.3 658.75 C 185.767 671.217 192 686.3 192 704 L 192 706"/>
    <path stroke="none" fill="#986C4C" d="M 64.05 706 C 64.483 689.167 70.717 674.75 82.75 662.75 C 88.35 657.15 94.467 652.817 101.1 649.75 C 102.2 650.917 103.5 652.033 105 653.1 C 111.367 657.7 119.033 660 128 660 C 136.967 660 144.617 657.7 150.95 653.1 L 154.95 649.7 C 161.583 652.8 167.7 657.15 173.3 662.75 C 185.3 674.75 191.533 689.167 192 706 C 191.533 722.833 185.3 737.25 173.3 749.25 C 166.8 755.75 159.6 760.567 151.7 763.7 C 147.867 756.2 143.683 750.817 139.15 747.55 C 145.95 745.717 152.017 742.133 157.35 736.8 C 165.45 728.7 169.5 718.917 169.5 707.45 C 169.5 695.983 165.45 686.2 157.35 678.1 C 149.25 670 139.467 665.95 128 665.95 C 116.533 665.95 106.75 670 98.65 678.1 C 90.55 686.2 86.5 695.983 86.5 707.45 C 86.5 718.917 90.55 728.7 98.65 736.8 C 104.017 742.167 110.1 745.75 116.9 747.55 C 112.4 750.817 108.233 756.2 104.4 763.7 C 96.467 760.567 89.25 755.75 82.75 749.25 C 70.717 737.25 64.483 722.833 64.05 706"/>
    <path stroke="none" fill="#916546" d="M 116.9 747.55 C 110.1 745.75 104.017 742.167 98.65 736.8 C 90.55 728.7 86.5 718.917 86.5 707.45 C 86.5 695.983 90.55 686.2 98.65 678.1 C 106.75 670 116.533 665.95 128 665.95 C 139.467 665.95 149.25 670 157.35 678.1 C 165.45 686.2 169.5 695.983 169.5 707.45 C 169.5 718.917 165.45 728.7 157.35 736.8 C 152.017 742.133 145.95 745.717 139.15 747.55 C 135.617 748.483 131.9 748.95 128 748.95 C 124.1 748.95 120.4 748.483 116.9 747.55"/>
    <path stroke="none" fill="#845C41" d="M 116.9 747.55 C 120.4 748.483 124.1 748.95 128 748.95 C 131.9 748.95 135.617 748.483 139.15 747.55 C 143.683 750.817 147.867 756.2 151.7 763.7 C 144.4 766.567 136.5 768 128 768 C 119.533 768 111.667 766.567 104.4 763.7 C 108.233 756.2 112.4 750.817 116.9 747.55"/>
    <path stroke="none" fill="#FFFFFF" d="M 155.75 687.25 C 155.75 685.05 155 683.233 153.5 681.8 C 152 680.367 150.2 679.65 148.1 679.65 C 146.033 679.65 144.217 680.367 142.65 681.8 C 141.15 683.233 140.4 685.05 140.4 687.25 C 140.4 689.35 141.15 691.117 142.65 692.55 C 144.217 694.083 146.033 694.85 148.1 694.85 C 150.2 694.85 152 694.083 153.5 692.55 C 155 691.117 155.75 689.35 155.75 687.25 M 94.4 687 C 94.4 683.633 95.6 680.767 98 678.4 C 100.4 676.067 103.267 674.9 106.6 674.9 C 109.933 674.9 112.833 676.067 115.3 678.4 C 117.633 680.767 118.8 683.633 118.8 687 C 118.8 690.367 117.633 693.2 115.3 695.5 C 112.833 697.933 109.933 699.15 106.6 699.15 C 103.267 699.15 100.4 697.933 98 695.5 C 95.6 693.2 94.4 690.367 94.4 687 M 100.35 687.25 C 100.35 689.35 101.1 691.117 102.6 692.55 C 104.033 694.083 105.817 694.85 107.95 694.85 C 110.05 694.85 111.85 694.083 113.35 692.55 C 114.85 691.117 115.6 689.35 115.6 687.25 C 115.6 685.05 114.85 683.233 113.35 681.8 C 111.85 680.367 110.05 679.65 107.95 679.65 C 105.817 679.65 104.033 680.367 102.6 681.8 C 101.1 683.233 100.35 685.05 100.35 687.25 M 161.6 687 C 161.6 690.367 160.433 693.2 158.1 695.5 C 155.7 697.933 152.8 699.15 149.4 699.15 C 146.067 699.15 143.217 697.933 140.85 695.5 C 138.45 693.2 137.25 690.367 137.25 687 C 137.25 683.633 138.45 680.767 140.85 678.4 C 143.217 676.067 146.067 674.9 149.4 674.9 C 152.8 674.9 155.7 676.067 158.1 678.4 C 160.433 680.767 161.6 683.633 161.6 687"/>
    <path stroke="none" fill="#5B5B5B" d="M 100.35 687.25 C 100.35 685.05 101.1 683.233 102.6 681.8 C 104.033 680.367 105.817 679.65 107.95 679.65 C 110.05 679.65 111.85 680.367 113.35 681.8 C 114.85 683.233 115.6 685.05 115.6 687.25 C 115.6 689.35 114.85 691.117 113.35 692.55 C 111.85 694.083 110.05 694.85 107.95 694.85 C 105.817 694.85 104.033 694.083 102.6 692.55 C 101.1 691.117 100.35 689.35 100.35 687.25 M 155.75 687.25 C 155.75 689.35 155 691.117 153.5 692.55 C 152 694.083 150.2 694.85 148.1 694.85 C 146.033 694.85 144.217 694.083 142.65 692.55 C 141.15 691.117 140.4 689.35 140.4 687.25 C 140.4 685.05 141.15 683.233 142.65 681.8 C 144.217 680.367 146.033 679.65 148.1 679.65 C 150.2 679.65 152 680.367 153.5 681.8 C 155 683.233 155.75 685.05 155.75 687.25"/>
    <path stroke="none" fill="#F0EDE7" d="M 111.95 742.6 L 111.9 740.8 L 111.6 733.15 C 111.6 732.617 111.717 732.1 111.95 731.6 C 112.217 731.133 112.583 730.767 113.05 730.5 C 113.55 730.2 114.067 730.05 114.6 730.05 L 121.35 730.05 C 122.183 730.05 122.883 730.35 123.45 730.95 C 124.05 731.517 124.35 732.217 124.35 733.05 L 124.35 744 C 124.317 743.167 124.017 742.483 123.45 741.95 C 122.883 741.35 122.183 741.05 121.35 741.05 L 114.6 741.05 C 114.067 741.05 113.55 741.2 113.05 741.5 C 112.583 741.767 112.217 742.133 111.95 742.6 M 144.05 742.6 L 142.95 741.5 C 142.45 741.2 141.933 741.05 141.4 741.05 L 134.65 741.05 C 133.817 741.05 133.117 741.35 132.55 741.95 C 131.983 742.483 131.683 743.167 131.65 744 L 131.65 733.05 C 131.65 732.217 131.95 731.517 132.55 730.95 C 133.117 730.35 133.817 730.05 134.65 730.05 L 141.4 730.05 C 141.933 730.05 142.45 730.2 142.95 730.5 L 144.05 731.6 L 144.4 733.15 L 144.15 740.8 L 144.05 742.6"/>
    <path stroke="none" fill="#FFFCF5" d="M 144.05 742.6 C 143.05 763.867 140.933 775.433 137.7 777.3 C 136.933 777.867 136.117 778.1 135.25 778 C 134.083 777.967 133.167 777.517 132.5 776.65 C 131.967 775.983 131.683 775.267 131.65 774.5 L 131.65 774.2 L 131.65 744 C 131.683 743.167 131.983 742.483 132.55 741.95 C 133.117 741.35 133.817 741.05 134.65 741.05 L 141.4 741.05 C 141.933 741.05 142.45 741.2 142.95 741.5 L 144.05 742.6 M 111.95 742.6 C 112.217 742.133 112.583 741.767 113.05 741.5 C 113.55 741.2 114.067 741.05 114.6 741.05 L 121.35 741.05 C 122.183 741.05 122.883 741.35 123.45 741.95 C 124.017 742.483 124.317 743.167 124.35 744 L 124.35 774.2 L 124.35 774.5 C 124.317 775.267 124.033 775.983 123.5 776.65 C 122.833 777.517 121.917 777.967 120.75 778 C 119.883 778.1 119.067 777.867 118.3 777.3 C 115.067 775.433 112.95 763.867 111.95 742.6"/>
    <path stroke="none" fill="#3C6672" d="M 121.15 736.15 C 118.95 737.183 116.55 737.7 113.95 737.7 C 109.317 737.7 105.35 736.05 102.05 732.75 C 98.783 729.483 97.15 725.533 97.15 720.9 C 97.15 716.233 98.783 712.267 102.05 709 C 105.35 705.7 109.317 704.05 113.95 704.05 L 142.45 704.05 C 146.917 704.15 150.733 705.8 153.9 709 C 157.2 712.267 158.85 716.233 158.85 720.9 C 158.85 725.533 157.2 729.483 153.9 732.75 C 150.633 736.05 146.667 737.7 142 737.7 C 139.4 737.7 137.017 737.183 134.85 736.15 C 133.15 735.35 131.567 734.217 130.1 732.75 L 128 730.25 L 125.85 732.75 C 124.417 734.217 122.85 735.35 121.15 736.15"/>
    <path stroke="none" fill="#252525" d="M 140.4 703.45 C 140.033 706.15 138.833 708.483 136.8 710.45 C 134.367 712.917 131.433 714.15 128 714.15 C 124.533 714.15 121.567 712.917 119.1 710.45 C 117.1 708.45 115.933 706.067 115.6 703.3 C 115.933 702 117.1 700.867 119.1 699.9 C 121.567 698.733 124.533 698.15 128 698.15 C 131.433 698.15 134.367 698.733 136.8 699.9 C 138.867 700.9 140.067 702.083 140.4 703.45"/>
    <path stroke="none" fill="#333333" d="M 140.4 703.45 C 140.067 702.083 138.867 700.9 136.8 699.9 C 134.367 698.733 131.433 698.15 128 698.15 C 124.533 698.15 121.567 698.733 119.1 699.9 C 117.1 700.867 115.933 702 115.6 703.3 L 115.5 701.7 L 115.5 700.8 C 115.667 699.3 116.867 698 119.1 696.9 C 121.567 695.733 124.533 695.15 128 695.15 C 131.433 695.15 134.367 695.733 136.8 696.9 C 139.033 698 140.25 699.3 140.45 700.8 L 140.5 701.7 L 140.4 703.45"/>
    <path stroke="none" fill="#252525" d="M 163.9 721.45 L 162.85 725.05 L 162.65 725.45 L 162.2 725.6 L 161.75 725.5 C 158.017 722.2 153.733 719.883 148.9 718.55 L 148.5 718.2 L 148.5 717.7 L 148.7 717.25 C 148.833 717.15 149 717.083 149.2 717.05 C 155.1 716.717 159.9 717.9 163.6 720.6 L 163.9 721 L 163.9 721.45 M 167.45 709.3 L 168.15 713.95 L 168.15 714.55 L 167.7 715 L 167.2 715.1 C 160.733 714.1 154.6 713.75 148.8 714.05 L 148.2 713.85 L 147.9 713.3 L 147.9 712.7 C 148 712.5 148.15 712.333 148.35 712.2 C 154.883 708.633 161 707.4 166.7 708.5 C 166.867 708.533 167.033 708.633 167.2 708.8 L 167.45 709.3 M 92.1 721.45 L 92.1 721 L 92.4 720.6 C 96.1 717.9 100.9 716.717 106.8 717.05 L 107.3 717.25 L 107.5 717.7 L 107.5 718.2 L 107.1 718.55 C 102.267 719.883 97.983 722.2 94.25 725.5 L 93.8 725.6 L 93.35 725.45 L 93.15 725.05 L 92.1 721.45 M 88.55 709.3 C 88.583 709.067 88.667 708.9 88.8 708.8 L 89.3 708.5 C 95 707.4 101.117 708.633 107.65 712.2 L 108.1 712.7 L 108.1 713.3 L 107.8 713.85 L 107.2 714.05 C 101.4 713.75 95.267 714.1 88.8 715.1 L 88.3 715 L 87.85 714.55 L 87.85 713.95 L 88.55 709.3"/>
  </g>
</svg>