<?xml version="1.0" encoding="utf-8"?>
<svg viewBox="59.377 422.5 137.245 153.5" xmlns="http://www.w3.org/2000/svg">
  <g>
    <title>Whale</title>
    <path stroke="none" fill="#D5F0FF" d="M 192.6 512.6 L 192.4 512.7 L 192 512.9 L 190.75 513.6 C 173.183 523.633 151.967 528.65 127.1 528.65 C 102.233 528.65 81.017 523.633 63.45 513.6 L 62.85 513.25 L 62.25 512.9 L 61.85 512.7 L 61.65 512.55 L 61.65 512.7 L 61.6 511.8 L 61.6 510.5 L 61.65 508.55 L 61.85 508.7 L 62.25 508.9 L 62.85 509.25 L 63.45 509.6 C 81.017 519.633 102.233 524.65 127.1 524.65 C 151.967 524.65 173.183 519.633 190.75 509.6 L 192 508.9 L 192.4 508.7 L 192.6 508.55 L 192.6 510.5 L 192.6 511.8 L 192.6 512.2 L 192.6 512.6"/>
    <path stroke="none" fill="#365A66" d="M 192.4 508.7 L 192 508.9 L 190.75 509.6 C 173.183 519.633 151.967 524.65 127.1 524.65 C 102.233 524.65 81.017 519.633 63.45 509.6 L 62.85 509.25 L 62.25 508.9 L 61.85 508.7 C 63.083 493.067 69.383 479.55 80.75 468.15 C 90.117 458.817 100.9 452.9 113.1 450.4 L 115.5 449.95 L 127.1 449 C 131.8 449 136.317 449.433 140.65 450.3 L 143 450.8 C 147.567 451.9 151.933 453.483 156.1 455.55 C 162.333 458.65 168.1 462.85 173.4 468.15 C 184.467 479.217 190.75 492.25 192.25 507.25 L 192.4 508.7"/>
    <path stroke="none" fill="#C3DCE9" d="M 61.65 512.7 L 61.65 512.55 L 61.85 512.7 L 62.25 512.9 L 62.85 513.25 L 63.45 513.6 C 81.017 523.633 102.233 528.65 127.1 528.65 C 151.967 528.65 173.183 523.633 190.75 513.6 L 192 512.9 L 192.4 512.7 L 192.6 512.6 L 192.5 514.4 L 192.45 515.25 L 192.35 516.55 C 191.65 525.083 189.417 533 185.65 540.3 L 182.7 545.45 L 181.9 546.65 C 179.467 550.183 176.633 553.567 173.4 556.8 L 171.4 558.75 C 168.433 561.517 165.333 563.95 162.1 566.05 C 151.8 572.683 140.133 576 127.1 576 C 114.5 576 103.2 572.9 93.2 566.7 C 89.567 564.467 86.1 561.833 82.8 558.8 L 80.75 556.8 C 78.083 554.133 75.717 551.367 73.65 548.5 L 72.35 546.65 L 69.25 541.55 C 65.083 533.95 62.617 525.65 61.85 516.65 L 61.85 516.55 L 61.75 514.8 L 61.65 512.8 L 61.65 512.7"/>
    <path stroke="none" fill="#48798A" d="M 192.6 508.55 L 192.4 508.7 L 192.25 507.25 C 190.75 492.25 184.467 479.217 173.4 468.15 C 168.1 462.85 162.333 458.65 156.1 455.55 C 151.933 453.483 147.567 451.9 143 450.8 L 140.65 450.3 C 136.317 449.433 131.8 449 127.1 449 L 115.5 449.95 L 113.1 450.4 C 100.9 452.9 90.117 458.817 80.75 468.15 C 69.383 479.55 63.083 493.067 61.85 508.7 L 61.65 508.55 C 62.083 491.283 68.45 476.483 80.75 464.15 C 90.117 454.817 100.9 448.9 113.1 446.4 L 114.15 446.2 L 115.5 445.95 L 127.1 445 C 131.8 445 136.317 445.433 140.65 446.3 L 141.95 446.6 L 143 446.8 C 147.567 447.9 151.933 449.483 156.1 451.55 C 162.333 454.65 168.1 458.85 173.4 464.15 C 184.467 475.217 190.75 488.25 192.25 503.25 L 192.6 508.55"/>
    <path stroke="none" fill="#39606D" d="M 69.25 541.55 L 72.35 546.65 L 70.9 548.4 C 67.7 552.633 65.483 557.033 64.25 561.6 C 63.883 563 63.633 564.333 63.5 565.6 C 63.133 569.033 63.65 571.95 65.05 574.35 L 62.8 572.6 C 60.933 570.733 59.833 568.4 59.5 565.6 C 59.2 563.267 59.45 560.6 60.25 557.6 C 61.617 552.567 64.183 547.733 67.95 543.1 L 69.25 541.55 M 182.7 545.45 L 185.65 540.3 L 186.95 541.7 C 191.317 546.733 194.25 552.033 195.75 557.6 C 196.55 560.6 196.8 563.267 196.5 565.6 C 196.167 568.4 195.067 570.733 193.2 572.6 C 192.5 573.3 191.75 573.883 190.95 574.35 C 192.35 571.983 192.867 569.067 192.5 565.6 L 191.75 561.6 C 190.383 556.567 187.833 551.75 184.1 547.15 L 182.7 545.45 M 113.1 446.4 C 114.4 440.633 116.067 435.717 118.1 431.65 C 121.133 425.55 124.45 422.5 128.05 422.5 C 131.617 422.5 134.917 425.55 137.95 431.65 C 139.983 435.783 141.667 440.833 143 446.8 L 141.95 446.6 C 140.817 442.433 139.483 438.783 137.95 435.65 C 134.917 429.55 131.617 426.5 128.05 426.5 C 124.45 426.5 121.133 429.55 118.1 435.65 C 116.567 438.683 115.25 442.2 114.15 446.2 L 113.1 446.4"/>
    <path stroke="none" fill="#2F4E58" d="M 72.35 546.65 L 73.65 548.5 C 75.717 551.367 78.083 554.133 80.75 556.8 L 82.8 558.8 C 86.1 561.833 89.567 564.467 93.2 566.7 L 92.35 567.4 L 90.45 568.9 C 86.383 571.867 82.15 573.933 77.75 575.1 C 73.483 576.233 69.9 576.283 67 575.25 C 66.3 575.017 65.65 574.717 65.05 574.35 C 63.65 571.95 63.133 569.033 63.5 565.6 C 63.633 564.333 63.883 563 64.25 561.6 C 65.483 557.033 67.7 552.633 70.9 548.4 L 72.35 546.65 M 162.1 566.05 C 165.333 563.95 168.433 561.517 171.4 558.75 L 173.4 556.8 C 176.633 553.567 179.467 550.183 181.9 546.65 L 182.7 545.45 L 184.1 547.15 C 187.833 551.75 190.383 556.567 191.75 561.6 L 192.5 565.6 C 192.867 569.067 192.35 571.983 190.95 574.35 L 190.3 574.7 C 187.167 576.267 183.15 576.4 178.25 575.1 C 173.55 573.867 169.05 571.583 164.75 568.25 L 162.85 566.7 L 162.1 566.05 M 141.95 446.6 L 140.65 446.3 C 136.317 445.433 131.8 445 127.1 445 L 115.5 445.95 L 114.15 446.2 C 115.25 442.2 116.567 438.683 118.1 435.65 C 121.133 429.55 124.45 426.5 128.05 426.5 C 131.617 426.5 134.917 429.55 137.95 435.65 C 139.483 438.783 140.817 442.433 141.95 446.6"/>
    <path stroke="none" fill="#C3DCE9" d="M 167.2 498.35 C 169.067 496.45 170 494.183 170 491.55 C 169.967 488.917 169.017 486.667 167.15 484.8 C 165.317 482.967 163.067 482.017 160.4 481.95 C 157.767 481.983 155.517 482.95 153.65 484.85 C 151.783 486.683 150.85 488.9 150.85 491.5 C 150.883 494.2 151.817 496.467 153.65 498.3 C 155.517 500.167 157.783 501.1 160.45 501.1 C 163.083 501.1 165.333 500.183 167.2 498.35 M 169.45 480.85 C 174.183 485.717 177.3 490.783 178.8 496.05 C 180.233 501.383 179.617 505.383 176.95 508.05 C 174.217 510.783 170.2 511.417 164.9 509.95 C 159.567 508.517 154.5 505.383 149.7 500.55 L 149.5 500.2 C 146.867 497.6 145.55 494.417 145.55 490.65 C 145.583 486.817 146.933 483.55 149.6 480.85 C 152.333 478.117 155.633 476.75 159.5 476.75 C 163.2 476.783 166.383 478.05 169.05 480.55 L 169.45 480.85"/>
    <path stroke="none" fill="#FFFFFF" d="M 162.85 496.55 C 164.05 495.35 164.65 493.95 164.65 492.35 C 164.65 490.65 164.067 489.217 162.9 488.05 C 161.733 486.883 160.3 486.3 158.6 486.3 C 156.967 486.267 155.55 486.85 154.35 488.05 L 153.95 488.45 C 153.05 489.517 152.617 490.767 152.65 492.2 C 152.683 493.9 153.283 495.333 154.45 496.5 C 155.617 497.667 157.033 498.25 158.7 498.25 C 160.1 498.25 161.333 497.817 162.4 496.95 L 162.85 496.55 M 167.2 498.35 C 165.333 500.183 163.083 501.1 160.45 501.1 C 157.783 501.1 155.517 500.167 153.65 498.3 C 151.817 496.467 150.883 494.2 150.85 491.5 C 150.85 488.9 151.783 486.683 153.65 484.85 C 155.517 482.95 157.767 481.983 160.4 481.95 C 163.067 482.017 165.317 482.967 167.15 484.8 C 169.017 486.667 169.967 488.917 170 491.55 C 170 494.183 169.067 496.45 167.2 498.35"/>
    <path stroke="none" fill="#5B5B5B" d="M 162.85 496.55 L 162.4 496.95 C 161.333 497.817 160.1 498.25 158.7 498.25 C 157.033 498.25 155.617 497.667 154.45 496.5 C 153.283 495.333 152.683 493.9 152.65 492.2 C 152.617 490.767 153.05 489.517 153.95 488.45 L 154.35 488.05 C 155.55 486.85 156.967 486.267 158.6 486.3 C 160.3 486.3 161.733 486.883 162.9 488.05 C 164.067 489.217 164.65 490.65 164.65 492.35 C 164.65 493.95 164.05 495.35 162.85 496.55"/>
    <path stroke="none" fill="#C3DCE9" d="M 84.65 480.85 L 85.05 480.55 C 87.717 478.05 90.9 476.783 94.6 476.75 C 98.467 476.75 101.767 478.117 104.5 480.85 C 107.167 483.55 108.517 486.817 108.55 490.65 C 108.55 494.417 107.233 497.6 104.6 500.2 L 104.4 500.55 C 99.6 505.383 94.533 508.517 89.2 509.95 C 83.9 511.417 79.883 510.783 77.15 508.05 C 74.483 505.383 73.867 501.383 75.3 496.05 C 76.8 490.783 79.917 485.717 84.65 480.85 M 86.9 498.35 C 88.767 500.183 91.017 501.1 93.65 501.1 C 96.317 501.1 98.583 500.167 100.45 498.3 C 102.283 496.467 103.217 494.2 103.25 491.5 C 103.25 488.9 102.317 486.683 100.45 484.85 C 98.583 482.95 96.333 481.983 93.7 481.95 C 91.033 482.017 88.783 482.967 86.95 484.8 C 85.083 486.667 84.133 488.917 84.1 491.55 C 84.1 494.183 85.033 496.45 86.9 498.35"/>
    <path stroke="none" fill="#FFFFFF" d="M 86.9 498.35 C 85.033 496.45 84.1 494.183 84.1 491.55 C 84.133 488.917 85.083 486.667 86.95 484.8 C 88.783 482.967 91.033 482.017 93.7 481.95 C 96.333 481.983 98.583 482.95 100.45 484.85 C 102.317 486.683 103.25 488.9 103.25 491.5 C 103.217 494.2 102.283 496.467 100.45 498.3 C 98.583 500.167 96.317 501.1 93.65 501.1 C 91.017 501.1 88.767 500.183 86.9 498.35 M 91.25 496.55 L 91.7 496.95 C 92.767 497.817 94 498.25 95.4 498.25 C 97.067 498.25 98.483 497.667 99.65 496.5 C 100.817 495.333 101.417 493.9 101.45 492.2 C 101.483 490.767 101.05 489.517 100.15 488.45 L 99.75 488.05 C 98.55 486.85 97.133 486.267 95.5 486.3 C 93.8 486.3 92.367 486.883 91.2 488.05 C 90.033 489.217 89.45 490.65 89.45 492.35 C 89.45 493.95 90.05 495.35 91.25 496.55"/>
    <path stroke="none" fill="#5B5B5B" d="M 91.25 496.55 C 90.05 495.35 89.45 493.95 89.45 492.35 C 89.45 490.65 90.033 489.217 91.2 488.05 C 92.367 486.883 93.8 486.3 95.5 486.3 C 97.133 486.267 98.55 486.85 99.75 488.05 L 100.15 488.45 C 101.05 489.517 101.483 490.767 101.45 492.2 C 101.417 493.9 100.817 495.333 99.65 496.5 C 98.483 497.667 97.067 498.25 95.4 498.25 C 94 498.25 92.767 497.817 91.7 496.95 L 91.25 496.55"/>
  </g>
</svg>