<?xml version="1.0" encoding="utf-8"?>
<svg viewBox="1085.5 995.6 128 156.4" xmlns="http://www.w3.org/2000/svg">
  <g>
    <title>Wolf</title>
    <path stroke="none" fill="#958F8F" d="M 1093.8 1031.5 C 1094.067 1021.4 1096.1 1011.283 1099.9 1001.15 C 1100.133 1000.55 1100.533 1000.1 1101.1 999.8 L 1102.9 999.6 C 1103.533 999.767 1104.033 1000.133 1104.4 1000.7 L 1124.35 1031.3 L 1123.2 1033.15 L 1111.05 1019.7 C 1110.783 1019.433 1110.433 1019.35 1110 1019.45 C 1109.567 1019.517 1109.15 1019.733 1108.75 1020.1 C 1108.35 1020.467 1108.083 1020.9 1107.95 1021.4 C 1103.15 1036.1 1102.4 1049.067 1105.7 1060.3 L 1104.4 1062.35 C 1104.067 1062.883 1103.583 1063.25 1102.95 1063.45 L 1101.1 1063.25 C 1100.533 1062.95 1100.133 1062.5 1099.9 1061.9 C 1096.1 1051.767 1094.067 1041.633 1093.8 1031.5 M 1174.65 1031.3 L 1194.6 1000.7 C 1194.967 1000.133 1195.467 999.767 1196.1 999.6 L 1197.9 999.8 C 1198.467 1000.1 1198.867 1000.55 1199.1 1001.15 C 1202.9 1011.283 1204.933 1021.4 1205.2 1031.5 C 1204.933 1041.633 1202.9 1051.767 1199.1 1061.9 C 1198.867 1062.5 1198.467 1062.95 1197.9 1063.25 L 1196.05 1063.45 C 1195.417 1063.25 1194.933 1062.883 1194.6 1062.35 L 1193.3 1060.3 C 1196.6 1049.067 1195.85 1036.1 1191.05 1021.4 C 1190.917 1020.9 1190.65 1020.467 1190.25 1020.1 C 1189.85 1019.733 1189.433 1019.517 1189 1019.45 C 1188.567 1019.35 1188.217 1019.433 1187.95 1019.7 L 1175.8 1033.15 L 1174.65 1031.3"/>
    <path stroke="none" fill="#B1A9A9" d="M 1174.65 1031.3 L 1174.2 1030.6 C 1173.933 1030.2 1173.8 1029.75 1173.8 1029.25 C 1173.8 1028.75 1173.933 1028.3 1174.2 1027.9 L 1194.6 996.7 C 1194.967 996.133 1195.467 995.767 1196.1 995.6 L 1197.9 995.8 C 1198.467 996.1 1198.867 996.55 1199.1 997.15 C 1203.433 1008.583 1205.467 1020.033 1205.2 1031.5 C 1204.933 1021.4 1202.9 1011.283 1199.1 1001.15 C 1198.867 1000.55 1198.467 1000.1 1197.9 999.8 L 1196.1 999.6 C 1195.467 999.767 1194.967 1000.133 1194.6 1000.7 L 1174.65 1031.3 M 1124.35 1031.3 L 1104.4 1000.7 C 1104.033 1000.133 1103.533 999.767 1102.9 999.6 L 1101.1 999.8 C 1100.533 1000.1 1100.133 1000.55 1099.9 1001.15 C 1096.1 1011.283 1094.067 1021.4 1093.8 1031.5 C 1093.533 1020.033 1095.567 1008.583 1099.9 997.15 C 1100.133 996.55 1100.533 996.1 1101.1 995.8 L 1102.9 995.6 C 1103.533 995.767 1104.033 996.133 1104.4 996.7 L 1124.8 1027.9 C 1125.067 1028.3 1125.2 1028.75 1125.2 1029.25 C 1125.2 1029.75 1125.067 1030.2 1124.8 1030.6 L 1124.35 1031.3"/>
    <path stroke="none" fill="#D2D0D0" d="M 1105.7 1060.3 C 1102.4 1049.067 1103.15 1036.1 1107.95 1021.4 C 1108.083 1020.9 1108.35 1020.467 1108.75 1020.1 C 1109.15 1019.733 1109.567 1019.517 1110 1019.45 C 1110.433 1019.35 1110.783 1019.433 1111.05 1019.7 L 1123.2 1033.15 L 1105.7 1060.3 M 1175.8 1033.15 L 1187.95 1019.7 C 1188.217 1019.433 1188.567 1019.35 1189 1019.45 C 1189.433 1019.517 1189.85 1019.733 1190.25 1020.1 C 1190.65 1020.467 1190.917 1020.9 1191.05 1021.4 C 1195.85 1036.1 1196.6 1049.067 1193.3 1060.3 L 1175.8 1033.15"/>
    <path stroke="none" fill="#B1A9A9" d="M 1085.55 1090 L 1085.5 1088 C 1085.5 1070.3 1091.75 1055.217 1104.25 1042.75 C 1107.083 1039.917 1110.033 1037.417 1113.1 1035.25 L 1116.65 1032.95 C 1126.383 1026.983 1137.333 1024 1149.5 1024 C 1161.7 1024 1172.667 1026.967 1182.4 1032.9 L 1185.9 1035.2 C 1189 1037.4 1191.967 1039.917 1194.8 1042.75 C 1207.267 1055.217 1213.5 1070.3 1213.5 1088 L 1213.5 1090 C 1213.033 1073.167 1206.8 1058.75 1194.8 1046.75 C 1191.867 1043.817 1188.8 1041.233 1185.6 1039 C 1183.733 1037.7 1181.817 1036.517 1179.85 1035.45 L 1176.7 1037.95 C 1169.2 1043.317 1160.133 1046 1149.5 1046 C 1138.867 1046 1129.783 1043.317 1122.25 1037.95 L 1119.15 1035.5 C 1117.183 1036.567 1115.267 1037.75 1113.4 1039.05 C 1110.2 1041.283 1107.15 1043.85 1104.25 1046.75 C 1092.217 1058.75 1085.983 1073.167 1085.55 1090"/>
    <path stroke="none" fill="#9F9898" d="M 1085.55 1090 C 1085.983 1073.167 1092.217 1058.75 1104.25 1046.75 C 1107.15 1043.85 1110.2 1041.283 1113.4 1039.05 C 1115.267 1037.75 1117.183 1036.567 1119.15 1035.5 L 1122.25 1037.95 C 1129.783 1043.317 1138.867 1046 1149.5 1046 C 1160.133 1046 1169.2 1043.317 1176.7 1037.95 L 1179.85 1035.45 C 1181.817 1036.517 1183.733 1037.7 1185.6 1039 C 1188.8 1041.233 1191.867 1043.817 1194.8 1046.75 C 1206.8 1058.75 1213.033 1073.167 1213.5 1090 C 1213.2 1100.133 1210.817 1109.417 1206.35 1117.85 C 1205.05 1120.317 1203.567 1122.7 1201.9 1125 L 1201.85 1125 L 1201.45 1125.6 C 1200.35 1117.2 1195.25 1111.467 1186.15 1108.4 C 1194.817 1106.367 1201.1 1101.083 1205 1092.55 C 1208.9 1083.95 1207.533 1074.367 1200.9 1063.8 C 1194.233 1053.233 1185.7 1050.583 1175.3 1055.85 C 1164.867 1061.083 1159.317 1073.1 1158.65 1091.9 L 1140.35 1091.9 C 1139.683 1073.1 1134.133 1061.083 1123.7 1055.85 C 1113.3 1050.583 1104.767 1053.233 1098.1 1063.8 C 1091.467 1074.367 1090.1 1083.95 1094 1092.55 C 1097.9 1101.083 1104.183 1106.367 1112.85 1108.4 C 1103.75 1111.467 1098.667 1117.2 1097.6 1125.6 C 1095.467 1122.767 1093.633 1119.833 1092.1 1116.8 L 1086.55 1100.1 L 1086.55 1099.9 L 1086.35 1098.8 L 1086.3 1098.55 L 1086.25 1098.05 L 1086.15 1097.5 L 1086 1096.25 L 1086 1096.05 L 1085.9 1095.45 L 1085.9 1095.2 L 1085.85 1095 L 1085.85 1094.75 L 1085.8 1094.45 L 1085.75 1093.8 L 1085.75 1093.55 L 1085.7 1093.25 L 1085.55 1090"/>
    <path stroke="none" fill="#D2D0D0" d="M 1201.45 1125.6 C 1199.45 1128.233 1197.217 1130.783 1194.75 1133.25 L 1190.1 1137.55 L 1185.9 1140.75 C 1175.3 1148.25 1163.167 1152 1149.5 1152 C 1135.8 1152 1123.667 1148.267 1113.1 1140.8 C 1111.7 1139.8 1110.333 1138.75 1109 1137.65 L 1104.2 1133.25 C 1101.733 1130.783 1099.533 1128.233 1097.6 1125.6 C 1098.667 1117.2 1103.75 1111.467 1112.85 1108.4 C 1104.183 1106.367 1097.9 1101.083 1094 1092.55 C 1090.1 1083.95 1091.467 1074.367 1098.1 1063.8 C 1104.767 1053.233 1113.3 1050.583 1123.7 1055.85 C 1134.133 1061.083 1139.683 1073.1 1140.35 1091.9 L 1158.65 1091.9 C 1159.317 1073.1 1164.867 1061.083 1175.3 1055.85 C 1185.7 1050.583 1194.233 1053.233 1200.9 1063.8 C 1207.533 1074.367 1208.9 1083.95 1205 1092.55 C 1201.1 1101.083 1194.817 1106.367 1186.15 1108.4 C 1195.25 1111.467 1200.35 1117.2 1201.45 1125.6"/>
    <path stroke="none" fill="#383838" d="M 1153.95 1106.95 L 1154.8 1107.95 L 1156.85 1109.45 C 1157.783 1109.883 1158.8 1110.1 1159.9 1110.1 C 1161.9 1110.1 1163.617 1109.383 1165.05 1107.95 L 1166.3 1106.3 L 1166.8 1105.85 L 1167.5 1105.9 L 1172.2 1108.35 L 1172.65 1108.85 L 1172.6 1109.5 L 1171.1 1111.8 L 1170.05 1112.95 C 1167.217 1115.75 1163.833 1117.15 1159.9 1117.15 C 1155.967 1117.15 1152.6 1115.75 1149.8 1112.95 L 1149.5 1112.65 L 1149.2 1112.95 C 1146.367 1115.75 1142.983 1117.15 1139.05 1117.15 C 1135.083 1117.15 1131.717 1115.75 1128.95 1112.95 L 1127.9 1111.8 L 1126.4 1109.6 C 1126.267 1109.367 1126.25 1109.15 1126.35 1108.95 C 1126.383 1108.717 1126.517 1108.533 1126.75 1108.4 L 1131.35 1105.85 L 1132 1105.75 L 1132.55 1106.2 L 1133.9 1107.95 C 1135.333 1109.383 1137.05 1110.1 1139.05 1110.1 C 1140.15 1110.1 1141.183 1109.883 1142.15 1109.45 C 1142.883 1109.083 1143.567 1108.583 1144.2 1107.95 L 1145.05 1106.95 C 1148.15 1108.117 1151.117 1108.117 1153.95 1106.95"/>
    <path stroke="none" fill="#545454" d="M 1136.65 1096.95 L 1136.45 1094.6 L 1136.45 1093.7 C 1136.65 1092.1 1137.917 1090.733 1140.25 1089.6 C 1142.817 1088.367 1145.9 1087.75 1149.5 1087.75 C 1153.1 1087.75 1156.183 1088.367 1158.75 1089.6 C 1161.05 1090.733 1162.317 1092.1 1162.55 1093.7 L 1162.55 1094.6 L 1162.35 1096.95 C 1161.883 1095.683 1160.683 1094.567 1158.75 1093.6 C 1156.183 1092.367 1153.1 1091.75 1149.5 1091.75 C 1145.9 1091.75 1142.817 1092.367 1140.25 1093.6 C 1138.317 1094.533 1137.117 1095.65 1136.65 1096.95"/>
    <path stroke="none" fill="#464646" d="M 1136.65 1096.95 C 1137.117 1095.65 1138.317 1094.533 1140.25 1093.6 C 1142.817 1092.367 1145.9 1091.75 1149.5 1091.75 C 1153.1 1091.75 1156.183 1092.367 1158.75 1093.6 C 1160.683 1094.567 1161.883 1095.683 1162.35 1096.95 C 1161.917 1099.583 1160.717 1101.883 1158.75 1103.85 C 1157.317 1105.283 1155.717 1106.317 1153.95 1106.95 C 1151.117 1108.117 1148.15 1108.117 1145.05 1106.95 C 1143.283 1106.317 1141.683 1105.283 1140.25 1103.85 C 1138.283 1101.883 1137.083 1099.583 1136.65 1096.95"/>
    <path stroke="none" fill="#FFFFFF" d="M 1191.25 1084 C 1191.183 1082.433 1190.35 1081.083 1188.75 1079.95 C 1187.083 1078.817 1185.033 1078.25 1182.6 1078.25 C 1180.233 1078.25 1178.183 1078.817 1176.45 1079.95 C 1174.85 1081.083 1174.017 1082.433 1173.95 1084 L 1173.95 1084.3 C 1174.017 1085.867 1174.85 1087.183 1176.45 1088.25 C 1178.183 1089.417 1180.233 1090 1182.6 1090 C 1185.033 1090 1187.083 1089.417 1188.75 1088.25 C 1190.35 1087.183 1191.183 1085.867 1191.25 1084.3 L 1191.25 1084 M 1103 1083.95 C 1103 1080.483 1104.217 1077.533 1106.65 1075.1 C 1109.083 1072.667 1112.033 1071.45 1115.5 1071.45 C 1118.9 1071.45 1121.833 1072.667 1124.3 1075.1 C 1126.733 1077.533 1127.95 1080.483 1127.95 1083.95 C 1127.95 1087.383 1126.733 1090.3 1124.3 1092.7 C 1121.833 1095.167 1118.9 1096.4 1115.5 1096.4 C 1112.033 1096.4 1109.083 1095.167 1106.65 1092.7 C 1104.217 1090.3 1103 1087.383 1103 1083.95 M 1107.7 1084 L 1107.7 1084.3 C 1107.767 1085.867 1108.617 1087.183 1110.25 1088.25 C 1111.917 1089.417 1113.967 1090 1116.4 1090 C 1118.767 1090 1120.8 1089.417 1122.5 1088.25 C 1124.133 1087.183 1124.983 1085.867 1125.05 1084.3 L 1125.05 1084 C 1124.983 1082.433 1124.133 1081.083 1122.5 1079.95 C 1120.8 1078.817 1118.767 1078.25 1116.4 1078.25 C 1113.967 1078.25 1111.917 1078.817 1110.25 1079.95 C 1108.617 1081.083 1107.767 1082.433 1107.7 1084 M 1196 1083.95 C 1196 1087.383 1194.783 1090.3 1192.35 1092.7 C 1189.917 1095.167 1186.967 1096.4 1183.5 1096.4 C 1180.1 1096.4 1177.167 1095.167 1174.7 1092.7 C 1172.267 1090.3 1171.05 1087.383 1171.05 1083.95 C 1171.05 1080.483 1172.267 1077.533 1174.7 1075.1 C 1177.167 1072.667 1180.1 1071.45 1183.5 1071.45 C 1186.967 1071.45 1189.917 1072.667 1192.35 1075.1 C 1194.783 1077.533 1196 1080.483 1196 1083.95"/>
    <path stroke="none" fill="#5B5B5B" d="M 1107.7 1084 C 1107.767 1082.433 1108.617 1081.083 1110.25 1079.95 C 1111.917 1078.817 1113.967 1078.25 1116.4 1078.25 C 1118.767 1078.25 1120.8 1078.817 1122.5 1079.95 C 1124.133 1081.083 1124.983 1082.433 1125.05 1084 L 1125.05 1084.3 C 1124.983 1085.867 1124.133 1087.183 1122.5 1088.25 C 1120.8 1089.417 1118.767 1090 1116.4 1090 C 1113.967 1090 1111.917 1089.417 1110.25 1088.25 C 1108.617 1087.183 1107.767 1085.867 1107.7 1084.3 L 1107.7 1084 M 1191.25 1084 L 1191.25 1084.3 C 1191.183 1085.867 1190.35 1087.183 1188.75 1088.25 C 1187.083 1089.417 1185.033 1090 1182.6 1090 C 1180.233 1090 1178.183 1089.417 1176.45 1088.25 C 1174.85 1087.183 1174.017 1085.867 1173.95 1084.3 L 1173.95 1084 C 1174.017 1082.433 1174.85 1081.083 1176.45 1079.95 C 1178.183 1078.817 1180.233 1078.25 1182.6 1078.25 C 1185.033 1078.25 1187.083 1078.817 1188.75 1079.95 C 1190.35 1081.083 1191.183 1082.433 1191.25 1084"/>
  </g>
</svg>