<svg id="Tracked" xmlns="http://www.w3.org/2000/svg" width="100%" height="100%" viewBox="0 0 32 32">
  <defs>

  </defs>
  <path id="Tracked-2" data-name="Tracked" class="cls-1" d="M310.85,512.2A3.893,3.893,0,0,0,308,511a4.1,4.1,0,0,0-4,4,3.893,3.893,0,0,0,1.2,2.85A3.811,3.811,0,0,0,308,519a3.929,3.929,0,0,0,4-4,3.811,3.811,0,0,0-1.15-2.8M308,507l-6-6,2-2,4,4,4-4,2,2-6,6m6,8a5.975,5.975,0,1,1-1.75-4.25A5.786,5.786,0,0,1,314,515m2,0,6-6,2,2-4,4,4,4-2,2-6-6m-16,0-6,6-2-2,4-4-4-4,2-2,6,6m8,8,6,6-2,2-4-4-4,4-2-2,6-6" transform="translate(-292 -499)"/>
</svg>
